DBRep_DrawableShape

CASCADE Topology V1, (c) Matra-Datavision
Locations 62
1
              1               0               0              -0 
              0               1               0               1 
              0               0               1              -0 
1
              1               0               0               0 
              0               1               0              -1 
              0               0               1               0 
2  1 1 2 1 0
1
              1               0               0              -0 
              0               1               0               1 
              0               0               1              -0 
1
              1               0               0               0 
              0               1               0              -1 
              0               0               1               0 
2  4 1 5 1 0
1
              1               0               0               1 
              0               1               0              -0 
              0               0               1              -0 
1
              1               0               0              -1 
              0               1               0               0 
              0               0               1               0 
2  7 1 8 1 0
2  7 -1 0
2  8 -1 7 -1 0
1
              1               0               0               1 
              0               1               0              -0 
              0               0               1              -0 
1
              1               0               0              -1 
              0               1               0               0 
              0               0               1               0 
2  12 1 13 1 0
2  12 -1 0
2  13 -1 12 -1 0
2  1 -1 0
2  2 -1 1 -1 0
1
              1               0               0              -1 
              0               1               0              -0 
              0               0               1              -0 
1
              1               0               0               1 
              0               1               0               0 
              0               0               1               0 
2  19 1 20 1 0
1
              1               0               0              -1 
              0               1               0              -0 
              0               0               1              -0 
1
              1               0               0               1 
              0               1               0               0 
              0               0               1               0 
2  22 1 23 1 0
2  4 -1 0
2  5 -1 4 -1 0
1
              1               0               0              -1 
              0               1               0              -0 
              0               0               1              -0 
1
              1               0               0               1 
              0               1               0               0 
              0               0               1               0 
2  27 1 28 1 0
1
              1               0               0              -0 
              0               1               0              -1 
              0               0               1              -0 
1
              1               0               0               0 
              0               1               0               1 
              0               0               1               0 
2  30 1 31 1 0
2  30 -1 0
2  31 -1 30 -1 0
1
              1               0               0              -0 
              0               1               0              -1 
              0               0               1              -0 
1
              1               0               0               0 
              0               1               0               1 
              0               0               1               0 
2  35 1 36 1 0
2  35 -1 0
2  36 -1 35 -1 0
2  19 -1 0
2  20 -1 19 -1 0
2  22 -1 0
2  23 -1 22 -1 0
2  19 1 20 1 30 -1 0
2  4 1 7 -1 0
2  7 1 30 -1 0
2  30 1 7 -1 0
2  1 1 20 -1 19 -1 0
2  27 -1 0
2  28 -1 27 -1 0
2  1 1 12 -1 0
2  35 1 12 -1 0
2  12 1 35 -1 0
2  19 1 1 -1 0
2  12 1 1 -1 0
2  4 1 22 -1 0
2  7 1 4 -1 0
2  30 1 19 -1 0
2  22 1 4 -1 0
2  1 1 19 -1 0
2  35 1 27 -1 0
2  27 1 35 -1 0
Curve2ds 253
1 0 0 1 0 
1 0 0 1 0 
1 0 0 0 -1 
1 1 0 0 -1 
1 5 -1 0 1 
1 1 -5 0.99227787671366774 0.12403473458920847 
1 0 0 1 0 
1 0 -1 1 0 
1 5 -1 -0.12403473458920847 -0.99227787671366774 
1 9 -4 1 0 
1 0 0 1 0 
1 0 -1 1 0 
1 4 -9 0 -1 
1 0 -10 1 0 
1 0 0 1 0 
1 9 -3 1 0 
1 0 0 1 0 
1 0 -1 1 0 
1 3 -9 0 -1 
1 1 -4 0.99227787671366774 0.12403473458920847 
1 0 0 1 0 
1 0 -1 1 0 
1 4 -1 -0.12403473458920847 -0.99227787671366774 
1 0 0 0 -1 
1 1 0 0 -1 
1 4 -1 0 1 
1 1 4 -1 0 
1 -4 1 -0 -1 
1 0 0 1 0 
1 0 -1 1 0 
1 4 1 0 -1 
1 9 5 -0.99227787671366774 -0.12403473458920847 
1 -5 9 0.12403473458920847 -0.99227787671366774 
1 0 0 1 0 
1 -0 -1 1 0 
1 5 9 -0.12403473458920847 -0.99227787671366774 
1 0 0 0 -1 
1 3 0 0 -1 
1 5 9 0 1 
1 0 0 1 0 
1 0 10 1 0 
1 2 0 0 -1 
1 1 0 0 -1 
1 6 9 0 1 
1 9 6 -0.99227787671366774 -0.12403473458920847 
1 0 0 1 0 
1 -0 -1 1 0 
1 6 9 -0.12403473458920847 -0.99227787671366774 
1 1 5 -1 0 
1 0 0 1 0 
1 0 -1 1 0 
1 5 1 0 -1 
1 8.0622577482985509 0 -0 -1 
1 0 0 0 -1 
1 0 0 0 -1 
1 8.0622577482985509 0 0 -1 
1 0 0 0 -1 
1 0 0 0 -1 
1 1 0 0 -1 
1 4 1 0 -1 
1 0 0 0 -1 
1 0 -10 1 0 
1 0 10 1 0 
1 9 -3 1 0 
1 0 0 1 0 
1 0 -1 1 0 
1 3 9 0 1 
1 1 -4 0.99227787671366774 0.12403473458920847 
1 0 0 1 0 
1 0 -1 1 0 
1 4 1 -0.12403473458920847 0.99227787671366774 
1 0 0 0 -1 
1 1 0 0 -1 
1 3 1 0 -1 
1 9 -2 -0.99227787671366774 -0.12403473458920847 
1 0 0 1 0 
1 0 -1 1 0 
1 2 9 0.12403473458920847 -0.99227787671366774 
1 2 9 0.12403473458920847 -0.99227787671366774 
1 0 0 0 -1 
1 1 0 0 -1 
1 2 9 0 1 
1 8.0622577482985509 0 0 -1 
1 0 0 0 -1 
1 0 0 0 -1 
1 8.0622577482985509 0 -0 -1 
1 0 0 0 -1 
1 0 5 1 0 
1 0 0 1 0 
1 0 -1 1 0 
1 5 0 0 -1 
1 -0 -1 0 1 
1 0 0 0 -1 
1 1 0 0 -1 
1 1 6 -1 0 
1 0 -0 1 0 
1 0 -1 1 0 
1 6 -1 0 1 
1 8 7 -0.98994949366116658 -0.14142135623730953 
1 0 0 1 0 
1 0 -1 1 0 
1 7 -8 -0.14142135623730953 0.98994949366116658 
1 8 7 0 1 
1 0 0 1 0 
1 0 -1 1 0 
1 7 -8 1 0 
1 8 0 0 -1 
1 10 0 0 1 
1 10 -3 0 -1 
1 0 0 1 0 
1 0 -1 1 0 
1 3 -9 1 0 
1 8 6 1 0 
1 0 0 1 0 
1 0 -1 1 0 
1 6 -8 0 -1 
1 1 5 0.98994949366116658 0.14142135623730953 
1 0 0 1 0 
1 0 -1 1 0 
1 5 -1 0.14142135623730953 -0.98994949366116658 
1 0 -0 0 -1 
1 7.0710678118654755 0 0 -1 
1 0 0 -0 -1 
1 1 -8 0 1 
1 0 0 1 0 
1 0 -1 1 0 
1 1 8 0 -1 
1 1 -8 0 1 
1 0 -0 1 0 
1 0 -1 1 0 
1 9 -8 0 1 
1 10 -8 -1 0 
1 0 0 1 0 
1 0 -1 1 0 
1 1 10 0 -1 
1 8.0622577482985509 0 0 -1 
1 0 0 0 -1 
1 10 0 0 1 
1 0 10 -1 0 
1 0 0 1 0 
1 0 -1 1 0 
1 0 -1 1 0 
1 2 2 -1 0 
1 0 -0 1 0 
1 0 -1 1 0 
1 2 -2 0 1 
1 9 3 -0.98994949366116658 -0.14142135623730953 
1 0 0 1 0 
1 0 -1 1 0 
1 3 -9 -0.14142135623730953 0.98994949366116658 
1 0 0 0 -1 
1 1 0 0 -1 
1 3 -9 0 -1 
1 9 2 1 0 
1 2 -9 0 -1 
1 0 0 1 0 
1 0 -1 1 0 
1 2 -9 0 -1 
1 2 1 0.98994949366116658 0.14142135623730953 
1 0 0 1 0 
1 0 -1 1 0 
1 1 -2 0.14142135623730953 -0.98994949366116658 
1 1 -2 0.14142135623730953 -0.98994949366116658 
1 2 0 0 1 
1 0 -2 1 0 
1 0 0 1 0 
1 0 -1 1 0 
1 0 -2 1 0 
1 0 0 0 -1 
1 10 0 0 1 
1 0 0 0 -1 
1 7.0710678118654755 0 0 -1 
1 0 0 0 -1 
1 1 0 0 -1 
1 0 0 1 0 
1 0 -1 1 0 
1 0 1 -1 0 
1 10 0 -1 0 
1 0 0 1 0 
1 0 -1 1 0 
1 1 10 0 -1 
1 1 -3 0 1 
1 0 -0 1 0 
1 0 -1 1 0 
1 3 1 -1 0 
1 9 -3 0 1 
1 9 2 0 1 
1 -2 9 -1 0 
1 0 0 1 0 
1 0 -1 1 0 
1 1 2 0 1 
1 10 2 -1 0 
1 -2 10 -0 -1 
1 0 0 1 0 
1 0 -1 1 0 
1 1 -1 0 1 
1 0 0 1 0 
1 0 0 1 0 
1 0 -1 1 0 
1 0 0 0 1 
1 0 1 1 0 
1 7.0710678118654755 0 0 -1 
1 0 0 0 -1 
1 0 0 0 -1 
1 0 0 0 -1 
1 0 -0 0 -1 
1 1 0 0 -1 
1 9 8 1 0 
1 8 8 -1 0 
1 0 -0 1 0 
1 0 -1 1 0 
1 9 8 0 -1 
1 0 8 1 0 
1 0 0 1 0 
1 0 -1 1 0 
1 0 1 1 0 
1 10 -8 -1 0 
1 0 0 1 0 
1 0 -1 1 0 
1 10 9 -1 0 
1 9 6 0 -1 
1 0 0 1 0 
1 0 -1 1 0 
1 9 -6 0 1 
1 0 0 0 -1 
1 1 0 0 -1 
1 9 -6 1 0 
1 9 8 0 -1 
1 0 0 1 0 
1 0 -1 1 0 
1 1 8 0 -1 
1 7.0710678118654755 0 0 -1 
1 0 -0 0 -1 
1 0 0 0 -1 
1 1 0 0 -1 
1 8 0 0 -1 
1 0 0 0 -1 
1 9 2 1 0 
1 1 0 1 0 
1 0 0 1 0 
1 0 -1 1 0 
1 0 1 0 1 
1 1 9 1 0 
1 10 0 -1 0 
1 0 -0 1 0 
1 0 -1 1 0 
1 0 -10 0 1 
1 9 10 0 -1 
1 9 0 0 -1 
1 0 0 1 0 
1 0 -1 1 0 
1 0 9 1 0 
1 0 -9 1 0 
Curves 70
1 0 0 0 0 0 1 
1 0 1 5 0 -1 0 
1 0 1 5 0 0.99227787671366774 -0.12403473458920847 
1 0 9 4 0 1 0 
1 0 10 0 0 0 1 
1 0 9 3 0 1 0 
1 0 1 4 0 0.99227787671366774 -0.12403473458920847 
1 0 1 4 0 -1 0 
1 1 0 4 -1 0 0 
1 9 0 5 -0.99227787671366774 0 -0.12403473458920847 
1 9 0 5 1 0 0 
1 10 0 0 0 0 1 
1 9 0 6 1 0 0 
1 9 0 6 -0.99227787671366774 0 -0.12403473458920847 
1 1 0 5 -1 0 0 
1 1 1 5 0 -1 0 
1 1 9 4 -1 0 0 
1 1 10 4 -1 0 0 
1 10 10 0 0 0 1 
1 9 10 3 1 0 0 
1 1 10 4 0.99227787671366774 0 -0.12403473458920847 
1 1 10 3 -1 0 0 
1 9 10 2 -0.99227787671366774 0 0.12403473458920847 
1 9 10 2 1 0 0 
1 1 9 3 -1 0 0 
1 1 1 4 0 -1 0 
1 10 0 5 0 1 0 
1 9 1 5 1 0 0 
1 10 1 6 0 -1 0 
1 10 8 7 0 -0.98994949366116647 -0.1414213562373095 
1 10 8 7 0 0 1 
1 10 0 8 -0 1 0 
1 10 10 3 0 0 1 
1 10 8 6 0 1 0 
1 10 1 5 0 0.98994949366116647 0.1414213562373095 
1 9 1 6 1 0 0 
1 0 1 8 0 0 -1 
1 1 10 8 0 0 -1 
1 0 10 8 0 -1 0 
1 9 9 3 0 1 0 
1 10 0 0 0 0 1 
1 10 2 2 0 -1 0 
1 10 9 3 0 -0.98994949366116647 -0.1414213562373095 
1 10 9 3 0 1 0 
1 10 9 2 0 1 0 
1 10 2 1 0 0.98994949366116647 0.1414213562373095 
1 10 2 0 0 0 1 
1 10 0 0 -0 1 0 
1 9 9 2 1 0 0 
1 0 1 0 0 0 1 
1 0 10 0 0 -1 0 
1 1 10 3 0 0 -1 
1 9 0 2 0 0 1 
1 10 0 2 -1 0 0 
1 0 0 0 1 0 0 
1 9 8 6 1 0 0 
1 9 8 7 1 0 0 
1 9 8 8 1 0 0 
1 10 8 8 0 -1 0 
1 0 0 8 1 0 0 
1 10 10 8 -1 0 0 
1 10 9 6 0 0 -1 
1 9 9 6 1 0 0 
1 9 0 8 0 0 -1 
1 9 2 2 1 0 0 
1 9 2 1 1 0 0 
1 9 2 0 1 0 0 
1 1 10 0 1 0 0 
1 10 10 0 0 -1 0 
1 9 10 0 0 0 1 
Polygon3D 0
PolygonOnTriangulations 297
2 1 2 
p 0.00400000008 1 4 5 
2 2 3 
p 0.00400000008 1 4 5 
2 1 2 
p 0.00400000008 1 4 5 
2 6 2 
p 0.00400000008 1 0 1 
2 4 3 
p 0.00400000008 1 0 1 
2 8 2 
p 0.00400000008 1 0 1 
2 8 2 
p 0.00400000008 1 0 1 
2 6 5 
p 0.00400000008 1 0 8.06225774829855 
2 2 3 
p 0.00400000008 1 0 8.06225774829855 
2 2 3 
p 0.00400000008 1 0 8.06225774829855 
2 8 7 
p 0.00400000008 1 0 8.06225774829855 
2 8 7 
p 0.00400000008 1 0 8.06225774829855 
2 5 4 
p 0.00400000008 1 0 1 
2 2 3 
p 0.00400000008 1 0 1 
2 1 4 
p 0.00400000008 1 0 1 
2 5 4 
p 0.00400000008 1 0 1 
2 2 3 
p 0.00400000008 1 0 1 
2 7 6 
p 0.00400000008 1 0 1 
2 7 6 
p 0.00400000008 1 0 1 
2 5 6 
p 0.00400000008 1 3 4 
2 7 8 
p 0.00400000008 1 3 4 
2 5 6 
p 0.00400000008 1 3 4 
2 4 5 
p 0.00400000008 1 0 1 
2 2 3 
p 0.00400000008 1 0 1 
2 1 4 
p 0.00400000008 1 0 1 
2 2 3 
p 0.00400000008 1 0 1 
2 2 3 
p 0.00400000008 1 0 1 
2 3 4 
p 0.00400000008 1 0 8.06225774829855 
2 2 3 
p 0.00400000008 1 0 8.06225774829855 
2 2 3 
p 0.00400000008 1 0 8.06225774829855 
2 3 1 
p 0.00400000008 1 0 1 
2 4 3 
p 0.00400000008 1 0 1 
2 1 2 
p 0.00400000008 1 0 1 
2 2 3 
p 0.00400000008 1 0 1 
2 2 3 
p 0.00400000008 1 0 1 
2 1 4 
p 0.00400000008 1 0 1 
2 2 3 
p 0.00400000008 1 0 1 
2 8 1 
p 0.00400000008 1 0 8.06225774829855 
2 1 3 
p 0.00400000008 1 0 8.06225774829855 
2 1 3 
p 0.00400000008 1 0 8.06225774829855 
2 8 7 
p 0.00400000008 1 0 1 
2 1 2 
p 0.00400000008 1 0 1 
2 8 7 
p 0.00400000008 1 5 6 
2 1 2 
p 0.00400000008 1 5 6 
2 7 6 
p 0.00400000008 1 5 6 
2 6 2 
p 0.00400000008 1 0 1 
2 4 3 
p 0.00400000008 1 0 1 
2 6 7 
p 0.00400000008 1 0 1 
2 5 6 
p 0.00400000008 1 0 1 
2 6 5 
p 0.00400000008 1 0 8.06225774829855 
2 2 3 
p 0.00400000008 1 0 8.06225774829855 
2 2 3 
p 0.00400000008 1 0 8.06225774829855 
2 6 5 
p 0.00400000008 1 0 8.06225774829855 
2 5 4 
p 0.00400000008 1 0 8.06225774829855 
2 5 4 
p 0.00400000008 1 0 1 
2 2 3 
p 0.00400000008 1 0 1 
2 1 4 
p 0.00400000008 1 0 1 
2 5 4 
p 0.00400000008 1 0 1 
2 2 3 
p 0.00400000008 1 0 1 
2 5 4 
p 0.00400000008 1 0 1 
2 4 3 
p 0.00400000008 1 0 1 
2 1 2 
p 0.00400000008 1 0 1 
2 4 3 
p 0.00400000008 1 0 1 
2 1 4 
p 0.00400000008 1 0 1 
2 1 2 
p 0.00400000008 1 0 1 
2 1 2 
p 0.00400000008 1 0 1 
2 4 3 
p 0.00400000008 1 0 1 
2 1 2 
p 0.00400000008 1 0 1 
2 1 4 
p 0.00400000008 1 0 8.06225774829855 
2 2 4 
p 0.00400000008 1 0 8.06225774829855 
2 4 3 
p 0.00400000008 1 0 1 
2 5 4 
p 0.00400000008 1 0 1 
2 7 6 
p 0.00400000008 1 0 1 
2 9 8 
p 0.00400000008 1 0 1 
2 7 6 
p 0.00400000008 1 0 1 
2 1 4 
p 0.00400000008 1 0 1 
2 1 2 
p 0.00400000008 1 0 1 
2 1 2 
p 0.00400000008 1 0 1 
2 1 2 
p 0.00400000008 1 2 3 
2 6 7 
p 0.00400000008 1 2 3 
2 6 7 
p 0.00400000008 1 2 3 
2 1 2 
p 0.00400000008 1 2 3 
2 1 2 
p 0.00400000008 1 2 3 
2 6 2 
p 0.00400000008 1 0 1 
2 2 3 
p 0.00400000008 1 0 1 
2 1 4 
p 0.00400000008 1 0 1 
2 5 4 
p 0.00400000008 1 0 1 
2 2 3 
p 0.00400000008 1 0 1 
2 8 2 
p 0.00400000008 1 0 1 
2 10 2 
p 0.00400000008 1 0 1 
2 8 2 
p 0.00400000008 1 0 1 
2 5 6 
p 0.00400000008 1 0 8.06225774829855 
2 2 3 
p 0.00400000008 1 0 8.06225774829855 
2 2 3 
p 0.00400000008 1 0 8.06225774829855 
2 7 8 
p 0.00400000008 1 0 8.06225774829855 
2 9 10 
p 0.00400000008 1 0 8.06225774829855 
2 7 8 
p 0.00400000008 1 0 8.06225774829855 
2 4 5 
p 0.00400000008 1 0 1 
2 4 3 
p 0.00400000008 1 0 1 
2 3 4 
p 0.00400000008 1 0 8.06225774829855 
2 2 3 
p 0.00400000008 1 0 8.06225774829855 
2 3 1 
p 0.00400000008 1 0 1 
2 4 3 
p 0.00400000008 1 0 1 
2 1 2 
p 0.00400000008 1 0 1 
2 4 3 
p 0.00400000008 1 0 1 
2 1 4 
p 0.00400000008 1 0 1 
2 4 3 
p 0.00400000008 1 0 1 
2 1 2 
p 0.00400000008 1 0 1 
2 1 4 
p 0.00400000008 1 0 1 
2 1 2 
p 0.00400000008 1 0 1 
2 1 4 
p 0.00400000008 1 0 8.06225774829855 
2 2 3 
p 0.00400000008 1 0 8.06225774829855 
2 1 2 
p 0.00400000008 1 0 1 
2 4 3 
p 0.00400000008 1 0 1 
2 1 2 
p 0.00400000008 1 0 1 
2 1 4 
p 0.00400000008 1 0 1 
2 1 2 
p 0.00400000008 1 0 1 
2 2 4 
p 0.00400000008 1 0 8.06225774829855 
2 2 3 
p 0.00400000008 1 0 8.06225774829855 
2 4 3 
p 0.00400000008 1 0 1 
2 1 2 
p 0.00400000008 1 0 1 
2 5 4 
p 0.00400000008 1 0 1 
2 1 4 
p 0.00400000008 1 0 1 
2 2 3 
p 0.00400000008 1 0 1 
2 1 3 
p 0.00400000008 1 0 1 
2 2 3 
p 0.00400000008 1 0 1 
2 7 2 
p 0.00400000008 1 0 1 
2 2 3 
p 0.00400000008 1 0 1 
2 1 4 
p 0.00400000008 1 0 1 
2 5 4 
p 0.00400000008 1 0 1 
2 2 3 
p 0.00400000008 1 0 1 
2 9 2 
p 0.00400000008 1 0 1 
2 9 2 
p 0.00400000008 1 0 1 
2 6 7 
p 0.00400000008 1 0 7.07106781186548 
2 2 3 
p 0.00400000008 1 0 7.07106781186548 
2 1 5 
p 0.00400000008 1 0 7.07106781186548 
2 1 4 
p 0.00400000008 1 0 7.07106781186548 
2 2 3 
p 0.00400000008 1 0 7.07106781186548 
2 8 9 
p 0.00400000008 1 0 7.07106781186548 
2 8 9 
p 0.00400000008 1 0 7.07106781186548 
2 6 5 
p 0.00400000008 1 0 1 
2 2 3 
p 0.00400000008 1 0 1 
2 1 2 
p 0.00400000008 1 0 1 
2 1 4 
p 0.00400000008 1 0 1 
2 1 3 
p 0.00400000008 1 0 1 
2 8 7 
p 0.00400000008 1 0 1 
2 8 7 
p 0.00400000008 1 0 1 
2 7 6 
p 0.00400000008 1 8 9 
2 3 4 
p 0.00400000008 1 8 9 
2 7 6 
p 0.00400000008 1 8 9 
2 5 6 
p 0.00400000008 1 3 5 
2 4 3 
p 0.00400000008 1 3 5 
2 3 1 
p 0.00400000008 1 0 1 
2 1 4 
p 0.00400000008 1 0 1 
2 4 5 
p 0.00400000008 1 0 1 
2 2 3 
p 0.00400000008 1 0 1 
2 3 1 
p 0.00400000008 1 0 1 
2 4 3 
p 0.00400000008 1 0 7.07106781186548 
2 1 4 
p 0.00400000008 1 0 7.07106781186548 
2 3 4 
p 0.00400000008 1 0 7.07106781186548 
2 2 3 
p 0.00400000008 1 0 7.07106781186548 
2 2 3 
p 0.00400000008 1 0 7.07106781186548 
2 1 2 
p 0.00400000008 1 0 1 
2 4 3 
p 0.00400000008 1 0 1 
2 1 4 
p 0.00400000008 1 0 1 
2 1 2 
p 0.00400000008 1 0 1 
2 1 2 
p 0.00400000008 1 0 1 
2 1 4 
p 0.00400000008 1 0 8.06225774829855 
2 2 4 
p 0.00400000008 1 0 8.06225774829855 
2 1 2 
p 0.00400000008 1 0 3 
2 3 4 
p 0.00400000008 1 0 3 
2 1 2 
p 0.00400000008 1 0 3 
2 3 4 
p 0.00400000008 1 0 4 
2 1 2 
p 0.00400000008 1 0 4 
2 1 2 
p 0.00400000008 1 0 4 
2 3 1 
p 0.00400000008 1 1 9 
2 5 6 
p 0.00400000008 1 1 9 
2 4 3 
p 0.00400000008 1 0 1 
2 1 2 
p 0.00400000008 1 0 1 
2 1 4 
p 0.00400000008 1 0 8.06225774829855 
2 2 6 
p 0.00400000008 1 0 8.06225774829855 
2 5 6 
p 0.00400000008 1 0 2 
2 1 2 
p 0.00400000008 1 0 2 
2 5 6 
p 0.00400000008 1 0 2 
2 9 2 
p 0.00400000008 1 0 1 
2 3 4 
p 0.00400000008 1 0 1 
2 5 6 
p 0.00400000008 1 0 7.07106781186548 
2 2 3 
p 0.00400000008 1 0 7.07106781186548 
2 8 9 
p 0.00400000008 1 0 7.07106781186548 
2 8 9 
p 0.00400000008 1 0 7.07106781186548 
2 5 4 
p 0.00400000008 1 0 1 
2 4 3 
p 0.00400000008 1 0 1 
2 8 7 
p 0.00400000008 1 0 1 
2 8 7 
p 0.00400000008 1 0 1 
2 5 6 
p 0.00400000008 1 0 1 
2 2 3 
p 0.00400000008 1 0 1 
2 4 3 
p 0.00400000008 1 0 1 
2 1 4 
p 0.00400000008 1 0 1 
2 5 6 
p 0.00400000008 1 0 1 
2 2 3 
p 0.00400000008 1 0 1 
2 4 5 
p 0.00400000008 1 0 7.07106781186548 
2 2 3 
p 0.00400000008 1 0 7.07106781186548 
2 5 4 
p 0.00400000008 1 0 7.07106781186548 
2 1 4 
p 0.00400000008 1 0 7.07106781186548 
2 4 5 
p 0.00400000008 1 0 7.07106781186548 
2 2 3 
p 0.00400000008 1 0 7.07106781186548 
2 3 4 
p 0.00400000008 1 0 1 
2 2 3 
p 0.00400000008 1 0 1 
2 2 5 
p 0.00400000008 1 0 1 
2 1 4 
p 0.00400000008 1 0 1 
2 3 4 
p 0.00400000008 1 0 1 
2 2 4 
p 0.00400000008 1 0 1 
2 4 5 
p 0.00400000008 1 1 2 
2 1 3 
p 0.00400000008 1 1 2 
2 4 5 
p 0.00400000008 1 1 2 
2 4 5 
p 0.00400000008 1 1 2 
2 1 4 
p 0.00400000008 1 0 1 
2 1 2 
p 0.00400000008 1 0 1 
2 1 2 
p 0.00400000008 1 0 1 
2 1 4 
p 0.00400000008 1 0 1 
2 1 4 
p 0.00400000008 1 0 8.06225774829855 
2 2 4 
p 0.00400000008 1 0 8.06225774829855 
2 1 2 
p 0.00400000008 1 0 1 
2 4 3 
p 0.00400000008 1 0 1 
2 5 1 
p 0.00400000008 1 0 4 
2 4 3 
p 0.00400000008 1 0 4 
2 1 2 
p 0.00400000008 1 0 4 
2 4 1 
p 0.00400000008 1 1 9 
2 1 3 
p 0.00400000008 1 1 9 
2 3 4 
p 0.00400000008 1 0 3 
2 4 3 
p 0.00400000008 1 0 3 
2 7 1 
p 0.00400000008 1 0 3 
2 5 4 
p 0.00400000008 1 0 3 
2 1 2 
p 0.00400000008 1 0 3 
2 6 7 
p 0.00400000008 1 0 1 
2 4 2 
p 0.00400000008 1 0 1 
2 6 1 
p 0.00400000008 1 0 1 
2 3 4 
p 0.00400000008 1 1 10 
2 4 5 
p 0.00400000008 1 1 10 
2 3 4 
p 0.00400000008 1 1 10 
2 1 2 
p 0.00400000008 1 0 1 
2 4 3 
p 0.00400000008 1 0 1 
2 4 3 
p 0.00400000008 1 0 1 
2 4 3 
p 0.00400000008 1 0 7.07106781186548 
2 1 4 
p 0.00400000008 1 0 7.07106781186548 
2 1 2 
p 0.00400000008 1 0 1 
2 1 2 
p 0.00400000008 1 0 1 
2 1 2 
p 0.00400000008 1 0 1 
2 1 2 
p 0.00400000008 1 0 7.07106781186548 
2 1 4 
p 0.00400000008 1 0 7.07106781186548 
2 5 6 
p 0.00400000008 1 0 1 
2 4 3 
p 0.00400000008 1 0 1 
2 6 1 
p 0.00400000008 1 0 1 
2 1 2 
p 0.00400000008 1 0 1 
2 1 3 
p 0.00400000008 1 0 1 
2 6 5 
p 0.00400000008 1 0 7 
2 3 4 
p 0.00400000008 1 0 7 
2 1 6 
p 0.00400000008 1 0 7 
2 1 2 
p 0.00400000008 1 0 7 
2 5 6 
p 0.00400000008 1 1 9 
2 3 1 
p 0.00400000008 1 1 9 
2 6 2 
p 0.00400000008 1 1 9 
2 4 5 
p 0.00400000008 1 0 9 
2 3 1 
p 0.00400000008 1 0 9 
2 3 1 
p 0.00400000008 1 0 9 
2 1 2 
p 0.00400000008 1 0 3 
2 5 6 
p 0.00400000008 1 0 3 
2 1 2 
p 0.00400000008 1 0 3 
2 5 4 
p 0.00400000008 1 0 1 
2 4 3 
p 0.00400000008 1 0 1 
2 1 2 
p 0.00400000008 1 0 2 
2 4 2 
p 0.00400000008 1 0 2 
2 1 2 
p 0.00400000008 1 0 2 
2 1 2 
p 0.00400000008 1 0 1 
2 6 5 
p 0.00400000008 1 0 1 
2 1 2 
p 0.00400000008 1 0 1 
2 4 3 
p 0.00400000008 1 0 1 
2 1 3 
p 0.00400000008 1 0 1 
2 2 7 
p 0.00400000008 1 0 7.07106781186548 
2 1 4 
p 0.00400000008 1 0 7.07106781186548 
2 2 6 
p 0.00400000008 1 0 7.07106781186548 
2 4 3 
p 0.00400000008 1 0 1 
2 1 2 
p 0.00400000008 1 0 1 
2 1 2 
p 0.00400000008 1 0 1 
2 1 4 
p 0.00400000008 1 0 7.07106781186548 
2 4 3 
p 0.00400000008 1 0 7.07106781186548 
2 6 5 
p 0.00400000008 1 0 1 
2 1 2 
p 0.00400000008 1 0 1 
2 6 5 
p 0.00400000008 1 0 1 
2 6 5 
p 0.00400000008 1 0 1 
2 6 5 
p 0.00400000008 1 0 1 
2 1 2 
p 0.00400000008 1 0 8 
2 3 1 
p 0.00400000008 1 0 8 
2 2 6 
p 0.00400000008 1 1 8 
2 1 2 
p 0.00400000008 1 1 8 
2 1 2 
p 0.00400000008 1 0 2 
2 1 3 
p 0.00400000008 1 0 2 
Surfaces 66
1 0 0 0 1 0 -0 0 0 1 0 -1 0 
1 0 0 0 -0 1 0 0 0 1 1 0 -0 
1 0 1 5 -1 0 0 0 0 1 0 1 -0 
1 1 1 5 -0 -0 -1 -1 0 0 0 1 -0 
1 -0 -0 0 -1 0 0 0 1 0 0 0 -1 
1 1 1 5 -0 -0.12403473458920847 -0.99227787671366774 0 0.99227787671366774 -0.12403473458920847 1 -0 0 
1 1 9 4 0 0 -1 0 1 0 1 -0 0 
1 0 10 0 -0 1 0 0 0 1 1 0 -0 
1 -0 -0 0 -1 0 0 0 1 0 0 0 -1 
1 1 9 3 0 0 -1 0 1 0 1 -0 0 
1 1 1 4 -0 -0.12403473458920847 -0.99227787671366774 0 0.99227787671366774 -0.12403473458920847 1 -0 0 
1 0 1 4 1 0 0 0 0 -1 -0 1 0 
1 1 1 4 -0 -0 -1 -1 0 0 0 1 -0 
1 0 -0 -0 0 -1 0 1 0 0 -0 0 1 
1 0 -0 -0 0 -1 0 0 -0 -1 1 0 0 
1 9 1 5 0.12403473458920847 0 -0.99227787671366774 -0.99227787671366774 0 -0.12403473458920847 0 1 0 
1 9 0 5 0 0 1 0 1 0 -1 0 0 
1 9 0 2 0 -1 0 0 0 1 -1 0 0 
1 10 0 0 1 0 -0 0 0 1 0 -1 0 
1 9 0 8 -0 1 0 0 0 -1 -1 0 -0 
1 9 1 6 0 0 -1 0 -1 0 -1 -0 -0 
1 0 -0 -0 0 -1 0 1 0 0 -0 0 1 
1 9 1 6 0.12403473458920847 0 -0.99227787671366774 -0.99227787671366774 0 -0.12403473458920847 0 1 0 
1 1 10 4 0 1 -0 0 0 1 1 -0 0 
1 1 9 4 -0.12403473458920847 0 -0.99227787671366774 0.99227787671366774 0 -0.12403473458920847 0 -1 -0 
1 -0 10 0 0 1 0 1 0 0 0 0 -1 
1 9 9 3 0 0 -1 1 0 0 0 -1 0 
1 1 10 3 -0 -1 -0 0 0 -1 1 -0 0 
1 -0 10 0 0 1 0 1 0 0 0 0 -1 
1 9 9 2 0.12403473458920847 -0 0.99227787671366774 -0.99227787671366774 0 0.12403473458920847 -0 -1 0 
1 -0 10 0 0 1 0 0 -0 1 1 0 -0 
1 9 10 2 -0 1 0 0 0 -1 -1 0 -0 
1 9 9 2 0 0 1 0 1 0 -1 0 0 
1 10 0 -0 1 0 0 -0 1 0 0 -0 1 
1 9 1 5 0 -0.14142135623730953 0.98994949366116658 0 0.98994949366116658 0.14142135623730953 -1 0 0 
1 10 0 -0 1 0 0 -0 1 0 0 -0 1 
1 9 8 7 0 0.14142135623730953 -0.98994949366116658 0 -0.98994949366116658 -0.14142135623730953 -1 0 -0 
1 9 8 7 0 -1 0 0 0 1 -1 0 0 
1 0 0 8 0 0 1 1 0 -0 -0 1 0 
1 10 9 3 1 0 0 0 0 1 0 -1 0 
1 9 8 6 0 0 1 0 1 0 -1 0 0 
1 1 1 8 -0 -1 -0 0 0 -1 1 -0 0 
1 1 9 8 -1 0 0 0 0 -1 -0 -1 -0 
1 1 10 8 0 0 1 0 -1 0 1 0 -0 
1 10 1 0 -1 0 0 0 0 1 0 1 -0 
1 9 2 2 0 0 -1 0 -1 0 -1 -0 -0 
1 9 9 3 0 0.14142135623730953 -0.98994949366116658 0 -0.98994949366116658 -0.14142135623730953 -1 0 -0 
1 10 0 -0 1 0 0 -0 1 0 0 -0 1 
1 10 0 -0 1 0 0 -0 0 1 0 -1 0 
1 9 2 1 0 -0.14142135623730953 0.98994949366116658 0 0.98994949366116658 0.14142135623730953 -1 0 0 
1 9 2 0 0 -1 0 0 0 1 -1 0 0 
1 0 0 0 0 0 1 1 0 -0 -0 1 0 
1 1 1 0 0 1 -0 0 0 1 1 -0 0 
1 1 10 0 0 0 1 0 -1 0 1 0 -0 
1 1 9 3 -1 0 0 0 0 -1 -0 -1 -0 
1 9 1 2 -1 0 0 0 0 1 0 1 -0 
1 10 1 2 -0 -0 -1 -1 0 0 0 1 -0 
1 0 1 0 -0 0 1 1 0 0 0 1 -0 
1 9 8 8 0 0 -1 0 -1 0 -1 -0 -0 
1 0 1 8 -0 0 1 1 0 0 0 1 -0 
1 10 9 8 0 -0 1 -1 0 0 -0 -1 0 
1 9 9 6 -0 1 0 0 0 -1 -1 0 -0 
1 9 1 8 1 0 0 0 0 -1 -0 1 0 
1 9 10 0 0 0 -1 0 -1 0 -1 -0 -0 
1 1 9 0 0 0 -1 1 0 0 0 -1 0 
1 9 9 0 1 0 0 0 0 1 0 -1 0 
Triangulations 80
8 6 1 0.00400000008
0 0 4 0 0 5 0 1 4 0 9 3 0 10 3 0 10 4 0 9 4 0 1 5 4 0 5 0 4 -1 3 -9 3 -10 4 -10 4 -9 5 -1 7 4 5 7 5 6 3 4 7 8 3 7 2 1 3 2 3 8 
8 6 1 0.00400000008
0 0 4 0 0 5 0 1 4 0 1 0 0 10 0 0 10 4 0 9 4 0 1 5 4 0 5 0 4 -1 0 -1 0 -10 4 -10 4 -9 5 -1 7 5 6 4 5 7 3 4 7 8 3 7 2 1 3 2 3 8 
8 6 1 0.00400000008
1 0 4 0 0 4 0 0 5 1 0 5 9 0 6 10 0 6 10 0 5 9 0 5 4 1 4 0 5 0 5 1 6 9 6 10 5 10 5 9 4 1 2 4 2 3 8 1 4 5 8 4 7 8 5 6 7 5 
6 4 1 0.00400000008
0 0 0 0 0 5 0 10 0 0 10 4 0 9 4 0 1 5 0 0 5 0 0 -10 4 -10 4 -9 5 -1 5 3 4 1 3 5 6 1 5 2 1 6 
4 2 1 0.00400000008
1 1 5 1 0 5 0 0 5 0 1 5 0 0 0 -1 1 -1 1 0 4 1 2 4 2 3 
4 2 1 0.00400000008
1 1 5 0 1 5 0 9 4 1 9 4 0 0 0 -1 8.06225774829855 -1 8.06225774829855 0 4 1 2 4 2 3 
4 2 1 0.00400000008
1 1 5 0 1 5 0 9 4 1 9 4 0 0 0 -1 8.06225774829855 -1 8.06225774829855 0 4 1 2 4 2 3 
4 2 1 0.00400000008
1 9 4 0 9 4 0 10 4 1 10 4 0 0 0 -1 1 -1 1 0 4 1 2 4 2 3 
5 3 1 0.00400000008
1 1 8 1 1 5 1 10 8 1 10 4 1 9 4 1 -8 1 -5 10 -8 10 -4 9 -4 5 2 1 5 1 3 4 5 3 
4 2 1 0.00400000008
1 9 4 0 9 4 0 10 4 1 10 4 0 0 0 -1 1 -1 1 0 4 1 2 4 2 3 
10 8 1 0.00400000008
10 10 2 10 10 3 9 10 2 9 10 0 1 10 0 1 10 3 0 10 3 0 10 4 1 10 4 9 10 3 2 10 3 10 2 9 0 9 0 1 3 1 3 0 4 0 4 1 3 9 9 6 7 9 7 8 3 4 5 3 5 6 10 3 6 10 6 9 2 1 3 2 3 10 
8 6 1 0.00400000008
10 10 2 10 10 3 9 10 2 1 10 3 0 10 3 0 10 4 1 10 4 9 10 3 2 10 3 10 2 9 3 1 3 0 4 0 4 1 3 9 7 4 5 7 5 6 8 3 4 8 4 7 2 1 3 2 3 8 
4 2 1 0.00400000008
1 9 3 0 9 3 0 10 3 1 10 3 0 0 0 -1 1 -1 1 0 4 1 2 4 2 3 
5 3 1 0.00400000008
1 1 4 1 9 3 1 10 3 1 10 0 1 1 0 1 -4 9 -3 10 -3 10 0 1 0 2 5 1 4 2 3 4 5 2 
4 2 1 0.00400000008
1 9 3 0 9 3 0 10 3 1 10 3 0 0 0 -1 1 -1 1 0 4 1 2 4 2 3 
4 2 1 0.00400000008
1 1 4 0 1 4 0 9 3 1 9 3 0 0 0 -1 8.06225774829855 -1 8.06225774829855 0 4 1 2 4 2 3 
4 2 1 0.00400000008
1 1 4 0 1 4 0 9 3 1 9 3 0 0 0 -1 8.06225774829855 -1 8.06225774829855 0 4 1 2 4 2 3 
4 2 1 0.00400000008
1 1 4 1 0 4 0 0 4 0 1 4 0 0 0 -1 1 -1 1 0 4 1 2 4 2 3 
4 2 1 0.00400000008
1 1 4 1 0 4 0 0 4 0 1 4 0 0 0 -1 1 -1 1 0 4 1 2 4 2 3 
7 5 1 0.00400000008
9 1 5 1 1 4 0 1 4 0 1 0 10 1 0 10 1 2 9 1 2 -5 9 -4 1 -4 0 0 0 0 10 -2 10 -2 9 4 2 3 7 1 2 7 2 4 5 6 7 5 7 4 
4 2 1 0.00400000008
9 0 5 9 1 5 1 0 4 1 1 4 0 -1 0 0 8.06225774829855 -1 8.06225774829855 0 4 2 1 4 1 3 
4 2 1 0.00400000008
9 0 5 9 1 5 1 0 4 1 1 4 0 -1 0 0 8.06225774829855 -1 8.06225774829855 0 4 2 1 4 1 3 
4 2 1 0.00400000008
9 0 5 10 0 5 10 1 5 9 1 5 0 0 0 -1 1 -1 1 0 4 1 2 4 2 3 
10 8 1 0.00400000008
10 0 0 10 0 2 0 0 0 0 0 5 1 0 5 9 0 6 10 0 6 10 0 5 9 0 5 9 0 2 0 10 2 10 0 0 5 0 5 1 6 9 6 10 5 10 5 9 2 9 5 3 4 10 1 3 10 3 5 2 1 10 9 10 5 6 9 5 7 8 9 7 9 6 
9 7 1 0.00400000008
10 0 5 10 0 6 10 1 5 10 8 6 10 9 6 10 9 8 10 8 8 10 8 7 10 1 6 5 0 6 0 5 -1 6 -8 6 -9 8 -9 8 -8 7 -8 6 -1 8 4 5 6 8 5 7 8 6 9 3 4 9 4 8 2 1 3 2 3 9 
6 4 1 0.00400000008
10 0 0 10 0 6 0 0 0 0 0 5 1 0 5 9 0 6 0 10 6 10 0 0 5 0 5 1 6 9 5 3 4 1 3 5 6 1 5 2 1 6 
4 2 1 0.00400000008
9 1 6 10 1 6 10 0 6 9 0 6 0 0 0 -1 1 -1 1 0 4 1 2 4 2 3 
4 2 1 0.00400000008
9 1 6 9 0 6 1 0 5 1 1 5 0 0 0 -1 8.06225774829855 -1 8.06225774829855 0 4 1 2 4 2 3 
4 2 1 0.00400000008
9 1 6 9 0 6 1 0 5 1 1 5 0 0 0 -1 8.06225774829855 -1 8.06225774829855 0 4 1 2 4 2 3 
4 2 1 0.00400000008
1 1 5 1 0 5 0 0 5 0 1 5 0 0 0 -1 1 -1 1 0 4 1 2 4 2 3 
5 3 1 0.00400000008
9 1 8 9 1 6 0 1 8 0 1 5 1 1 5 9 8 9 6 0 8 0 5 1 5 3 4 5 1 5 2 1 3 5 
4 2 1 0.00400000008
1 1 8 1 1 5 1 9 8 1 9 4 1 -8 1 -5 9 -8 9 -4 3 2 1 4 2 3 
6 4 1 0.00400000008
10 10 0 10 10 3 0 10 0 0 10 4 1 10 4 9 10 3 0 10 3 10 0 0 4 0 4 1 3 9 5 3 4 6 1 3 6 3 5 2 1 6 
8 6 1 0.00400000008
10 10 2 10 10 3 9 10 2 9 10 0 0 10 0 0 10 4 1 10 4 9 10 3 2 10 3 10 2 9 0 9 0 0 4 0 4 1 3 9 7 5 6 3 4 5 3 5 7 8 3 7 2 1 3 2 3 8 
4 2 1 0.00400000008
1 9 4 1 10 4 9 10 3 9 9 3 0 0 0 -1 8.06225774829855 -1 8.06225774829855 0 4 1 2 4 2 3 
4 2 1 0.00400000008
1 9 4 1 10 4 9 10 3 9 9 3 0 0 0 -1 8.06225774829855 -1 8.06225774829855 0 4 1 2 4 2 3 
9 7 1 0.00400000008
10 0 0 10 0 2 10 2 0 10 2 1 10 9 2 10 10 2 10 10 3 10 9 3 10 2 2 0 0 2 0 0 -2 1 -2 2 -9 2 -10 3 -10 3 -9 2 -2 8 5 6 8 6 7 9 4 5 9 5 8 1 3 4 2 1 4 2 4 9 
9 7 1 0.00400000008
10 1 0 10 1 2 10 2 0 10 2 1 10 9 2 10 10 2 10 10 3 10 9 3 10 2 2 0 -1 2 -1 0 -2 1 -2 2 -9 2 -10 3 -10 3 -9 2 -2 8 5 6 8 6 7 4 1 3 9 4 5 9 5 8 2 4 9 2 1 4 
4 2 1 0.00400000008
9 9 3 9 10 3 10 10 3 10 9 3 0 0 0 -1 1 -1 1 0 4 1 2 4 2 3 
5 3 1 0.00400000008
1 9 8 1 9 4 10 9 8 10 9 3 9 9 3 1 -8 1 -4 10 -8 10 -3 9 -3 5 2 1 5 1 3 4 5 3 
4 2 1 0.00400000008
9 9 3 9 10 3 10 10 3 10 9 3 0 0 0 -1 1 -1 1 0 4 1 2 4 2 3 
4 2 1 0.00400000008
9 9 2 9 10 2 1 10 3 1 9 3 0 0 0 -1 8.06225774829855 -1 8.06225774829855 0 4 1 2 4 2 3 
4 2 1 0.00400000008
9 9 2 10 9 2 10 10 2 9 10 2 0 0 0 -1 1 -1 1 0 4 1 2 4 2 3 
4 2 1 0.00400000008
1 1 0 1 1 4 1 9 3 1 9 0 1 0 1 -4 9 -3 9 0 3 1 2 4 1 3 
6 4 1 0.00400000008
9 1 2 9 1 5 1 1 4 1 1 0 10 1 0 10 1 2 -2 9 -5 9 -4 1 0 1 0 10 -2 10 1 2 3 1 3 4 5 6 1 5 1 4 
4 2 1 0.00400000008
9 1 5 10 1 5 10 8 6 9 8 6 0 0 0 -1 7.07106781186548 -1 7.07106781186548 0 4 1 2 4 2 3 
7 5 1 0.00400000008
9 9 6 9 9 3 9 8 6 9 1 5 9 0 5 9 0 2 9 2 2 9 6 9 3 8 6 1 5 0 5 0 2 2 2 4 5 6 4 6 7 3 7 2 3 4 7 1 3 2 
4 2 1 0.00400000008
9 0 5 10 0 5 10 1 5 9 1 5 0 0 0 -1 1 -1 1 0 4 1 2 4 2 3 
7 5 1 0.00400000008
10 0 0 10 0 6 10 10 0 10 10 8 10 8 8 10 8 7 10 1 6 0 0 6 0 0 -10 8 -10 8 -8 7 -8 6 -1 6 3 4 5 6 4 7 1 3 7 3 6 2 1 7 
4 2 1 0.00400000008
9 1 6 10 1 6 10 0 6 9 0 6 0 0 0 -1 1 -1 1 0 4 1 2 4 2 3 
5 3 1 0.00400000008
10 8 7 10 8 8 10 0 8 10 0 6 10 1 6 8 7 8 8 0 8 0 6 0.999999999999999 6 3 4 5 2 5 1 2 3 5 
9 7 1 0.00400000008
10 0 0 10 0 6 10 10 0 10 10 3 10 9 3 10 9 8 10 8 8 10 8 7 10 1 6 0 0 6 0 0 -10 3 -10 3 -9 8 -9 8 -8 7 -8 6 -1 5 3 4 1 3 5 7 8 6 9 5 8 9 1 5 2 1 9 5 6 8 
4 2 1 0.00400000008
9 8 7 10 8 7 10 1 6 9 1 6 0 0 0 -1 7.07106781186548 -1 7.07106781186548 0 4 1 2 4 2 3 
4 2 1 0.00400000008
9 8 7 10 8 7 10 1 6 9 1 6 0 0 0 -1 7.07106781186548 -1 7.07106781186548 0 4 1 2 4 2 3 
4 2 1 0.00400000008
9 8 7 10 8 7 10 8 8 9 8 8 0 0 0 -1 1 -1 1 0 4 1 2 4 2 3 
4 2 1 0.00400000008
9 8 7 9 1 6 9 8 8 9 1 8 8 7 1 6 8 8 1 8 1 4 2 3 4 1 
6 4 1 0.00400000008
9 8 8 9 1 8 10 8 8 10 9 8 1 9 8 1 1 8 9 8 9 1 10 8 10 9 1 9 1 1 1 5 6 1 6 2 4 1 3 4 5 1 
6 4 1 0.00400000008
1 9 8 1 9 4 10 9 8 10 9 6 9 9 6 9 9 3 1 -8 1 -4 10 -8 10 -6 9 -6 9 -3 5 2 1 5 1 3 4 5 3 6 2 5 
4 2 1 0.00400000008
9 8 6 10 8 6 10 9 6 9 9 6 0 0 0 -1 1 -1 1 0 4 1 2 4 2 3 
6 4 1 0.00400000008
9 9 6 9 9 3 9 8 6 9 1 5 9 1 2 9 2 2 9 6 9 3 8 6 1 5 1 2 2 2 4 5 6 3 6 2 3 4 6 1 3 2 
4 2 1 0.00400000008
9 1 5 10 1 5 10 8 6 9 8 6 0 0 0 -1 7.07106781186548 -1 7.07106781186548 0 4 1 2 4 2 3 
4 2 1 0.00400000008
9 1 8 9 1 6 1 1 8 1 1 5 9 8 9 6 1 8 1 5 2 3 4 1 3 2 
4 2 1 0.00400000008
9 2 2 9 1 2 10 2 2 10 1 2 0 0 1 0 0 -1 1 -1 2 1 3 2 3 4 
6 4 1 0.00400000008
10 0 0 10 0 2 10 10 0 10 10 3 10 9 3 10 2 2 0 0 2 0 0 -10 3 -10 3 -9 2 -2 5 3 4 6 3 5 1 3 6 2 1 6 
4 2 1 0.00400000008
9 9 3 10 9 3 10 2 2 9 2 2 0 0 0 -1 7.07106781186548 -1 7.07106781186548 0 4 1 2 4 2 3 
4 2 1 0.00400000008
9 9 2 10 9 2 10 10 2 9 10 2 0 0 0 -1 1 -1 1 0 4 1 2 4 2 3 
5 3 1 0.00400000008
10 10 0 10 2 0 10 10 2 10 9 2 10 2 1 0 -10 0 -2 2 -10 2 -9 1 -2 4 1 3 2 1 4 5 2 4 
4 2 1 0.00400000008
9 2 1 10 2 1 10 9 2 9 9 2 0 0 0 -1 7.07106781186548 -1 7.07106781186548 0 4 1 2 4 2 3 
4 2 1 0.00400000008
9 2 1 10 2 1 10 9 2 9 9 2 0 0 0 -1 7.07106781186548 -1 7.07106781186548 0 4 1 2 4 2 3 
4 2 1 0.00400000008
9 2 0 10 2 0 10 2 1 9 2 1 0 0 0 -1 1 -1 1 0 4 1 2 4 2 3 
4 2 1 0.00400000008
9 9 0 9 2 0 9 9 2 9 2 1 0 -9 0 -2 2 -9 1 -2 4 2 1 4 1 3 
6 4 1 0.00400000008
0 10 0 9 10 0 0 1 0 10 1 0 10 2 0 9 2 0 0 10 9 10 0 1 10 1 10 2 9 2 6 1 3 6 3 4 5 6 4 2 1 6 
6 4 1 0.00400000008
1 10 0 9 10 0 1 1 0 10 1 0 10 2 0 9 2 0 1 10 9 10 1 1 10 1 10 2 9 2 6 1 3 6 3 4 5 6 4 2 1 6 
6 4 1 0.00400000008
1 9 0 9 9 0 1 1 0 10 1 0 10 2 0 9 2 0 1 9 9 9 1 1 10 1 10 2 9 2 6 1 3 6 3 4 5 6 4 2 1 6 
4 2 1 0.00400000008
9 9 0 9 9 2 1 9 0 1 9 3 0 9 2 9 0 1 3 1 2 1 3 2 3 4 
6 4 1 0.00400000008
0 10 8 10 10 8 0 0 8 9 0 8 9 8 8 10 8 8 0 10 10 10 0 0 9 0 9 8 10 8 5 1 3 5 3 4 2 5 6 2 1 5 
6 4 1 0.00400000008
10 8 8 10 10 8 0 10 8 0 1 8 9 1 8 9 8 8 10 8 10 10 0 10 0 1 9 1 9 8 6 3 4 6 4 5 2 6 1 2 3 6 
6 4 1 0.00400000008
9 8 8 10 8 8 10 10 8 1 10 8 1 1 8 9 1 8 9 8 10 8 10 10 1 10 1 1 9 1 1 4 5 1 5 6 3 1 2 3 4 1 
4 2 1 0.00400000008
9 2 2 10 2 2 10 0 2 9 0 2 0 0 0 -1 2 -1 2 0 4 1 2 4 2 3 
6 4 1 0.00400000008
0 10 0 9 10 0 0 0 0 10 0 0 10 2 0 9 2 0 0 10 9 10 0 0 10 0 10 2 9 2 6 1 3 6 3 4 5 6 4 2 1 6 

TShapes 216
Ve
1.00000000222045e-07
0 0 4
0 0

0101101
*
Ve
1e-07
0 0 5
0 0

0101101
*
Ed
 1e-07 1 1 0
1  1 0 4 5
2  1 1 0 4 5
2  2 2 0 4 5
6  1 2 0
6  2 3 0
6  3 1 0
0

0101000
+216 3 -215 6 *
Ve
1e-07
0 1 5
0 0

0101101
*
Ed
 1e-07 1 1 0
1  2 0 0 1
2  3 3 0 0 1
2  4 4 0 0 1
2  5 1 0 0 1
6  4 4 0
6  5 5 0
6  6 2 0
6  7 1 0
0

0101000
+213 0 -215 6 *
Ve
1e-07
0 9 4
0 0

0101101
*
Ed
 1e-07 1 1 0
1  3 0 0 8.06225774829855
2  6 5 0 0 8.06225774829855
2  7 6 10 0 8.06225774829855
2  8 6 11 0 8.06225774829855
2  9 1 11 0 8.06225774829855
6  8 4 11
6  9 6 11
6  10 7 11
6  11 2 11
6  12 1 11
0

0101000
+213 11 -211 0 *
Ve
1e-07
0 10 4
0 0

0101101
*
Ed
 1e-07 1 1 0
1  4 0 0 1
2  10 5 0 0 1
2  11 7 10 0 1
2  12 7 11 0 1
2  13 1 11 0 1
6  13 4 11
6  14 8 11
6  15 8 10
6  16 9 10
6  17 10 11
6  18 2 11
6  19 1 11
0

0101000
+211 0 -209 0 *
Ve
1e-07
0 10 3
0 0

0101101
*
Ed
 1e-07 1 1 0
1  5 0 3 4
2  14 1 0 3 4
2  15 8 0 3 4
6  20 1 0
6  21 11 0
6  22 12 0
0

0101000
+207 14 -209 9 *
Ve
1e-07
0 9 3
0 0

0101101
*
Ed
 1e-07 1 1 0
1  6 0 0 1
2  16 9 0 0 1
2  17 10 15 0 1
2  18 10 16 0 1
2  19 1 16 0 1
6  23 1 16
6  24 13 16
6  25 13 15
6  26 14 15
6  27 15 16
0

0101000
+205 0 -207 0 *
Ve
1.00000000222045e-07
0 1 4
0 0

0101101
*
Ed
 1e-07 1 1 0
1  7 0 0 8.06225774829855
2  20 9 0 0 8.06225774829855
2  21 11 15 0 8.06225774829855
2  22 11 16 0 8.06225774829855
2  23 1 16 0 8.06225774829855
6  28 1 16
6  29 16 16
6  30 17 16
0

0101000
+203 16 -205 0 *
Ed
 1e-07 1 1 0
1  8 0 0 1
2  24 12 0 0 1
2  25 13 0 0 1
2  26 1 0 0 1
6  31 1 0
6  32 18 0
0

0101000
+203 0 -216 3 *
Wi

0101100
-214 0 +212 0 -210 9 -208 9 +206 0 +204 14 +202 14 -201 0 *
Fa
0  1e-07 1 0
2  1
0111000
+200 0 *
Ve
1e-07
1 0 4
0 0

0101101
*
Ed
 1e-07 1 1 0
1  9 0 0 1
2  27 14 0 0 1
2  28 15 0 0 1
2  29 13 17 0 1
2  30 13 18 0 1
2  31 2 18 0 1
6  33 3 18
6  34 19 18
6  35 20 17
6  36 19 17
6  37 18 18
0

0101000
+198 0 -216 0 *
Ve
1.00000000055511e-07
9 0 5
0 0

0101101
*
Ed
 1e-07 1 1 0
1  10 0 0 8.06225774829855
2  32 14 0 0 8.06225774829855
2  33 15 0 0 8.06225774829855
2  34 16 17 0 8.06225774829855
2  35 16 18 0 8.06225774829855
2  36 2 18 0 8.06225774829855
6  38 3 18
6  39 21 18
6  40 22 18
0

0101000
+196 18 -198 0 *
Ve
1e-07
10 0 5
0 0

0101101
*
Ed
 1e-07 1 1 0
1  11 0 0 1
2  37 17 0 0 1
2  38 18 0 0 1
2  39 2 0 0 1
6  41 3 0
6  42 23 0
0

0101000
+196 0 -194 21 *
Ve
1e-07
10 0 6
0 0

0101101
*
Ed
 1e-07 1 1 0
1  12 0 5 6
2  40 19 0 5 6
2  41 2 0 5 6
6  43 24 0
6  44 25 0
6  45 3 0
0

0101000
+194 21 -192 24 *
Ve
1e-07
9 0 6
0 0

0101101
*
Ed
 1e-07 1 1 0
1  13 0 0 1
2  42 20 0 0 1
2  43 21 0 0 1
2  44 2 0 0 1
6  46 26 0
6  47 27 0
6  48 24 0
6  49 3 0
0

0101000
+190 0 -192 24 *
Ve
1e-07
1 0 5
0 0

0101101
*
Ed
 1e-07 1 1 0
1  14 0 0 8.06225774829855
2  45 22 0 0 8.06225774829855
2  46 23 25 0 8.06225774829855
2  47 23 26 0 8.06225774829855
2  48 2 26 0 8.06225774829855
6  50 26 26
6  51 28 26
6  52 29 26
6  53 24 26
6  54 3 26
0

0101000
+190 26 -188 0 *
Ed
 1e-07 1 1 0
1  15 0 0 1
2  49 22 0 0 1
2  50 4 25 0 1
2  51 4 26 0 1
2  52 2 26 0 1
6  55 26 26
6  56 30 26
6  57 30 25
6  58 31 25
6  59 5 26
6  60 24 26
6  61 3 26
0

0101000
+188 0 -215 0 *
Wi

0101100
+197 3 +195 3 -193 0 -191 0 +189 0 -187 6 -186 6 +214 0 *
Fa
0  1e-07 2 0
2  3
0111000
+185 0 *
Ve
1e-07
1 1 5
0 0

0101101
*
Ed
 1e-07 1 1 0
1  16 0 0 1
2  53 23 0 0 1
2  54 4 0 0 1
6  62 5 0
6  63 29 0
0

0101000
+183 0 -188 6 *
Ed
 1e-07 1 1 0
1  15 0 0 1
2  49 22 0 0 1
2  50 4 25 0 1
2  51 4 26 0 1
2  52 2 26 0 1
6  64 5 25
6  65 6 25
2  55 6 25 0 1
6  66 7 25
0

0101000
+183 25 -213 25 *
Wi

0101100
+182 0 -212 0 -181 4 +186 6 *
Fa
0  1e-07 4 0
2  5
0111000
+180 0 *
Ve
1e-07
1 9 4
0 0

0101101
*
Ed
 1e-07 1 1 0
1  17 0 0 1
2  56 6 0 0 1
2  57 7 0 0 1
6  67 7 0
6  68 10 0
0

0101000
+178 0 -211 9 *
Ed
 1e-07 1 1 0
1  3 0 0 8.06225774829855
2  6 5 0 0 8.06225774829855
2  7 6 10 0 8.06225774829855
2  8 6 11 0 8.06225774829855
6  69 7 10
6  70 32 10
0

0101000
+183 10 -178 10 *
Wi

0101100
+181 4 -177 0 -176 7 +210 9 *
Fa
0  1e-07 6 0
2  7
0111000
+175 0 *
Ve
1e-07
1 10 4
0 0

0101101
*
Ed
 1e-07 1 1 0
1  18 0 0 1
2  58 24 0 0 1
2  59 7 0 0 1
2  60 8 0 0 1
6  71 10 0
6  72 33 0
6  73 34 0
6  74 11 0
6  75 12 0
0

0101000
+173 0 -209 9 *
Ed
 1e-07 1 1 0
1  4 0 0 1
2  10 5 0 0 1
2  11 7 10 0 1
2  12 7 11 0 1
2  13 1 11 0 1
6  76 10 10
6  77 35 10
2  61 25 10 0 1
6  78 36 10
0

0101000
+178 10 -173 10 *
Wi

0101100
+177 0 -172 0 -171 7 +208 9 *
Fa
0  1e-07 7 0
2  10
0111000
+170 0 *
Ve
1.00000000111022e-07
10 10 2
0 0

0101101
*
Ve
1e-07
10 10 3
0 0

0101101
*
Ed
 1e-07 1 1 0
1  19 0 2 3
2  62 19 0 2 3
2  63 8 0 2 3
6  79 34 0
6  80 37 0
6  81 38 0
6  82 11 0
6  83 12 0
0

0101000
+168 29 -167 32 *
Ve
1e-07
9 10 3
0 0

0101101
*
Ed
 1e-07 1 1 0
1  20 0 0 1
2  64 26 0 0 1
2  65 27 33 0 1
2  66 27 34 0 1
2  67 8 34 0 1
6  84 33 34
6  85 39 34
6  86 39 33
6  87 40 33
6  88 41 34
6  89 34 34
6  90 11 34
6  91 12 34
0

0101000
+165 0 -167 0 *
Ed
 1e-07 1 1 0
1  21 0 0 8.06225774829855
2  68 26 0 0 8.06225774829855
2  69 25 33 0 8.06225774829855
2  70 25 34 0 8.06225774829855
2  71 8 34 0 8.06225774829855
6  92 33 34
6  93 35 34
6  94 36 34
6  95 34 34
6  96 11 34
6  97 12 34
0

0101000
+173 34 -165 0 *
Ve
1e-07
1 10 3
0 0

0101101
*
Ed
 1e-07 1 1 0
1  22 0 0 1
2  72 28 0 0 1
2  73 10 0 0 1
2  74 8 0 0 1
6  98 12 0
6  99 15 0
0

0101000
+162 0 -207 14 *
Ve
1.00000000111022e-07
9 10 2
0 0

0101101
*
Ed
 1e-07 1 1 0
1  23 0 0 8.06225774829855
2  75 29 0 0 8.06225774829855
2  76 30 38 0 8.06225774829855
2  77 30 39 0 8.06225774829855
2  78 31 0 0 8.06225774829855
2  79 8 39 0 8.06225774829855
6  100 12 39
6  101 42 39
0

0101000
+160 39 -162 39 *
Ed
 1e-07 1 1 0
1  24 0 0 1
2  80 32 0 0 1
2  81 33 0 0 1
2  82 8 0 0 1
6  102 12 0
6  103 43 0
0

0101000
+160 0 -168 29 *
Wi

0101100
-166 0 +164 32 +163 32 -172 0 +206 0 +161 0 +159 37 -158 0 *
Fa
0  1e-07 8 0
2  12
0101000
+157 0 *
Ve
1e-07
1 9 3
0 0

0101101
*
Ed
 1e-07 1 1 0
1  25 0 0 1
2  83 11 0 0 1
2  84 10 0 0 1
6  104 15 0
6  105 17 0
0

0101000
+155 0 -205 14 *
Ed
 1e-07 1 1 0
1  6 0 0 1
2  16 9 0 0 1
2  17 10 15 0 1
2  18 10 16 0 1
2  19 1 16 0 1
6  106 15 15
6  107 42 15
0

0101000
+155 15 -162 15 *
Wi

0101100
+154 0 -161 0 -153 12 +204 14 *
Fa
0  1e-07 10 0
2  15
0101000
+152 0 *
Ve
1e-07
1 1 4
0 0

0101101
*
Ed
 1e-07 1 1 0
1  9 0 0 1
2  27 14 0 0 1
2  28 15 0 0 1
2  29 13 17 0 1
2  30 13 18 0 1
2  31 2 18 0 1
6  108 16 17
6  109 18 17
2  85 11 17 0 1
6  110 17 17
0

0101000
+150 17 -203 17 *
Ed
 1e-07 1 1 0
1  7 0 0 8.06225774829855
2  20 9 0 0 8.06225774829855
2  21 11 15 0 8.06225774829855
2  22 11 16 0 8.06225774829855
6  111 17 15
6  112 44 15
0

0101000
+150 15 -155 15 *
Wi

0101100
+149 1 -154 0 -148 12 +202 14 *
Fa
0  1e-07 11 0
2  17
0101000
+147 0 *
Ed
 1e-07 1 1 0
1  26 0 0 1
2  86 16 0 0 1
2  87 13 0 0 1
6  113 18 0
6  114 22 0
0

0101000
+150 0 -198 3 *
Wi

0101100
+145 0 -201 0 -149 1 +197 3 *
Fa
0  1e-07 13 0
2  18
0111000
+144 0 *
Ve
1.00000000055511e-07
9 1 5
0 0

0101101
*
Ed
 1.00000000055511e-07 1 1 0
1  27 0 0 1
2  88 34 0 0 1
2  89 17 40 0 1
2  90 17 41 0 1
2  91 19 41 0 1
6  115 21 40
6  116 23 40
2  92 16 40 0 1
6  117 22 40
0

0101000
+196 40 -142 40 *
Ed
 1e-07 1 1 0
1  10 0 0 8.06225774829855
2  32 14 0 0 8.06225774829855
2  33 15 0 0 8.06225774829855
2  34 16 17 0 8.06225774829855
2  35 16 18 0 8.06225774829855
6  118 22 17
6  119 45 17
0

0101000
+142 17 -150 17 *
Wi

0101100
-141 19 -145 0 -140 1 +195 3 *
Fa
0  1e-07 16 0
2  22
0111000
+139 0 *
Ve
1e-07
10 1 5
0 0

0101101
*
Ed
 1e-07 1 1 0
1  28 0 0 1
2  93 35 0 0 1
2  94 17 0 0 1
6  120 23 0
6  121 46 0
0

0101000
+142 0 -137 21 *
Ed
 1e-07 1 1 0
1  27 0 0 1
2  88 34 0 0 1
2  89 17 40 0 1
2  90 17 41 0 1
2  91 19 41 0 1
6  122 47 40
6  123 48 40
6  124 48 41
6  125 25 41
6  126 23 41
0

0101000
+194 0 -137 0 *
Wi

0101100
+193 0 -136 0 -141 19 +135 21 *
Fa
0  1e-07 17 0
2  23
0111000
+134 0 *
Ve
1e-07
10 1 6
0 0

0101101
*
Ed
 1e-07 1 1 0
1  29 0 0 1
2  95 36 0 0 1
2  96 21 42 0 1
2  97 21 43 0 1
2  98 19 43 0 1
6  127 49 43
6  128 50 43
6  129 50 42
6  130 51 0
6  131 27 43
6  132 52 43
6  133 25 43
0

0101000
+132 0 -192 0 *
Ve
1e-07
10 8 7
0 0

0101101
*
Ed
 1e-07 1 1 0
1  30 0 0 7.07106781186548
2  99 36 0 0 7.07106781186548
2  100 37 42 0 7.07106781186548
2  101 37 43 0 7.07106781186548
2  102 19 43 0 7.07106781186548
6  134 49 43
6  135 53 43
6  136 51 0
6  137 53 42
6  138 54 43
6  139 52 43
6  140 25 43
0

0101000
+130 0 -132 0 *
Ve
1.00000000444089e-07
10 8 8
0 0

0101101
*
Ed
 1e-07 1 1 0
1  31 0 0 1
2  103 36 0 0 1
2  104 38 42 0 1
2  105 38 43 0 1
2  106 19 43 0 1
6  141 49 43
6  142 55 43
6  143 51 0
6  144 55 42
6  145 56 42
6  146 52 43
6  147 25 43
0

0101000
+130 0 -128 0 *
Ve
1e-07
10 10 8
0 0

0101101
*
Ed
 1e-07 1 1 0
1  32 0 8 9
2  107 19 0 8 9
2  108 39 0 8 9
6  148 52 0
6  149 57 0
6  150 25 0
0

0101000
+128 24 -126 30 *
Ve
1e-07
10 9 6
0 0

0101101
*
Ed
 1e-07 1 1 0
1  33 0 3 5
2  109 26 0 3 5
2  110 40 33 3 5
2  111 40 34 3 5
2  112 19 33 3 5
6  151 25 33
6  152 58 33
0

0101000
+124 44 -126 0 *
Ve
1e-07
10 8 6
0 0

0101101
*
Ed
 1e-07 1 1 0
1  34 0 0 1
2  113 34 0 0 1
2  114 41 40 0 1
2  115 41 41 0 1
2  116 19 41 0 1
6  153 47 40
6  154 59 40
6  155 25 41
6  156 59 41
6  157 60 40
0

0101000
+122 0 -124 0 *
Ed
 1e-07 1 1 0
1  35 0 0 7.07106781186548
2  117 34 0 0 7.07106781186548
2  118 35 40 0 7.07106781186548
2  119 35 41 0 7.07106781186548
2  120 19 41 0 7.07106781186548
6  158 47 40
6  159 61 40
6  160 25 41
6  161 61 41
6  162 46 41
0

0101000
+137 0 -122 0 *
Wi

0101100
-191 0 +131 24 +129 24 -127 24 -125 0 +123 30 +121 21 +120 21 +135 21 *
Fa
0  1e-07 19 0
2  25
0111000
+119 0 *
Ve
1e-07
9 1 6
0 0

0101101
*
Ed
 1e-07 1 1 0
1  36 0 0 1
2  121 21 0 0 1
2  122 37 0 0 1
6  163 27 0
6  164 54 0
0

0101000
+117 0 -132 24 *
Ed
 1e-07 1 1 0
1  29 0 0 1
2  95 36 0 0 1
2  96 21 42 0 1
2  97 21 43 0 1
2  98 19 43 0 1
6  165 27 42
6  166 28 42
2  123 23 42 0 1
6  167 29 42
0

0101000
+117 42 -190 42 *
Wi

0101100
+116 0 -189 0 -115 22 +131 24 *
Fa
0  1e-07 21 0
2  27
0111000
+114 0 *
Ed
 1e-07 1 1 0
1  14 0 0 8.06225774829855
2  45 22 0 0 8.06225774829855
2  46 23 25 0 8.06225774829855
2  47 23 26 0 8.06225774829855
6  168 29 25
6  169 62 25
0

0101000
+117 25 -183 25 *
Wi

0101100
+115 22 -182 0 -112 4 +187 6 *
Fa
0  1e-07 23 0
2  29
0111000
+111 0 *
Ve
1.00000000055511e-07
0 1 8
0 0

0101101
*
Ed
 1e-07 1 1 0
1  37 0 0 3
2  124 5 0 0 3
2  125 42 10 0 3
2  126 42 11 0 3
2  127 22 45 0 3
6  170 9 10
6  171 62 10
6  172 32 10
0

0101000
+109 0 -183 10 *
Ve
1e-07
1 10 8
0 0

0101101
*
Ed
 1e-07 1 1 0
1  38 0 0 4
2  128 26 0 0 4
2  129 43 33 0 4
2  130 43 34 0 4
2  131 5 46 0 4
6  173 32 33
6  174 40 33
6  175 58 33
0

0101000
+107 0 -178 33 *
Ed
 1e-07 1 1 0
1  39 0 1 9
2  132 5 0 1 9
2  133 44 10 1 9
2  134 44 11 1 9
2  135 39 10 1 9
6  176 32 10
6  177 57 10
0

0101000
+107 47 -109 0 *
Wi

0101100
-108 7 -176 7 +106 30 -105 7 *
Fa
0  1e-07 5 7
2  32
0111000
+104 0 *
Ve
1e-07
9 9 3
0 0

0101101
*
Ed
 1e-07 1 1 0
1  40 0 0 1
2  136 25 0 0 1
2  137 27 0 0 1
6  178 36 0
6  179 41 0
0

0101000
+102 0 -165 32 *
Ed
 1e-07 1 1 0
1  21 0 0 8.06225774829855
2  68 26 0 0 8.06225774829855
2  69 25 33 0 8.06225774829855
2  70 25 34 0 8.06225774829855
6  180 36 33
6  181 58 33
0

0101000
+178 33 -102 33 *
Wi

0101100
+171 7 -101 0 -100 30 +163 32 *
Fa
0  1e-07 25 0
2  36
0111000
+99 0 *
Ve
1.00000000055511e-07
10 0 0
0 0

0101101
*
Ve
1e-07
10 0 2
0 0

0101101
*
Ed
 1e-07 1 1 0
1  41 0 0 2
2  138 14 0 0 2
2  139 15 0 0 2
2  140 45 17 0 2
2  141 45 18 0 2
2  142 19 17 0 2
6  182 20 17
6  183 38 17
6  184 45 17
0

0101000
+97 0 -96 0 *
Ve
1e-07
10 2 2
0 0

0101101
*
Ed
 1e-07 1 1 0
1  42 0 0 1
2  143 34 0 0 1
2  144 46 40 0 1
2  145 46 41 0 1
2  146 19 41 0 1
6  185 38 41
6  186 63 41
0

0101000
+94 0 -96 48 *
Ve
1e-07
10 9 3
0 0

0101101
*
Ed
 1e-07 1 1 0
1  43 0 0 7.07106781186548
2  147 34 0 0 7.07106781186548
2  148 47 40 0 7.07106781186548
2  149 47 41 0 7.07106781186548
2  150 19 41 0 7.07106781186548
6  187 64 41
6  188 65 41
6  189 37 41
6  190 38 41
0

0101000
+92 41 -94 0 *
Ed
 1e-07 1 1 0
1  44 0 0 1
2  151 40 0 0 1
2  152 27 0 0 1
2  153 19 0 0 1
6  191 64 0
6  192 41 0
6  193 37 0
6  194 38 0
0

0101000
+92 0 -167 32 *
Ve
1e-07
10 9 2
0 0

0101101
*
Ed
 1e-07 1 1 0
1  45 0 0 1
2  154 48 0 0 1
2  155 49 0 0 1
2  156 33 49 0 1
2  157 33 50 0 1
2  158 19 50 0 1
6  195 37 50
6  196 66 50
6  197 67 0
6  198 66 49
6  199 38 50
6  200 43 50
0

0101000
+89 0 -168 0 *
Ve
1e-07
10 2 1
0 0

0101101
*
Ed
 1e-07 1 1 0
1  46 0 0 7.07106781186548
2  159 48 0 0 7.07106781186548
2  160 50 49 0 7.07106781186548
2  161 50 50 0 7.07106781186548
2  162 49 0 0 7.07106781186548
2  163 19 50 0 7.07106781186548
6  201 37 50
6  202 68 50
6  203 67 0
6  204 68 49
6  205 38 50
6  206 69 50
0

0101000
+87 0 -89 0 *
Ve
1.00000000444089e-07
10 2 0
0 0

0101101
*
Ed
 1e-07 1 1 0
1  47 0 0 1
2  164 48 0 0 1
2  165 49 0 0 1
2  166 51 49 0 1
2  167 51 50 0 1
2  168 19 50 0 1
6  207 37 50
6  208 70 50
6  209 67 0
6  210 70 49
6  211 38 50
6  212 71 49
0

0101000
+85 0 -87 0 *
Ed
 1e-07 1 1 0
1  48 0 1 2
2  169 19 0 1 2
2  170 52 0 1 2
6  213 72 0
6  214 38 0
6  215 73 0
6  216 74 0
0

0101000
+97 1 -85 29 *
Wi

0101100
-95 1 +93 21 +91 21 -90 0 +166 0 +88 29 +86 29 +84 29 +83 0 *
Fa
0  1e-07 19 0
2  38
0111000
+82 0 *
Ed
 1e-07 1 1 0
1  20 0 0 1
2  64 26 0 0 1
2  65 27 33 0 1
2  66 27 34 0 1
2  67 8 34 0 1
6  217 41 33
6  218 65 33
2  171 47 33 0 1
0

0101000
+102 33 -92 33 *
Wi

0101100
+101 0 -90 0 -80 30 +164 32 *
Fa
0  1e-07 27 0
2  41
0111000
+79 0 *
Ve
1e-07
9 9 2
0 0

0101101
*
Ed
 1e-07 1 1 0
1  45 0 0 1
2  154 48 0 0 1
2  155 49 0 0 1
2  156 33 49 0 1
2  157 33 50 0 1
2  158 19 50 0 1
6  219 42 49
6  220 43 49
0

0101000
+77 49 -160 49 *
Ed
 1e-07 1 1 0
1  23 0 0 8.06225774829855
2  75 29 0 0 8.06225774829855
2  76 30 38 0 8.06225774829855
2  77 30 39 0 8.06225774829855
2  78 31 0 0 8.06225774829855
6  221 42 38
6  222 75 38
0

0101000
+77 38 -155 38 *
Wi

0101100
+76 27 -153 12 -75 35 +159 37 *
Fa
0  1e-07 30 0
2  42
0101000
+74 0 *
Ed
 1e-07 1 1 0
1  49 0 0 1
2  172 50 0 0 1
2  173 33 0 0 1
6  223 43 0
6  224 69 0
0

0101000
+77 0 -89 29 *
Wi

0101100
+72 0 -158 0 -76 27 +88 29 *
Fa
0  1e-07 33 0
2  43
0101000
+71 0 *
Ve
1.00000000055511e-07
0 1 0
0 0

0101101
*
Ed
 1e-07 1 1 0
1  50 0 0 4
2  174 9 0 0 4
2  175 53 15 0 4
2  176 53 16 0 4
2  177 15 51 0 4
6  225 14 15
6  226 45 15
6  227 44 15
0

0101000
+69 0 -150 15 *
Ve
1e-07
1 10 0
0 0

0101101
*
Ed
 1e-07 1 1 0
1  51 0 1 9
2  178 9 0 1 9
2  179 54 15 1 9
2  180 54 16 1 9
2  181 52 15 1 9
6  228 44 15
6  229 74 15
0

0101000
+67 52 -69 0 *
Ed
 1e-07 1 1 0
1  52 0 0 3
2  182 29 0 0 3
2  183 55 38 0 3
2  184 55 39 0 3
2  185 31 0 0 3
2  186 9 53 0 3
6  230 44 38
6  231 75 38
0

0101000
+155 38 -67 0 *
Wi

0101100
+68 12 +66 12 +65 35 +148 12 *
Fa
0  1e-07 9 12
2  44
0101000
+64 0 *
Ve
1e-07
9 0 2
0 0

0101101
*
Ed
 1e-07 1 1 0
1  53 0 0 3
2  187 14 0 0 3
2  188 15 0 0 3
2  189 56 17 0 3
2  190 56 18 0 3
2  191 34 54 0 3
6  232 20 17
6  233 60 17
6  234 45 17
0

0101000
+62 0 -142 17 *
Ed
 1e-07 1 1 0
1  54 0 0 1
2  192 14 0 0 1
2  193 15 0 0 1
2  194 57 17 0 1
2  195 57 18 0 1
2  196 46 17 0 1
6  235 20 17
6  236 63 17
6  237 45 17
0

0101000
+96 0 -62 0 *
Ed
 1e-07 1 1 0
1  55 0 1 10
2  197 14 0 1 10
2  198 58 17 1 10
2  199 58 18 1 10
2  200 15 0 1 10
2  201 52 17 1 10
6  238 73 17
6  239 45 17
6  240 74 17
0

0101000
+69 55 -97 0 *
Wi

0101100
+61 1 +60 1 +95 1 +59 1 -68 12 +140 1 *
Fa
0  1e-07 15 1
2  45
0111000
+58 0 *
Ed
 1e-07 1 1 0
1  56 0 0 1
2  202 35 0 0 1
2  203 41 0 0 1
6  241 59 0
6  242 61 0
6  243 46 0
0

0101000
+122 19 -122 21 *
Ed
 1e-07 1 1 0
1  35 0 0 7.07106781186548
2  117 34 0 0 7.07106781186548
2  118 35 40 0 7.07106781186548
2  119 35 41 0 7.07106781186548
2  120 19 41 0 7.07106781186548
6  244 60 40
6  245 46 40
0

0101000
+142 40 -122 0 *
Wi

0101100
+136 0 -56 0 -55 19 +120 21 *
Fa
0  1e-07 35 0
2  46
0111000
+54 0 *
Ed
 1e-07 1 1 0
1  57 0 0 1
2  204 38 0 0 1
2  205 37 0 0 1
6  246 55 0
6  247 53 0
6  248 54 0
0

0101000
+130 22 -130 24 *
Ed
 1e-07 1 1 0
1  30 0 0 7.07106781186548
2  99 36 0 0 7.07106781186548
2  100 37 42 0 7.07106781186548
2  101 37 43 0 7.07106781186548
2  102 19 43 0 7.07106781186548
6  249 56 42
6  250 54 42
0

0101000
+130 0 -117 42 *
Wi

0101100
+52 0 -116 0 -51 22 +129 24 *
Fa
0  1e-07 37 0
2  54
0111000
+50 0 *
Ed
 1e-07 1 1 0
1  58 0 0 1
2  206 59 0 0 1
2  207 38 0 0 1
2  208 39 0 0 1
6  251 76 0
6  252 55 0
6  253 77 0
6  254 78 0
6  255 57 0
0

0101000
+128 22 -128 24 *
Wi

0101100
+52 0 -48 0 -127 22 +127 24 *
Fa
0  1e-07 38 0
2  55
0111000
+47 0 *
Ve
1e-07
9 0 8
0 0

0101101
*
Ed
 1e-07 1 1 0
1  59 0 0 7
2  209 36 0 0 7
2  210 59 42 0 7
2  211 59 43 0 7
2  212 39 42 0 7
6  256 77 42
6  257 56 42
6  258 78 42
6  259 57 42
0

0101000
+128 0 -45 56 *
Ed
 1e-07 1 1 0
1  60 0 1 9
2  213 22 0 1 9
2  214 60 25 1 9
2  215 60 26 1 9
2  216 39 25 1 9
6  260 78 25
6  261 62 25
6  262 57 25
0

0101000
+109 57 -45 0 *
Ed
 1e-07 1 1 0
1  61 0 0 9
2  217 26 0 0 9
2  218 61 33 0 9
2  219 61 34 0 9
2  220 39 33 0 9
6  263 57 33
6  264 40 33
6  265 58 33
0

0101000
+126 0 -107 0 *
Wi

0101100
-44 22 +43 4 +105 7 +42 30 +125 0 +48 0 *
Fa
0  1e-07 39 0
2  57
0111000
+41 0 *
Ed
 1e-07 1 1 0
1  62 0 0 3
2  221 34 0 0 3
2  222 62 40 0 3
2  223 62 41 0 3
2  224 26 58 0 3
6  266 47 40
6  267 58 40
6  268 60 40
0

0101000
+124 0 -102 40 *
Ed
 1e-07 1 1 0
1  63 0 0 1
2  225 62 0 0 1
2  226 41 0 0 1
2  227 26 30 0 1
6  269 58 0
6  270 59 0
0

0101000
+124 19 -124 21 *
Wi

0101100
-106 30 -100 30 +39 19 -38 0 -123 30 -42 30 *
Fa
0  1e-07 26 30
2  58
0111000
+37 0 *
Wi

0101100
+56 0 -38 0 -121 19 +121 21 *
Fa
0  1e-07 41 0
2  59
0111000
+35 0 *
Ed
 1e-07 1 1 0
1  64 0 0 2
2  228 22 0 0 2
2  229 63 25 0 2
2  230 63 26 0 2
2  231 36 59 0 2
6  271 31 25
6  272 56 25
6  273 62 25
0

0101000
+45 0 -117 25 *
Wi

0101100
-33 4 -112 4 +108 7 -43 4 *
Fa
0  1e-07 22 4
2  62
0111000
+32 0 *
Ed
 1e-07 1 1 0
1  42 0 0 1
2  143 34 0 0 1
2  144 46 40 0 1
2  145 46 41 0 1
2  146 19 41 0 1
6  274 63 40
6  275 60 40
0

0101000
+94 0 -62 60 *
Ed
 1e-07 1 1 0
1  65 0 0 1
2  232 47 0 0 1
2  233 46 0 0 1
6  276 79 0
6  277 65 0
6  278 63 0
0

0101000
+94 19 -94 21 *
Wi

0101100
-30 19 +60 1 +93 21 +29 0 *
Fa
0  1e-07 46 0
2  63
0111000
+28 0 *
Ed
 1e-07 1 1 0
1  43 0 0 7.07106781186548
2  147 34 0 0 7.07106781186548
2  148 47 40 0 7.07106781186548
2  149 47 41 0 7.07106781186548
6  279 47 40
6  280 65 40
6  281 60 40
0

0101000
+102 40 -94 0 *
Wi

0101100
+80 30 -29 0 -26 19 +91 21 *
Fa
0  1e-07 47 0
2  65
0111000
+25 0 *
Ed
 1e-07 1 1 0
1  66 0 0 1
2  234 50 0 0 1
2  235 51 0 0 1
6  282 70 0
6  283 68 0
6  284 69 0
0

0101000
+87 27 -87 29 *
Ed
 1e-07 1 1 0
1  46 0 0 7.07106781186548
2  159 48 0 0 7.07106781186548
2  160 50 49 0 7.07106781186548
2  161 50 50 0 7.07106781186548
2  162 49 0 0 7.07106781186548
2  163 19 50 0 7.07106781186548
6  285 69 49
6  286 71 49
0

0101000
+87 0 -77 49 *
Wi

0101100
+23 0 -72 0 -22 27 +86 29 *
Fa
0  1e-07 50 0
2  69
0101000
+21 0 *
Ed
 1e-07 1 1 0
1  67 0 0 1
2  236 64 0 0 1
2  237 51 0 0 1
2  238 52 0 0 1
6  287 80 0
6  288 70 0
6  289 72 0
6  290 73 0
6  291 74 0
0

0101000
+85 27 -85 29 *
Wi

0101100
+19 0 -23 0 -84 27 +84 29 *
Fa
0  1e-07 51 0
2  70
0111000
+18 0 *
Ve
1e-07
9 10 0
0 0

0101101
*
Ed
 1e-07 1 1 0
1  68 0 0 8
2  239 29 0 0 8
2  240 65 38 0 8
2  241 65 39 0 8
2  242 31 0 0 8
2  243 52 38 0 8
6  292 74 38
6  293 75 38
0

0101000
+67 0 -16 0 *
Ed
 1e-07 1 1 0
1  69 0 1 8
2  244 48 0 1 8
2  245 64 49 1 8
2  246 64 50 1 8
2  247 49 0 1 8
2  248 52 49 1 8
6  294 74 49
6  295 71 49
0

0101000
+16 61 -85 0 *
Wi

0101100
-15 35 -14 27 -19 0 +83 0 +59 1 +66 12 *
Fa
0  1e-07 52 0
2  74
0101000
+13 0 *
Ed
 1e-07 1 1 0
1  70 0 0 2
2  249 29 0 0 2
2  250 66 38 0 2
2  251 66 39 0 2
2  252 31 0 0 2
2  253 49 62 0 2
6  296 75 38
6  297 71 38
0

0101000
+16 0 -77 38 *
Wi

0101100
-11 35 -15 35 -65 35 -75 35 *
Fa
0  1e-07 31 35
2  75
0101000
+10 0 *
Wi

0101100
-39 19 -26 19 -30 19 -61 1 -55 19 -121 19 *
Fa
0  1e-07 34 19
2  60
0111000
+8 0 *
Wi

0101100
-51 22 +33 4 +44 22 +127 22 *
Fa
0  1e-07 36 22
2  56
0111000
+6 0 *
Wi

0101100
-14 27 -84 27 -22 27 +11 35 *
Fa
0  1e-07 49 27
2  71
0101000
+4 0 *
Sh

0101100
-199 0 -184 0 -179 0 -174 0 -169 0 +156 0 +151 0 +146 0 +143 0 +138 0 
-133 0 +118 0 -113 0 -110 0 +103 0 -98 0 +81 0 -78 0 -73 0 -70 0 
+63 0 +57 0 -53 0 -49 0 +46 0 +40 0 +36 0 -34 0 +31 0 -27 0 
-24 0 -20 0 -17 0 -12 0 +9 0 +7 0 +5 0 +3 0 *
So

0100000
+2 0 *

+1 0 