DBRep_DrawableShape

CASCADE Topology V1, (c) Matra-Datavision
Locations 45
1
              1               0               0               1 
              0               1               0              -0 
              0               0               1              -0 
1
              1               0               0              -1 
              0               1               0               0 
              0               0               1               0 
2  1 1 2 1 0
2  2 -1 1 -1 0
1
              1               0               0               1 
              0               1               0              -0 
              0               0               1              -0 
1
              1               0               0              -1 
              0               1               0               0 
              0               0               1               0 
2  5 1 6 1 0
2  6 -1 5 -1 0
1
              1               0               0              -0 
              0               1               0               1 
              0               0               1              -0 
1
              1               0               0               0 
              0               1               0              -1 
              0               0               1               0 
2  9 1 10 1 0
2  10 -1 9 -1 0
1
              1               0               0              -0 
              0               1               0               1 
              0               0               1              -0 
1
              1               0               0               0 
              0               1               0              -1 
              0               0               1               0 
2  13 1 14 1 0
2  14 -1 13 -1 0
2  13 -1 0
2  1 -1 0
1
              1               0               0              -0 
              0               1               0              -1 
              0               0               1              -0 
1
              1               0               0               0 
              0               1               0               1 
              0               0               1               0 
2  19 1 20 1 0
2  20 -1 19 -1 0
1
              1               0               0              -0 
              0               1               0              -1 
              0               0               1              -0 
1
              1               0               0               0 
              0               1               0               1 
              0               0               1               0 
2  23 1 24 1 0
2  24 -1 23 -1 0
2  5 -1 0
2  9 -1 0
1
              1               0               0              -1 
              0               1               0              -0 
              0               0               1              -0 
2  29 -1 0
1
              1               0               0               1 
              0               1               0               0 
              0               0               1               0 
2  29 1 31 1 0
2  31 -1 29 -1 0
1
              1               0               0              -1 
              0               1               0              -0 
              0               0               1              -0 
1
              1               0               0               1 
              0               1               0               0 
              0               0               1               0 
2  34 1 35 1 0
2  35 -1 34 -1 0
2  19 -1 0
2  34 -1 0
1
              1               0               0              -1 
              0               1               0              -0 
              0               0               1              -0 
1
              1               0               0               1 
              0               1               0               0 
              0               0               1               0 
2  40 1 41 1 0
2  41 -1 40 -1 0
2  40 -1 0
2  23 -1 0
Curve2ds 0
Curves 92
1 0 0 0 -1.1102230246251565e-16 1 1.1102230246251565e-16 
1 0.99999999999999944 5 5.5511151231257827e-16 -1 -1.1102230246251565e-16 0 
1 0.99999999999999944 5 5.5511151231257827e-16 0.99227787671366774 -0.12403473458920836 -1.3770621819420955e-17 
1 9 4.0000000000000009 4.4408920985006262e-16 1 1.1102230246251565e-16 0 
1 10 1.1102230246251565e-15 0 -1.1102230246251565e-16 1 1.1102230246251565e-16 
1 9 3.0000000000000009 3.3306690738754696e-16 1 1.1102230246251565e-16 0 
1 0.99999999999999956 4 4.4408920985006262e-16 0.99227787671366774 -0.12403473458920836 -1.3770621819420955e-17 
1 0.99999999999999956 4 4.4408920985006262e-16 -1 -1.1102230246251565e-16 0 
1 -4.4408920985006262e-16 4 1.0000000000000004 -1.2325951644078309e-32 1.1102230246251565e-16 -1 
1 -5.5511151231257817e-16 4.9999999999999991 9 1.3770621819420942e-17 -0.12403473458920836 -0.99227787671366774 
1 -5.5511151231257817e-16 4.9999999999999991 9 1.2325951644078309e-32 -1.1102230246251565e-16 1 
1 1.2325951644078309e-31 -1.1102230246251565e-15 10 -1.1102230246251565e-16 1 1.1102230246251565e-16 
1 -6.6613381477509383e-16 5.9999999999999991 9 1.2325951644078309e-32 -1.1102230246251565e-16 1 
1 -6.6613381477509383e-16 5.9999999999999991 9 1.3770621819420942e-17 -0.12403473458920836 -0.99227787671366774 
1 -5.5511151231257827e-16 5 1.0000000000000004 -1.2325951644078309e-32 1.1102230246251565e-16 -1 
1 0.99999999999999944 5 1.0000000000000004 -1 -1.1102230246251565e-16 0 
1 0.99999999999999944 4 1.0000000000000004 -1.2325951644078309e-32 1.1102230246251565e-16 -1 
1 9 4.0000000000000009 1.0000000000000004 -1.2325951644078309e-32 1.1102230246251565e-16 -1 
1 -5.5511151231257827e-16 5 1.0000000000000004 0.99227787671366774 -0.12403473458920836 -1.3770621819420955e-17 
1 10 4.0000000000000009 1.0000000000000004 -1.2325951644078309e-32 1.1102230246251565e-16 -1 
1 8 4.0000000000000009 1.0000000000000004 1 1.1102230246251565e-16 0 
1 10 0 10 -1.1102230246251565e-16 1 1.1102230246251565e-16 
1 10 3 9 1.2325951644078309e-32 -1.1102230246251565e-16 1 
1 10 4.0000000000000009 1.0000000000000004 1.3770621819420967e-17 -0.12403473458920858 0.99227787671366774 
1 10 3.0000000000000009 1.0000000000000004 -1.2325951644078309e-32 1.1102230246251565e-16 -1 
1 10 2 9 -1.3770621819420967e-17 0.12403473458920858 -0.99227787671366774 
1 10 2 9 1.2325951644078309e-32 -1.1102230246251565e-16 1 
1 9 3.0000000000000009 1.0000000000000004 -1.2325951644078309e-32 1.1102230246251565e-16 -1 
1 8 3.0000000000000009 1.0000000000000004 1 1.1102230246251565e-16 0 
1 0.99999999999999956 3 1.0000000000000004 -1.2325951644078309e-32 1.1102230246251565e-16 -1 
1 -4.4408920985006262e-16 4 1.0000000000000004 0.99227787671366774 -0.12403473458920836 -1.3770621819420955e-17 
1 0.99999999999999956 4 1.0000000000000004 -1 -1.1102230246251565e-16 0 
1 0.99999999999999944 4.9999999999999991 9 1 1.1102230246251565e-16 0 
1 0.99999999999999944 3.9999999999999991 9 1.3770621819420942e-17 -0.12403473458920836 -0.99227787671366774 
1 0.99999999999999944 4.9999999999999991 9 1.2325951644078309e-32 -1.1102230246251565e-16 1 
1 -5.5511151231257817e-16 4.9999999999999991 10 1 1.1102230246251565e-16 0 
1 0.99999999999999933 5.9999999999999991 10 -1 -1.1102230246251565e-16 0 
1 7.9999999999999991 7 10 -0.98994949366116658 -0.14142135623730964 -1.5700924586837754e-17 
1 7.9999999999999991 7 10 -1.1102230246251565e-16 1 1.1102230246251565e-16 
1 -8.8817841970012513e-16 7.9999999999999991 10 1 1.1102230246251565e-16 0 
1 9 4 10 -1.1102230246251565e-16 1 1.1102230246251565e-16 
1 7.9999999999999991 6 10 1 1.1102230246251565e-16 0 
1 0.99999999999999944 4.9999999999999991 10 0.98994949366116658 0.14142135623730964 1.5700924586837754e-17 
1 0.99999999999999933 5.9999999999999991 9 1.2325951644078309e-32 -1.1102230246251565e-16 1 
1 1.9999999999999993 5.9999999999999991 9 -1 -1.1102230246251565e-16 0 
1 0.99999999999999933 4.9999999999999991 9 1.3770621819420942e-17 -0.12403473458920836 -0.99227787671366774 
1 -8.8817841970012523e-16 8 1.0000000000000009 1.1102230246251565e-16 -1 -1.1102230246251565e-16 
1 9 9.0000000000000018 1.0000000000000009 1.1102230246251565e-16 -1 -1.1102230246251565e-16 
1 8.9999999999999982 8.0000000000000018 1.0000000000000009 -1 -1.1102230246251565e-16 0 
1 9 3 9 1 1.1102230246251565e-16 0 
1 9 5.0000000000000009 1.0000000000000004 1.3770621819420967e-17 -0.12403473458920858 0.99227787671366774 
1 1 -1.0000000000000009 10 -1.1102230246251565e-16 1 1.1102230246251565e-16 
1 1.9999999999999998 1.9999999999999991 10 -1 -1.1102230246251565e-16 0 
1 9 3 10 -0.98994949366116658 -0.14142135623730964 -1.5700924586837754e-17 
1 9 3 10 1 1.1102230246251565e-16 0 
1 9 2 10 1 1.1102230246251565e-16 0 
1 2 0.99999999999999911 10 0.98994949366116658 0.14142135623730964 1.5700924586837754e-17 
1 2 -8.8817841970012523e-16 10 -1.1102230246251565e-16 1 1.1102230246251565e-16 
1 1.2325951644078309e-31 -1.1102230246251565e-15 10 1 1.1102230246251565e-16 0 
1 9 4 9 1.2325951644078309e-32 -1.1102230246251565e-16 1 
1 10 2 9 1 1.1102230246251565e-16 0 
1 9 3 9 -1.3770621819420967e-17 0.12403473458920858 -0.99227787671366774 
1 9 2 9 1.2325951644078309e-32 -1.1102230246251565e-16 1 
1 0 0 1 -1.1102230246251565e-16 1 1.1102230246251565e-16 
1 9 8.8817841970012523e-16 1 -1 -1.1102230246251565e-16 0 
1 9 4.0000000000000009 1.0000000000000004 1.1102230246251565e-16 -1 -1.1102230246251565e-16 
1 0.99999999999999978 0.99999999999999922 9 -1.1102230246251565e-16 1 1.1102230246251565e-16 
1 0.99999999999999978 0.999999999999999 10 -1.2325951644078309e-32 1.1102230246251565e-16 -1 
1 1 -0.99999999999999989 0 1.2325951644078309e-32 -1.1102230246251565e-16 1 
1 7.9999999999999991 6 9 1.2325951644078309e-32 -1.1102230246251565e-16 1 
1 1.9999999999999996 4.9999999999999991 9 0.98994949366116658 0.14142135623730964 1.5700924586837754e-17 
1 7.9999999999999991 7 9 1.2325951644078309e-32 -1.1102230246251565e-16 1 
1 8.9999999999999982 7 9 -0.98994949366116658 -0.14142135623730964 -1.5700924586837754e-17 
1 7.9999999999999991 8 9 1.2325951644078309e-32 -1.1102230246251565e-16 1 
1 8.9999999999999982 7 9 -1.1102230246251565e-16 1 1.1102230246251565e-16 
1 8.9999999999999982 8 9 -1 -1.1102230246251565e-16 0 
1 0.99999999999999911 7 8.8817841970012523e-16 1.2325951644078309e-32 -1.1102230246251565e-16 1 
1 9 9 10 -1.2325951644078309e-32 1.1102230246251565e-16 -1 
1 10 6 9 1.1102230246251565e-16 -1 -1.1102230246251565e-16 
1 9 6 9 1.2325951644078309e-32 -1.1102230246251565e-16 1 
1 8.9999999999999982 6 9 1 1.1102230246251565e-16 0 
1 0.99999999999999911 6.9999999999999991 9 1.1102230246251565e-16 -1 -1.1102230246251565e-16 
1 3 1.9999999999999991 9 -1 -1.1102230246251565e-16 0 
1 1.9999999999999998 1.9999999999999993 9 1.2325951644078309e-32 -1.1102230246251565e-16 1 
1 10 3 9 -0.98994949366116658 -0.14142135623730964 -1.5700924586837754e-17 
1 2 0.99999999999999922 9 1.2325951644078309e-32 -1.1102230246251565e-16 1 
1 3 0.99999999999999922 9 0.98994949366116658 0.14142135623730964 1.5700924586837754e-17 
1 2 -7.7715611723760958e-16 9 1.2325951644078309e-32 -1.1102230246251565e-16 1 
1 3 -6.6613381477509392e-16 9 -1.1102230246251565e-16 1 1.1102230246251565e-16 
1 9 1.0000000000000009 1 1.2325951644078309e-32 -1.1102230246251565e-16 1 
1 11 2.2204460492503131e-16 9 -1 -1.1102230246251565e-16 0 
1 9 1 9 -1.1102230246251565e-16 1 1.1102230246251565e-16 
Polygon3D 0
PolygonOnTriangulations 184
2 1 2 
p 0.00400000008 1 4 5 
2 2 3 
p 0.00400000008 1 4 5 
2 8 2 
p 0.00400000008 1 0 1 
2 4 3 
p 0.00400000008 1 0 1 
2 8 7 
p 0.00400000008 1 0 8.06225774829855 
2 2 3 
p 0.00400000008 1 0 8.06225774829855 
2 7 6 
p 0.00400000008 1 0 1 
2 2 3 
p 0.00400000008 1 0 1 
2 5 6 
p 0.00400000008 1 3 4 
2 5 6 
p 0.00400000008 1 3 4 
2 4 5 
p 0.00400000008 1 0 1 
2 2 3 
p 0.00400000008 1 0 1 
2 3 4 
p 0.00400000008 1 0 8.06225774829855 
2 2 3 
p 0.00400000008 1 0 8.06225774829855 
2 3 1 
p 0.00400000008 1 0 1 
2 4 3 
p 0.00400000008 1 0 1 
2 1 2 
p 0.00400000008 1 0 1 
2 2 3 
p 0.00400000008 1 0 1 
2 8 1 
p 0.00400000008 1 0 8.06225774829855 
2 1 3 
p 0.00400000008 1 0 8.06225774829855 
2 8 7 
p 0.00400000008 1 0 1 
2 1 2 
p 0.00400000008 1 0 1 
2 7 6 
p 0.00400000008 1 5 6 
2 1 2 
p 0.00400000008 1 5 6 
2 5 6 
p 0.00400000008 1 0 1 
2 4 3 
p 0.00400000008 1 0 1 
2 5 4 
p 0.00400000008 1 0 8.06225774829855 
2 2 3 
p 0.00400000008 1 0 8.06225774829855 
2 4 3 
p 0.00400000008 1 0 1 
2 2 3 
p 0.00400000008 1 0 1 
2 1 2 
p 0.00400000008 1 0 1 
2 4 3 
p 0.00400000008 1 0 1 
2 1 4 
p 0.00400000008 1 0 1 
2 1 2 
p 0.00400000008 1 0 1 
2 4 3 
p 0.00400000008 1 0 1 
2 1 2 
p 0.00400000008 1 0 1 
2 1 4 
p 0.00400000008 1 0 8.06225774829855 
2 2 4 
p 0.00400000008 1 0 8.06225774829855 
2 4 3 
p 0.00400000008 1 0 1 
2 7 6 
p 0.00400000008 1 0 1 
2 1 4 
p 0.00400000008 1 0 1 
2 1 2 
p 0.00400000008 1 0 1 
2 1 2 
p 0.00400000008 1 2 3 
2 6 7 
p 0.00400000008 1 2 3 
2 8 2 
p 0.00400000008 1 0 1 
2 2 3 
p 0.00400000008 1 0 1 
2 7 8 
p 0.00400000008 1 0 8.06225774829855 
2 2 3 
p 0.00400000008 1 0 8.06225774829855 
2 4 5 
p 0.00400000008 1 0 1 
2 4 3 
p 0.00400000008 1 0 1 
2 3 4 
p 0.00400000008 1 0 8.06225774829855 
2 2 3 
p 0.00400000008 1 0 8.06225774829855 
2 3 1 
p 0.00400000008 1 0 1 
2 4 3 
p 0.00400000008 1 0 1 
2 1 2 
p 0.00400000008 1 0 1 
2 4 3 
p 0.00400000008 1 0 1 
2 1 4 
p 0.00400000008 1 0 1 
2 4 3 
p 0.00400000008 1 0 1 
2 1 2 
p 0.00400000008 1 0 1 
2 1 4 
p 0.00400000008 1 0 1 
2 1 4 
p 0.00400000008 1 0 8.06225774829855 
2 2 3 
p 0.00400000008 1 0 8.06225774829855 
2 1 2 
p 0.00400000008 1 0 1 
2 4 3 
p 0.00400000008 1 0 1 
2 1 2 
p 0.00400000008 1 0 1 
2 1 4 
p 0.00400000008 1 0 1 
2 2 4 
p 0.00400000008 1 0 8.06225774829855 
2 2 3 
p 0.00400000008 1 0 8.06225774829855 
2 4 3 
p 0.00400000008 1 0 1 
2 1 2 
p 0.00400000008 1 0 1 
2 2 3 
p 0.00400000008 1 0 1 
2 1 3 
p 0.00400000008 1 0 1 
2 9 2 
p 0.00400000008 1 0 1 
2 2 3 
p 0.00400000008 1 0 1 
2 8 9 
p 0.00400000008 1 0 7.07106781186548 
2 2 3 
p 0.00400000008 1 0 7.07106781186548 
2 8 7 
p 0.00400000008 1 0 1 
2 2 3 
p 0.00400000008 1 0 1 
2 7 6 
p 0.00400000008 1 8 9 
2 3 4 
p 0.00400000008 1 8 9 
2 5 6 
p 0.00400000008 1 3 5 
2 4 3 
p 0.00400000008 1 3 5 
2 4 5 
p 0.00400000008 1 0 1 
2 2 3 
p 0.00400000008 1 0 1 
2 3 4 
p 0.00400000008 1 0 7.07106781186548 
2 2 3 
p 0.00400000008 1 0 7.07106781186548 
2 1 2 
p 0.00400000008 1 0 1 
2 4 3 
p 0.00400000008 1 0 1 
2 1 4 
p 0.00400000008 1 0 1 
2 1 2 
p 0.00400000008 1 0 1 
2 1 4 
p 0.00400000008 1 0 8.06225774829855 
2 2 4 
p 0.00400000008 1 0 8.06225774829855 
2 1 2 
p 0.00400000008 1 0 3 
2 3 4 
p 0.00400000008 1 0 3 
2 3 4 
p 0.00400000008 1 0 4 
2 1 2 
p 0.00400000008 1 0 4 
2 3 1 
p 0.00400000008 1 1 9 
2 5 6 
p 0.00400000008 1 1 9 
2 4 3 
p 0.00400000008 1 0 1 
2 1 2 
p 0.00400000008 1 0 1 
2 1 4 
p 0.00400000008 1 0 8.06225774829855 
2 2 6 
p 0.00400000008 1 0 8.06225774829855 
2 1 2 
p 0.00400000008 1 0 2 
2 5 6 
p 0.00400000008 1 0 2 
2 9 2 
p 0.00400000008 1 0 1 
2 3 4 
p 0.00400000008 1 0 1 
2 8 9 
p 0.00400000008 1 0 7.07106781186548 
2 2 3 
p 0.00400000008 1 0 7.07106781186548 
2 8 7 
p 0.00400000008 1 0 1 
2 4 3 
p 0.00400000008 1 0 1 
2 5 6 
p 0.00400000008 1 0 1 
2 2 3 
p 0.00400000008 1 0 1 
2 4 5 
p 0.00400000008 1 0 7.07106781186548 
2 2 3 
p 0.00400000008 1 0 7.07106781186548 
2 3 4 
p 0.00400000008 1 0 1 
2 2 3 
p 0.00400000008 1 0 1 
2 1 3 
p 0.00400000008 1 1 2 
2 4 5 
p 0.00400000008 1 1 2 
2 1 4 
p 0.00400000008 1 0 1 
2 1 2 
p 0.00400000008 1 0 1 
2 1 2 
p 0.00400000008 1 0 1 
2 1 4 
p 0.00400000008 1 0 1 
2 1 4 
p 0.00400000008 1 0 8.06225774829855 
2 2 4 
p 0.00400000008 1 0 8.06225774829855 
2 1 2 
p 0.00400000008 1 0 1 
2 4 3 
p 0.00400000008 1 0 1 
2 1 2 
p 0.00400000008 1 0 4 
2 4 3 
p 0.00400000008 1 0 4 
2 4 1 
p 0.00400000008 1 1 9 
2 1 3 
p 0.00400000008 1 1 9 
2 3 4 
p 0.00400000008 1 0 3 
2 4 3 
p 0.00400000008 1 0 3 
2 1 2 
p 0.00400000008 1 0 3 
2 5 4 
p 0.00400000008 1 0 3 
2 6 1 
p 0.00400000008 1 0 1 
2 4 2 
p 0.00400000008 1 0 1 
2 4 5 
p 0.00400000008 1 1 10 
2 3 4 
p 0.00400000008 1 1 10 
2 4 3 
p 0.00400000008 1 0 1 
2 1 2 
p 0.00400000008 1 0 1 
2 1 4 
p 0.00400000008 1 0 7.07106781186548 
2 4 3 
p 0.00400000008 1 0 7.07106781186548 
2 1 2 
p 0.00400000008 1 0 1 
2 1 2 
p 0.00400000008 1 0 1 
2 1 4 
p 0.00400000008 1 0 7.07106781186548 
2 1 2 
p 0.00400000008 1 0 7.07106781186548 
2 4 3 
p 0.00400000008 1 0 1 
2 1 3 
p 0.00400000008 1 0 1 
2 1 4 
p 0.00400000008 1 0 1 
2 1 3 
p 0.00400000008 1 0 1 
2 1 2 
p 0.00400000008 1 0 7 
2 3 4 
p 0.00400000008 1 0 7 
2 6 2 
p 0.00400000008 1 1 9 
2 3 1 
p 0.00400000008 1 1 9 
2 4 5 
p 0.00400000008 1 0 9 
2 3 1 
p 0.00400000008 1 0 9 
2 5 6 
p 0.00400000008 1 0 3 
2 1 2 
p 0.00400000008 1 0 3 
2 5 4 
p 0.00400000008 1 0 1 
2 4 3 
p 0.00400000008 1 0 1 
2 1 4 
p 0.00400000008 1 0 1 
2 3 1 
p 0.00400000008 1 0 1 
2 1 2 
p 0.00400000008 1 0 2 
2 4 2 
p 0.00400000008 1 0 2 
2 1 2 
p 0.00400000008 1 0 1 
2 6 5 
p 0.00400000008 1 0 1 
2 1 3 
p 0.00400000008 1 0 1 
2 4 3 
p 0.00400000008 1 0 1 
2 1 4 
p 0.00400000008 1 0 7.07106781186548 
2 2 6 
p 0.00400000008 1 0 7.07106781186548 
2 1 2 
p 0.00400000008 1 0 1 
2 4 3 
p 0.00400000008 1 0 1 
2 1 4 
p 0.00400000008 1 0 7.07106781186548 
2 4 3 
p 0.00400000008 1 0 7.07106781186548 
2 1 2 
p 0.00400000008 1 0 1 
2 6 5 
p 0.00400000008 1 0 1 
2 1 4 
p 0.00400000008 1 0 1 
2 2 4 
p 0.00400000008 1 0 1 
2 1 2 
p 0.00400000008 1 0 8 
2 3 1 
p 0.00400000008 1 0 8 
2 2 6 
p 0.00400000008 1 1 8 
2 1 2 
p 0.00400000008 1 1 8 
2 1 2 
p 0.00400000008 1 0 2 
2 1 3 
p 0.00400000008 1 0 2 
Surfaces 38
1 0 0 0 1.2325951644078309e-32 -1.1102230246251565e-16 1 -1.1102230246251565e-16 1 1.1102230246251565e-16 -1 -1.1102230246251565e-16 0 
1 0 0 0 1 1.1102230246251565e-16 0 -1.1102230246251565e-16 1 1.1102230246251565e-16 1.2325951644078309e-32 -1.1102230246251565e-16 1 
1 0.99999999999999944 5 1.0000000000000004 1.1102230246251565e-16 -1 -1.1102230246251565e-16 -1.2325951644078309e-32 1.1102230246251565e-16 -1 1 1.1102230246251565e-16 0 
1 0.99999999999999944 5 1.0000000000000004 -0.12403473458920836 -0.99227787671366774 -1.1016497455536764e-16 0.99227787671366774 -0.12403473458920836 -1.3770621819420955e-17 1.2325951644078309e-32 -1.1102230246251565e-16 1 
1 9 4.0000000000000009 1.0000000000000004 1.1102230246251565e-16 -1 -1.1102230246251565e-16 1 1.1102230246251565e-16 0 1.2325951644078309e-32 -1.1102230246251565e-16 1 
1 10 1.1102230246251565e-15 0 1 1.1102230246251565e-16 0 -1.1102230246251565e-16 1 1.1102230246251565e-16 1.2325951644078309e-32 -1.1102230246251565e-16 1 
1 9 3.0000000000000009 1.0000000000000004 1.1102230246251565e-16 -1 -1.1102230246251565e-16 1 1.1102230246251565e-16 0 1.2325951644078309e-32 -1.1102230246251565e-16 1 
1 0.99999999999999956 4 1.0000000000000004 -0.12403473458920836 -0.99227787671366774 -1.1016497455536764e-16 0.99227787671366774 -0.12403473458920836 -1.3770621819420955e-17 1.2325951644078309e-32 -1.1102230246251565e-16 1 
1 0.99999999999999956 4 1.0000000000000004 1.1102230246251565e-16 -1 -1.1102230246251565e-16 -1.2325951644078309e-32 1.1102230246251565e-16 -1 1 1.1102230246251565e-16 0 
1 0.99999999999999944 4.9999999999999991 9 1.1016497455536764e-16 -0.99227787671366774 0.12403473458920836 1.3770621819420942e-17 -0.12403473458920836 -0.99227787671366774 1 1.1102230246251565e-16 0 
1 -5.5511151231257817e-16 4.9999999999999991 9 -1.1102230246251565e-16 1 1.1102230246251565e-16 1 1.1102230246251565e-16 0 -1.2325951644078309e-32 1.1102230246251565e-16 -1 
1 1.2325951644078309e-31 -1.1102230246251565e-15 10 1.2325951644078309e-32 -1.1102230246251565e-16 1 -1.1102230246251565e-16 1 1.1102230246251565e-16 -1 -1.1102230246251565e-16 0 
1 0.99999999999999933 5.9999999999999991 9 1.1102230246251565e-16 -1 -1.1102230246251565e-16 -1 -1.1102230246251565e-16 0 -1.2325951644078309e-32 1.1102230246251565e-16 -1 
1 0.99999999999999933 5.9999999999999991 9 1.1016497455536764e-16 -0.99227787671366774 0.12403473458920836 1.3770621819420942e-17 -0.12403473458920836 -0.99227787671366774 1 1.1102230246251565e-16 0 
1 -1 -1.1102230246251565e-16 1 -1.2325951644078309e-32 1.1102230246251565e-16 -1 1 1.1102230246251565e-16 0 1.1102230246251565e-16 -1 -1.1102230246251565e-16 
1 9 4.0000000000000009 1.0000000000000004 1.1016497455536764e-16 -0.99227787671366774 -0.12403473458920858 1.3770621819420967e-17 -0.12403473458920858 0.99227787671366774 -1 -1.1102230246251565e-16 0 
1 1.2325951644078309e-31 -1.1102230246251565e-15 10 1.2325951644078309e-32 -1.1102230246251565e-16 1 -1.1102230246251565e-16 1 1.1102230246251565e-16 -1 -1.1102230246251565e-16 0 
1 9 3 9 1.1102230246251565e-16 -1 -1.1102230246251565e-16 1.2325951644078309e-32 -1.1102230246251565e-16 1 -1 -1.1102230246251565e-16 0 
1 9 2 9 -1.1016497455536764e-16 0.99227787671366774 0.12403473458920858 -1.3770621819420967e-17 0.12403473458920858 -0.99227787671366774 -1 -1.1102230246251565e-16 0 
1 9 2 9 -1.1102230246251565e-16 1 1.1102230246251565e-16 1 1.1102230246251565e-16 0 -1.2325951644078309e-32 1.1102230246251565e-16 -1 
1 -1 -1.1102230246251565e-16 1 -1.2325951644078309e-32 1.1102230246251565e-16 -1 1 1.1102230246251565e-16 0 1.1102230246251565e-16 -1 -1.1102230246251565e-16 
1 1 -0.99999999999999989 0 -1 -1.1102230246251565e-16 0 1.1102230246251565e-16 -1 -1.1102230246251565e-16 1.2325951644078309e-32 -1.1102230246251565e-16 1 
1 0.99999999999999944 4.9999999999999991 9 -0.14142135623730964 0.98994949366116658 1.0990647210786426e-16 0.98994949366116658 0.14142135623730964 1.5700924586837754e-17 -1.2325951644078309e-32 1.1102230246251565e-16 -1 
1 7.9999999999999991 7 9 0.14142135623730964 -0.98994949366116658 -1.0990647210786426e-16 -0.98994949366116658 -0.14142135623730964 -1.5700924586837754e-17 -1.2325951644078309e-32 1.1102230246251565e-16 -1 
1 7.9999999999999991 7 9 -1 -1.1102230246251565e-16 0 -1.1102230246251565e-16 1 1.1102230246251565e-16 -1.2325951644078309e-32 1.1102230246251565e-16 -1 
1 -8.8817841970012523e-16 8 8.8817841970012523e-16 -1.1102230246251565e-16 1 1.1102230246251565e-16 1.2325951644078309e-32 -1.1102230246251565e-16 1 1 1.1102230246251565e-16 0 
1 9 1.0000000000000009 0 1 1.1102230246251565e-16 0 1.2325951644078309e-32 -1.1102230246251565e-16 1 1.1102230246251565e-16 -1 -1.1102230246251565e-16 
1 7.9999999999999991 6 9 -1.1102230246251565e-16 1 1.1102230246251565e-16 1 1.1102230246251565e-16 0 -1.2325951644078309e-32 1.1102230246251565e-16 -1 
1 1 -0.99999999999999989 0 -1 -1.1102230246251565e-16 0 1.2325951644078309e-32 -1.1102230246251565e-16 1 -1.1102230246251565e-16 1 1.1102230246251565e-16 
1 1.9999999999999998 1.9999999999999993 9 1.1102230246251565e-16 -1 -1.1102230246251565e-16 -1 -1.1102230246251565e-16 0 -1.2325951644078309e-32 1.1102230246251565e-16 -1 
1 9 3 9 0.14142135623730964 -0.98994949366116658 -1.0990647210786426e-16 -0.98994949366116658 -0.14142135623730964 -1.5700924586837754e-17 -1.2325951644078309e-32 1.1102230246251565e-16 -1 
1 2 0.99999999999999922 9 -0.14142135623730964 0.98994949366116658 1.0990647210786426e-16 0.98994949366116658 0.14142135623730964 1.5700924586837754e-17 -1.2325951644078309e-32 1.1102230246251565e-16 -1 
1 2 -7.7715611723760958e-16 9 -1 -1.1102230246251565e-16 0 -1.1102230246251565e-16 1 1.1102230246251565e-16 -1.2325951644078309e-32 1.1102230246251565e-16 -1 
1 0 0 0 -1.1102230246251565e-16 1 1.1102230246251565e-16 1.2325951644078309e-32 -1.1102230246251565e-16 1 1 1.1102230246251565e-16 0 
1 9 1.0000000000000009 0 1 1.1102230246251565e-16 0 -1.1102230246251565e-16 1 1.1102230246251565e-16 1.2325951644078309e-32 -1.1102230246251565e-16 1 
1 1 -8.8817841970012523e-16 9 1.2325951644078309e-32 -1.1102230246251565e-16 1 1 1.1102230246251565e-16 0 -1.1102230246251565e-16 1 1.1102230246251565e-16 
1 1 -8.8817841970012523e-16 9 1.2325951644078309e-32 -1.1102230246251565e-16 1 1 1.1102230246251565e-16 0 -1.1102230246251565e-16 1 1.1102230246251565e-16 
1 1 -8.8817841970012523e-16 9 1.2325951644078309e-32 -1.1102230246251565e-16 1 -1.1102230246251565e-16 1 1.1102230246251565e-16 -1 -1.1102230246251565e-16 0 
Triangulations 38
8 6 1 0.00400000008
-4.44089209850063e-16 4 4.44089209850063e-16 -5.55111512312578e-16 5 5.55111512312578e-16 1 4 4.44089209850063e-16 9 3 3.33066907387547e-16 10 3 3.33066907387547e-16 10 4 4.44089209850063e-16 9 4 4.44089209850063e-16 0.999999999999999 5 5.55111512312578e-16 4 0 5 0 4 -1 3 -9 3 -10 4 -10 4 -9 5 -1 7 4 5 7 5 6 3 4 7 8 3 7 2 1 3 2 3 8 
8 6 1 0.00400000008
-4.44089209850063e-16 4 1 -4.44089209850063e-16 4 4.44089209850063e-16 -5.55111512312578e-16 5 5.55111512312578e-16 -5.55111512312578e-16 5 1 -6.66133814775094e-16 6 9 -6.66133814775094e-16 6 10 -5.55111512312578e-16 5 10 -5.55111512312578e-16 5 9 4 1 4 0 5 -1.11022302462516e-16 5 1 6 9 6 10 5 10 5 9 4 1 2 4 2 3 8 1 4 5 8 4 7 8 5 6 7 5 
4 2 1 0.00400000008
0.999999999999999 5 1 -5.55111512312578e-16 5 1 -5.55111512312578e-16 5 5.55111512312578e-16 0.999999999999999 5 5.55111512312578e-16 0 0 1.23259516440783e-32 -1 1 -1 1 0 4 1 2 4 2 3 
4 2 1 0.00400000008
0.999999999999999 5 1 0.999999999999999 5 5.55111512312578e-16 9 4 4.44089209850063e-16 9 4 1 0 0 1.3770621819421e-17 -1 8.06225774829855 -1 8.06225774829855 0 4 1 2 4 2 3 
4 2 1 0.00400000008
9 4 1 9 4 4.44089209850063e-16 10 4 4.44089209850063e-16 10 4 1 0 0 0 -1 1 -1 1 0 4 1 2 4 2 3 
8 6 1 0.00400000008
10 2 10 10 3 10 10 2 9 10 3 1 10 3 3.33066907387547e-16 10 4 4.44089209850063e-16 10 4 1 10 3 9 2 10 3 10 2 9 3 1 3 0 4 0 4 1 3 9 7 4 5 7 5 6 8 3 4 8 4 7 2 1 3 2 3 8 
4 2 1 0.00400000008
9 3 1 9 3 3.33066907387547e-16 10 3 3.33066907387547e-16 10 3 1 0 0 0 -1 1 -1 1 0 4 1 2 4 2 3 
4 2 1 0.00400000008
1 4 1 1 4 4.44089209850063e-16 9 3 3.33066907387547e-16 9 3 1 0 0 1.3770621819421e-17 -1 8.06225774829855 -1 8.06225774829855 0 4 1 2 4 2 3 
4 2 1 0.00400000008
1 4 1 -4.44089209850063e-16 4 1 -4.44089209850063e-16 4 4.44089209850063e-16 1 4 4.44089209850063e-16 0 0 1.23259516440783e-32 -1 1 -1 1 0 4 1 2 4 2 3 
4 2 1 0.00400000008
-5.55111512312578e-16 5 9 0.999999999999999 5 9 -4.44089209850063e-16 4 1 1 4 1 -1.37706218194209e-17 -1 0 0 8.06225774829855 -1 8.06225774829855 0 4 2 1 4 1 3 
4 2 1 0.00400000008
-5.55111512312578e-16 5 9 -5.55111512312578e-16 5 10 0.999999999999999 5 10 0.999999999999999 5 9 -9.86076131526265e-32 0 0 -1 1 -1 1 0 4 1 2 4 2 3 
9 7 1 0.00400000008
-5.55111512312578e-16 5 10 -6.66133814775094e-16 6 10 0.999999999999999 5 10 8 6 10 9 6 10 9 8 10 8 8 10 8 7 10 0.999999999999999 6 10 5 0 6 0 5 -1 6 -8 6 -9 8 -9 8 -8 7 -8 6 -1 8 4 5 6 8 5 7 8 6 9 1 3 9 3 4 9 4 8 2 1 9 
4 2 1 0.00400000008
0.999999999999999 6 9 0.999999999999999 6 10 -6.66133814775094e-16 6 10 -6.66133814775094e-16 6 9 0 0 0 -1 1 -1 1 0 4 1 2 4 2 3 
4 2 1 0.00400000008
0.999999999999999 6 9 -6.66133814775094e-16 6 9 -5.55111512312578e-16 5 1 0.999999999999999 5 1 0 0 -1.37706218194209e-17 -1 8.06225774829855 -1 8.06225774829855 0 4 1 2 4 2 3 
4 2 1 0.00400000008
0.999999999999999 8 1 0.999999999999999 5 1 9 8 1 9 4 1 1 -8 1 -5 9 -8 9 -4 3 2 1 4 2 3 
4 2 1 0.00400000008
9 4 1 10 4 1 10 3 9 9 3 9 0 0 1.3770621819421e-17 -1 8.06225774829855 -1 8.06225774829855 0 4 1 2 4 2 3 
9 7 1 0.00400000008
1 -9.99200722162641e-16 10 1 2 10 2 -8.88178419700125e-16 10 2 0.999999999999999 10 9 2 10 10 2 10 10 3 10 9 3 10 2 2 10 0 -1 2 -1 0 -2 1 -2 2 -9 2 -10 3 -10 3 -9 2 -2 8 5 6 8 6 7 4 1 3 9 4 5 9 5 8 2 4 9 2 1 4 
4 2 1 0.00400000008
9 3 9 10 3 9 10 3 10 9 3 10 0 0 1.23259516440783e-32 -1 1 -1 1 0 4 1 2 4 2 3 
4 2 1 0.00400000008
9 2 9 10 2 9 10 3 1 9 3 1 0 0 -1.3770621819421e-17 -1 8.06225774829855 -1 8.06225774829855 0 4 1 2 4 2 3 
4 2 1 0.00400000008
9 2 9 9 2 10 10 2 10 10 2 9 0 0 0 -1 1 -1 1 0 4 1 2 4 2 3 
4 2 1 0.00400000008
1 0 1 1 4 1 9 3 1 9 8.88178419700125e-16 1 1 0 1 -4 9 -3 9 0 3 1 2 4 1 3 
6 4 1 0.00400000008
1 2 9 0.999999999999999 5 9 1 4 1 1 0 1 1 -9.99200722162641e-16 10 1 2 10 -2 9 -5 9 -4 1 0 1 0 10 -2 10 1 2 3 1 3 4 5 6 1 5 1 4 
4 2 1 0.00400000008
0.999999999999999 5 9 0.999999999999999 5 10 8 6 10 8 6 9 1.09906472107864e-16 0 1.57009245868378e-17 -1 7.07106781186548 -1 7.07106781186548 0 4 1 2 4 2 3 
4 2 1 0.00400000008
8 7 9 8 7 10 0.999999999999999 6 10 0.999999999999999 6 9 8.79251776862914e-16 0 -1.57009245868378e-17 -1 7.07106781186548 -1 7.07106781186548 0 3 1 2 4 1 3 
4 2 1 0.00400000008
8 7 9 8 7 10 8 8 10 8 8 9 0 0 1.11022302462516e-16 -1 1 -1 1 0 4 1 2 4 2 3 
6 4 1 0.00400000008
8 8 9 0.999999999999999 8 9 8 8 10 9 8 10 9 8 1 0.999999999999999 8 1 9 8 9 1 10 8 10 9 1 9 1 1 1 5 6 1 6 2 4 1 3 4 5 1 
6 4 1 0.00400000008
9 8 1 9 4 1 9 8 10 9 6 10 9 6 9 9 3 9 1 -8 1 -4 10 -8 10 -6 9 -6 9 -3 5 2 1 5 1 3 4 5 3 6 2 5 
4 2 1 0.00400000008
8 6 9 8 6 10 9 6 10 9 6 9 -8.88178419700125e-16 0 0 -1 1 -1 0.999999999999999 0 4 1 2 4 2 3 
4 2 1 0.00400000008
0.999999999999999 8 9 0.999999999999999 6 9 0.999999999999999 8 1 0.999999999999999 5 1 9 8 9 6 1 8 1 5 2 3 4 1 3 2 
4 2 1 0.00400000008
2 2 9 1 2 9 2 2 10 1 2 10 0 0 1 0 2.46519032881566e-32 -1 1 -1 2 1 3 2 3 4 
4 2 1 0.00400000008
9 3 9 9 3 10 2 2 10 2 2 9 0 0 -1.57009245868378e-17 -1 7.07106781186548 -1 7.07106781186548 0 4 1 2 4 2 3 
4 2 1 0.00400000008
2 0.999999999999999 9 2 0.999999999999999 10 9 2 10 9 2 9 0 0 -1.23259516440783e-32 -1 7.07106781186548 -1 7.07106781186548 0 4 1 2 4 2 3 
4 2 1 0.00400000008
2 -7.7715611723761e-16 9 2 -8.88178419700125e-16 10 2 0.999999999999999 10 2 0.999999999999999 9 1.11022302462516e-16 0 0 -1 1 -1 1 0 4 1 2 4 2 3 
6 4 1 0.00400000008
9 8.88178419700125e-16 1 9 0 9 1 0 1 1 -9.99200722162641e-16 10 2 -8.88178419700125e-16 10 2 -7.7715611723761e-16 9 1 9 9 9 1 1 10 1 10 2 9 2 6 1 3 6 3 4 5 6 4 2 1 6 
4 2 1 0.00400000008
9 0 9 9 2 9 9 8.88178419700125e-16 1 9 3 1 1.11022302462516e-16 9 2 9 0 1 3 1 2 1 3 2 3 4 
6 4 1 0.00400000008
9 6 9 9 3 9 8 6 9 0.999999999999999 5 9 1 2 9 2 2 9 9 6 9 3 8 6 1 5 1 2 2 2 4 5 6 3 6 2 3 4 6 1 3 2 
4 2 1 0.00400000008
8 7 9 0.999999999999999 6 9 8 8 9 0.999999999999999 8 9 8 7 1 6 8 8 1 8 1 4 2 3 4 1 
4 2 1 0.00400000008
9 0 9 2 -7.7715611723761e-16 9 9 2 9 2 0.999999999999999 9 -1.11022302462516e-16 -9 0 -2 2 -9 1 -2 4 2 1 4 1 3 

TShapes 226
Ve
1.00000000222045e-07
-4.44089209850063e-16 4 4.44089209850063e-16
0 0

0101101
*
Ve
1e-07
-5.55111512312578e-16 5 5.55111512312578e-16
0 0

0101101
*
Ed
 1e-07 1 1 0
1  1 0 4 5
6  1 1 0
6  2 2 0
0

0101000
+226 0 -225 0 *
Ve
1e-07
0.999999999999999 5 5.55111512312578e-16
0 0

0101101
*
Ed
 1e-07 1 1 0
1  2 0 0 1
6  3 1 0
6  4 3 0
0

0101000
+223 0 -225 0 *
Ve
1e-07
9 4 4.44089209850063e-16
0 0

0101101
*
Ed
 1e-07 1 1 0
1  3 0 0 8.06225774829855
6  5 1 4
6  6 4 4
0

0101000
+223 4 -221 4 *
Ve
1e-07
10 4 4.44089209850063e-16
0 0

0101101
*
Ed
 1e-07 1 1 0
1  4 0 0 1
6  7 1 4
6  8 5 4
0

0101000
+221 4 -219 4 *
Ve
1e-07
10 3 3.33066907387547e-16
0 0

0101101
*
Ed
 1e-07 1 1 0
1  5 0 3 4
6  9 1 0
6  10 6 0
0

0101000
+217 0 -219 0 *
Ve
1e-07
9 3 3.33066907387547e-16
0 0

0101101
*
Ed
 1e-07 1 1 0
1  6 0 0 1
6  11 1 8
6  12 7 8
0

0101000
+215 8 -217 8 *
Ve
1.00000000222045e-07
1 4 4.44089209850063e-16
0 0

0101101
*
Ed
 1e-07 1 1 0
1  7 0 0 8.06225774829855
6  13 1 8
6  14 8 8
0

0101000
+213 8 -215 8 *
Ed
 1e-07 1 1 0
1  8 0 0 1
6  15 1 0
6  16 9 0
0

0101000
+213 0 -226 0 *
Wi

0101100
-224 0 +222 0 -220 3 -218 3 +216 0 +214 7 +212 7 -211 0 *
Fa
0  1e-07 1 0
2  1
0101000
+210 0 *
Ve
1e-07
-4.44089209850063e-16 4 1
0 0

0101101
*
Ed
 1e-07 1 1 0
1  9 0 0 1
6  17 2 12
6  18 9 12
0

0101000
+208 12 -226 12 *
Ve
1.00000000055511e-07
-5.55111512312578e-16 5 9
0 0

0101101
*
Ed
 1e-07 1 1 0
1  10 0 0 8.06225774829855
6  19 2 12
6  20 10 12
0

0101000
+206 12 -208 12 *
Ve
1e-07
-5.55111512312578e-16 5 10
0 0

0101101
*
Ed
 1e-07 1 1 0
1  11 0 0 1
6  21 2 0
6  22 11 0
0

0101000
+206 0 -204 0 *
Ve
1e-07
-6.66133814775094e-16 6 10
0 0

0101101
*
Ed
 1e-07 1 1 0
1  12 0 5 6
6  23 2 0
6  24 12 0
0

0101000
+204 0 -202 0 *
Ve
1e-07
-6.66133814775094e-16 6 9
0 0

0101101
*
Ed
 1e-07 1 1 0
1  13 0 0 1
6  25 2 0
6  26 13 0
0

0101000
+200 0 -202 0 *
Ve
1e-07
-5.55111512312578e-16 5 1
0 0

0101101
*
Ed
 1e-07 1 1 0
1  14 0 0 8.06225774829855
6  27 2 16
6  28 14 16
0

0101000
+200 16 -198 16 *
Ed
 1e-07 1 1 0
1  15 0 0 1
6  29 2 16
6  30 3 16
0

0101000
+198 16 -225 16 *
Wi

0101100
+207 11 +205 11 -203 0 -201 0 +199 0 -197 15 -196 15 +224 0 *
Fa
0  1e-07 2 0
2  2
0101000
+195 0 *
Ve
1e-07
0.999999999999999 5 1
0 0

0101101
*
Ed
 1e-07 1 1 0
1  16 0 0 1
6  31 3 0
6  32 14 0
0

0101000
+193 0 -198 0 *
Ed
 1e-07 1 1 0
1  17 0 0 1
6  33 3 17
6  34 4 17
0

0101000
+193 17 -223 17 *
Wi

0101100
+192 0 -222 0 -191 13 +196 15 *
Fa
0  1e-07 3 0
2  3
0101000
+190 0 *
Ve
1e-07
9 4 1
0 0

0101101
*
Ed
 1e-07 1 1 0
1  18 0 0 1
6  35 4 0
6  36 5 0
0

0101000
+188 0 -221 0 *
Ed
 1e-07 1 1 0
1  19 0 0 8.06225774829855
6  37 4 18
6  38 15 18
0

0101000
+193 18 -188 18 *
Wi

0101100
+191 13 -187 0 -186 1 +220 3 *
Fa
0  1e-07 4 0
2  4
0101000
+185 0 *
Ve
1e-07
10 4 1
0 0

0101101
*
Ed
 1e-07 1 1 0
1  20 0 0 1
6  39 5 0
6  40 6 0
0

0101000
+183 0 -219 0 *
Ed
 1e-07 1 1 0
1  21 0 0 1
6  41 5 18
6  42 16 18
0

0101000
+188 18 -183 18 *
Wi

0101100
+187 0 -182 0 -181 1 +218 3 *
Fa
0  1e-07 5 0
2  5
0101000
+180 0 *
Ve
1.00000000111022e-07
10 2 10
0 0

0101101
*
Ve
1e-07
10 3 10
0 0

0101101
*
Ed
 1e-07 1 1 0
1  22 0 2 3
6  43 6 0
6  44 17 0
0

0101000
+178 0 -177 0 *
Ve
1e-07
10 3 9
0 0

0101101
*
Ed
 1e-07 1 1 0
1  23 0 0 1
6  45 6 22
6  46 18 22
0

0101000
+175 22 -177 22 *
Ed
 1e-07 1 1 0
1  24 0 0 8.06225774829855
6  47 6 22
6  48 16 22
0

0101000
+183 22 -175 22 *
Ve
1e-07
10 3 1
0 0

0101101
*
Ed
 1e-07 1 1 0
1  25 0 0 1
6  49 6 0
6  50 7 0
0

0101000
+172 0 -217 0 *
Ve
1.00000000111022e-07
10 2 9
0 0

0101101
*
Ed
 1e-07 1 1 0
1  26 0 0 8.06225774829855
6  51 6 26
6  52 19 26
0

0101000
+170 26 -172 26 *
Ed
 1e-07 1 1 0
1  27 0 0 1
6  53 6 0
6  54 20 0
0

0101000
+170 0 -178 0 *
Wi

0101100
-176 0 +174 21 +173 21 -182 0 +216 0 +171 0 +169 25 -168 0 *
Fa
0  1e-07 6 0
2  6
0101000
+167 0 *
Ve
1e-07
9 3 1
0 0

0101101
*
Ed
 1e-07 1 1 0
1  28 0 0 1
6  55 7 0
6  56 8 0
0

0101000
+165 0 -215 0 *
Ed
 1e-07 1 1 0
1  29 0 0 1
6  57 7 27
6  58 19 27
0

0101000
+165 27 -172 27 *
Wi

0101100
+164 0 -171 0 -163 5 +214 7 *
Fa
0  1e-07 7 0
2  7
0101000
+162 0 *
Ve
1e-07
1 4 1
0 0

0101101
*
Ed
 1e-07 1 1 0
1  30 0 0 1
6  59 8 28
6  60 9 28
0

0101000
+160 28 -213 28 *
Ed
 1e-07 1 1 0
1  31 0 0 8.06225774829855
6  61 8 27
6  62 21 27
0

0101000
+160 27 -165 27 *
Wi

0101100
+159 9 -164 0 -158 5 +212 7 *
Fa
0  1e-07 8 0
2  8
0101000
+157 0 *
Ed
 1e-07 1 1 0
1  32 0 0 1
6  63 9 0
6  64 10 0
0

0101000
+160 0 -208 0 *
Wi

0101100
+155 0 -211 0 -159 9 +207 11 *
Fa
0  1e-07 9 0
2  9
0101000
+154 0 *
Ve
1.00000000055511e-07
0.999999999999999 5 9
0 0

0101101
*
Ed
 1.00000000055511e-07 1 1 0
1  33 0 0 1
6  65 10 30
6  66 11 30
0

0101000
+206 30 -152 30 *
Ed
 1e-07 1 1 0
1  34 0 0 8.06225774829855
6  67 10 28
6  68 22 28
0

0101000
+152 28 -160 28 *
Wi

0101100
-151 29 -155 0 -150 9 +205 11 *
Fa
0  1e-07 10 0
2  10
0101000
+149 0 *
Ve
1e-07
0.999999999999999 5 10
0 0

0101101
*
Ed
 1e-07 1 1 0
1  35 0 0 1
6  69 11 0
6  70 23 0
0

0101000
+152 0 -147 0 *
Ed
 1e-07 1 1 0
1  36 0 0 1
6  71 11 33
6  72 12 33
0

0101000
+204 33 -147 33 *
Wi

0101100
+203 0 -146 0 -151 29 +145 32 *
Fa
0  1e-07 11 0
2  11
0101000
+144 0 *
Ve
1e-07
0.999999999999999 6 10
0 0

0101101
*
Ed
 1e-07 1 1 0
1  37 0 0 1
6  73 12 37
6  74 13 37
0

0101000
+142 37 -202 37 *
Ve
1e-07
8 7 10
0 0

0101101
*
Ed
 1e-07 1 1 0
1  38 0 0 7.07106781186548
6  75 12 37
6  76 24 37
0

0101000
+140 37 -142 37 *
Ve
1.00000000444089e-07
8 8 10
0 0

0101101
*
Ed
 1e-07 1 1 0
1  39 0 0 1
6  77 12 37
6  78 25 37
0

0101000
+140 37 -138 37 *
Ve
1e-07
9 8 10
0 0

0101101
*
Ed
 1e-07 1 1 0
1  40 0 8 9
6  79 12 0
6  80 26 0
0

0101000
+138 0 -136 0 *
Ve
1e-07
9 6 10
0 0

0101101
*
Ed
 1e-07 1 1 0
1  41 0 3 5
6  81 12 38
6  82 27 38
0

0101000
+134 38 -136 38 *
Ve
1e-07
8 6 10
0 0

0101101
*
Ed
 1e-07 1 1 0
1  42 0 0 1
6  83 12 33
6  84 28 33
0

0101000
+132 33 -134 33 *
Ed
 1e-07 1 1 0
1  43 0 0 7.07106781186548
6  85 12 33
6  86 23 33
0

0101000
+147 33 -132 33 *
Wi

0101100
-201 0 +141 36 +139 36 -137 36 -135 0 +133 19 +131 32 +130 32 +145 32 *
Fa
0  1e-07 12 0
2  12
0101000
+129 0 *
Ve
1e-07
0.999999999999999 6 9
0 0

0101101
*
Ed
 1e-07 1 1 0
1  44 0 0 1
6  87 13 0
6  88 24 0
0

0101000
+127 0 -142 0 *
Ed
 1e-07 1 1 0
1  45 0 0 1
6  89 13 39
6  90 14 39
0

0101000
+127 39 -200 39 *
Wi

0101100
+126 0 -199 0 -125 34 +141 36 *
Fa
0  1e-07 13 0
2  13
0101000
+124 0 *
Ed
 1e-07 1 1 0
1  46 0 0 8.06225774829855
6  91 14 17
6  92 29 17
0

0101000
+127 17 -193 17 *
Wi

0101100
+125 34 -192 0 -122 13 +197 15 *
Fa
0  1e-07 14 0
2  14
0101000
+121 0 *
Ve
1.00000000055511e-07
0.999999999999999 8 1
0 0

0101101
*
Ed
 1e-07 1 1 0
1  47 0 0 3
6  93 15 18
6  94 29 18
0

0101000
+119 18 -193 18 *
Ve
1e-07
9 8 1
0 0

0101101
*
Ed
 1e-07 1 1 0
1  48 0 0 4
6  95 15 38
6  96 27 38
0

0101000
+117 38 -188 38 *
Ed
 1e-07 1 1 0
1  49 0 1 9
6  97 15 18
6  98 26 18
0

0101000
+117 18 -119 18 *
Wi

0101100
-118 1 -186 1 +116 19 -115 1 *
Fa
0  1e-07 15 1
2  15
0101000
+114 0 *
Ve
1e-07
9 3 9
0 0

0101101
*
Ed
 1e-07 1 1 0
1  50 0 0 1
6  99 16 0
6  100 18 0
0

0101000
+112 0 -175 0 *
Ed
 1e-07 1 1 0
1  51 0 0 8.06225774829855
6  101 16 38
6  102 27 38
0

0101000
+188 38 -112 38 *
Wi

0101100
+181 1 -111 0 -110 19 +173 21 *
Fa
0  1e-07 16 0
2  16
0101000
+109 0 *
Ve
1.00000000055511e-07
1 -9.99200722162641e-16 10
0 0

0101101
*
Ve
1e-07
1 2 10
0 0

0101101
*
Ed
 1e-07 1 1 0
1  52 0 0 2
6  103 17 28
6  104 22 28
0

0101000
+107 28 -106 28 *
Ve
1e-07
2 2 10
0 0

0101101
*
Ed
 1e-07 1 1 0
1  53 0 0 1
6  105 17 33
6  106 30 33
0

0101000
+104 33 -106 33 *
Ve
1e-07
9 3 10
0 0

0101101
*
Ed
 1e-07 1 1 0
1  54 0 0 7.07106781186548
6  107 17 33
6  108 31 33
0

0101000
+102 33 -104 33 *
Ed
 1e-07 1 1 0
1  55 0 0 1
6  109 17 0
6  110 18 0
0

0101000
+102 0 -177 0 *
Ve
1e-07
9 2 10
0 0

0101101
*
Ed
 1e-07 1 1 0
1  56 0 0 1
6  111 17 43
6  112 20 43
0

0101000
+99 43 -178 43 *
Ve
1e-07
2 0.999999999999999 10
0 0

0101101
*
Ed
 1e-07 1 1 0
1  57 0 0 7.07106781186548
6  113 17 43
6  114 32 43
0

0101000
+97 43 -99 43 *
Ve
1.00000000444089e-07
2 -8.88178419700125e-16 10
0 0

0101101
*
Ed
 1e-07 1 1 0
1  58 0 0 1
6  115 17 43
6  116 33 43
0

0101000
+95 43 -97 43 *
Ed
 1e-07 1 1 0
1  59 0 1 2
6  117 17 0
6  118 34 0
0

0101000
+107 0 -95 0 *
Wi

0101100
-105 9 +103 32 +101 32 -100 0 +176 0 +98 42 +96 42 +94 42 +93 0 *
Fa
0  1e-07 17 0
2  17
0101000
+92 0 *
Ed
 1e-07 1 1 0
1  60 0 0 1
6  119 18 38
6  120 31 38
0

0101000
+112 38 -102 38 *
Wi

0101100
+111 0 -100 0 -90 19 +174 21 *
Fa
0  1e-07 18 0
2  18
0101000
+89 0 *
Ve
1e-07
9 2 9
0 0

0101101
*
Ed
 1e-07 1 1 0
1  61 0 0 1
6  121 19 44
6  122 20 44
0

0101000
+87 44 -170 44 *
Ed
 1e-07 1 1 0
1  62 0 0 8.06225774829855
6  123 19 45
6  124 35 45
0

0101000
+87 45 -165 45 *
Wi

0101100
+86 40 -163 5 -85 23 +169 25 *
Fa
0  1e-07 19 0
2  19
0101000
+84 0 *
Ed
 1e-07 1 1 0
1  63 0 0 1
6  125 20 0
6  126 32 0
0

0101000
+87 0 -99 0 *
Wi

0101100
+82 0 -168 0 -86 40 +98 42 *
Fa
0  1e-07 20 0
2  20
0101000
+81 0 *
Ve
1.00000000055511e-07
1 0 1
0 0

0101101
*
Ed
 1e-07 1 1 0
1  64 0 0 4
6  127 21 27
6  128 22 27
0

0101000
+79 27 -160 27 *
Ve
1e-07
9 8.88178419700125e-16 1
0 0

0101101
*
Ed
 1e-07 1 1 0
1  65 0 1 9
6  129 21 27
6  130 34 27
0

0101000
+77 27 -79 27 *
Ed
 1e-07 1 1 0
1  66 0 0 3
6  131 21 45
6  132 35 45
0

0101000
+165 45 -77 45 *
Wi

0101100
+78 5 +76 5 +75 23 +158 5 *
Fa
0  1e-07 21 5
2  21
0101000
+74 0 *
Ve
1e-07
1 2 9
0 0

0101101
*
Ed
 1e-07 1 1 0
1  67 0 0 3
6  133 22 28
6  134 36 28
0

0101000
+72 28 -152 28 *
Ed
 1e-07 1 1 0
1  68 0 0 1
6  135 22 28
6  136 30 28
0

0101000
+106 28 -72 28 *
Ed
 1e-07 1 1 0
1  69 0 1 10
6  137 22 28
6  138 34 28
0

0101000
+79 28 -107 28 *
Wi

0101100
+71 9 +70 9 +105 9 +69 9 -78 5 +150 9 *
Fa
0  1e-07 22 9
2  22
0101000
+68 0 *
Ve
1e-07
8 6 9
0 0

0101101
*
Ed
 1e-07 1 1 0
1  70 0 0 1
6  139 23 0
6  140 28 0
0

0101000
+66 0 -132 0 *
Ed
 1e-07 1 1 0
1  71 0 0 7.07106781186548
6  141 23 30
6  142 36 30
0

0101000
+152 30 -66 30 *
Wi

0101100
+146 0 -65 0 -64 29 +130 32 *
Fa
0  1e-07 23 0
2  23
0101000
+63 0 *
Ve
1e-07
8 7 9
0 0

0101101
*
Ed
 1e-07 1 1 0
1  72 0 0 1
6  143 24 0
6  144 25 0
0

0101000
+61 0 -140 0 *
Ed
 1e-07 1 1 0
1  73 0 0 7.07106781186548
6  145 24 39
6  146 37 39
0

0101000
+61 39 -127 39 *
Wi

0101100
+60 0 -126 0 -59 34 +139 36 *
Fa
0  1e-07 24 0
2  24
0101000
+58 0 *
Ve
1.00000000444089e-07
8 8 9
0 0

0101101
*
Ed
 1e-07 1 1 0
1  74 0 0 1
6  147 25 0
6  148 26 0
0

0101000
+56 0 -138 0 *
Ed
 1e-07 1 1 0
1  75 0 0 1
6  149 25 39
6  150 37 39
0

0101000
+61 39 -56 39 *
Wi

0101100
+60 0 -55 0 -54 34 +137 36 *
Fa
0  1e-07 25 0
2  25
0101000
+53 0 *
Ve
1e-07
0.999999999999999 8 9
0 0

0101101
*
Ed
 1e-07 1 1 0
1  76 0 0 7
6  151 26 39
6  152 37 39
0

0101000
+56 39 -51 39 *
Ed
 1e-07 1 1 0
1  77 0 1 9
6  153 26 17
6  154 29 17
0

0101000
+119 17 -51 17 *
Ed
 1e-07 1 1 0
1  78 0 0 9
6  155 26 38
6  156 27 38
0

0101000
+136 38 -117 38 *
Wi

0101100
-50 34 +49 13 +115 1 +48 19 +135 0 +55 0 *
Fa
0  1e-07 26 0
2  26
0101000
+47 0 *
Ve
1e-07
9 6 9
0 0

0101101
*
Ed
 1e-07 1 1 0
1  79 0 0 3
6  157 27 30
6  158 36 30
0

0101000
+45 30 -112 30 *
Ed
 1e-07 1 1 0
1  80 0 0 1
6  159 27 0
6  160 28 0
0

0101000
+45 0 -134 0 *
Wi

0101100
-116 19 -110 19 +44 29 -43 0 -133 19 -48 19 *
Fa
0  1e-07 27 19
2  27
0101000
+42 0 *
Ed
 1e-07 1 1 0
1  81 0 0 1
6  161 28 30
6  162 36 30
0

0101000
+66 30 -45 30 *
Wi

0101100
+65 0 -43 0 -40 29 +131 32 *
Fa
0  1e-07 28 0
2  28
0101000
+39 0 *
Ed
 1e-07 1 1 0
1  82 0 0 2
6  163 29 17
6  164 37 17
0

0101000
+51 17 -127 17 *
Wi

0101100
-37 13 -122 13 +118 1 -49 13 *
Fa
0  1e-07 29 13
2  29
0101000
+36 0 *
Ve
1e-07
2 2 9
0 0

0101101
*
Ed
 1e-07 1 1 0
1  83 0 0 1
6  165 30 30
6  166 36 30
0

0101000
+34 30 -72 30 *
Ed
 1e-07 1 1 0
1  84 0 0 1
6  167 30 0
6  168 31 0
0

0101000
+34 0 -104 0 *
Wi

0101100
-33 29 +70 9 +103 32 +32 0 *
Fa
0  1e-07 30 0
2  30
0101000
+31 0 *
Ed
 1e-07 1 1 0
1  85 0 0 7.07106781186548
6  169 31 30
6  170 36 30
0

0101000
+112 30 -34 30 *
Wi

0101100
+90 19 -32 0 -29 29 +101 32 *
Fa
0  1e-07 31 0
2  31
0101000
+28 0 *
Ve
1e-07
2 0.999999999999999 9
0 0

0101101
*
Ed
 1e-07 1 1 0
1  86 0 0 1
6  171 32 0
6  172 33 0
0

0101000
+26 0 -97 0 *
Ed
 1e-07 1 1 0
1  87 0 0 7.07106781186548
6  173 32 44
6  174 38 44
0

0101000
+26 44 -87 44 *
Wi

0101100
+25 0 -82 0 -24 40 +96 42 *
Fa
0  1e-07 32 0
2  32
0101000
+23 0 *
Ve
1.00000000444089e-07
2 -7.7715611723761e-16 9
0 0

0101101
*
Ed
 1e-07 1 1 0
1  88 0 0 1
6  175 33 0
6  176 34 0
0

0101000
+21 0 -95 0 *
Ed
 1e-07 1 1 0
1  89 0 0 1
6  177 33 44
6  178 38 44
0

0101000
+21 44 -26 44 *
Wi

0101100
+20 0 -25 0 -19 40 +94 42 *
Fa
0  1e-07 33 0
2  33
0101000
+18 0 *
Ve
1e-07
9 0 9
0 0

0101101
*
Ed
 1e-07 1 1 0
1  90 0 0 8
6  179 34 45
6  180 35 45
0

0101000
+77 45 -16 45 *
Ed
 1e-07 1 1 0
1  91 0 1 8
6  181 34 44
6  182 38 44
0

0101000
+16 44 -21 44 *
Wi

0101100
-15 23 -14 40 -20 0 +93 0 +69 9 +76 5 *
Fa
0  1e-07 34 0
2  34
0101000
+13 0 *
Ed
 1e-07 1 1 0
1  92 0 0 2
6  183 35 45
6  184 38 45
0

0101000
+16 45 -87 45 *
Wi

0101100
-11 23 -15 23 -75 23 -85 23 *
Fa
0  1e-07 35 23
2  35
0101000
+10 0 *
Wi

0101100
-44 29 -29 29 -33 29 -71 9 -64 29 -40 29 *
Fa
0  1e-07 36 29
2  36
0101000
+8 0 *
Wi

0101100
-59 34 +37 13 +50 34 +54 34 *
Fa
0  1e-07 37 34
2  37
0101000
+6 0 *
Wi

0101100
-14 40 -19 40 -24 40 +11 23 *
Fa
0  1e-07 38 40
2  38
0101000
+4 0 *
Sh

0101100
-209 0 -194 0 -189 0 -184 0 -179 0 +166 0 +161 0 +156 0 +153 0 +148 0 
-143 0 +128 0 -123 0 -120 0 +113 0 -108 0 +91 0 -88 0 -83 0 -80 0 
+73 0 +67 0 -62 0 -57 0 +52 0 +46 0 +41 0 -38 0 +35 0 -30 0 
-27 0 -22 0 -17 0 -12 0 +9 0 +7 0 +5 0 +3 0 *
So

0100000
+2 0 *

+1 0 