DBRep_DrawableShape

CASCADE Topology V1, (c) Matra-Datavision
Locations 8
1
              1               0               0              10 
              0               1               0              -0 
              0               0               1              -0 
1
              1               0               0             -10 
              0               1               0               0 
              0               0               1               0 
2  1 1 2 1 0
2  2 -1 1 -1 0
1
              1               0               0              -0 
              0               1               0              -0 
              0               0               1             -10 
1
              1               0               0               0 
              0               1               0               0 
              0               0               1              10 
2  5 1 6 1 0
2  6 -1 5 -1 0
Curve2ds 40
1 0 0 1 0 
1 0 0 1 0 
1 1.3203599804237279e-16 -10.000000000000002 1 0 
1 0 0 0 1 
1 1.3203599804237279e-16 -10.000000000000002 0 1 
1 0 10 1 0 
1 0 0 0 -1 
1 0.99999999999999889 9 -1 -1.2246467991473532e-16 
1 0 0 0 1 
1 0 -10 0 1 
1 0.99999999999999767 19 1.2246467991473532e-16 -1 
1 -1.2246467991473535e-15 10.000000000000002 1 0 
1 0 0 0 -1 
1 10 1.2246467991473533e-15 0 1 
1 10 1.2246467991473533e-15 0 1 
1 1.0925086501093111e-16 -10.000000000000002 1 0 
1 10.049875621120892 1.224646799147353e-16 0 -1 
1 0.99999999999999878 10.000000000000002 0 -1 
1 10.049875621120892 -1.2246467991473532e-16 0 -1 
1 -1.1021821192326181e-15 9.0000000000000018 1 0 
8 -10.000490184064411 0.099014754297667568
1 0.098528192363930442 -0.99019607843137436 -0.9950859653474029 -0.099014754297667457 
8 -10.000490184064411 0.099014754297667568
1 0.098528192363930428 -0.99019607843137258 -0.9950859653474029 -0.099014754297667443 
1 0 0 -0.9950859653474029 0.099014754297667443 
1 0 0 -0.9950859653474029 0.099014754297667429 
1 1 19 -1.2246467991473532e-16 -1 
1 1 8.9999999999999982 -1 1.2246467991473532e-16 
8 -0.099014754297667512 10.000490184064413
1 0.098528192363930372 -0.99019607843137247 0.9950859653474029 0.099014754297667415 
8 -0.099014754297667512 10.000490184064413
1 0.0985281923639304 -0.99019607843137436 0.9950859653474029 0.099014754297667429 
1 10.049875621120892 0 0 -1 
1 0 9 1 0 
1 0 -10 1 0 
1 0 0 -0.9950859653474029 0.099014754297667443 
1 0 0 -0.9950859653474029 0.099014754297667429 
1 10 0 0 1 
1 0 0 1 0 
1 10.049875621120892 0 0 -1 
1 0.99999999999999989 10 0 -1 
1 0 -10 1 0 
1 10 0 0 1 
1 0 0 1 0 
Curves 26
1 19 0 1 1.2246467991473532e-16 0 -1 
1 19 0 -9 0 1 0 
1 19 10 1 1.2246467991473532e-16 0 -1 
1 19 0 1 1.218569110023239e-17 0.99503719020998915 -0.099503719020998901 
1 19 0 1 -1 0 -1.2246467991473532e-16 
1 10 0 0 0 0 1 
1 0 0 0 1 0 0 
1 8.9999999999999982 0 1 1.2246467991473532e-16 0 -1 
1 19 0 -9 -1 0 -1.2246467991473532e-16 
1 19 10 -9 -1 0 -1.2246467991473532e-16 
1 9 0 -9.0000000000000018 0.099503719020998915 0.99503719020998915 1.2185691100232393e-17 
1 8.9999999999999982 10 0 1 0 1.2246467991473532e-16 
1 9.9999999999999982 10 1 1.2246467991473532e-16 0 -1 
1 9.9901960784313726 0.098039215686274647 0.99019607843137258 0.099014754297667429 -0.99014754297667429 0.099014754297667429 
1 8.9999999999999982 0 1 -0.099014754297667457 -0.9901475429766744 0.099014754297667415 
1 9.0098039215686256 0.098039215686274606 0.0098039215686274994 0.099014754297667415 0.99014754297667429 0.099014754297667415 
1 9 10 0 0 0 1 
1 10 0 10 -0.099503719020998915 0.99503719020998915 0 
1 10 0 0 0.099014754297667443 -0.9901475429766744 -0.099014754297667429 
1 0 0 10 1 0 0 
1 0 0 0 0 0 1 
1 10 10 0.99999999999999989 -1 0 0 
1 0 0 0 0 0.99503719020998915 0.099503719020998901 
1 0 10 10 1 0 0 
1 0 10 0 0 0 1 
1 0 0 10 0 1 0 
Polygon3D 0
PolygonOnTriangulations 72
2 1 2 
p 0.00400000408 1 0 10 
2 1 3 
p 0.00400000408 1 0 10 
2 1 3 
p 0.00400000408 1 0 10 
2 2 4 
p 0.00400000408 1 0 10 
2 3 1 
p 0.00400000408 1 0 10 
2 3 4 
p 0.00400000408 1 1 10 
2 2 3 
p 0.00400000408 1 1 10 
2 1 3 
p 0.00400000408 1 0 10.0498756211209 
2 1 3 
p 0.00400000408 1 0 10.0498756211209 
2 1 3 
p 0.00400000408 1 0 10.0498756211209 
2 1 2 
p 0.00760000408 1 0 9 
2 1 2 
p 0.00760000408 1 0 9 
2 6 2 
p 0.00760000408 1 0 0.999999999999999 
2 3 1 
p 0.00760000408 1 0 0.999999999999999 
2 5 6 
p 0.00760000408 1 9 10 
2 4 3 
p 0.00760000408 1 9 10 
2 5 4 
p 0.00760000408 1 1 10 
2 4 5 
p 0.00760000408 1 1 10 
2 3 4 
p 0.00400000408 1 0 10 
2 3 4 
p 0.00400000408 1 0 10 
2 3 4 
p 0.00400000408 1 0 10 
2 1 2 
p 0.00400000408 1 0 9 
2 3 4 
p 0.00400000408 1 0 9 
2 4 2 
p 0.00400000408 1 0 10.0498756211209 
2 3 4 
p 0.00400000408 1 0 10.0498756211209 
2 5 2 
p 0.00400000408 1 0 10.0498756211209 
2 1 2 
p 0.00400000408 1 1 10 
2 4 3 
p 0.00400000408 1 1 10 
2 4 3 
p 0.00400000408 1 1 10 
2 1 4 
p 0.00400000408 1 1 10 
2 1 4 
p 0.00400000408 1 1 10 
2 1 2 
p 0.00400000408 1 1 10 
2 5 2 
p 0.00760000408 1 -4.95073771488337 0.0990147542976676 
2 3 4 
p 0.00760000408 1 -4.95073771488337 0.0990147542976676 
2 4 5 
p 0.00760000408 1 -10.0995049383621 -5.04975246918104 
2 1 3 
p 0.00760000408 1 -10.0995049383621 -5.04975246918104 
2 1 2 
p 0.00760000408 1 9 10 
2 5 6 
p 0.00760000408 1 9 10 
2 2 4 
p 0.00760000408 1 0 1 
2 6 2 
p 0.00760000408 1 0 1 
2 4 3 
p 0.00760000408 1 -0.0990147542976675 4.95073771488338 
2 2 5 
p 0.00760000408 1 -0.0990147542976675 4.95073771488338 
2 1 4 
p 0.00400000408 1 1 10 
2 1 4 
p 0.00400000408 1 1 10 
2 1 2 
p 0.00400000408 1 1 10 
2 4 2 
p 0.00400000408 1 0 10.0498756211209 
2 3 4 
p 0.00400000408 1 0 10.0498756211209 
2 5 2 
p 0.00400000408 1 0 10.0498756211209 
2 4 5 
p 0.00760000408 1 0.999999999999999 10 
2 5 4 
p 0.00760000408 1 0.999999999999999 10 
2 1 3 
p 0.00760000408 1 -10.0995049383621 -5.04975246918104 
2 4 5 
p 0.00760000408 1 -10.0995049383621 -5.04975246918104 
2 1 2 
p 0.00760000408 1 0 9 
2 1 2 
p 0.00760000408 1 0 9 
2 3 4 
p 0.00400000408 1 0 10 
2 3 4 
p 0.00400000408 1 0 10 
2 3 4 
p 0.00400000408 1 0 10 
2 1 2 
p 0.00400000408 1 0 10 
2 1 3 
p 0.00400000408 1 0 10 
2 1 3 
p 0.00400000408 1 0 10 
2 1 2 
p 0.00400000408 1 1 10 
2 4 3 
p 0.00400000408 1 1 10 
2 4 3 
p 0.00400000408 1 1 10 
2 1 3 
p 0.00400000408 1 0 10.0498756211209 
2 1 3 
p 0.00400000408 1 0 10.0498756211209 
2 1 3 
p 0.00400000408 1 0 10.0498756211209 
2 1 2 
p 0.00400000408 1 0 9 
2 3 4 
p 0.00400000408 1 0 9 
2 3 4 
p 0.00400000408 1 1 10 
2 2 3 
p 0.00400000408 1 1 10 
2 2 4 
p 0.00400000408 1 0 10 
2 3 1 
p 0.00400000408 1 0 10 
Surfaces 12
1 19 0 1 -1 0 -1.2246467991473532e-16 1.2246467991473532e-16 0 -1 0 -1 -0 
1 19 0 1 0 1 0 1.2246467991473532e-16 0 -1 -1 0 -1.2246467991473532e-16 
1 19 10 1 0 1 0 1.2246467991473532e-16 0 -1 -1 0 -1.2246467991473532e-16 
1 8.9999999999999982 0 1 -1.2185691100232392e-16 0.099503719020998901 0.99503719020998915 1.218569110023239e-17 0.99503719020998915 -0.099503719020998901 -1 0 -1.2246467991473532e-16 
1 0 0 0 0 1 0 0 0 1 1 0 0 
1 10 0 0 -0.99503719020998915 -0.099503719020998915 0 -0.099503719020998915 0.99503719020998915 0 0 0 -1 
1 10 0 0 0 0.099503719020998901 -0.99503719020998915 0 0.99503719020998915 0.099503719020998901 1 0 0 
1 8.9999999999999982 0 1 0.99503719020998915 -0.099503719020998915 1.2185691100232392e-16 0.099503719020998915 0.99503719020998915 1.2185691100232393e-17 -1.2246467991473532e-16 0 1 
1 19 0 -9 1.2246467991473532e-16 0 -1 -1 0 -1.2246467991473532e-16 0 1 0 
1 0 10 0 0 1 0 0 0 1 1 0 0 
1 0 0 10 0 0 1 1 0 0 0 1 0 
1 0 0 0 1 0 0 0 0 1 0 -1 0 
Triangulations 19
4 2 1 0.00400000408
19 0 1 19 0 -9 19 10 0 19 10 -9 0 0 10 0 1 -10 10 -10 2 1 3 2 3 4 
4 2 1 0.00400000408
19 0 1 9 0 1 19 0 -9 9 0 -9 0 0 -1.22464679914735e-15 10 10 1.22464679914735e-15 10 10 4 2 1 4 1 3 
6 4 1 0.00760000408
19 0 1 10 0 0.999999999999999 19 0 -9 9 0 -9 9 0 0 10 0 0 0 0 0 9 10 1.22464679914735e-15 10 10 0.999999999999999 10 0.999999999999999 9 6 2 1 3 6 1 4 5 6 4 6 3 
4 2 1 0.00400000408
19 10 -9 10 10 -9 19 0 -9 9 0 -9 0 10 9 10 0 0 10 0 2 1 3 2 3 4 
4 2 1 0.00400000408
10 10 0 19 10 0 19 10 -9 10 10 -9 0.999999999999999 9 1 0 10 1.22464679914735e-15 10 9 4 1 2 4 2 3 
4 2 1 0.00400000408
19 0 1 9 0 1 19 10 0 10 10 0 1.32035998042373e-16 -10 0 0 10.0498756211209 -10 10.0498756211209 -1 4 2 1 4 1 3 
5 3 1 0.00760000408
19 0 1 10 0 0.999999999999999 19 10 0 10 10 0 9.5 5 0.5 1.32035998042373e-16 -10 0 -1 10.0498756211209 -10 10.0498756211209 -1 5.02493781056045 -0.500000000000002 5 2 1 5 1 3 4 5 3 
4 2 1 0.00760000408
10 0 0.999999999999999 9 0 1 10 0 0 9 0 0 0 9 -1.22464679914735e-15 10 0.999999999999999 9 0.999999999999999 10 4 2 1 4 1 3 
5 3 1 0.00760000408
10 10 0 10 10 -9 9.5 5 0.5 9 0 0 9 0 -9 10.0498756211209 -1 10.0498756211209 -10 5.02493781056045 -0.5 0 -1 1.09250865010931e-16 -10 3 4 5 3 5 2 1 3 2 
4 2 1 0.00400000408
10 10 0 9 0 1 9 0 -9 10 10 -9 10.0498756211209 -1 0 0 1.09250865010931e-16 -10 10.0498756211209 -10 1 2 3 1 3 4 
5 3 1 0.00760000408
9 10 1 9 10 10 9.5 5 0.5 10 0 0.999999999999999 10 0 10 10.0498756211209 -1 10.0498756211209 -10 5.02493781056045 -0.5 0 -0.999999999999998 0 -10 3 4 5 3 5 2 1 3 2 
6 4 1 0.00760000408
0 0 0 9 0 0 0 0 10 10 0 10 10 0 0.999999999999999 9 0 1 0 0 0 9 10 0 10 10 0.999999999999999 10 1 9 6 2 1 3 6 1 4 5 6 4 6 3 
5 3 1 0.00760000408
0 0 0 9 0 0 0 10 1 9 10 1 9.5 5 0.5 0 -10 1.38777878078145e-17 -1 10.0498756211209 -10 10.0498756211209 -1 5.02493781056045 -0.500000000000002 5 2 1 5 1 3 4 5 3 
4 2 1 0.00400000408
9 10 1 0 10 1 0 10 10 9 10 10 1 9 1 0 10 0 10 9 4 1 2 4 2 3 
4 2 1 0.00400000408
9 10 1 10 0 0 10 0 10 9 10 10 10.0498756211209 -1 0 0 0 -10 10.0498756211209 -10 1 2 3 1 3 4 
4 2 1 0.00400000408
0 10 10 9 10 10 0 0 10 10 0 10 0 10 9 10 0 0 10 0 2 1 3 2 3 4 
4 2 1 0.00400000408
0 0 0 10 0 0 0 0 10 10 0 10 0 0 0 10 10 0 10 10 4 2 1 4 1 3 
4 2 1 0.00400000408
0 0 0 0 0 10 0 10 1 0 10 10 0 0 10 0 1 -10 10 -10 2 1 3 2 3 4 
4 2 1 0.00400000408
0 0 0 10 0 0 0 10 1 9 10 1 0 -10 0 0 10.0498756211209 -10 10.0498756211209 -1 4 2 1 4 1 3 

TShapes 77
Ve
1.00000000666134e-07
19 0 1
0 0

0101101
*
Ve
1e-07
19 0 -9
0 0

0101101
*
Ed
 1e-07 1 1 0
1  1 0 0 10
6  1 1 0
6  2 2 0
2  1 2 0 0 10
6  3 3 0
0

0101000
+77 0 -76 0 *
Ve
1e-07
19 10 -9
0 0

0101101
*
Ed
 1e-07 1 1 0
1  2 0 0 10
6  4 1 0
6  5 4 0
0

0101000
-74 0 +76 0 *
Ve
1.00000000055511e-07
19 10 0
0 0

0101101
*
Ed
 1e-07 1 1 0
1  3 0 1 10
6  6 1 0
6  7 5 0
2  2 3 0 1 10
0

0101000
+72 0 -74 0 *
Ed
 1e-07 1 1 0
1  4 0 0 10.0498756211209
6  8 1 4
6  9 6 4
2  3 4 4 0 10.0498756211209
6  10 7 4
0

0101000
+77 4 -72 4 *
Wi

0101100
-75 0 -73 0 +71 0 +70 3 *
Fa
0  1e-07 1 0
2  1
0111000
+69 0 *
Ve
5.10000000111022e-06
10 0 0.999999999999999
0 0

0101101
*
Ed
 1.00000000666134e-07 1 1 0
1  5 0 0 9
2  4 2 0 0 9
2  5 4 0 0 9
6  11 3 0
6  12 7 0
0

0101000
+77 0 -67 0 *
Ve
7.24846290581147e-06
10 0 0
0 0

0101101
*
Ed
 1e-07 1 1 0
1  6 0 0 0.999999999999999
2  6 5 0 0 0.999999999999999
2  7 6 0 0 0.999999999999999
2  8 2 0 0 0.999999999999999
6  13 3 0
6  14 8 0
0

0101000
+65 0 -67 0 *
Ve
5.10000000004389e-06
9 0 0
0 0

0101101
*
Ed
 1.00000000666134e-07 1 1 0
1  7 0 9 10
2  9 5 0 9 10
2  10 7 0 9 10
2  11 2 0 9 10
6  15 3 0
6  16 8 0
0

0101000
+63 0 -65 0 *
Ve
1.00000000666134e-07
9 0 -9
0 0

0101101
*
Ed
 1e-07 1 1 0
1  8 0 1 10
2  12 2 0 1 10
2  13 8 0 1 10
6  17 3 0
6  18 9 0
0

0101000
+63 0 -61 0 *
Ed
 1e-07 1 1 0
1  9 0 0 10
6  19 2 0
6  20 4 0
2  14 2 0 0 10
6  21 3 0
0

0101000
+76 0 -61 0 *
Wi

0101100
-66 0 +64 0 +62 0 -60 0 +59 0 +75 0 *
Fa
0  1e-07 2 0
2  3
0101000
+58 0 *
Ve
1e-07
10 10 -9
0 0

0101101
*
Ed
 1e-07 1 1 0
1  10 0 0 9
6  22 4 0
6  23 5 0
2  15 3 0 0 9
0

0101000
+74 0 -56 0 *
Ed
 1e-07 1 1 0
1  11 0 0 10.0498756211209
6  24 4 8
6  25 10 8
2  16 8 8 0 10.0498756211209
6  26 9 8
0

0101000
+61 8 -56 8 *
Wi

0101100
-55 0 +54 7 +59 0 -73 0 *
Fa
0  1e-07 9 0
2  4
0111000
+53 0 *
Ve
5.10000000356829e-06
10 10 0
0 0

0101101
*
Ed
 1e-07 1 1 0
1  12 0 1 10
6  27 5 0
6  28 6 0
2  17 4 0 1 10
2  18 3 0 1 10
6  29 7 0
0

0101000
+51 0 -72 0 *
Ed
 1e-07 1 1 0
1  13 0 1 10
6  30 5 0
6  31 10 0
2  19 8 0 1 10
2  20 3 0 1 10
6  32 9 0
0

0101000
+51 0 -56 0 *
Wi

0101100
+50 0 -49 0 +55 0 +71 0 *
Fa
0  1e-07 3 0
2  5
0111000
+48 0 *
Ve
5.1000000025511e-06
9.5 5 0.5
0 0

0101101
*
Ed
 5.1e-06 1 1 0
1  14 0 -4.95073771488337 0.0990147542976676
2  21 4 0 -4.95073771488337 0.0990147542976676
2  22 6 0 -4.95073771488337 0.0990147542976676
6  33 7 0
6  34 11 0
0

0101000
+46 0 -67 0 *
Ed
 5.1e-06 1 1 0
1  15 0 -10.0995049383621 -5.04975246918104
2  23 4 0 -10.0995049383621 -5.04975246918104
2  24 8 0 -10.0995049383621 -5.04975246918104
6  35 7 0
6  36 9 0
0

0101000
+51 0 -46 0 *
Wi

0101100
-66 0 +45 0 +44 0 -50 0 +70 3 *
Fa
0  1e-07 4 0
2  7
0101000
+43 0 *
Ve
7.24846290581147e-06
9 0 1
0 0

0101101
*
Ed
 1.00000000666134e-07 1 1 0
1  5 0 9 10
2  4 2 0 9 10
2  5 4 0 9 10
2  25 5 0 9 10
6  37 8 0
6  38 12 0
0

0101000
+67 0 -41 0 *
Ed
 1e-07 1 1 0
1  8 0 0 1
2  12 2 0 0 1
2  13 8 0 0 1
2  26 5 0 0 1
6  39 8 0
6  40 12 0
0

0101000
+41 0 -63 0 *
Wi

0101100
-40 0 -39 0 -62 0 -64 0 *
Fa
0  1e-07 2 0
2  8
0101000
+38 0 *
Ed
 5.1e-06 1 1 0
1  16 0 -0.0990147542976675 4.95073771488338
2  27 8 0 -0.0990147542976675 4.95073771488338
2  28 7 0 -0.0990147542976675 4.95073771488338
6  41 9 0
6  42 13 0
0

0101000
+63 0 -46 0 *
Wi

0101100
-49 0 +54 7 +60 0 -36 0 +44 0 *
Fa
0  1e-07 8 0
2  9
0101000
+35 0 *
Ve
5.10000000356829e-06
9 10 1
0 0

0101101
*
Ve
1e-07
9 10 10
0 0

0101101
*
Ed
 1e-07 1 1 0
1  17 0 1 10
6  43 14 0
6  44 15 0
2  29 6 0 1 10
2  30 10 0 1 10
6  45 11 0
0

0101000
+33 0 -32 0 *
Ve
1.00000000666134e-07
10 0 10
0 0

0101101
*
Ed
 1e-07 1 1 0
1  18 0 0 10.0498756211209
6  46 16 8
6  47 15 8
2  31 6 8 0 10.0498756211209
6  48 11 8
0

0101000
+30 8 -32 8 *
Ed
 1e-07 1 1 0
1  6 0 0.999999999999999 10
2  6 5 0 0.999999999999999 10
2  7 6 0 0.999999999999999 10
6  49 11 0
6  50 12 0
0

0101000
+67 0 -30 0 *
Ed
 5.1e-06 1 1 0
1  19 0 -10.0995049383621 -5.04975246918104
2  32 7 0 -10.0995049383621 -5.04975246918104
2  33 6 0 -10.0995049383621 -5.04975246918104
6  51 11 0
6  52 13 0
0

0101000
+33 0 -46 0 *
Wi

0101100
-31 0 +29 7 +28 0 +45 0 +27 0 *
Fa
0  1e-07 6 0
2  11
0101000
+26 0 *
Ve
1.00000000666134e-07
0 0 0
0 0

0101101
*
Ed
 1.00000000666134e-07 1 1 0
1  7 0 0 9
2  9 5 0 0 9
2  10 7 0 0 9
6  53 12 0
6  54 13 0
0

0101000
+24 0 -63 0 *
Ve
1e-07
0 0 10
0 0

0101101
*
Ed
 1e-07 1 1 0
1  20 0 0 10
6  55 17 0
6  56 16 0
2  34 5 0 0 10
6  57 12 0
0

0101000
+22 0 -30 0 *
Ed
 1e-07 1 1 0
1  21 0 0 10
6  58 18 0
6  59 17 0
2  35 5 0 0 10
6  60 12 0
0

0101000
+24 0 -22 0 *
Wi

0101100
-23 0 +39 0 +40 0 -28 0 +21 0 +20 0 *
Fa
0  1e-07 5 0
2  12
0101000
+19 0 *
Ve
1.00000000055511e-07
0 10 1
0 0

0101101
*
Ed
 1e-07 1 1 0
1  22 0 1 10
6  61 14 0
6  62 19 0
2  36 7 0 1 10
2  37 10 0 1 10
6  63 13 0
0

0101000
+33 0 -17 0 *
Ed
 1e-07 1 1 0
1  23 0 0 10.0498756211209
6  64 18 4
6  65 19 4
2  38 7 4 0 10.0498756211209
6  66 13 4
0

0101000
+24 4 -17 4 *
Wi

0101100
-23 0 -36 0 +27 0 -16 0 +15 3 *
Fa
0  1e-07 7 0
2  13
0101000
+14 0 *
Ve
1e-07
0 10 10
0 0

0101101
*
Ed
 1e-07 1 1 0
1  24 0 0 9
6  67 16 0
6  68 14 0
2  39 10 0 0 9
0

0101000
+12 0 -32 0 *
Ed
 1e-07 1 1 0
1  25 0 1 10
6  69 18 0
6  70 14 0
2  40 10 0 1 10
0

0101000
+17 0 -12 0 *
Wi

0101100
+16 0 -31 0 +11 0 +10 0 *
Fa
0  1e-07 10 0
2  14
0111000
+9 0 *
Ed
 1e-07 1 1 0
1  26 0 0 10
6  71 18 0
6  72 16 0
0

0101000
-12 0 +22 0 *
Wi

0101100
-11 0 +29 7 +21 0 -7 0 *
Fa
0  1e-07 11 0
2  16
0111000
+6 0 *
Wi

0101100
-20 0 -7 0 +10 0 +15 3 *
Fa
0  1e-07 12 0
2  18
0111000
+4 0 *
Sh

0101100
-68 0 -57 0 +52 0 +47 0 +42 0 -37 0 -34 0 -25 0 -18 0 +13 0 
+8 0 +5 0 -3 0 *
So

0100000
+2 0 *

+1 0 