DBRep_DrawableShape

CASCADE Topology V1, (c) Matra-Datavision
Locations 15
1
              1               0               0              10 
              0               1               0              -0 
              0               0               1              -0 
1
              1               0               0             -10 
              0               1               0               0 
              0               0               1               0 
2  1 1 2 1 0
2  1 -1 0
2  2 -1 1 -1 0
1
              1               0               0              -0 
              0               1               0              -5 
              0               0               1              -0 
1
              1               0               0               0 
              0               1               0               5 
              0               0               1               0 
2  6 1 7 1 0
2  6 -1 0
2  7 -1 6 -1 0
1
              1               0               0              -5 
              0               1               0              -0 
              0               0               1              -0 
2  11 -1 0
1
              1               0               0               5 
              0               1               0               0 
              0               0               1               0 
2  13 -1 11 -1 0
2  11 1 13 1 0
Curve2ds 77
1 10 0 0 -1 
1 0 0 0 1 
1 5 -5 0 -1 
1 0 0 1 0 
1 0 -10 1 0 
1 5 -5 1 0 
1 5 -5 1 0 
1 10 -5 -1 0 
1 0 0 1 0 
1 0 -10 1 0 
1 5 -10 0 1 
1 5 -10 0 1 
1 0 -10 1 0 
1 0 0 1 0 
1 0 0 0 -1 
1 0 0 0 1 
1 0 0 1 0 
1 0 0 1 0 
1 0 0 0 -1 
1 5 0 0 -1 
1 10 5 -1 0 
1 0 0 0 -1 
1 2.0000000000000018 0 0 -1 
1 4 0 0 1 
1 10 0 0 1 
1 0 0 1 0 
1 4 -10 0.19611613513818404 0.98058067569092022 
1 0 0 1 0 
1 0 -5 1 0 
1 5 -6 -0.98058067569092022 0.19611613513818404 
1 10 4 -0.98058067569092022 0.19611613513818404 
1 0 0 0 -1 
1 5 0 0 -1 
1 5 5 1 0 
1 0 0 1 0 
1 0 -5 1 0 
1 5 -5 -1 0 
1 5 0 0 -1 
1 0 0 0 -1 
1 5 10 0 -1 
1 10 5 0 -1 
1 0 0 1 0 
1 0 -5 1 0 
1 5 5 -1 0 
1 0 0 0 1 
1 0 10 1 0 
1 10 0 -1 0 
1 0 -0 1 0 
1 0 -5 1 0 
1 5 10 0 -1 
1 0 0 0 1 
1 0 0 1 0 
1 0 0 1 0 
1 0 10 1 0 
1 5 -5 0.19611613513818438 -0.98058067569092011 
1 0 0 1 0 
1 0 -5 1 0 
1 0 -5 0.98058067569092011 0.19611613513818438 
1 5 5 0.98058067569092011 0.19611613513818438 
1 0 0 0 1 
1 0 0 1 0 
1 0 -5 1 0 
1 0 5 1 0 
1 0 0 0 -1 
1 4 0 0 -1 
1 4 5 0 1 
1 5.0990195135927854 0 0 -1 
1 0 0 0 -1 
1 0 4 0.98058067569092022 0.19611613513818404 
1 0 0 1 0 
1 0 -5 1 0 
1 10 0 0 -1 
1 10 0 0 1 
1 4 0 0.19611613513818404 -0.98058067569092022 
1 0 0 0 -1 
1 5.0990195135927854 0 0 -1 
1 6.0000000000000018 0 0 1 
Curves 25
1 0 0 10 -0 1 0 
1 0 5 5 0 0 1 
1 0 10 5 0 -1 0 
1 0 10 0 0 0 1 
1 0 0 0 -0 1 0 
1 0 0 0 0 0 1 
1 10 5 10 -1 0 0 
1 4 0 10 0 1 0 
1 0 0 10 1 0 -0 
1 4 5 10 0.19611613513818404 0 -0.98058067569092022 
1 10 5 5 -1 0 0 
1 10 5 5 0 1 0 
1 10 10 5 -1 0 0 
1 10 10 5 0 0 -1 
1 0 10 0 1 0 -0 
1 10 10 0 0 -1 0 
1 0 0 0 1 0 -0 
1 10 0 0 0 0 1 
1 5 5 5 0.19611613513818435 0 0.98058067569092 
1 10 0 0 0 0 1 
1 5 0 4 1 0 0 
1 5 0 5 0 1 0 
1 10 0 4 0 0.98058067569092022 0.19611613513818404 
1 10 0 10 -0 1 0 
1 6.0000000000000018 0 10 0 1 0 
Polygon3D 0
PolygonOnTriangulations 104
2 1 2 
p 0.00400000008 1 0 5 
2 1 2 
p 0.00400000008 1 0 5 
2 1 2 
p 0.00400000008 1 0 5 
2 2 3 
p 0.0020001600800064 1 0 5 
2 2 3 
p 0.00400000008 1 0 5 
2 1 4 
p 0.00400000008 1 0 5 
2 6 2 
p 0.00400000008 1 0 5 
2 3 4 
p 0.00400000008 1 0 5 
2 1 2 
p 0.00400000008 1 0 5 
2 6 2 
p 0.00400000008 1 0 5 
2 3 4 
p 0.00400000008 1 0 5 
2 1 2 
p 0.0020001600800064 1 0 5 
2 2 3 
p 0.00400000008 1 0 5 
2 1 4 
p 0.00400000008 1 0 5 
2 5 6 
p 0.00400000008 1 0 5 
2 2 3 
p 0.00400000008 1 0 5 
2 1 5 
p 0.00400000008 1 0 5 
2 5 6 
p 0.00400000008 1 0 5 
2 3 4 
p 0.00400000008 1 0 5 
2 4 5 
p 0.00400000008 1 0 5 
2 3 4 
p 0.00400000008 1 0 5 
2 3 4 
p 0.00400000008 1 0 5 
2 1 3 
p 0.00400000008 1 0 10 
2 3 4 
p 0.00400000008 1 0 10 
2 1 2 
p 0.00400000008 1 0 10 
2 3 1 
p 0.00400000008 1 0 10 
2 1 2 
p 0.00400000008 1 0 10 
2 1 3 
p 0.00400000008 1 0 10 
2 3 1 
p 0.00400000008 1 0 10 
2 3 4 
p 0.00400000008 1 0 10 
2 5 6 
p 0.00400000008 1 0 10 
2 4 2 
p 0.00400000008 1 6 10 
2 1 4 
p 0.00400000008 1 6 10 
2 1 4 
p 0.00400000008 1 6 10 
2 3 4 
p 0.00400000008 1 0 5 
2 1 2 
p 0.00400000008 1 0 5 
2 1 2 
p 0.00400000008 1 0 5 
2 1 3 
p 0.00400000008 1 0 4 
2 4 5 
p 0.00400000008 1 0 4 
2 6 7 
p 0.00400000008 1 0 4 
2 1 2 
p 0.00400000008 1 0 5.09901951359278 
2 2 3 
p 0.00400000008 1 0 5.09901951359278 
2 2 3 
p 0.00400000008 1 5 10 
2 1 4 
p 0.00400000008 1 5 10 
2 1 2 
p 0.00400000008 1 0 5 
2 2 5 
p 0.00400000008 1 0 5 
2 2 3 
p 0.00400000008 1 5 10 
2 1 4 
p 0.00400000008 1 5 10 
2 5 4 
p 0.0040003200800064 1 0 5 
2 1 2 
p 0.00400000008 1 0 5 
2 5 4 
p 0.00400000008 1 0 5 
2 3 2 
p 0.00400000008 1 0 5 
2 1 2 
p 0.00400000008 1 0 5 
2 4 3 
p 0.0040003200800064 1 0 10 
2 2 4 
p 0.00400000008 1 0 10 
2 4 3 
p 0.00400000008 1 0 10 
2 3 4 
p 0.00400000008 1 0 5 
2 5 4 
p 0.00400000008 1 0 5 
2 1 2 
p 0.00400000008 1 4 10 
2 3 1 
p 0.00400000008 1 4 10 
2 7 2 
p 0.00400000008 1 6 10 
2 1 3 
p 0.00400000008 1 6 10 
2 9 2 
p 0.00400000008 1 6 10 
2 2 3 
p 0.0020001600800064 1 0 5.09901951359279 
2 6 7 
p 0.00400000008 1 0 5.09901951359279 
2 1 4 
p 0.00400000008 1 0 5.09901951359279 
2 3 4 
p 0.00400000008 1 0 5.09901951359279 
2 2 3 
p 0.00400000008 1 0 5.09901951359279 
2 8 9 
p 0.00400000008 1 0 5.09901951359279 
2 1 4 
p 0.00400000008 1 0 5.09901951359279 
2 1 2 
p 0.0020001600800064 1 0 5.09901951359278 
2 1 2 
p 0.00400000008 1 0 5.09901951359278 
2 2 3 
p 0.00400000008 1 0 5.09901951359278 
2 5 6 
p 0.00400000008 1 0 5.09901951359278 
2 1 4 
p 0.00400000008 1 0 5.09901951359278 
2 7 8 
p 0.00400000008 1 0 5.09901951359278 
2 1 4 
p 0.00400000008 1 0 5.09901951359278 
2 3 1 
p 0.0040003200800064 1 0 4 
2 4 3 
p 0.00400000008 1 0 4 
2 3 1 
p 0.00400000008 1 0 4 
2 3 1 
p 0.00400000008 1 0 5 
2 1 2 
p 0.00400000008 1 0 5 
2 4 3 
p 0.00400000008 1 0 5 
2 1 2 
p 0.00400000008 1 0 5 
2 1 2 
p 0.00400000008 1 0 5.09901951359278 
2 1 4 
p 0.00400000008 1 0 5.09901951359278 
2 3 4 
p 0.00400000008 1 0 5 
2 1 2 
p 0.00400000008 1 0 5 
2 3 4 
p 0.00400000008 1 0 5 
2 1 2 
p 0.00400000008 1 0 5 
2 4 2 
p 0.00400000008 1 0 5 
2 1 2 
p 0.00400000008 1 0 5 
2 3 4 
p 0.00400000008 1 0 5.09901951359278 
2 2 3 
p 0.00400000008 1 0 5.09901951359278 
2 1 2 
p 0.00400000008 1 0 5 
2 4 3 
p 0.00400000008 1 0 5 
2 4 3 
p 0.00400000008 1 0 5 
2 2 4 
p 0.00400000008 1 0 4 
2 4 2 
p 0.00400000008 1 0 4 
2 2 4 
p 0.00400000008 1 0 4 
2 2 3 
p 0.00400000008 1 0 5.09901951359279 
2 3 4 
p 0.00400000008 1 0 5.09901951359279 
2 3 4 
p 0.00400000008 1 0 5 
2 1 3 
p 0.00400000008 1 0 5 
Surfaces 21
1 0 0 0 1 0 -0 0 0 1 0 -1 0 
1 0 0 10 0 0 1 1 0 -0 -0 1 0 
1 -0 -0 0 -1 0 0 0 1 0 0 0 -1 
1 10 5 5 0 1 -0 0 0 1 1 -0 0 
1 10 0 0 1 0 -0 0 0 1 0 -1 0 
1 10 10 5 0 0 1 0 -1 0 1 0 -0 
1 0 10 0 -0 1 0 0 0 1 1 0 -0 
1 0 0 0 0 0 1 1 0 -0 -0 1 0 
1 0 0 0 -0 1 0 0 0 1 1 0 -0 
1 10 5 10 0 0 -1 0 1 0 1 -0 0 
1 4 0 10 -0.98058067569092022 0 -0.19611613513818404 0.19611613513818404 0 -0.98058067569092022 0 -1 -0 
1 6.0000000000000018 0 10 0 -0 1 -1 0 0 -0 -1 0 
1 0 5 -0 0 1 0 1 0 0 0 0 -1 
1 10 0 0 1 0 0 -0 1 0 0 -0 1 
1 5 5 5 0 0 1 0 1 0 -1 0 0 
1 10 10 10 -0 -1 -0 0 0 -1 1 -0 0 
1 5 10 5 -0 1 0 0 0 -1 -1 0 -0 
1 5 10 0 0 0 -1 0 -1 0 -1 -0 -0 
1 5 0 5 0.98058067569092011 0 -0.19611613513818438 0.19611613513818438 0 0.98058067569092011 0 -1 0 
1 5 0 0 0 -1 0 0 0 1 -1 0 0 
1 5 0 4 0 -0.19611613513818404 0.98058067569092022 0 0.98058067569092022 0.19611613513818404 -1 0 0 
Triangulations 31
6 4 1 0.00400000008
0 0 10 0 5 10 0 0 0 0 10 0 0 10 5 0 5 5 10 0 10 -5 0 0 0 -10 5 -10 5 -5 6 3 4 6 4 5 1 6 2 1 3 6 
4 2 1 0.00400000008
0 0 10 0 5 10 10 0 10 10 5 10 0 0 0 5 10 0 10 5 4 2 1 4 1 3 
4 2 1 0.00400000008
0 0 10 0 5 10 4 0 10 4 5 10 0 0 0 5 4 0 4 5 4 2 1 4 1 3 
4 2 1 0.0020001600800064
0 10 5 0 5 5 0 5 10 0 10 10 10 -5 5 -5 5 -10 10 -10 1 2 3 1 3 4 
4 2 1 0.00400000008
10 5 5 0 5 5 0 5 10 10 5 10 0 0 0 -10 5 -10 5 0 4 1 2 4 2 3 
4 2 1 0.00400000008
4 5 10 5 5 5 0 5 5 0 5 10 5 -6 0 -5 0 -10 5 -10 1 2 3 1 3 4 
4 2 1 0.00400000008
10 5 5 10 5 10 5 5 5 6 5 10 0 0 5 0 0 -5 5 -4 4 1 3 2 1 4 
6 4 1 0.00400000008
10 0 10 10 5 10 10 0 0 10 10 0 10 10 5 10 5 5 10 0 10 -5 0 0 0 -10 5 -10 5 -5 6 3 4 6 4 5 1 6 2 1 3 6 
4 2 1 0.00400000008
4 5 10 5 5 5 0 5 5 0 5 10 5 -6 0 -5 0 -10 5 -10 1 2 3 1 3 4 
4 2 1 0.00400000008
10 10 5 0 10 5 0 5 5 10 5 5 0 0 0 -10 5 -10 5 0 4 1 2 4 2 3 
5 3 1 0.00400000008
10 10 5 0 10 5 0 5 5 5 5 5 10 5 5 0 0 0 -10 5 -10 5 -5 5 0 4 1 2 4 2 3 5 1 4 
4 2 1 0.00400000008
5 5 5 5 10 5 0 10 5 0 5 5 5 -5 0 -5 0 -10 5 -10 1 2 3 1 3 4 
4 2 1 0.00400000008
10 10 0 10 10 5 0 10 0 0 10 5 0 10 5 10 0 0 5 0 2 1 3 2 3 4 
4 2 1 0.00400000008
5 10 5 5 10 0 0 10 0 0 10 5 5 5 0 5 0 0 5 0 1 2 3 1 3 4 
4 2 1 0.00400000008
0 0 0 0 0 10 0 10 0 0 10 10 0 0 10 0 0 -10 10 -10 2 1 3 2 3 4 
4 2 1 0.00400000008
0 0 0 0 10 0 10 0 0 10 10 0 0 0 0 10 10 0 10 10 4 2 1 4 1 3 
4 2 1 0.00400000008
0 10 0 5 10 0 0 0 0 5 0 0 0 10 5 10 0 0 5 0 2 1 3 2 3 4 
4 2 1 0.00400000008
0 0 0 10 0 0 0 0 10 10 0 10 0 0 0 10 10 0 10 10 4 2 1 4 1 3 
7 5 1 0.00400000008
10 0 0 10 0 10 0 0 0 0 0 10 4 0 10 5 0 5 6 0 10 0 10 10 10 0 0 10 0 10 4 5 5 10 6 6 1 3 6 3 4 5 6 4 2 6 7 2 1 6 
9 7 1 0.00400000008
10 0 4 10 0 10 5 0 4 5 0 0 0 0 0 0 0 10 4 0 10 5 0 5 6 0 10 4 10 10 10 4 5 0 5 0 0 10 0 10 4 5 5 10 6 3 4 5 8 3 5 6 8 5 1 3 8 7 8 6 2 8 9 2 1 8 
4 2 1 0.00400000008
4 0 10 4 5 10 5 5 5 5 0 5 0 0 0 -5 5.09901951359279 -5 5.09901951359278 0 4 1 2 4 2 3 
4 2 1 0.00400000008
4 0 10 4 5 10 5 5 5 5 0 5 0 0 0 -5 5.09901951359279 -5 5.09901951359278 0 4 1 2 4 2 3 
5 3 1 0.00400000008
5 0 4 5 5 5 5 0 0 5 10 0 5 10 5 0 4 5 5 0 0 10 0 10 5 2 1 3 2 3 4 5 2 4 
5 3 1 0.0040003200800064
10 0 4 10 5 5 10 0 0 10 10 0 10 10 5 0 4 5 5 0 0 10 0 10 5 2 1 3 2 3 4 5 2 4 
4 2 1 0.00400000008
10 0 10 10 5 10 10 0 4 10 5 5 10 0 10 -5 4 0 5 -5 1 3 4 1 4 2 
4 2 1 0.00400000008
6 0 10 6 5 10 10 0 10 10 5 10 6 0 6 5 10 0 10 5 4 2 1 4 1 3 
3 1 1 0.0020001600800064
4 5 10 5 5 5 6 5 10 4 -10 5 -5 6 -10 2 1 3 
4 2 1 0.00400000008
5 0 5 5 5 5 6 5 10 6 0 10 0 0 0 -5 5.09901951359279 -5 5.09901951359279 0 4 1 2 4 2 3 
4 2 1 0.00400000008
5 0 5 5 5 5 6 5 10 6 0 10 0 0 0 -5 5.09901951359279 -5 5.09901951359279 0 4 1 2 4 2 3 
4 2 1 0.00400000008
5 0 4 10 0 4 10 5 5 5 5 5 0 0 0 -5 5.09901951359279 -5 5.09901951359278 0 4 1 2 4 2 3 
4 2 1 0.00400000008
10 5 5 10 5 10 5 5 5 6 5 10 0 0 5 0 0 -5 5 -4 4 1 3 2 1 4 

TShapes 78
Ve
1e-07
0 0 10
0 0

0101101
*
Ve
1e-07
0 5 10
0 0

0101101
*
Ed
 1e-07 1 1 0
1  1 0 0 5
2  1 1 0 0 5
2  2 2 0 0 5
6  1 2 0
6  2 1 0
6  3 3 0
0

0101000
+78 0 -77 3 *
Ve
1e-07
0 5 5
0 0

0101101
*
Ed
 1e-07 1 1 0
1  2 0 0 5
2  3 3 0 0 5
6  4 4 0
2  4 4 4 0 5
2  5 4 5 0 5
2  6 1 5 0 5
2  7 5 4 0 5
6  5 5 5
6  6 5 4
6  7 1 5
6  8 6 5
6  9 7 4
6  10 8 4
6  11 9 5
0

0101000
+75 0 -77 0 *
Ve
1e-07
0 10 5
0 0

0101101
*
Ed
 1e-07 1 1 0
1  3 0 0 5
2  8 3 0 0 5
6  12 4 0
2  9 6 4 0 5
2  10 6 5 0 5
2  11 1 5 0 5
2  12 5 4 0 5
6  13 10 5
6  14 10 4
6  15 1 5
6  16 11 5
6  17 11 4
6  18 8 4
6  19 12 5
0

0101000
+73 0 -75 0 *
Ve
1e-07
0 10 0
0 0

0101101
*
Ed
 1e-07 1 1 0
1  4 0 0 5
2  13 1 0 0 5
2  14 7 0 0 5
6  20 1 0
6  21 13 0
6  22 14 0
0

0101000
+71 0 -73 3 *
Ve
1e-07
0 0 0
0 0

0101101
*
Ed
 1e-07 1 1 0
1  5 0 0 10
2  15 1 0 0 10
2  16 8 0 0 10
6  23 15 0
6  24 1 0
6  25 16 0
6  26 17 0
0

0101000
-71 0 +69 0 *
Ed
 1e-07 1 1 0
1  6 0 0 10
2  17 1 0 0 10
2  18 9 0 0 10
6  27 15 0
6  28 18 0
6  29 1 0
6  30 19 0
6  31 20 0
0

0101000
-78 0 +69 0 *
Wi

0101100
-76 0 +74 3 +72 3 +70 0 +68 0 -67 0 *
Fa
0  1e-07 1 0
2  1
0111000
+66 0 *
Ve
1e-07
4 5 10
0 0

0101101
*
Ed
 1e-07 1 1 0
1  7 0 6 10
2  19 10 0 6 10
2  20 4 0 6 10
2  21 2 0 6 10
6  32 3 0
6  33 6 0
6  34 9 0
0

0101000
+64 8 -77 3 *
Ed
 1e-07 1 1 0
1  8 0 0 5
2  22 11 0 0 5
2  23 12 0 0 5
2  24 2 0 0 5
6  35 3 0
6  36 21 0
6  37 22 0
0

0101000
+64 6 -64 8 *
Ed
 1e-07 1 1 0
1  9 0 0 4
2  25 9 0 0 4
2  26 2 0 0 4
6  38 3 0
6  39 19 0
6  40 20 0
0

0101000
+78 0 -64 6 *
Wi

0101100
-76 0 +63 0 +62 0 +61 0 *
Fa
0  1e-07 2 0
2  3
0111000
+60 0 *
Ve
1e-07
5 5 5
0 0

0101101
*
Ed
 1e-07 1 1 0
1  10 0 0 5.09901951359278
2  27 13 0 0 5.09901951359278
2  28 11 9 0 5.09901951359278
2  29 11 10 0 5.09901951359278
2  30 4 10 0 5.09901951359278
2  31 9 9 0 5.09901951359278
6  41 9 10
6  42 22 10
0

0101000
+64 0 -58 10 *
Ed
 1e-07 1 1 0
1  11 0 5 10
2  32 4 0 5 10
2  33 6 0 5 10
6  43 9 0
6  44 12 0
0

0101000
+58 0 -75 3 *
Wi

0101100
+57 8 -63 0 +74 3 +56 0 *
Fa
0  1e-07 4 0
2  9
0101000
+55 0 *
Ve
1e-07
10 10 5
0 0

0101101
*
Ed
 1e-07 1 1 0
1  12 0 0 5
2  34 14 0 0 5
2  35 15 12 0 5
2  36 15 14 0 5
2  37 6 12 0 5
6  45 12 12
6  46 23 12
0

0101000
+58 12 -53 0 *
Ed
 1e-07 1 1 0
1  13 0 5 10
2  38 16 0 5 10
2  39 6 0 5 10
2  40 7 0 5 10
6  47 12 0
6  48 14 0
0

0101000
+53 11 -73 3 *
Wi

0101100
+52 11 -56 0 +72 3 +51 0 *
Fa
0  1e-07 6 0
2  12
0101000
+50 0 *
Ve
1e-07
10 10 0
0 0

0101101
*
Ed
 1e-07 1 1 0
1  14 0 0 5
2  41 14 0 0 5
6  49 24 0
2  42 17 12 0 5
2  43 17 14 0 5
2  44 7 12 0 5
6  50 14 12
6  51 23 12
0

0101000
+53 0 -48 0 *
Ed
 1e-07 1 1 0
1  15 0 0 5
2  45 7 0 0 5
2  46 8 0 0 5
6  52 14 0
6  53 17 0
0

0101000
+71 0 -48 11 *
Wi

0101100
+47 11 -51 0 +70 0 -46 0 *
Fa
0  1e-07 7 0
2  14
0101000
+45 0 *
Ve
1e-07
10 0 0
0 0

0101101
*
Ed
 1e-07 1 1 0
1  16 0 0 10
2  47 14 0 0 10
6  54 24 0
2  48 18 12 0 10
2  49 18 14 0 10
2  50 8 12 0 10
6  55 17 12
6  56 23 12
0

0101000
+48 0 -43 0 *
Ed
 1e-07 1 1 0
1  17 0 0 5
2  51 9 0 0 5
2  52 8 0 0 5
6  57 17 0
6  58 20 0
0

0101000
+69 0 -43 11 *
Wi

0101100
-46 0 -42 11 +41 0 -68 0 *
Fa
0  1e-07 8 0
2  17
0101000
+40 0 *
Ve
1e-07
10 0 4
0 0

0101101
*
Ve
1e-07
10 0 10
0 0

0101101
*
Ed
 1e-07 1 1 0
1  18 0 4 10
2  53 5 0 4 10
2  54 9 0 4 10
6  59 20 0
6  60 25 0
0

0101000
+38 15 -37 0 *
Ve
1e-07
6 5 10
0 0

0101101
*
Ed
 1e-07 1 1 0
1  9 0 6 10
2  25 9 0 6 10
2  26 2 0 6 10
6  61 19 0
6  62 26 0
6  63 20 0
0

0101000
+35 6 -37 0 *
Ve
1e-07
5 5 5
0 0

0101101
*
Ed
 1e-07 1 1 0
1  19 0 0 5.09901951359279
2  55 13 0 0 5.09901951359279
6  64 27 0
2  56 19 9 0 5.09901951359279
2  57 19 10 0 5.09901951359279
2  58 4 10 0 5.09901951359279
2  59 9 9 0 5.09901951359279
6  65 19 9
6  66 28 9
6  67 7 10
6  68 28 10
6  69 20 9
6  70 29 9
0

0101000
+33 0 -35 0 *
Ed
 1e-07 1 1 0
1  10 0 0 5.09901951359278
2  27 13 0 0 5.09901951359278
6  71 27 0
2  28 11 9 0 5.09901951359278
2  29 11 10 0 5.09901951359278
2  30 4 10 0 5.09901951359278
2  31 9 9 0 5.09901951359278
6  72 6 10
6  73 21 10
6  74 19 9
6  75 21 9
6  76 20 9
6  77 22 9
0

0101000
+64 0 -33 0 *
Ed
 1e-07 1 1 0
1  20 0 0 4
2  60 14 0 0 4
6  78 24 0
2  61 20 12 0 4
2  62 20 14 0 4
2  63 9 12 0 4
6  79 20 12
6  80 23 12
0

0101000
+43 0 -38 0 *
Ed
 1e-07 1 1 0
1  21 0 0 5
2  64 21 0 0 5
2  65 20 0 0 5
2  66 9 0 0 5
6  81 20 0
6  82 30 0
0

0101000
+38 11 -38 15 *
Wi

0101100
-36 0 +34 0 +32 6 +31 6 +61 0 +67 0 -41 0 -30 11 -29 0 *
Fa
0  1e-07 9 0
2  20
0101000
+28 0 *
Ed
 1e-07 1 1 0
1  22 0 0 5
2  67 11 0 0 5
2  68 19 0 0 5
6  83 22 0
6  84 29 0
0

0101000
+33 6 -58 0 *
Wi

0101100
+62 0 -26 0 -31 6 +57 8 *
Fa
0  1e-07 11 0
2  22
0101000
+25 0 *
Ed
 1e-07 1 1 0
1  23 0 0 5.09901951359278
2  69 14 0 0 5.09901951359278
2  70 21 12 0 5.09901951359278
2  71 21 14 0 5.09901951359278
6  85 23 12
6  86 30 12
0

0101000
+38 0 -58 12 *
Wi

0101100
-23 11 -30 11 -42 11 -47 11 -52 11 *
Fa
0  1e-07 14 11
2  23
0101000
+22 0 *
Ed
 1e-07 1 1 0
1  24 0 0 5
2  72 5 0 0 5
2  73 2 0 0 5
6  87 2 0
6  88 8 0
6  89 26 0
6  90 25 0
0

0101000
+37 0 -77 1 *
Ve
1e-07
10 5 5
0 0

0101101
*
Ed
 1e-07 1 1 0
1  2 0 0 5
2  3 3 0 0 5
2  4 4 4 0 5
2  5 4 5 0 5
2  6 1 5 0 5
2  7 5 4 0 5
6  91 25 4
6  92 31 4
0

0101000
+19 4 -77 0 *
Ed
 1e-07 1 1 0
1  23 0 0 5.09901951359278
2  69 14 0 0 5.09901951359278
2  70 21 12 0 5.09901951359278
2  71 21 14 0 5.09901951359278
2  74 5 14 0 5.09901951359278
6  93 25 14
6  94 30 14
0

0101000
+38 0 -19 14 *
Wi

0101100
-20 0 +18 1 +17 15 -36 0 *
Fa
0  1e-07 5 0
2  25
0101000
+16 0 *
Ed
 1e-07 1 1 0
1  25 0 0 5
2  75 12 0 0 5
2  76 19 0 0 5
2  77 2 0 0 5
6  95 26 0
6  96 28 0
6  97 29 0
0

0101000
+35 6 -35 8 *
Ed
 1e-07 1 1 0
1  7 0 0 4
2  19 10 0 0 4
2  20 4 0 0 4
2  21 2 0 0 4
6  98 7 0
6  99 26 0
6  100 31 0
0

0101000
+77 1 -35 8 *
Wi

0101100
-14 0 +13 0 +20 0 +34 0 *
Fa
0  1e-07 2 0
2  26
0111000
+12 0 *
Ed
 1e-07 1 1 0
1  19 0 0 5.09901951359279
2  55 13 0 0 5.09901951359279
2  56 19 9 0 5.09901951359279
2  57 19 10 0 5.09901951359279
2  58 4 10 0 5.09901951359279
2  59 9 9 0 5.09901951359279
6  101 29 10
6  102 31 10
0

0101000
+58 10 -35 0 *
Wi

0101100
+26 0 -14 0 -32 6 +10 8 *
Fa
0  1e-07 19 0
2  29
0101000
+9 0 *
Ed
 1e-07 1 1 0
1  11 0 0 5
2  32 4 0 0 5
2  33 6 0 0 5
6  103 30 0
6  104 31 0
0

0101000
+19 0 -58 0 *
Wi

0101100
+29 0 +7 0 -23 11 +17 15 *
Fa
0  1e-07 21 0
2  30
0101000
+6 0 *
Wi

0101100
-18 1 -13 0 +10 8 +7 0 *
Fa
0  1e-07 4 0
2  31
0101000
+4 0 *
Sh

0101100
-65 0 +59 0 +54 0 +49 0 +44 0 -39 0 -27 0 -24 0 +21 0 +15 0 
+11 0 -8 0 -5 0 +3 0 *
So

0100000
+2 0 *

+1 0 