DBRep_DrawableShape

CASCADE Topology V1, (c) Matra-Datavision
Locations 36
1
              1               0               0               1 
              0               1               0              -0 
              0               0               1              -0 
1
              1               0               0              -1 
              0               1               0               0 
              0               0               1               0 
2  1 1 2 1 0
1
              1               0               0              10 
              0               1               0              -0 
              0               0               1              -0 
2  4 -1 0
1
              1               0               0             -10 
              0               1               0               0 
              0               0               1               0 
2  6 -1 4 -1 0
2  1 -1 0
2  2 -1 1 -1 0
1
              1               0               0              -0 
              0               1               0              -0 
              0               0               1              -1 
1
              1               0               0               0 
              0               1               0               0 
              0               0               1               1 
2  10 1 11 1 0
2  10 -1 0
2  11 -1 10 -1 0
1
              1               0               0              -1 
              0               1               0              -0 
              0               0               1              -0 
1
              1               0               0               1 
              0               1               0               0 
              0               0               1               0 
2  15 1 16 1 0
1
              1               0               0              -0 
              0               1               0              -0 
              0               0               1               1 
1
              1               0               0               0 
              0               1               0               0 
              0               0               1              -1 
2  18 1 19 1 0
1
              1               0               0              -0 
              0               1               0              -0 
              0               0               1              10 
2  21 -1 0
1
              1               0               0               0 
              0               1               0               0 
              0               0               1             -10 
2  23 -1 21 -1 0
2  18 -1 0
2  19 -1 18 -1 0
1
              1               0               0              -0 
              0               1               0            -1.2 
              0               0               1              -0 
1
              1               0               0              -0 
              0               1               0             -10 
              0               0               1              -0 
2  28 -1 0
1
              1               0               0               0 
              0               1               0              10 
              0               0               1               0 
2  30 -1 28 -1 0
2  27 -1 0
1
              1               0               0               0 
              0               1               0             1.2 
              0               0               1               0 
2  33 -1 27 -1 0
2  15 -1 0
2  16 -1 15 -1 0
Curve2ds 140
1 3 0 0 -1 
1 0 0 0 1 
1 0 -1.2 1 0 
1 0 0 1 0 
1 1.2 -2 -0.099503719020999012 0.99503719020998926 
1 0 0 1 0 
1 -0 -10 1 0 
1 2 -1.2 -0.99503719020998926 0.099503719020999012 
1 0 0 1 0 
1 -0 -1 1 0 
1 2 -1.2 -0.99503719020998926 0.099503719020999012 
1 1.0999999999999999 -1 0 1 
1 0 0 1 0 
1 0 -10 1 0 
1 1 -1.0999999999999999 -1 0 
1 0 0 1 0 
1 0 -1 1 0 
1 1 -1.0999999999999999 -1 0 
1 0 0 0 -1 
1 0 0 0 1 
1 0 0 1 0 
1 0 0 1 0 
1 3 0 0 1 
1 0 1.2 1 0 
1 1 0.89999999999999969 0 1 
1 0 0 1 0 
1 0 -1 1 0 
1 1 0.89999999999999969 0 1 
1 2 0.90000000000000002 -1 -3.3306690738754696e-16 
1 0 0 1 0 
1 0 -1 1 0 
1 2 0.90000000000000002 -1 -3.3306690738754696e-16 
1 0 0 0 -1 
1 1 0 0 -1 
1 2 0.90000000000000013 1 0 
1 3 0 0 -1 
1 3 0 0 1 
1 3 0 0 1 
1 0 0 1 0 
1 2 0 0 -1 
1 0 0 -0 -1 
1 2 1 0 -1 
1 0 0 0 -1 
1 0.30000000000000027 0 0 -1 
1 2 1 1 0 
1 1.0049875621120892 0 -0 -1 
1 0 0 0 -1 
1 1 -1.2 -0.99503719020998926 0.099503719020999012 
1 0 -8 0.099503719020999012 -0.99503719020998926 
1 0 0 0 -1 
1 1 0 0 -1 
1 1 1.0999999999999999 -1 0 
1 0 0 0 -1 
1 1 -1.0999999999999999 0.99503719020998926 0.099503719020999026 
1 0 0 1 0 
1 0 -10 1 0 
1 0 0 1 0 
1 0 -1 1 0 
1 1 1.0999999999999999 0.99503719020998926 -0.099503719020999026 
1 1.9999999999999998 -0.99999999999999978 1 0 
1 0 0 1 0 
1 0 -10 1 0 
1 1.9999999999999998 0.99999999999999978 1 0 
1 0 0 1 0 
1 0 -1 1 0 
1 1.9999999999999998 0.99999999999999978 1 0 
1 0 0 0 -1 
1 3 0 0 1 
1 0 0 0 1 
1 0 0 1 0 
1 0 0 1 0 
1 0 3 1 0 
1 1 -2 1 0 
1 0 0 1 0 
1 0 -10 1 0 
1 2 1 0 1 
1 0 0 1 0 
1 0 -1.2 1 0 
1 2 1 0 1 
1 2 1 0 1 
1 2 -9 0 1 
1 -0 -9 0 1 
1 2 -2 0 1 
1 0 -0 1 0 
1 0 -10 1 0 
1 2 2 -1 0 
1 0 -0 1 0 
1 0 -1.2 1 0 
1 2 2 -1 0 
1 2 2 -1 0 
1 2 -8 -1 0 
1 1 -8 0 -1 
1 2 -1.0000000000000078 -1 7.7715611723760958e-15 
1 0 0 1 0 
1 0 -10 1 0 
1 1.0000000000000078 2 -7.7715611723760958e-15 -1 
1 0 0 1 0 
1 0 -1.2 1 0 
1 1.0000000000000078 2 -7.7715611723760958e-15 -1 
1 1.0000000000000078 2 -7.7715611723760958e-15 -1 
1 1.0000000000000078 -8 -7.7715611723760958e-15 -1 
1 1 -8.9999999999999929 1 -7.7715611723760958e-15 
1 1 -1 0 -1 
1 0 0 1 0 
1 0 -10 1 0 
1 1 1 1 0 
1 0 0 1 0 
1 0 -1.2 1 0 
1 1 1 1 0 
1 1 1 1 0 
1 1 -9 1 0 
1 1 0 0 -1 
1 0 0 0 -1 
1 0 0 0 -1 
1 1 0 0 -1 
1 0.90000000000000013 2 0 1 
1 0 0 1 0 
1 0 -1 1 0 
1 2 -0.90000000000000013 1 0 
1 1 -0.90000000000000002 -1 3.3306690738754696e-16 
1 1.0049875621120892 0 0 -1 
1 0 0 0 -1 
1 0.99999999999999978 1 -0.099503719020998568 0.99503719020998926 
1 0 0 1 0 
1 0 -1 1 0 
1 1 -0.99999999999999978 0.99503719020998926 0.099503719020998568 
1 0 0 0 -1 
1 1.0000000000000002 0 0 -1 
1 1 -0.99999999999999978 -1 0 
1 1 0 0 -1 
1 0 0 0 -1 
1 1.004987562112089 0 0 -1 
1 0 0 0 -1 
1 1 -1.0999999999999999 -0.99503719020998926 0.099503719020999026 
1 0 2.2204460492503131e-16 0 -1 
1 1 0 0 -1 
1 0 -0 0 -1 
1 0.99999999999999223 0 0 -1 
1 0 0 0 -1 
1 1 -0.99999999999999978 -0.99503719020998926 0.099503719020998568 
Curves 35
1 0 0 3 -0 1 0 
1 0 1.2 0 0 0 1 
1 0 1.2 2 0 -0.099503719020999012 -0.99503719020998926 
1 0 1.0999999999999999 1 0 0 -1 
1 0 0 0 -0 1 0 
1 0 0 0 0 0 1 
1 0 1.2 3 1 0 -0 
1 1 0.89999999999999969 3 0 1 0 
1 2 0.90000000000000002 3 -1 -3.3306690738754696e-16 0 
1 2 0.90000000000000013 3 1 0 0 
1 3 0 3 -0 1 0 
1 0 0 3 1 0 -0 
1 1 1.2 2 -1 0 0 
1 1 1.2 2 0 0 1 
1 1 1.0999999999999999 1 -1 0 0 
1 1 1.0999999999999999 0 -1 0 0 
1 1 1.0999999999999999 0 0.99503719020998926 -0.099503719020999026 0 
1 1.9999999999999998 0.99999999999999978 0 1 0 0 
1 3 0 0 -0 1 0 
1 0 0 0 1 0 -0 
1 3 0 0 0 0 1 
1 1 1.2 2 1 0 0 
1 2 1.2 2 0 0 -1 
1 2 1.2 1.0000000000000078 -1 0 -7.7715611723760958e-15 
1 1 1.2 1 0 0 1 
1 1 0.89999999999999969 2 0 0 1 
1 1 0 2 0 1 0 
1 3 0.90000000000000013 2 0 0 1 
1 2 0.90000000000000013 2 1 0 0 
1 3 0.99999999999999978 1 0 -0.099503719020998568 0.99503719020998926 
1 3 0.99999999999999978 1 0 0 -1 
1 1 0 1 0 1 0 
1 1.9999999999999998 0.99999999999999978 1 0 0 -1 
1 2 0 2 0 1 0 
1 2 0 1.0000000000000078 0 1 0 
Polygon3D 0
PolygonOnTriangulations 196
2 2 4 
p 0.00120000008 1 0 1.2 
2 1 2 
p 0.00120000008 1 0 1.2 
2 3 1 
p 0.00120000008 1 0 1.2 
2 1 2 
p 0.00120000008000001 1 0 1.2 
2 1 2 
p 0.00120000008000001 1 0 1.2 
2 3 1 
p 0.00120000008000001 1 0 1.2 
2 3 1 
p 0.00120000008000001 1 0 1.2 
2 7 8 
p 0.00120000008 1 2 3 
2 4 1 
p 0.00120000008 1 2 3 
2 6 7 
p 0.00120000008000001 1 2 3 
2 6 2 
p 0.00120000008000001 1 2 3 
2 5 1 
p 0.00120000008000001 1 2 3 
2 1 2 
p 0.00120000008000001 1 2 3 
2 2 4 
p 0.0008000640800064 1 0 1.00498756211209 
2 6 5 
p 0.00120000408 1 0 1.00498756211209 
2 3 4 
p 0.00120000408 1 0 1.00498756211209 
2 2 3 
p 0.00120000008 1 0 1.00498756211209 
2 6 5 
p 0.00120000008000001 1 0 1.00498756211209 
2 2 3 
p 0.00120000008000001 1 0 1.00498756211209 
2 2 3 
p 0.00120000008000001 1 0 1.00498756211209 
2 4 3 
p 0.0008000640800064 1 0 1 
2 5 4 
p 0.00120000408 1 0 1 
2 4 5 
p 0.00120000408 1 0 1 
2 2 3 
p 0.00120000008 1 0 1 
2 1 4 
p 0.00120000008 1 0 1 
2 4 3 
p 0.00120000008 1 0 1 
2 2 3 
p 0.00120000008 1 0 1 
2 5 4 
p 0.00120000008000001 1 0 1 
2 2 3 
p 0.00120000008000001 1 0 1 
2 1 2 
p 0.00120000008 1 0 1.1 
2 1 2 
p 0.00120000008 1 0 1.1 
2 3 4 
p 0.00120000008000001 1 0 1.1 
2 1 2 
p 0.00120000008000001 1 0 1.1 
2 1 3 
p 0.00120000008 1 0 3 
2 1 3 
p 0.00120000008 1 0 3 
2 1 2 
p 0.00120000008 1 0 3 
2 3 1 
p 0.00120000008 1 0 3 
2 3 1 
p 0.00120000008000001 1 0 3 
2 1 3 
p 0.00120000008000001 1 0 3 
2 1 2 
p 0.00120000008000001 1 0 1 
2 2 3 
p 0.00120000008000001 1 0 1 
2 1 2 
p 0.0004000320800064 1 0 0.3 
2 7 2 
p 0.00120000008000001 1 0 0.3 
2 2 3 
p 0.00120000008000001 1 0 0.3 
2 6 7 
p 0.00120000008000001 1 0 1 
2 2 3 
p 0.00120000008000001 1 0 1 
2 6 5 
p 0.00120000008000001 1 0 1 
2 4 3 
p 0.00120000008000001 1 0 1 
2 4 5 
p 0.00120000008000001 1 0 0.9 
2 1 2 
p 0.00120000008000001 1 0 0.9 
2 4 5 
p 0.00120000008000001 1 0 0.9 
2 3 4 
p 0.00120000008 1 0 3 
2 3 4 
p 0.00120000008 1 0 3 
2 3 4 
p 0.00120000008 1 0 3 
2 1 3 
p 0.00120000008000001 1 0 3 
2 3 4 
p 0.00120000008000001 1 0 3 
2 3 4 
p 0.00120000008000001 1 0 3 
2 3 4 
p 0.00120000008000001 1 0 3 
2 4 1 
p 0.00120000008000001 1 0 1 
2 1 2 
p 0.00120000008000001 1 0 1 
2 4 3 
p 0.00120000008000001 1 0 1 
2 4 3 
p 0.00120000008000001 1 0 1 
2 4 3 
p 0.00120000008000001 1 0 1 
2 1 2 
p 0.00120000008000001 1 0 1 
2 4 3 
p 0.00120000008000001 1 0 1 
2 1 4 
p 0.00120000008000001 1 0 1.00498756211209 
2 4 3 
p 0.00120000008000001 1 0 1.00498756211209 
2 4 3 
p 0.00120000008000001 1 0 1 
2 6 2 
p 0.00120000008000001 1 0 1 
2 1 2 
p 0.00120000008000001 1 0 1 
2 1 4 
p 0.00120000008000001 1 0 1 
2 1 2 
p 0.00120000008000001 1 0 1 
2 2 3 
p 0.00120000008000001 1 0 1.00498756211209 
2 6 5 
p 0.00120000008000001 1 0 1.00498756211209 
2 2 3 
p 0.00120000008000001 1 0 1.00498756211209 
2 5 4 
p 0.0008000640800064 1 0 1 
2 5 4 
p 0.00120000408 1 0 1 
2 4 5 
p 0.00120000408 1 0 1 
2 2 3 
p 0.00120000008000001 1 0 1 
2 1 2 
p 0.00120000008000001 1 0 1 
2 1 4 
p 0.00120000008000001 1 0 1 
2 5 4 
p 0.00120000008000001 1 0 1 
2 2 3 
p 0.00120000008000001 1 0 1 
2 3 4 
p 0.00120000008000001 1 0 1 
2 3 4 
p 0.00120000008000001 1 0 1 
2 3 4 
p 0.00120000008000001 1 0 1 
2 1 2 
p 0.00120000008 1 0 3 
2 1 2 
p 0.00120000008 1 0 3 
2 1 3 
p 0.00120000008 1 0 3 
2 1 3 
p 0.00120000008 1 0 3 
2 1 3 
p 0.00120000008 1 0 3 
2 1 3 
p 0.00120000008 1 0 3 
2 1 3 
p 0.00120000008000001 1 0 3 
2 1 2 
p 0.00120000008000001 1 0 3 
2 2 4 
p 0.00120000008 1 0 3 
2 2 4 
p 0.00120000008 1 0 3 
2 3 1 
p 0.00120000008 1 0 3 
2 1 2 
p 0.00120000008 1 0 3 
2 3 1 
p 0.00120000008 1 0 3 
2 3 1 
p 0.00120000008000001 1 0 3 
2 2 4 
p 0.00120000008000001 1 0 3 
2 3 1 
p 0.00120000008000001 1 0 3 
2 1 2 
p 0.0004000320800064 1 0 1 
2 5 6 
p 0.00120000408 1 0 1 
2 3 4 
p 0.00120000408 1 0 1 
2 1 4 
p 0.00120000008 1 0 1 
2 5 6 
p 0.00120000008 1 0 1 
2 2 3 
p 0.00120000008 1 0 1 
2 1 6 
p 0.00120000008 1 0 1 
2 1 2 
p 0.00120000008 1 0 1 
2 1 4 
p 0.00120000008000001 1 0 1 
2 5 6 
p 0.00120000008000001 1 0 1 
2 1 5 
p 0.00120000008000001 1 0 1 
2 1 2 
p 0.00120000008000001 1 0 1 
2 2 3 
p 0.0004000320800064 1 0 0.999999999999992 
2 6 8 
p 0.00120000408 1 0 0.999999999999992 
2 3 4 
p 0.00120000408 1 0 0.999999999999992 
2 6 8 
p 0.00120000008 1 0 0.999999999999992 
2 1 2 
p 0.00120000008 1 0 0.999999999999992 
2 5 4 
p 0.00120000008 1 0 0.999999999999992 
2 2 3 
p 0.00120000008 1 0 0.999999999999992 
2 1 4 
p 0.00120000008 1 0 0.999999999999992 
2 1 2 
p 0.00120000008 1 0 0.999999999999992 
2 4 3 
p 0.00120000008000001 1 0 0.999999999999992 
2 2 3 
p 0.00120000008000001 1 0 0.999999999999992 
2 1 5 
p 0.00120000008000001 1 0 0.999999999999992 
2 6 8 
p 0.00120000008000001 1 0 0.999999999999992 
2 1 2 
p 0.00120000008000001 1 0 0.999999999999992 
2 1 2 
p 0.00120000008000001 1 0 0.999999999999992 
2 3 4 
p 0.0004000320800064 1 0 1 
2 8 7 
p 0.00120000408 1 0 1 
2 3 4 
p 0.00120000408 1 0 1 
2 1 4 
p 0.00120000008 1 0 1 
2 8 7 
p 0.00120000008 1 0 1 
2 2 3 
p 0.00120000008 1 0 1 
2 1 2 
p 0.00120000008 1 0 1 
2 4 3 
p 0.00120000008 1 0 1 
2 2 3 
p 0.00120000008 1 0 1 
2 1 5 
p 0.00120000008 1 0 1 
2 1 2 
p 0.00120000008 1 0 1 
2 1 2 
p 0.00120000008000001 1 0 1 
2 8 7 
p 0.00120000008000001 1 0 1 
2 1 2 
p 0.00120000008000001 1 0 1 
2 4 1 
p 0.0004000320800064 1 0 1 
2 7 5 
p 0.00120000408 1 0 1 
2 3 4 
p 0.00120000408 1 0 1 
2 1 4 
p 0.00120000008 1 0 1 
2 7 5 
p 0.00120000008 1 0 1 
2 2 3 
p 0.00120000008 1 0 1 
2 1 2 
p 0.00120000008 1 0 1 
2 1 2 
p 0.00120000008 1 0 1 
2 1 2 
p 0.00120000008 1 0 1 
2 7 5 
p 0.00120000008000001 1 0 1 
2 1 2 
p 0.00120000008000001 1 0 1 
2 1 2 
p 0.00120000008000001 1 0 1 
2 1 2 
p 0.00120000008000001 1 0 1 
2 4 3 
p 0.00120000008000001 1 0 1 
2 1 4 
p 0.00120000008000001 1 0.9 1.2 
2 5 4 
p 0.00120000008000001 1 0.9 1.2 
2 1 2 
p 0.00120000008000001 1 0 1 
2 1 4 
p 0.00120000008000001 1 0 1 
2 1 4 
p 0.00120000008000001 1 0 1 
2 4 3 
p 0.00120000008000001 1 0 1 
2 1 2 
p 0.00120000008000001 1 0 1 
2 4 3 
p 0.00120000008000001 1 0 1 
2 5 4 
p 0.0008000640800064 1 0 1 
2 1 2 
p 0.00120000008000001 1 0 1 
2 1 4 
p 0.00120000008000001 1 0 1 
2 2 3 
p 0.00120000008000001 1 0 1 
2 6 2 
p 0.00120000008000001 1 0 1 
2 2 3 
p 0.00120000008000001 1 0 1 
2 5 6 
p 0.00120000008000001 1 0 1.00498756211209 
2 2 3 
p 0.00120000008000001 1 0 1.00498756211209 
2 2 3 
p 0.00120000008000001 1 0 1.00498756211209 
2 5 4 
p 0.00120000008000001 1 0 1 
2 4 3 
p 0.00120000008000001 1 0 1 
2 2 5 
p 0.00120000008000001 1 0 0.9 
2 1 3 
p 0.00120000008000001 1 0 0.9 
2 2 4 
p 0.00120000008000001 1 0 1.1 
2 1 3 
p 0.00120000008000001 1 0 1.1 
2 2 4 
p 0.00120000008000001 1 0 1.1 
2 1 3 
p 0.00120000008000001 1 0 1.1 
2 4 3 
p 0.00120000008000001 1 0 1 
2 1 2 
p 0.00120000008000001 1 0 1 
2 1 4 
p 0.00120000008000001 1 0 1.00498756211209 
2 4 3 
p 0.00120000008000001 1 0 1.00498756211209 
2 1 4 
p 0.00120000008000001 1 0 1 
2 1 2 
p 0.00120000008000001 1 0 1 
2 1 2 
p 0.00120000008000001 1 0 1 
2 2 4 
p 0.00120000008000001 1 0 0.9 
2 1 3 
p 0.00120000008000001 1 0 0.9 
2 2 4 
p 0.00120000008000001 1 0 1 
2 1 3 
p 0.00120000008000001 1 0 1 
2 2 4 
p 0.00120000008000001 1 0 1 
2 4 3 
p 0.00120000008000001 1 0 1.00498756211209 
2 1 4 
p 0.00120000008000001 1 0 1.00498756211209 
Surfaces 39
1 0 0 0 1 0 -0 0 0 1 0 -1 0 
1 0 0 3 0 0 1 1 0 -0 -0 1 0 
1 0 1.2 0 -0 1 0 0 0 1 1 0 -0 
1 -0 0 0 -1 0 0 0 1 0 0 0 -1 
1 10 1.2 2 0 -0.99503719020998926 0.099503719020999012 0 -0.099503719020999012 -0.99503719020998926 1 0 0 
1 1 1.2 2 0 -0.99503719020998926 0.099503719020999012 0 -0.099503719020999012 -0.99503719020998926 1 0 0 
1 10 1.0999999999999999 1 -0 -1 -0 0 0 -1 1 -0 0 
1 1 1.0999999999999999 1 -0 -1 -0 0 0 -1 1 -0 0 
1 0 0 0 0 0 1 1 0 -0 -0 1 0 
1 0 0 0 -0 1 0 0 0 1 1 0 -0 
1 0 0 3 0 0 1 1 0 -0 -0 1 0 
1 1 0.89999999999999969 2 -1 0 0 0 1 0 0 0 -1 
1 2 0.90000000000000002 2 3.3306690738754696e-16 -1 0 -1 -3.3306690738754696e-16 0 0 -0 -1 
1 2 0.90000000000000013 3 0 0 1 0 1 0 -1 0 0 
1 2 0.90000000000000013 2 0 -1 0 0 0 1 -1 0 0 
1 3 0 0 1 0 -0 0 0 1 0 -1 0 
1 1 1.2 0 0 1 -0 0 0 1 1 -0 0 
1 1 1.2 2 0 1 0 1 0 0 0 0 -1 
1 1 0 1 1 0 0 0 0 1 0 -1 0 
1 1 1.2 10 -1 -0 -0 0 -1 0 -0 0 1 
1 1 1.0999999999999999 0 0 0 -1 0 1 0 1 -0 0 
1 1 1.0999999999999999 1 -0.099503719020999026 -0.99503719020998926 -0 0.99503719020998926 -0.099503719020999026 0 -0 0 1 
1 0 0 0 0 0 -1 1 0 0 0 -1 0 
1 1 1.0999999999999999 10 -0.099503719020999026 -0.99503719020998926 -0 0.99503719020998926 -0.099503719020999026 0 -0 0 1 
1 1.9999999999999998 0.99999999999999978 10 0 -1 0 1 0 0 -0 0 1 
1 1.9999999999999998 0.99999999999999978 1 0 -1 0 1 0 0 -0 0 1 
1 -0 1.2 0 0 1 0 1 0 0 0 0 -1 
1 1 -8.8000000000000007 2 0 0 -1 1 0 0 0 -1 0 
1 1 0 2 0 0 -1 1 0 0 0 -1 0 
1 10 1.2 0 0 1 -0 0 0 1 1 -0 0 
1 2 -8.8000000000000007 2 -1 0 0 0 0 -1 -0 -1 -0 
1 2 0 2 -1 0 0 0 0 -1 -0 -1 -0 
1 3 1.2 10 0 1 0 -1 0 0 0 -0 1 
1 2 -8.8000000000000007 1.0000000000000078 -7.7715611723760958e-15 0 1 -1 0 -7.7715611723760958e-15 -0 -1 0 
1 2 0 1.0000000000000078 -7.7715611723760958e-15 0 1 -1 0 -7.7715611723760958e-15 -0 -1 0 
1 1 -8.8000000000000007 1 1 0 0 0 0 1 0 -1 0 
1 3 0 -0 1 0 0 -0 1 0 0 -0 1 
1 2 0.99999999999999978 1 0 -0.99503719020998926 -0.099503719020998568 0 -0.099503719020998568 0.99503719020998926 -1 -0 0 
1 3 0.99999999999999978 1 1 -0 0 0 1 0 -0 0 1 
Triangulations 82
6 4 1 0.00120000008000001
0 0 3 0 1.2 3 0 0 0 0 1.1 0 0 1.1 1 0 1.2 2 3 0 3 -1.2 0 0 0 -1.1 1 -1.1 2 -1.2 3 4 5 1 5 6 1 6 2 1 3 5 
4 2 1 0.00120000008
0 0 0 0 0 3 0 1.2 0 0 1.2 3 0 0 3 0 0 -1.2 3 -1.2 2 1 3 2 3 4 
6 4 1 0.00120000408
0 0 3 0 1.2 3 0 0 0 0 1.1 0 0 1.1 1 0 1.2 2 3 0 3 -1.2 0 0 0 -1.1 1 -1.1 2 -1.2 3 4 5 1 5 6 1 6 2 1 3 5 
7 5 1 0.00120000408
0 1.2 3 1 1.2 3 0 0 3 3 0 3 3 1 3 2 1 3 1 1.1 3 0 1.2 1 1.2 0 0 3 0 3 1 2 1 1 1.1 7 1 3 2 1 7 6 3 4 6 7 3 5 6 4 
4 2 1 0.00120000008000001
0 0 3 0 1.2 3 3 0 3 3 1.2 3 0 0 0 1.2 3 0 3 1.2 4 2 1 4 1 3 
6 4 1 0.00120000008000001
0 1.2 3 2 1.2 3 0 0 3 3 0 3 3 0.9 3 2 0.9 3 0 1.2 2 1.2 0 0 3 0 3 0.9 2 0.9 6 1 3 4 6 3 2 1 6 5 6 4 
7 5 1 0.00120000008000001
0 1.2 3 1 1.2 3 0 0 3 3 0 3 3 0.9 3 2 0.9 3 1 0.9 3 0 1.2 1 1.2 0 0 3 0 3 0.9 2 0.9 1 0.9 7 1 3 2 1 7 4 6 7 4 7 3 5 6 4 
9 7 1 0.00120000008
1 1.2 0 3 1.2 0 1 1.2 1 2 1.2 1.00000000000001 2 1.2 2 1 1.2 2 0 1.2 2 0 1.2 3 3 1.2 3 0 1 0 3 1 1 1.00000000000001 2 2 2 2 1 2 0 3 0 3 3 6 7 8 4 2 1 4 1 3 9 4 5 9 5 6 9 2 4 9 6 8 
4 2 1 0.00120000408
0 1.2 3 1 1.2 3 1 1.2 2 0 1.2 2 3 0 3 1 2 1 2 0 2 3 4 2 4 1 
7 5 1 0.00120000008000001
3 1.2 1 3 1.2 3 2 1.2 1.00000000000001 2 1.2 2 1 1.2 2 0 1.2 2 0 1.2 3 1 3 3 3 1.00000000000001 2 2 2 2 1 2 0 3 0 7 5 6 4 1 3 2 4 5 2 5 7 2 1 4 
5 3 1 0.00120000008000001
0 1.2 3 2 1.2 3 2 1.2 2 1 1.2 2 0 1.2 2 3 0 3 2 2 2 2 1 2 0 4 5 1 2 3 4 2 4 1 
4 2 1 0.00120000008000001
0 1.2 2 0 1.2 3 1 1.2 3 1 1.2 2 2 0 3 0 3 1 2 1 3 1 2 3 4 1 
4 2 1 0.0008000640800064
0 1.2 0 0 1.2 2 0 1.1 0 0 1.1 1 1.2 0 1.2 -2 1.1 0 1.1 -1 1 3 4 2 1 4 
4 2 1 0.00120000408
1 1.2 2 1 1.1 1 0 1.2 2 0 1.1 1 0 -9 1.00498756211209 -9 0 -10 1.00498756211209 -10 2 1 3 2 3 4 
4 2 1 0.00120000008
1 1.2 2 0 1.2 2 0 1.1 1 1 1.1 1 0 0 0 -1 1.00498756211209 -1 1.00498756211209 0 4 1 2 4 2 3 
4 2 1 0.00120000008000001
1 1.2 2 0 1.2 2 0 1.1 1 1 1.1 1 0 0 0 -1 1.00498756211209 -1 1.00498756211209 0 4 1 2 4 2 3 
4 2 1 0.00120000008000001
1 1.2 2 0 1.2 2 0 1.1 1 1 1.1 1 0 0 0 -1 1.00498756211209 -1 1.00498756211209 0 4 1 2 4 2 3 
6 4 1 0.00120000408
3 1.1 1 2 1.1 1 1 1.1 1 0 1.1 1 0 1.1 0 3 1.1 0 0 -7 0 -8 0 -9 0 -10 1 -10 1 -7 3 4 5 6 1 2 6 2 3 6 3 5 
4 2 1 0.00120000008
1 1.1 1 0 1.1 1 0 1.1 0 1 1.1 0 0 0 0 -1 1 -1 1 0 4 1 2 4 2 3 
4 2 1 0.00120000008
1 1.2 0 1 1.2 1 1 1.1 0 1 1.1 1 1.2 0 1.2 -1 1.1 0 1.1 -1 1 3 4 1 4 2 
4 2 1 0.00120000408
1 1.1 1 0 1.1 1 0 1.1 0 1 1.1 0 0 0 0 -1 1 -1 1 0 4 1 2 4 2 3 
4 2 1 0.00120000008000001
1 1.1 1 0 1.1 1 0 1.1 0 1 1.1 0 0 0 0 -1 1 -1 1 0 4 1 2 4 2 3 
6 4 1 0.00120000008
0 0 0 0 1.1 0 3 0 0 3 1.2 0 1 1.2 0 1 1.1 0 0 0 0 1.1 3 0 3 1.2 1 1.2 1 1.1 6 2 1 3 6 1 4 5 6 4 6 3 
6 4 1 0.00120000408
0 0 0 0 1.1 0 3 0 0 3 1 0 2 1 0 1 1.1 0 0 0 0 1.1 3 0 3 1 2 1 1 1.1 6 2 1 5 6 1 3 5 1 4 5 3 
6 4 1 0.00120000008000001
0 0 0 0 1.1 0 3 0 0 3 1 0 2 1 0 1 1.1 0 0 0 0 1.1 3 0 3 1 2 1 1 1.1 6 2 1 5 6 1 3 5 1 4 5 3 
4 2 1 0.00120000008
0 0 0 3 0 0 0 0 3 3 0 3 0 0 0 3 3 0 3 3 4 2 1 4 1 3 
8 8 1 0.00120000408
0 0 0 3 0 0 0 0 3 3 0 3 2 0 1.00000000000001 2 0 2 1 0 2 1 0 1 0 0 0 3 3 0 3 3 1.00000000000001 2 2 2 2 1 1 1 2 1 8 7 1 3 7 8 1 5 2 8 4 5 6 4 6 7 4 7 3 4 2 5 
8 8 1 0.00120000008000001
0 0 0 3 0 0 0 0 3 3 0 3 1 0 2 2 0 2 1 0 1 2 0 1.00000000000001 0 0 0 3 3 0 3 3 2 1 2 2 1 1 1.00000000000001 2 2 1 7 5 7 1 3 5 1 8 2 7 4 6 5 4 8 6 4 5 3 4 2 8 
4 2 1 0.0004000320800064
1 0.9 3 1 1.2 3 2 0.9 3 2 1.2 3 1 0.9 1 1.2 2 0.9 2 1.2 4 2 1 4 1 3 
4 2 1 0.00120000008000001
1 0.9 2 1 0.9 3 1 1.2 3 1 1.2 2 0 0 0 -1 0.3 -1 0.3 0 4 1 2 4 2 3 
4 2 1 0.00120000008000001
2 0.9 2 2 0.9 3 1 0.9 3 1 0.9 2 0 0 0 -1 1 -1 1 0 4 1 2 4 2 3 
4 2 1 0.00120000008000001
2 0.9 2 3 0.9 2 3 0.9 3 2 0.9 3 0 0 0 -1 1 -1 1 0 4 1 2 4 2 3 
6 4 1 0.00120000008000001
3 0 3 3 0.9 3 3 0 0 3 1 0 3 1 1 3 0.9 2 3 0 3 -0.9 0 0 0 -1 1 -1 2 -0.9 3 4 5 6 3 5 1 6 2 1 3 6 
5 3 1 0.00120000008000001
1 0 1 1 0 2 1 1.1 1 1 1.2 2 1 0.9 2 0 0 1 0 0 -1.1 1 -1.2 1 -0.9 5 1 3 5 3 4 2 1 5 
4 2 1 0.00120000008000001
1 1.1 1 1 1.1 0 2 1 0 2 1 1 0 0 0 -1 1.00498756211209 -1 1.00498756211209 0 4 1 2 4 2 3 
4 2 1 0.00120000008000001
1 1.1 1 1 1.1 0 2 1 0 2 1 1 0 0 0 -1 1.00498756211209 -1 1.00498756211209 0 4 1 2 4 2 3 
5 3 1 0.0008000640800064
1 1.2 0 1 1.1 0 3 1.2 0 3 1 0 2 1 0 1 -1.2 1 -1.1 3 -1.2 3 -1 2 -1 5 2 1 3 5 1 4 5 3 
6 4 1 0.00120000408
2 1 3 2 1 2 2 1 1.00000000000001 2 1 0 3 1 0 3 1 3 0 -7 0 -8 0 -8.99999999999999 0 -10 1 -10 1 -7 3 4 5 6 1 2 6 2 3 6 3 5 
4 2 1 0.00120000008000001
2 1 1 2 1 0 3 1 0 3 1 1 0 0 0 -1 1 -1 1 0 4 1 2 4 2 3 
4 2 1 0.00120000008000001
2 1 1 3 1 1 2 1.2 1.00000000000001 3 1.2 1 2 -1 3 -1 2 -1.2 3 -1.2 2 1 3 2 3 4 
4 2 1 0.00120000008000001
2 1 1 2 1 0 3 1 0 3 1 1 0 0 0 -1 1 -1 1 0 4 1 2 4 2 3 
6 4 1 0.00120000008000001
3 0 3 3 1.2 3 3 0 0 3 1 0 3 1 1 3 1.2 1 3 0 3 -1.2 0 0 0 -1 1 -1 1 -1.2 3 4 5 2 5 6 1 3 5 1 5 2 
4 2 1 0.00120000008
0 0 0 0 1.2 0 3 0 0 3 1.2 0 0 0 0 1.2 3 0 3 1.2 4 2 1 4 1 3 
4 2 1 0.00120000408
0 0 0 0 1.1 0 3 0 0 3 1.1 0 0 0 0 1.1 3 0 3 1.1 4 2 1 4 1 3 
6 4 1 0.00120000408
3 0 3 3 1.2 3 3 0 0 3 1.1 0 3 1.1 1 3 1.2 2 3 0 3 -1.2 0 0 0 -1.1 1 -1.1 2 -1.2 3 4 5 1 5 6 1 6 2 1 3 5 
4 2 1 0.00120000008
3 0 0 3 0 3 3 1.2 0 3 1.2 3 0 0 3 0 0 -1.2 3 -1.2 2 1 3 2 3 4 
4 2 1 0.00120000408
3 0 3 3 1 3 3 0 0 3 1 0 3 0 3 -1 0 0 0 -1 1 3 4 1 4 2 
4 2 1 0.0004000320800064
1 1.2 2 2 1.2 2 2 1.2 1.00000000000001 1 1.2 1 1 -2 2 -2 2 -1.00000000000001 1 -1 3 1 2 3 4 1 
8 8 1 0.00120000408
0 1.2 0 3 1.2 0 0 1.2 3 3 1.2 3 1 1.2 2 2 1.2 2 1 1.2 1 2 1.2 1.00000000000001 0 0 0 3 3 0 3 3 2 1 2 2 1 1 1.00000000000001 2 2 1 7 5 7 1 3 5 1 8 2 7 4 6 5 4 8 6 4 5 3 4 2 8 
4 2 1 0.00120000408
2 0 2 1 0 2 1 1.2 2 2 1.2 2 1 -8.8 0 -8.8 0 -10 1 -10 1 2 3 1 3 4 
4 2 1 0.00120000008
1 0 2 1 1.2 2 2 1.2 2 2 0 2 0 0 0 -1.2 1 -1.2 1 0 4 1 2 4 2 3 
8 8 1 0.00120000008
0 1.2 0 3 1.2 0 0 1.2 3 3 1.2 3 1 1.2 2 2 1.2 2 1 1.2 1 2 1.2 1.00000000000001 0 0 0 3 3 0 3 3 2 1 2 2 1 1 1.00000000000001 2 2 1 7 5 7 1 3 5 1 8 2 7 4 6 5 4 8 6 4 5 3 4 2 8 
6 4 1 0.00120000408
1 1.2 2 0 1.2 2 0 1.2 3 3 1.2 3 3 1.2 2 2 1.2 2 2 1 2 0 3 0 3 3 2 3 2 2 1 2 3 4 5 6 4 6 1 4 1 3 
4 2 1 0.00120000408
1 0 2 2 0 2 1 1.1 2 2 1 2 0 0 1 0 1.38777878078145e-17 -1.1 1 -1 4 1 3 2 1 4 
4 2 1 0.00120000008000001
1 0 2 1 1.2 2 2 1.2 2 2 0 2 0 0 0 -1.2 1 -1.2 1 0 4 1 2 4 2 3 
5 3 1 0.00120000008000001
1 0 2 1 1.2 2 2 1.2 2 2 0.9 2 2 0 2 0 0 0 -1.2 1 -1.2 1 -0.9 1 0 4 1 2 4 2 3 5 1 4 
4 2 1 0.00120000008000001
1 0 2 2 0 2 1 0.9 2 2 0.9 2 0 0 1 0 0 -0.9 1 -0.9 2 1 3 2 3 4 
4 2 1 0.00120000408
2 0 1.00000000000001 2 0 2 2 1.2 2 2 1.2 1.00000000000001 0.999999999999992 -8.8 0 -8.8 0 -10 0.999999999999992 -10 1 2 3 1 3 4 
4 2 1 0.00120000408
2 0 2 2 0 1.00000000000001 2 1.2 2 2 1.1 1 0 0 0.999999999999992 0 6.93889390390723e-18 -1.2 0.999999999999992 -1.1 1 3 4 2 1 4 
4 2 1 0.00120000008
2 0 2 2 1.2 2 2 1.2 1.00000000000001 2 0 1.00000000000001 0 0 0 -1.2 0.999999999999992 -1.2 0.999999999999992 0 4 1 2 4 2 3 
4 2 1 0.00120000408
2 0 2 2 0 1.00000000000001 2 1 2 2 1 1.00000000000001 0 0 0.999999999999992 0 0 -1 0.999999999999992 -1 2 1 3 2 3 4 
5 3 1 0.00120000008000001
2 0 2 2 1.2 2 2 1.2 1.00000000000001 2 1 1 2 0 1.00000000000001 0 0 0 -1.2 0.999999999999992 -1.2 0.999999999999992 -1 0.999999999999992 0 4 2 3 1 2 4 5 1 4 
4 2 1 0.00120000008000001
2 0 2 2 0 1.00000000000001 2 0.9 2 2 1 1 0 0 0.999999999999992 0 0 -0.9 0.999999999999992 -1 2 1 3 2 3 4 
4 2 1 0.00120000008000001
2 0 2 2 0 1.00000000000001 2 0.9 2 2 1 1 0 0 0.999999999999992 0 0 -0.9 0.999999999999992 -1 2 1 3 2 3 4 
4 2 1 0.00120000408
1 0 1 2 0 1.00000000000001 2 1.2 1.00000000000001 1 1.2 1 1 -8.8 0 -8.8 0 -10 1 -10 1 2 3 1 3 4 
4 2 1 0.00120000008
2 0 1.00000000000001 2 1.2 1.00000000000001 1 1.2 1 1 0 1 0 0 0 -1.2 1 -1.2 1 0 4 1 2 4 2 3 
4 2 1 0.00120000408
2 0 1.00000000000001 1 0 1 2 1.1 1 1 1.1 1 0 0 1 0 0 -1.1 1 -1.1 2 1 3 2 3 4 
5 3 1 0.00120000008
2 0 1.00000000000001 2 1.2 1.00000000000001 1 1.2 1 1 1.1 1 1 0 1 0 0 0 -1.2 1 -1.2 1 -1.1 1 0 4 2 3 1 2 4 5 1 4 
4 2 1 0.00120000408
2 0 1.00000000000001 1 0 1 2 1 1.00000000000001 1 1.1 1 0 0 1 0 1.66533453693773e-16 -1 1 -1.1 2 1 3 2 3 4 
4 2 1 0.00120000008000001
2 0 1.00000000000001 1 0 1 2 1 1 1 1.1 1 0 0 1 0 2.22044604925031e-16 -1 1 -1.1 2 1 3 2 3 4 
4 2 1 0.00120000008000001
2 0 1.00000000000001 1 0 1 2 1 1 1 1.1 1 0 0 1 0 2.22044604925031e-16 -1 1 -1.1 2 1 3 2 3 4 
4 2 1 0.00120000408
1 0 2 1 0 1 1 1.2 1 1 1.2 2 1 -8.8 0 -8.8 0 -10 1 -10 1 2 3 1 3 4 
4 2 1 0.00120000008
1 0 1 1 1.2 1 1 1.2 2 1 0 2 0 0 0 -1.2 1 -1.2 1 0 4 1 2 4 2 3 
4 2 1 0.00120000408
1 0 1 1 0 2 1 1.1 1 1 1.2 2 0 0 1 0 -1.66533453693773e-16 -1.1 1 -1.2 2 1 3 2 3 4 
4 2 1 0.00120000008
1 0 1 1 0 2 1 1.1 1 1 1.2 2 0 0 1 0 0 -1.1 1 -1.2 2 1 3 2 3 4 
4 2 1 0.00120000408
1 0 1 1 0 2 1 1.1 1 1 1.1 2 0 0 1 0 0 -1.1 1 -1.1 2 1 3 2 3 4 
4 2 1 0.00120000008000001
1 0 1 1 0 2 1 1.1 1 1 1.2 2 0 0 1 0 0 -1.1 1 -1.2 2 1 3 2 3 4 
4 2 1 0.00120000008000001
2 1 1 3 1 1 3 0.9 2 2 0.9 2 0 0 0 -1 1.00498756211209 -1 1.00498756211209 0 4 1 2 4 2 3 
5 3 1 0.0008000640800064
3 1.2 1 3 1 1 3 1.2 3 3 0.9 3 3 0.9 2 1.2 1 1 1 1.2 3 0.9 3 0.9 2 5 2 1 3 4 5 1 3 5 
4 2 1 0.00120000008000001
2 0.9 2 2 0.9 3 2 1.2 2 2 1.2 3 0.9 2 0.9 3 1.2 2 1.2 3 4 2 1 4 1 3 
4 2 1 0.00120000008000001
2 0.9 2 3 0.9 2 3 0.9 3 2 0.9 3 0 0 0 -1 1 -1 1 0 4 1 2 4 2 3 
4 2 1 0.00120000008000001
2 1 1 3 1 1 3 0.9 2 2 0.9 2 0 0 0 -1 1.00498756211209 -1 1.00498756211209 0 4 1 2 4 2 3 

TShapes 107
Ve
1e-07
0 1.2 3
0 0

0101101
*
Ve
1e-07
0 0 3
0 0

0101101
*
Ed
 1e-07 1 1 0
1  1 0 0 1.2
2  1 1 0 0 1.2
2  2 2 0 0 1.2
6  1 2 0
6  2 3 0
6  3 4 0
6  4 5 0
6  5 1 0
6  6 6 0
6  7 7 0
0

0101000
-107 0 +106 0 *
Ve
1e-07
0 1.2 2
0 0

0101101
*
Ed
 1e-07 1 1 0
1  2 0 2 3
2  3 1 0 2 3
2  4 3 0 2 3
6  8 8 0
6  9 9 0
6  10 10 0
6  11 1 0
6  12 11 0
6  13 12 0
0

0101000
+104 3 -107 0 *
Ve
7.21249016810279e-06
0 1.1 1
0 0

0101101
*
Ed
 1e-07 1 1 0
1  3 0 0 1.00498756211209
2  5 4 0 0 1.00498756211209
6  14 13 0
2  6 5 5 0 1.00498756211209
2  7 5 7 0 1.00498756211209
2  8 1 7 0 1.00498756211209
6  15 3 7
6  16 14 7
2  9 6 8 0 1.00498756211209
2  10 6 9 0 1.00498756211209
2  11 1 9 0 1.00498756211209
6  17 15 9
6  18 1 9
6  19 16 9
6  20 17 9
0

0101000
+104 0 -102 0 *
Ve
1e-07
0 1.1 0
0 0

0101101
*
Ed
 1e-07 1 1 0
1  4 0 0 1
2  12 4 0 0 1
6  21 13 0
2  13 7 5 0 1
2  14 7 7 0 1
2  15 1 7 0 1
6  22 3 7
6  23 18 7
2  16 8 8 0 1
2  17 8 9 0 1
2  18 1 9 0 1
6  24 19 9
6  25 19 8
6  26 20 8
6  27 21 9
6  28 1 9
6  29 22 9
0

0101000
+102 0 -100 0 *
Ve
1e-07
0 0 0
0 0

0101101
*
Ed
 1e-07 1 1 0
1  5 0 0 1.1
2  19 1 0 0 1.1
2  20 9 0 0 1.1
6  30 23 0
6  31 24 0
6  32 1 0
6  33 25 0
0

0101000
+98 0 -100 3 *
Ed
 1e-07 1 1 0
1  6 0 0 3
2  21 1 0 0 3
2  22 10 0 0 3
6  34 26 0
6  35 27 0
6  36 2 0
6  37 3 0
6  38 1 0
6  39 28 0
0

0101000
-106 0 +98 0 *
Wi

0101100
-105 0 +103 0 -101 3 -99 3 +97 0 -96 0 *
Fa
0  1e-07 1 0
2  1
0101000
+95 0 *
Ve
1e-07
1 1.2 3
0 0

0101101
*
Ed
 1e-07 1 1 0
1  7 0 0 1
2  23 3 0 0 1
2  24 2 0 0 1
6  40 7 0
6  41 12 0
0

0101000
+107 0 -93 12 *
Ve
1e-07
1 0.9 3
0 0

0101101
*
Ed
 1e-07 1 1 0
1  8 0 0 0.3
2  25 11 0 0 0.3
6  42 29 0
2  26 12 13 0 0.3
2  27 12 14 0 0.3
2  28 2 14 0 0.3
6  43 7 14
6  44 30 14
0

0101000
+91 0 -93 0 *
Ve
1.00000000222045e-07
2 0.9 3
0 0

0101101
*
Ed
 1e-07 1 1 0
1  9 0 0 1
2  29 11 0 0 1
2  30 13 13 0 1
2  31 13 14 0 1
2  32 2 14 0 1
6  45 7 14
6  46 31 14
0

0101000
+89 14 -91 0 *
Ve
1e-07
3 0.9 3
0 0

0101101
*
Ed
 1e-07 1 1 0
1  10 0 0 1
2  33 14 0 0 1
2  34 15 0 0 1
2  35 2 0 0 1
6  47 7 0
6  48 32 0
0

0101000
+89 0 -87 17 *
Ve
1e-07
3 0 3
0 0

0101101
*
Ed
 1e-07 1 1 0
1  11 0 0 0.9
2  36 16 0 0 0.9
2  37 2 0 0 0.9
6  49 6 0
6  50 33 0
6  51 7 0
0

0101000
+85 0 -87 17 *
Ed
 1e-07 1 1 0
1  12 0 0 3
2  38 10 0 0 3
2  39 2 0 0 3
6  52 26 0
6  53 27 0
6  54 4 0
6  55 5 0
6  56 6 0
6  57 28 0
6  58 7 0
0

0101000
-85 0 +106 0 *
Wi

0101100
-92 0 +90 12 +88 12 -86 0 +84 0 +83 0 -105 0 *
Fa
0  1e-07 2 0
2  7
0101000
+82 0 *
Ve
7.21249016810279e-06
1 1.2 2
0 0

0101101
*
Ed
 1e-07 1 1 0
1  13 0 0 1
2  40 17 0 0 1
2  41 6 0 0 1
2  42 3 0 0 1
6  59 12 0
6  60 17 0
0

0101000
+80 0 -104 3 *
Ed
 1e-07 1 1 0
1  14 0 0 1
2  43 18 0 0 1
2  44 12 0 0 1
2  45 3 0 0 1
6  61 12 0
6  62 30 0
0

0101000
+80 0 -93 12 *
Wi

0101100
+103 0 +79 0 -78 0 +92 0 *
Fa
0  1e-07 3 0
2  12
0101000
+77 0 *
Ve
7.21249016810279e-06
1 1.1 1
0 0

0101101
*
Ed
 1e-07 1 1 0
1  15 0 0 1
2  46 6 0 0 1
2  47 8 0 0 1
6  63 16 0
6  64 22 0
6  65 17 0
0

0101000
+75 0 -102 3 *
Ed
 1e-07 1 1 0
1  3 0 0 1.00498756211209
2  5 4 0 0 1.00498756211209
2  6 5 5 0 1.00498756211209
2  7 5 7 0 1.00498756211209
2  8 1 7 0 1.00498756211209
2  9 6 8 0 1.00498756211209
2  10 6 9 0 1.00498756211209
2  48 19 8 0 1.00498756211209
2  49 20 8 0 1.00498756211209
6  66 17 8
6  67 34 8
0

0101000
+80 8 -75 8 *
Wi

0101100
+79 0 -74 0 -73 1 +101 3 *
Fa
0  1e-07 6 0
2  17
0101000
+72 0 *
Ve
1e-07
1 1.1 0
0 0

0101101
*
Ed
 1e-07 1 1 0
1  16 0 0 1
2  50 21 0 0 1
2  51 8 0 0 1
2  52 9 0 0 1
6  68 22 0
6  69 25 0
0

0101000
+70 0 -100 3 *
Ed
 1e-07 1 1 0
1  4 0 0 1
2  12 4 0 0 1
2  13 7 5 0 1
2  14 7 7 0 1
2  15 1 7 0 1
2  16 8 8 0 1
2  17 8 9 0 1
2  18 1 9 0 1
6  70 35 8
2  53 22 8 0 1
6  71 22 8
6  72 36 8
0

0101000
+75 8 -70 8 *
Wi

0101100
+74 0 -69 0 -68 1 +99 3 *
Fa
0  1e-07 8 0
2  22
0101000
+67 0 *
Ve
1.00000007774733e-07
2 1 0
0 0

0101101
*
Ed
 1e-07 1 1 0
1  17 0 0 1.00498756211209
2  54 23 0 0 1.00498756211209
2  55 24 22 0 1.00498756211209
2  56 24 24 0 1.00498756211209
2  57 22 25 0 1.00498756211209
2  58 22 26 0 1.00498756211209
2  59 9 26 0 1.00498756211209
6  73 35 26
6  74 25 26
6  75 36 26
0

0101000
+70 26 -65 0 *
Ve
1e-07
3 1 0
0 0

0101101
*
Ed
 1e-07 1 1 0
1  18 0 0 1
2  60 23 0 0 1
6  76 37 0
2  61 25 22 0 1
2  62 25 24 0 1
2  63 9 24 0 1
6  77 24 24
6  78 38 24
2  64 26 25 0 1
2  65 26 26 0 1
2  66 9 26 0 1
6  79 39 26
6  80 40 25
6  81 39 25
6  82 25 26
6  83 41 26
0

0101000
+65 0 -63 0 *
Ve
1e-07
3 0 0
0 0

0101101
*
Ed
 1e-07 1 1 0
1  19 0 0 1
2  67 16 0 0 1
2  68 9 0 0 1
6  84 42 0
6  85 25 0
6  86 33 0
0

0101000
+61 0 -63 20 *
Ed
 1e-07 1 1 0
1  20 0 0 3
2  69 10 0 0 3
2  70 9 0 0 3
6  87 26 0
6  88 27 0
6  89 43 0
6  90 44 0
6  91 23 0
6  92 24 0
6  93 25 0
6  94 28 0
0

0101000
-61 0 +98 0 *
Wi

0101100
-97 0 +69 0 -64 20 -62 20 +60 0 +59 0 *
Fa
0  1e-07 9 0
2  25
0101000
+58 0 *
Ed
 1e-07 1 1 0
1  21 0 0 3
2  71 16 0 0 3
2  72 10 0 0 3
6  95 26 0
6  96 27 0
6  97 45 0
6  98 46 0
6  99 47 0
6  100 42 0
6  101 28 0
6  102 33 0
0

0101000
-85 0 +61 0 *
Wi

0101100
-59 0 -56 0 +96 0 +83 0 *
Ve
7.21249016810279e-06
1 1.2 2
0 0

0101101
*
Ve
7.21249016810279e-06
2 1.2 2
0 0

0101101
*
Ed
 1.00000000666134e-07 1 1 0
1  22 0 0 1
2  73 27 0 0 1
6  103 48 0
2  74 28 29 0 1
2  75 28 31 0 1
2  76 3 31 0 1
6  104 49 31
6  105 50 31
2  77 29 32 0 1
2  78 29 34 0 1
2  79 10 32 0 1
2  80 3 34 0 1
6  106 51 32
6  107 52 34
6  108 51 34
2  81 30 34 0 1
2  82 5 34 0 1
6  109 53 34
6  110 54 32
6  111 55 32
6  112 28 32
6  113 56 32
6  114 57 32
0

0101000
+54 0 -53 0 *
Ve
1.00000007771561e-07
2 1.2 1.00000000000001
0 0

0101101
*
Ed
 1e-07 1 1 0
1  23 0 0 0.999999999999992
2  83 27 0 0 0.999999999999992
6  115 48 0
2  84 31 29 0 0.999999999999992
2  85 31 31 0 0.999999999999992
2  86 3 31 0 0.999999999999992
6  116 49 31
6  117 58 31
2  87 32 32 0 0.999999999999992
2  88 32 34 0 0.999999999999992
2  89 10 32 0 0.999999999999992
2  90 3 34 0 0.999999999999992
6  118 52 34
2  91 30 34 0 0.999999999999992
6  119 59 32
6  120 8 34
6  121 60 34
6  122 60 32
2  92 33 34 0 0.999999999999992
6  123 61 32
6  124 10 34
6  125 62 34
6  126 62 32
6  127 28 32
6  128 63 32
6  129 64 32
0

0101000
+53 0 -51 0 *
Ve
1.00000000666134e-07
1 1.2 1
0 0

0101101
*
Ed
 1e-07 1 1 0
1  24 0 0 1
2  93 27 0 0 1
6  130 48 0
2  94 34 29 0 1
2  95 34 31 0 1
2  96 3 31 0 1
6  131 49 31
6  132 65 31
2  97 35 32 0 1
2  98 35 34 0 1
2  99 10 32 0 1
2  100 3 34 0 1
6  133 66 32
6  134 52 34
6  135 66 34
2  101 30 34 0 1
6  136 67 32
6  137 8 34
6  138 68 34
6  139 68 32
2  102 33 34 0 1
6  140 69 32
6  141 70 32
6  142 28 32
6  143 71 32
0

0101000
+51 0 -49 0 *
Ed
 1e-07 1 1 0
1  25 0 0 1
2  103 27 0 0 1
6  144 48 0
2  104 36 29 0 1
2  105 36 31 0 1
2  106 3 31 0 1
6  145 49 31
6  146 72 31
2  107 19 32 0 1
2  108 19 34 0 1
2  109 10 32 0 1
2  110 3 34 0 1
6  147 73 32
6  148 52 34
6  149 73 34
2  111 30 34 0 1
6  150 74 32
6  151 75 32
6  152 76 32
6  153 28 32
6  154 77 32
6  155 34 32
0

0101000
+49 0 -54 0 *
Wi

0101100
-52 27 -50 27 -48 27 -47 27 *
Fa
0  1e-07 10 0
2  28
0101000
+55 0 +46 0 *
Ed
 1e-07 1 1 0
1  26 0 0 1
2  112 13 0 0 1
2  113 12 0 0 1
6  156 30 0
6  157 31 0
0

0101000
+91 10 -91 12 *
Ed
 1e-07 1 1 0
1  27 0 0.9 1.2
2  114 29 0 0.9 1.2
2  115 19 0 0.9 1.2
6  158 30 0
6  159 34 0
0

0101000
+91 10 -80 0 *
Wi

0101100
+44 0 -78 0 -43 0 +90 12 *
Fa
0  1e-07 12 0
2  30
0101000
+42 0 *
Ve
1.00000000222045e-07
2 0.9 2
0 0

0101101
*
Ed
 1.00000000111022e-07 1 1 0
1  28 0 0 1
2  116 37 0 0 1
2  117 15 35 0 1
2  118 15 36 0 1
2  119 16 36 0 1
6  160 31 35
6  161 32 35
0

0101000
+40 35 -89 35 *
Ed
 1e-07 1 1 0
1  9 0 0 1
2  29 11 0 0 1
2  30 13 13 0 1
2  31 13 14 0 1
2  120 29 13 0 1
6  162 31 13
6  163 57 13
0

0101000
+40 13 -91 0 *
Wi

0101100
+39 15 -44 0 -38 10 +88 12 *
Fa
0  1e-07 13 0
2  31
0101000
+37 0 *
Ve
1e-07
3 0.9 2
0 0

0101101
*
Ed
 1e-07 1 1 0
1  29 0 0 1
2  121 38 0 0 1
2  122 15 0 0 1
6  164 32 0
6  165 78 0
0

0101000
+40 0 -35 17 *
Ed
 1e-07 1 1 0
1  28 0 0 1
2  116 37 0 0 1
6  166 79 0
2  117 15 35 0 1
2  118 15 36 0 1
2  119 16 36 0 1
6  167 80 35
6  168 81 35
6  169 81 36
6  170 33 36
6  171 32 36
0

0101000
+35 0 -87 0 *
Wi

0101100
+34 0 -86 0 -39 15 +33 17 *
Fa
0  1e-07 15 0
2  32
0101000
+32 0 *
Ve
1e-07
3 1 1
0 0

0101101
*
Ed
 1e-07 1 1 0
1  30 0 0 1.00498756211209
2  123 37 0 0 1.00498756211209
2  124 38 35 0 1.00498756211209
2  125 38 36 0 1.00498756211209
2  126 16 36 0 1.00498756211209
6  172 33 36
6  173 82 36
6  174 78 36
0

0101000
+30 36 -35 0 *
Ed
 1e-07 1 1 0
1  31 0 0 1
2  127 39 0 0 1
2  128 26 0 0 1
2  129 16 0 0 1
6  175 33 0
6  176 41 0
0

0101000
+30 0 -63 20 *
Wi

0101100
-84 0 +33 17 +29 17 -28 0 +60 0 -56 0 *
Fa
0  1e-07 16 0
2  33
0101000
+27 0 *
Ed
 1e-07 1 1 0
1  27 0 0 0.9
2  114 29 0 0 0.9
2  115 19 0 0 0.9
6  177 34 0
6  178 57 0
0

0101000
+54 27 -91 10 *
Ed
 1e-07 1 1 0
1  32 0 0 1.1
2  130 35 0 0 1.1
2  131 19 0 0 1.1
6  179 70 0
6  180 77 0
6  181 71 0
6  182 34 0
0

0101000
+49 27 -75 0 *
Wi

0101100
-47 27 -25 0 -43 0 -73 1 +24 0 *
Fa
0  1e-07 19 0
2  34
0101000
+23 0 *
Ve
1.00000007774733e-07
2 1 1
0 0

0101101
*
Ed
 1e-07 1 1 0
1  33 0 0 1
2  132 22 0 0 1
2  133 26 0 0 1
6  183 36 0
6  184 41 0
0

0101000
+21 0 -65 20 *
Ed
 1.00000007105427e-07 1 1 0
1  17 0 0 1.00498756211209
2  54 23 0 0 1.00498756211209
2  55 24 22 0 1.00498756211209
2  56 24 24 0 1.00498756211209
2  57 22 25 0 1.00498756211209
2  58 22 26 0 1.00498756211209
2  134 35 25 0 1.00498756211209
6  185 36 25
6  186 71 25
0

0101000
+75 25 -21 25 *
Wi

0101100
+68 1 -20 0 -19 18 +64 20 *
Fa
0  1e-07 22 0
2  36
0101000
+18 0 *
Ed
 1e-07 1 1 0
1  18 0 0 1
2  60 23 0 0 1
2  61 25 22 0 1
2  62 25 24 0 1
2  63 9 24 0 1
2  64 26 25 0 1
2  65 26 26 0 1
2  66 9 26 0 1
6  187 41 25
6  188 82 25
2  135 38 25 0 1
6  189 78 25
0

0101000
+21 25 -30 25 *
Wi

0101100
+20 0 -28 0 -16 18 +62 20 *
Fa
0  1e-07 26 0
2  41
0101000
+15 0 *
Ed
 1e-07 1 1 0
1  34 0 0 0.9
2  136 29 0 0 0.9
2  137 32 0 0 0.9
6  190 57 0
6  191 64 0
0

0101000
+53 27 -40 0 *
Wi

0101100
-52 27 -13 0 -38 10 +25 0 *
Fa
0  1e-07 29 0
2  57
0101000
+12 0 *
Ed
 1e-07 1 1 0
1  35 0 0 1
2  138 32 0 0 1
2  139 35 0 0 1
6  192 63 0
6  193 71 0
6  194 64 0
0

0101000
+51 27 -21 0 *
Ed
 1e-07 1 1 0
1  30 0 0 1.00498756211209
2  123 37 0 0 1.00498756211209
2  124 38 35 0 1.00498756211209
2  125 38 36 0 1.00498756211209
2  140 32 35 0 1.00498756211209
6  195 64 35
6  196 78 35
0

0101000
+21 35 -40 35 *
Wi

0101100
-50 27 -10 0 -9 15 +13 0 *
Fa
0  1e-07 32 0
2  64
0101000
+8 0 *
Wi

0101100
-48 27 -24 0 -19 18 +10 0 *
Fa
0  1e-07 35 0
2  71
0101000
+6 0 *
Wi

0101100
+16 18 -34 0 -9 15 +29 17 *
Fa
0  1e-07 38 0
2  78
0101000
+4 0 *
Sh

0101100
-94 0 +81 0 +76 0 -71 0 -66 0 -57 0 -45 0 -41 0 -36 0 -31 0 
+26 0 +22 0 -17 0 -14 0 +11 0 +7 0 +5 0 -3 0 *
So

0100000
+2 0 *

+1 0 