DBRep_DrawableShape

CASCADE Topology V1, (c) Matra-Datavision
Locations 25
1
              1               0               0               1 
              0               1               0              -0 
              0               0               1              -0 
1
              1               0               0              -1 
              0               1               0               0 
              0               0               1               0 
2  1 1 2 1 0
2  1 -1 0
2  2 -1 1 -1 0
1
              1               0               0              -0 
              0               1               0               1 
              0               0               1              -0 
1
              1               0               0               0 
              0               1               0              -1 
              0               0               1               0 
2  6 1 7 1 0
1
              1               0               0              -0 
              0               1               0              -1 
              0               0               1              -0 
1
              1               0               0               0 
              0               1               0               1 
              0               0               1               0 
2  9 1 10 1 0
2  9 -1 0
2  10 -1 9 -1 0
1
              1               0               0              -0 
              0               1               0              -0 
              0               0               1             1.2 
1
              1               0               0               0 
              0               1               0               0 
              0               0               1            -1.2 
2  14 1 15 1 0
2  14 -1 0
2  15 -1 14 -1 0
1
              1               0               0              -1 
              0               1               0              -0 
              0               0               1              -0 
1
              1               0               0               1 
              0               1               0               0 
              0               0               1               0 
2  19 1 20 1 0
2  6 -1 0
2  7 -1 6 -1 0
2  19 -1 0
2  20 -1 19 -1 0
Curve2ds 109
1 1.2 0 0 -1 
1 0 0 0 1 
1 2 -1.1000000000000001 -0.99503719020998926 -0.09950371902099879 
1 0 0 1 0 
1 0 -1 1 0 
1 1.1000000000000001 -2 0.09950371902099879 0.99503719020998926 
1 3 -1.1000000000000001 -1 0 
1 0 0 1 0 
1 0 -1 1 0 
1 1.1000000000000001 -3 0 1 
1 0 -3 1 0 
1 0 0 1 0 
1 0 0 0 -1 
1 0 0 0 1 
1 0 0 1 0 
1 0 0 1 0 
1 2 0 0 -1 
1 1.0049875621120892 0 0 -1 
1 1 0.99999999999999989 -1 0 
1 0 0 0 -1 
1 0.30000000000000004 0 0 -1 
1 1 1 0 -1 
1 1.2 0 0 1 
1 0 0 1 0 
1 0 0 0 -1 
1 1 0 0 -1 
1 0 -0.099999999999999867 0.99503719020998926 0.09950371902099879 
1 0 0 0 -1 
1 0 0 0 -1 
1 1.1000000000000001 1 0 -1 
1 0 -1 0 1 
1 0 -3 1 0 
1 0 3 1 0 
1 2 -0.99999999999999989 1 0 
1 0 0 1 0 
1 0 -1 1 0 
1 0.99999999999999989 2 0 1 
1 1 -1.1000000000000001 0.99503719020998926 0.099503719020999123 
1 0 0 1 0 
1 0 -1 1 0 
1 1.1000000000000001 1 -0.099503719020999123 0.99503719020998926 
1 0 0 0 1 
1 0 3 1 0 
1 0 0 0 1 
1 0 0 1 0 
1 0 0 0 -1 
1 3 0 0 1 
1 2 -1 0 -1 
1 0 0 1 0 
1 0 -1.2 1 0 
1 2 1 0 1 
1 2 1 0 1 
1 2 -2 -1 0 
1 0 0 1 0 
1 0 -1.2 1 0 
1 2 2 -1 0 
1 2 2 -1 0 
1 1 -2 0 1 
1 0 0 1 0 
1 0 -1.2 1 0 
1 1 2 0 -1 
1 1 2 0 -1 
1 1 -1 1 0 
1 0 0 1 0 
1 0 -1.2 1 0 
1 1 1 1 0 
1 1 1 1 0 
1 0 0 1 0 
1 0 3 1 0 
1 0 0 0 -1 
1 1 0 0 -1 
1 0.89999999999999991 2 0 1 
1 2 0.89999999999999991 -1 0 
1 0 0 1 0 
1 0 -1 1 0 
1 0.89999999999999991 2 0 -1 
1 1 0.89999999999999991 0 1 
1 0 0 1 0 
1 0 -1 1 0 
1 0.89999999999999991 1 1 0 
1 0 0 0 -1 
1 1 0 0 -1 
1 0 0 0 -1 
1 1 0 0 -1 
1 0 0 0 -1 
1 1 0 0 -1 
1 1.0049875621120892 0 0 -1 
1 0 0 0 -1 
1 1 -0.099999999999999867 -0.99503719020998926 -0.099503719020999123 
1 1 0.89999999999999991 -1 0 
1 0 -0 1 0 
1 0 -1 1 0 
1 0.89999999999999991 -1 0 1 
1 2 0.99999999999999989 -0.99503719020998926 -0.099503719020998901 
1 0 0 1 0 
1 0 -1 1 0 
1 0.99999999999999989 -2 -0.099503719020998901 0.99503719020998926 
1 0 0 0 -1 
1 1 0 0 -1 
1 0.99999999999999989 -2 0 -1 
1 0 0 0 -1 
1 1 -0.20000000000000007 -0.99503719020998926 -0.099503719020998901 
1 1 0 0 -1 
1 0 0 0 -1 
1 0 0 0 -1 
1 1 0 0 -1 
1 1 -0.30000000000000004 -1 0 
1 1.0049875621120892 0 0 -1 
1 0 -0 0 -1 
Curves 35
1 0 0 1.2 -0 1 0 
1 0 2 1.1000000000000001 0 -0.99503719020998926 0.09950371902099879 
1 0 3 1.1000000000000001 0 -1 0 
1 0 3 0 0 0 1 
1 0 0 0 -0 1 0 
1 0 0 0 0 0 1 
1 1 0.99999999999999989 1.2 -1 0 0 
1 1 1 1.2 0 -1 0 
1 0 0 1.2 1 0 -0 
1 1 2 1.1000000000000001 -1 0 0 
1 1 3 1.1000000000000001 -1 0 0 
1 3 3 0 0 0 1 
1 2 3 0.99999999999999989 1 0 0 
1 1 3 1.1000000000000001 0.99503719020998926 0 -0.099503719020999123 
1 0 3 0 1 0 -0 
1 0 0 0 1 0 -0 
1 3 0 0 -0 1 0 
1 2 1 0 0 1 0 
1 2 2 0 -1 0 0 
1 1 2 0 0 -1 0 
1 1 1 0 1 0 0 
1 3 0 0 0 0 1 
1 2 0 0.89999999999999991 1 0 0 
1 2 0 0.89999999999999991 -1 0 0 
1 1 0 0.89999999999999991 0 0 1 
1 1 1 0.89999999999999991 0 -1 0 
1 1 1 1.2 0 0 -1 
1 1 2 1.2 0 0 -1 
1 2 2 0.99999999999999989 0 1 0 
1 3 1 0.89999999999999991 0 -1 0 
1 3 2 0.99999999999999989 0 -0.99503719020998926 -0.099503719020998901 
1 3 2 0.99999999999999989 0 1 0 
1 2 2 1.2 0 0 -1 
1 2 1 1.2 0 0 -1 
1 2 1 0.89999999999999991 1 0 0 
Polygon3D 0
PolygonOnTriangulations 159
2 1 2 
p 0.00120000008 1 0 1 
2 1 2 
p 0.00120000008 1 0 1 
2 1 2 
p 0.00120000008 1 0 1 
2 1 2 
p 0.00120000008 1 0 1 
2 1 2 
p 0.00120000008 1 0 1 
2 6 2 
p 0.00120000008 1 0 1.00498756211209 
2 2 3 
p 0.00120000008 1 0 1.00498756211209 
2 2 3 
p 0.00120000008 1 0 1.00498756211209 
2 2 3 
p 0.00120000008 1 0 1.00498756211209 
2 2 3 
p 0.0008000640800064 1 0 1.00498756211209 
2 5 6 
p 0.00120000008 1 0 1 
2 2 3 
p 0.00120000008 1 0 1 
2 1 4 
p 0.00120000008 1 0 1 
2 1 3 
p 0.00120000008 1 0 1 
2 2 3 
p 0.00120000008 1 0 1 
2 1 2 
p 0.0008000640800064 1 0 1 
2 4 5 
p 0.00120000008 1 0 1.1 
2 3 4 
p 0.00120000008 1 0 1.1 
2 3 4 
p 0.00120000008 1 0 1.1 
2 1 3 
p 0.00120000008 1 0 3 
2 1 2 
p 0.00120000008 1 0 3 
2 1 2 
p 0.00120000008 1 0 3 
2 3 4 
p 0.00120000008 1 0 3 
2 1 2 
p 0.00120000008 1 0 1.2 
2 1 3 
p 0.00120000008 1 0 1.2 
2 3 1 
p 0.00120000008 1 0 1.2 
2 3 4 
p 0.00120000008 1 0 1.2 
2 3 4 
p 0.00120000008 1 0 1.2 
2 4 2 
p 0.00120000008 1 0 1 
2 4 3 
p 0.00120000008 1 0 1 
2 4 3 
p 0.00120000008 1 0 1 
2 4 3 
p 0.00120000008 1 0 1 
2 1 3 
p 0.00120000008 1 0 1 
2 4 5 
p 0.00120000008 1 0 1 
2 1 2 
p 0.00120000008 1 0 1 
2 4 3 
p 0.00120000008 1 0 1 
2 1 2 
p 0.00120000008 1 0 1 
2 1 4 
p 0.00120000008 1 0 1.00498756211209 
2 1 2 
p 0.00120000008 1 0 1.00498756211209 
2 1 2 
p 0.00120000008 1 0 1 
2 5 4 
p 0.00120000008 1 0 1 
2 1 4 
p 0.00120000008 1 0 1 
2 1 2 
p 0.00120000008 1 0 1 
2 1 2 
p 0.00120000008 1 0 1 
2 1 2 
p 0.00120000008 1 0 1 
2 4 5 
p 0.00120000008 1 0 1 
2 4 5 
p 0.00120000008 1 0 1 
2 6 2 
p 0.00120000008 1 0 1 
2 2 3 
p 0.00120000008 1 0 1 
2 2 4 
p 0.00120000008 1 0 1 
2 1 4 
p 0.00120000008 1 0 1 
2 2 3 
p 0.00120000008 1 0 1 
2 5 4 
p 0.0008000640800064 1 0 1 
2 5 6 
p 0.00120000008 1 0 1.00498756211209 
2 1 3 
p 0.00120000008 1 0 1.00498756211209 
2 1 3 
p 0.00120000008 1 0 1.00498756211209 
2 1 2 
p 0.00120000008 1 0 3 
2 2 4 
p 0.00120000008 1 0 3 
2 2 4 
p 0.00120000008 1 0 3 
2 3 1 
p 0.00120000008 1 0 3 
2 3 1 
p 0.00120000008 1 0 3 
2 1 2 
p 0.00120000008 1 0 3 
2 1 3 
p 0.00120000008 1 0 3 
2 1 3 
p 0.00120000008 1 0 3 
2 3 1 
p 0.00120000008 1 0 3 
2 3 1 
p 0.00120000008 1 0 3 
2 1 3 
p 0.00120000008 1 0 3 
2 3 4 
p 0.00120000008 1 0 3 
2 3 4 
p 0.00120000008 1 0 3 
2 3 4 
p 0.00120000008 1 0 3 
2 3 4 
p 0.00120000008 1 0 3 
2 5 6 
p 0.00120000008 1 0 1 
2 1 4 
p 0.00120000008 1 0 1 
2 5 6 
p 0.00120000008 1 0 1 
2 2 3 
p 0.00120000008 1 0 1 
2 8 7 
p 0.00120000008 1 0 1 
2 6 5 
p 0.00120000008 1 0 1 
2 1 5 
p 0.00120000008 1 0 1 
2 2 3 
p 0.00120000008 1 0 1 
2 3 4 
p 0.00120000008 1 0 1 
2 3 4 
p 0.00120000008 1 0 1 
2 1 2 
p 0.0004000320800064 1 0 1 
2 6 8 
p 0.00120000008 1 0 1 
2 1 4 
p 0.00120000008 1 0 1 
2 6 8 
p 0.00120000008 1 0 1 
2 2 3 
p 0.00120000008 1 0 1 
2 7 6 
p 0.00120000008 1 0 1 
2 1 5 
p 0.00120000008 1 0 1 
2 2 3 
p 0.00120000008 1 0 1 
2 3 4 
p 0.00120000008 1 0 1 
2 3 4 
p 0.00120000008 1 0 1 
2 2 4 
p 0.0004000320800064 1 0 1 
2 8 7 
p 0.00120000008 1 0 1 
2 1 4 
p 0.00120000008 1 0 1 
2 8 7 
p 0.00120000008 1 0 1 
2 2 3 
p 0.00120000008 1 0 1 
2 3 4 
p 0.00120000008 1 0 1 
2 3 4 
p 0.00120000008 1 0 1 
2 3 4 
p 0.00120000008 1 0 1 
2 4 3 
p 0.0004000320800064 1 0 1 
2 7 5 
p 0.00120000008 1 0 1 
2 1 4 
p 0.00120000008 1 0 1 
2 7 5 
p 0.00120000008 1 0 1 
2 2 3 
p 0.00120000008 1 0 1 
2 2 3 
p 0.00120000008 1 0 1 
2 2 3 
p 0.00120000008 1 0 1 
2 3 4 
p 0.00120000008 1 0 1 
2 3 1 
p 0.0004000320800064 1 0 1 
2 1 2 
p 0.00120000008 1 0 0.9 
2 3 2 
p 0.00120000008 1 0 0.9 
2 1 2 
p 0.00120000008 1 0 0.9 
2 7 2 
p 0.00120000008 1 0 1 
2 4 3 
p 0.00120000008 1 0 1 
2 7 6 
p 0.00120000008 1 0 1 
2 2 3 
p 0.00120000008 1 0 1 
2 6 5 
p 0.00120000008 1 0 0.3 
2 2 3 
p 0.00120000008 1 0 0.3 
2 4 3 
p 0.0004000320800064 1 0 0.3 
2 1 2 
p 0.00120000008 1 0 1 
2 4 3 
p 0.00120000008 1 0 1 
2 4 1 
p 0.00120000008 1 0 0.3 
2 2 5 
p 0.00120000008 1 0 0.3 
2 5 4 
p 0.00120000008 1 0.3 1.2 
2 2 3 
p 0.00120000008 1 0.3 1.2 
2 1 3 
p 0.00120000008 1 0.0999999999999999 1.2 
2 1 4 
p 0.00120000008 1 0.0999999999999999 1.2 
2 1 4 
p 0.00120000008 1 0.0999999999999999 1.2 
2 1 3 
p 0.00120000008 1 0.0999999999999999 1.2 
2 4 3 
p 0.00120000008 1 0 1 
2 1 2 
p 0.00120000008 1 0 1 
2 2 4 
p 0.00120000008 1 0 1.00498756211209 
2 1 2 
p 0.00120000008 1 0 1.00498756211209 
2 2 4 
p 0.00120000008 1 0 1 
2 1 4 
p 0.00120000008 1 0 1 
2 1 2 
p 0.00120000008 1 0 1 
2 2 3 
p 0.00120000008 1 0 1 
2 2 3 
p 0.00120000008 1 0 1 
2 5 4 
p 0.0008000640800064 1 0 1 
2 6 1 
p 0.00120000008 1 0 1.00498756211209 
2 2 3 
p 0.00120000008 1 0 1.00498756211209 
2 2 3 
p 0.00120000008 1 0 1.00498756211209 
2 6 5 
p 0.00120000008 1 0 1 
2 4 3 
p 0.00120000008 1 0 1 
2 1 4 
p 0.00120000008 1 0 1 
2 1 2 
p 0.00120000008 1 0 1 
2 1 2 
p 0.00120000008 1 0 1 
2 1 2 
p 0.00120000008 1 0 1.00498756211209 
2 1 4 
p 0.00120000008 1 0 1.00498756211209 
2 1 4 
p 0.00120000008 1 0.2 1.2 
2 2 3 
p 0.00120000008 1 0.2 1.2 
2 1 4 
p 0.00120000008 1 0.2 1.2 
2 2 3 
p 0.00120000008 1 0.3 1.2 
2 1 4 
p 0.00120000008 1 0.3 1.2 
2 1 2 
p 0.00120000008 1 0 1 
2 1 4 
p 0.00120000008 1 0 1 
2 1 2 
p 0.00120000008 1 0 1 
2 4 3 
p 0.00120000008 1 0 1 
2 1 4 
p 0.00120000008 1 0 1 
2 1 2 
p 0.00120000008 1 0 1 
Surfaces 28
1 0 0 0 1 0 -0 0 0 1 0 -1 0 
1 0 0 1.2 0 0 1 1 0 -0 -0 1 0 
1 -0 -0 0 -1 0 0 0 1 0 0 0 -1 
1 1 2 1.1000000000000001 0 0.09950371902099879 0.99503719020998926 0 -0.99503719020998926 0.09950371902099879 1 0 -0 
1 1 3 1.1000000000000001 0 0 1 0 -1 0 1 0 -0 
1 0 3 0 -0 1 0 0 0 1 1 0 -0 
1 0 0 0 0 0 1 1 0 -0 -0 1 0 
1 0 0 0 -0 1 0 0 0 1 1 0 -0 
1 1 3 1.2 0 0 1 0 -1 0 1 0 -0 
1 1 1 1.2 -0 0 1 1 0 0 0 1 -0 
1 1 1 0.89999999999999991 -1 0 0 0 0 1 0 1 -0 
1 1 2 1.2 -1 -0 -0 0 -1 0 -0 0 1 
1 1 3 1.1000000000000001 0 1 -0 0 0 1 1 -0 0 
1 1 2 1.1000000000000001 -0.099503719020999123 0 -0.99503719020998926 0.99503719020998926 0 -0.099503719020999123 0 -1 -0 
1 3 0 0 1 0 -0 0 0 1 0 -1 0 
1 -0 3 0 0 1 0 1 0 0 0 0 -1 
1 2 2 0.99999999999999989 0 0 -1 1 0 0 0 -1 0 
1 0 0 0 0 0 -1 1 0 0 0 -1 0 
1 2 1 1.2 1 -0 0 0 1 0 -0 0 1 
1 2 2 1.2 0 1 0 -1 0 0 0 -0 1 
1 1 1 1.2 0 -1 0 1 0 0 -0 0 1 
1 2 0 0.89999999999999991 0 -1 0 0 0 1 -1 0 0 
1 2 1 0.89999999999999991 0 0 -1 0 -1 0 -1 -0 -0 
1 0 -0 -0 0 -1 0 1 0 0 -0 0 1 
1 2 1 0.89999999999999991 -0 -0 -1 -1 0 0 0 1 -0 
1 3 0 -0 1 0 0 -0 1 0 0 -0 1 
1 2 2 0.99999999999999989 0 0.099503719020998901 -0.99503719020998926 0 -0.99503719020998926 -0.099503719020998901 -1 0 -0 
1 3 2 0.99999999999999989 1 0 0 0 0 1 0 -1 0 
Triangulations 57
6 4 1 0.00120000008
0 0 1.2 0 1 1.2 0 0 0 0 3 0 0 3 1.1 0 2 1.1 1.2 0 1.2 -1 0 0 0 -3 1.1 -3 1.1 -2 6 4 5 3 4 6 2 3 6 1 3 2 
9 7 1 0.00120000008
0 0 1.2 0 1 1.2 3 0 1.2 3 3 1.2 1 3 1.2 1 2 1.2 2 2 1.2 2 1 1.2 1 1 1.2 0 0 0 1 3 0 3 3 1 3 1 2 2 2 2 1 1 1 9 2 1 3 8 9 3 9 1 7 5 6 4 7 8 4 5 7 4 8 3 
7 5 1 0.00120000008
0 0 1.2 0 1 1.2 3 0 1.2 3 2 1.2 2 2 1.2 2 1 1.2 1 1 1.2 0 0 0 1 3 0 3 2 2 2 2 1 1 1 7 2 1 6 1 3 6 7 1 4 5 6 4 6 3 
5 3 1 0.00120000008
0 0 1.2 0 1 1.2 2 0 1.2 2 1 1.2 1 1 1.2 0 0 0 1 2 0 2 1 1 1 5 2 1 3 5 1 4 5 3 
4 2 1 0.00120000008
0 0 1.2 0 1 1.2 1 0 1.2 1 1 1.2 0 0 0 1 1 0 1 1 4 2 1 4 1 3 
4 2 1 0.00120000008
1 2 1.1 0 2 1.1 0 1 1.2 1 1 1.2 0 0 0 -1 1.00498756211209 -1 1.00498756211209 0 4 1 2 4 2 3 
4 2 1 0.00120000008
1 2 1.1 0 2 1.1 0 1 1.2 1 1 1.2 0 0 0 -1 1.00498756211209 -1 1.00498756211209 0 4 1 2 4 2 3 
4 2 1 0.00120000008
1 2 1.1 0 2 1.1 0 1 1.2 1 1 1.2 0 0 0 -1 1.00498756211209 -1 1.00498756211209 0 4 1 2 4 2 3 
4 2 1 0.0008000640800064
0 3 1.1 0 2 1.1 0 1 1.2 0 3 1.2 3 -1.1 2 -1.1 1 -1.2 3 -1.2 4 2 3 1 2 4 
4 2 1 0.00120000008
1 3 1.1 0 3 1.1 0 2 1.1 1 2 1.1 0 0 0 -1 1 -1 1 0 4 1 2 4 2 3 
4 2 1 0.00120000008
1 3 1.1 1 3 1.2 1 2 1.1 1 2 1.2 3 -1.1 3 -1.2 2 -1.1 2 -1.2 1 3 4 1 4 2 
4 2 1 0.00120000008
1 3 1.1 0 3 1.1 0 2 1.1 1 2 1.1 0 0 0 -1 1 -1 1 0 4 1 2 4 2 3 
6 4 1 0.00120000008
3 3 0 3 3 1.2 0 3 0 0 3 1.1 1 3 1.1 1 3 1.2 0 3 1.2 3 0 0 1.1 0 1.1 1 1.2 1 5 3 4 1 3 5 2 5 6 2 1 5 
6 4 1 0.00120000008
3 3 0 3 3 1 0 3 0 0 3 1.1 1 3 1.1 2 3 1 0 3 1 3 0 0 1.1 0 1.1 1 1 2 5 3 4 6 1 3 6 3 5 2 1 6 
4 2 1 0.00120000008
0 0 0 0 0 1.2 0 3 0 0 3 1.2 0 0 1.2 0 0 -3 1.2 -3 2 1 3 2 3 4 
4 2 1 0.00120000008
0 0 0 0 3 0 3 0 0 3 3 0 0 0 0 3 3 0 3 3 4 2 1 4 1 3 
8 8 1 0.00120000008
0 0 0 0 3 0 3 0 0 3 3 0 2 1 0 2 2 0 1 1 0 1 2 0 0 0 0 3 3 0 3 3 2 1 2 2 1 1 1 2 8 1 7 5 7 1 2 1 8 3 5 1 4 6 5 4 8 6 4 2 8 4 5 3 
4 2 1 0.00120000008
0 0 0 3 0 0 0 0 1.2 3 0 1.2 0 0 0 3 1.2 0 1.2 3 4 2 1 4 1 3 
6 4 1 0.00120000008
3 0 0 3 0 0.9 0 0 0 0 0 1.2 2 0 1.2 2 0 0.9 0 3 0.9 3 0 0 1.2 0 1.2 2 0.9 2 6 3 4 1 3 6 5 6 4 2 1 6 
7 5 1 0.00120000008
3 0 0 3 0 0.9 0 0 0 0 0 1.2 1 0 1.2 1 0 0.9 2 0 0.9 0 3 0.9 3 0 0 1.2 0 1.2 1 0.9 1 0.9 2 6 3 4 5 6 4 1 6 7 1 3 6 2 1 7 
4 2 1 0.00120000008
1 1 0.9 1 0 0.9 1 0 1.2 1 1 1.2 0 0 0 -1 0.3 -1 0.3 0 4 1 2 4 2 3 
5 3 1 0.00120000008
1 2 1.1 1 1 1.2 1 2 0 1 1 0 1 1 0.9 0 -0.0999999999999999 1 0 0 -1.2 1 -1.2 1 -0.3 5 1 3 5 3 4 2 1 5 
4 2 1 0.00120000008
1 3 1.1 1 2 1.1 2 3 1 2 2 1 0 -1 0 0 1.00498756211209 -1 1.00498756211209 0 4 2 1 4 1 3 
4 2 1 0.00120000008
1 3 1.1 1 2 1.1 2 3 1 2 2 1 0 -1 0 0 1.00498756211209 -1 1.00498756211209 0 4 2 1 4 1 3 
6 4 1 0.00120000008
3 0 1.2 3 2 1.2 3 0 0 3 3 0 3 3 1 3 2 1 1.2 0 1.2 -2 0 0 0 -3 1 -3 1 -2 6 4 5 3 4 6 1 6 2 1 3 6 
6 4 1 0.00120000008
3 1 0.9 3 0 0.9 3 0 0 3 3 0 3 3 1 3 2 1 0.9 -1 0.9 0 0 0 0 -3 1 -3 1 -2 6 4 5 1 4 6 3 4 1 2 3 1 
4 2 1 0.00120000008
2 2 1 2 3 1 3 3 1 3 2 1 0 0 0 -1 1 -1 1 0 4 1 2 4 2 3 
4 2 1 0.00120000008
2 2 1.2 2 2 1 3 2 1.2 3 2 1 2 -1.2 2 -1 3 -1.2 3 -1 4 2 1 4 1 3 
4 2 1 0.00120000008
2 2 1 2 3 1 3 3 1 3 2 1 0 0 0 -1 1 -1 1 0 4 1 2 4 2 3 
5 3 1 0.0008000640800064
1 3 1.2 1 3 1.1 3 3 1.2 3 3 1 2 3 1 1 -1.2 1 -1.1 3 -1.2 3 -1 2 -1 5 2 1 3 5 1 4 5 3 
4 2 1 0.00120000008
0 3 0 3 3 0 0 3 1.2 3 3 1.2 0 0 0 3 1.2 0 1.2 3 4 2 1 4 1 3 
4 2 1 0.00120000008
3 0 0 3 0 1.2 3 3 0 3 3 1.2 0 0 1.2 0 0 -3 1.2 -3 2 1 3 2 3 4 
8 8 1 0.00120000008
0 0 1.2 0 3 1.2 3 0 1.2 3 3 1.2 2 1 1.2 2 2 1.2 1 1 1.2 1 2 1.2 0 0 0 3 3 0 3 3 2 1 2 2 1 1 1 2 8 1 7 5 7 1 2 1 8 3 5 1 4 6 5 4 8 6 4 2 8 4 5 3 
4 2 1 0.00120000008
2 1 1.2 2 1 0 2 2 0 2 2 1.2 0 0 0 -1.2 1 -1.2 1 0 4 1 2 4 2 3 
5 3 1 0.00120000008
2 1 1.2 2 1 0 2 2 0 2 2 1 2 2 1.2 0 0 0 -1.2 1 -1.2 1 -0.2 1 0 4 1 2 4 2 3 5 1 4 
4 2 1 0.00120000008
2 2 1 2 1 0.9 2 1 0 2 2 0 1 -0.2 0 -0.3 0 -1.2 1 -1.2 4 2 3 1 2 4 
4 2 1 0.00120000008
2 2 1 2 1 0.9 2 1 0 2 2 0 1 -0.2 0 -0.3 0 -1.2 1 -1.2 4 2 3 1 2 4 
4 2 1 0.0004000320800064
2 1 0 2 2 0 1 1 0 1 2 0 2 -1 2 -2 1 -1 1 -2 1 3 4 1 4 2 
4 2 1 0.00120000008
2 2 1.2 2 2 0 1 2 0 1 2 1.2 0 0 0 -1.2 1 -1.2 1 0 4 1 2 4 2 3 
5 3 1 0.00120000008
2 2 1.2 2 2 0 1 2 0 1 2 1.1 1 2 1.2 0 0 0 -1.2 1 -1.2 1 -0.0999999999999999 1 0 4 1 2 4 2 3 5 1 4 
4 2 1 0.00120000008
1 2 1.1 2 2 1 2 2 0 1 2 0 1 -0.0999999999999999 0 -0.2 0 -1.2 1 -1.2 4 2 3 1 2 4 
4 2 1 0.00120000008
1 2 1.1 2 2 1 2 2 0 1 2 0 1 -0.0999999999999999 0 -0.2 0 -1.2 1 -1.2 4 2 3 1 2 4 
4 2 1 0.00120000008
1 2 1.2 1 2 0 1 1 0 1 1 1.2 0 0 0 -1.2 1 -1.2 1 0 4 1 2 4 2 3 
4 2 1 0.00120000008
1 2 1.1 1 1 1.2 1 2 0 1 1 0 0 -0.0999999999999999 1 0 0 -1.2 1 -1.2 1 3 4 2 1 4 
4 2 1 0.00120000008
1 2 1.1 1 1 1.2 1 2 0 1 1 0 0 -0.0999999999999999 1 0 0 -1.2 1 -1.2 1 3 4 2 1 4 
4 2 1 0.00120000008
1 1 1.2 1 1 0 2 1 0 2 1 1.2 0 0 0 -1.2 1 -1.2 1 0 4 1 2 4 2 3 
4 2 1 0.00120000008
1 1 1.2 1 1 0 2 1 0 2 1 1.2 0 0 0 -1.2 1 -1.2 1 0 4 1 2 4 2 3 
5 3 1 0.00120000008
1 1 1.2 1 1 0 2 1 0 2 1 0.9 2 1 1.2 0 0 0 -1.2 1 -1.2 1 -0.3 1 0 4 1 2 4 2 3 5 1 4 
4 2 1 0.00120000008
2 1 0.9 1 1 0.9 1 1 0 2 1 0 1 -0.3 0 -0.3 0 -1.2 1 -1.2 1 2 3 1 3 4 
4 2 1 0.00120000008
2 1 0.9 3 1 0.9 3 0 0.9 2 0 0.9 0 0 0 -1 1 -1 1 0 4 1 2 4 2 3 
4 2 1 0.00120000008
2 1 0.9 2 0 0.9 1 0 0.9 1 1 0.9 0 0 0 -1 1 -1 1 0 4 1 2 4 2 3 
4 2 1 0.0004000320800064
2 0 1.2 2 0 0.9 1 0 1.2 1 0 0.9 2 1.2 2 0.9 1 1.2 1 0.9 1 3 4 1 4 2 
4 2 1 0.00120000008
2 1 1.2 2 1 0.9 2 0 1.2 2 0 0.9 1 1.2 1 0.9 0 1.2 0 0.9 1 3 4 1 4 2 
4 2 1 0.00120000008
2 1 0.9 3 1 0.9 3 0 0.9 2 0 0.9 0 0 0 -1 1 -1 1 0 4 1 2 4 2 3 
5 3 1 0.0008000640800064
3 2 1.2 3 2 1 3 0 1.2 3 0 0.9 3 1 0.9 2 1.2 2 1 0 1.2 0 0.9 1 0.9 5 3 4 1 5 2 1 3 5 
4 2 1 0.00120000008
2 2 1 3 2 1 3 1 0.9 2 1 0.9 0 0 0 -1 1.00498756211209 -1 1.00498756211209 0 4 1 2 4 2 3 
4 2 1 0.00120000008
2 2 1 3 2 1 3 1 0.9 2 1 0.9 0 0 0 -1 1.00498756211209 -1 1.00498756211209 0 4 1 2 4 2 3 

TShapes 107
Ve
1e-07
0 0 1.2
0 0

0101101
*
Ve
1e-07
0 1 1.2
0 0

0101101
*
Ed
 1e-07 1 1 0
1  1 0 0 1
2  1 1 0 0 1
2  2 2 0 0 1
6  1 1 0
6  2 2 0
6  3 3 0
6  4 4 0
6  5 5 0
0

0101000
+107 0 -106 3 *
Ve
1e-07
0 2 1.1
0 0

0101101
*
Ed
 1e-07 1 1 0
1  2 0 0 1.00498756211209
2  3 3 0 0 1.00498756211209
2  4 4 4 0 1.00498756211209
2  5 4 5 0 1.00498756211209
2  6 1 5 0 1.00498756211209
6  6 1 5
6  7 6 5
6  8 7 5
6  9 8 5
6  10 9 0
0

0101000
+104 0 -106 0 *
Ve
1e-07
0 3 1.1
0 0

0101101
*
Ed
 1e-07 1 1 0
1  3 0 0 1
2  7 3 0 0 1
2  8 5 4 0 1
2  9 5 5 0 1
2  10 1 5 0 1
6  11 1 5
6  12 10 5
6  13 10 4
6  14 11 4
6  15 12 5
6  16 9 0
0

0101000
+102 0 -104 0 *
Ve
1e-07
0 3 0
0 0

0101101
*
Ed
 1e-07 1 1 0
1  4 0 0 1.1
2  11 1 0 0 1.1
2  12 6 0 0 1.1
6  17 1 0
6  18 13 0
6  19 14 0
0

0101000
+100 0 -102 3 *
Ve
1e-07
0 0 0
0 0

0101101
*
Ed
 1e-07 1 1 0
1  5 0 0 3
2  13 1 0 0 3
2  14 7 0 0 3
6  20 15 0
6  21 16 0
6  22 17 0
6  23 1 0
0

0101000
-100 0 +98 0 *
Ed
 1e-07 1 1 0
1  6 0 0 1.2
2  15 1 0 0 1.2
2  16 8 0 0 1.2
6  24 15 0
6  25 18 0
6  26 1 0
6  27 19 0
6  28 20 0
0

0101000
-107 0 +98 0 *
Wi

0101100
-105 0 +103 3 +101 3 +99 0 +97 0 -96 0 *
Fa
0  1e-07 1 0
2  1
0111000
+95 0 *
Ve
1e-07
1 1 1.2
0 0

0101101
*
Ed
 1e-07 1 1 0
1  7 0 0 1
2  17 9 0 0 1
2  18 4 0 0 1
2  19 2 0 0 1
6  29 5 0
6  30 8 0
0

0101000
+93 0 -106 3 *
Ve
1e-07
1 0 1.2
0 0

0101101
*
Ed
 1e-07 1 1 0
1  8 0 0 1
2  20 10 0 0 1
2  21 11 0 0 1
2  22 2 0 0 1
6  31 5 0
6  32 21 0
0

0101000
+93 0 -91 8 *
Ed
 1e-07 1 1 0
1  9 0 0 1
2  23 8 0 0 1
2  24 2 0 0 1
6  33 5 0
6  34 20 0
0

0101000
+107 0 -91 8 *
Wi

0101100
-105 0 +92 0 -90 0 +89 0 *
Fa
0  1e-07 2 0
2  5
0101000
+88 0 *
Ve
1e-07
1 2 1.1
0 0

0101101
*
Ed
 1e-07 1 1 0
1  10 0 0 1
2  25 4 0 0 1
2  26 5 0 0 1
6  35 7 0
6  36 12 0
6  37 8 0
0

0101000
+86 0 -104 3 *
Ed
 1e-07 1 1 0
1  2 0 0 1.00498756211209
2  3 3 0 0 1.00498756211209
2  4 4 4 0 1.00498756211209
2  5 4 5 0 1.00498756211209
2  27 12 4 0 1.00498756211209
6  38 8 4
6  39 22 4
0

0101000
+86 4 -93 4 *
Wi

0101100
+85 0 -92 0 -84 1 +103 3 *
Fa
0  1e-07 4 0
2  8
0101000
+83 0 *
Ve
1e-07
1 3 1.1
0 0

0101101
*
Ed
 1e-07 1 1 0
1  11 0 0 1
2  28 13 0 0 1
2  29 5 0 0 1
2  30 6 0 0 1
6  40 12 0
6  41 14 0
0

0101000
+81 0 -102 3 *
Ed
 1e-07 1 1 0
1  3 0 0 1
2  7 3 0 0 1
2  8 5 4 0 1
2  9 5 5 0 1
2  10 1 5 0 1
6  42 12 4
6  43 23 4
2  31 14 4 0 1
6  44 24 4
0

0101000
+81 4 -86 4 *
Wi

0101100
+80 0 -85 0 -79 1 +101 3 *
Fa
0  1e-07 5 0
2  12
0111000
+78 0 *
Ve
1e-07
3 3 0
0 0

0101101
*
Ve
1e-07
3 3 1
0 0

0101101
*
Ed
 1e-07 1 1 0
1  12 0 0 1
2  32 15 0 0 1
2  33 6 0 0 1
6  45 14 0
6  46 25 0
6  47 26 0
0

0101000
+76 0 -75 11 *
Ve
1e-07
2 3 1
0 0

0101101
*
Ed
 1e-07 1 1 0
1  13 0 0 1
2  34 16 0 0 1
2  35 17 12 0 1
2  36 17 13 0 1
2  37 6 13 0 1
6  48 14 13
6  49 27 13
6  50 28 12
6  51 27 12
6  52 29 13
6  53 30 0
0

0101000
+73 0 -75 0 *
Ed
 1e-07 1 1 0
1  14 0 0 1.00498756211209
2  38 16 0 0 1.00498756211209
2  39 14 12 0 1.00498756211209
2  40 14 13 0 1.00498756211209
2  41 6 13 0 1.00498756211209
6  54 14 13
6  55 23 13
6  56 24 13
0

0101000
+81 13 -73 0 *
Ed
 1e-07 1 1 0
1  15 0 0 3
2  42 6 0 0 3
2  43 7 0 0 3
6  57 31 0
6  58 16 0
6  59 17 0
6  60 13 0
6  61 14 0
0

0101000
-76 0 +100 0 *
Wi

0101100
-74 0 +72 11 +71 11 -80 0 +99 0 -70 0 *
Fa
0  1e-07 6 0
2  14
0111000
+69 0 *
Ve
1e-07
3 0 0
0 0

0101101
*
Ed
 1e-07 1 1 0
1  16 0 0 3
2  44 8 0 0 3
2  45 7 0 0 3
6  62 18 0
6  63 16 0
6  64 17 0
6  65 19 0
6  66 20 0
0

0101000
-67 0 +98 0 *
Ed
 1e-07 1 1 0
1  17 0 0 3
2  46 15 0 0 3
2  47 7 0 0 3
6  67 32 0
6  68 16 0
6  69 17 0
6  70 25 0
6  71 26 0
0

0101000
-76 0 +67 0 *
Wi

0101100
-97 0 -70 0 +66 0 +65 0 *
Ve
1e-07
2 1 0
0 0

0101101
*
Ve
1e-07
2 2 0
0 0

0101101
*
Ed
 1e-07 1 1 0
1  18 0 0 1
2  48 18 0 0 1
2  49 19 17 0 1
2  50 19 18 0 1
2  51 7 18 0 1
2  52 2 17 0 1
6  72 33 17
6  73 34 17
6  74 17 18
6  75 34 18
6  76 2 17
6  77 3 17
6  78 35 17
6  79 35 18
6  80 36 18
6  81 37 18
6  82 38 0
0

0101000
+63 0 -62 0 *
Ve
1e-07
1 2 0
0 0

0101101
*
Ed
 1e-07 1 1 0
1  19 0 0 1
2  53 18 0 0 1
2  54 20 17 0 1
2  55 20 18 0 1
2  56 7 18 0 1
2  57 2 17 0 1
6  83 33 17
6  84 39 17
6  85 17 18
6  86 39 18
6  87 2 17
6  88 40 17
6  89 40 18
6  90 41 18
6  91 42 18
6  92 38 0
0

0101000
+62 0 -60 0 *
Ve
1e-07
1 1 0
0 0

0101101
*
Ed
 1e-07 1 1 0
1  20 0 0 1
2  58 18 0 0 1
2  59 12 17 0 1
2  60 12 18 0 1
2  61 7 18 0 1
2  62 2 17 0 1
6  93 33 17
6  94 43 17
6  95 17 18
6  96 43 18
6  97 44 18
6  98 45 18
6  99 22 18
6  100 38 0
0

0101000
+60 0 -58 0 *
Ed
 1e-07 1 1 0
1  21 0 0 1
2  63 18 0 0 1
2  64 21 17 0 1
2  65 21 18 0 1
2  66 7 18 0 1
2  67 2 17 0 1
6  101 33 17
6  102 46 17
6  103 17 18
6  104 46 18
6  105 47 18
6  106 48 18
6  107 49 18
6  108 38 0
0

0101000
+58 0 -63 0 *
Wi

0101100
-61 16 -59 16 -57 16 -56 16 *
Fa
0  1e-07 7 0
2  17
0111000
+64 0 +55 0 *
Ve
1e-07
3 0 0.9
0 0

0101101
*
Ed
 1e-07 1 1 0
1  22 0 0 0.9
2  68 15 0 0 0.9
2  69 8 0 0 0.9
6  109 19 0
6  110 26 0
6  111 20 0
0

0101000
+67 0 -53 21 *
Ve
1e-07
2 0 0.9
0 0

0101101
*
Ed
 1e-07 1 1 0
1  23 0 0 1
2  70 22 0 0 1
2  71 23 0 0 1
2  72 8 0 0 1
6  112 20 0
6  113 50 0
0

0101000
+51 0 -53 21 *
Ve
1e-07
1 0 0.9
0 0

0101101
*
Ed
 1e-07 1 1 0
1  24 0 0 1
2  73 24 0 0 1
2  74 25 22 0 1
2  75 25 23 0 1
2  76 8 23 0 1
6  114 20 23
6  115 51 23
0

0101000
+51 23 -49 0 *
Ed
 1e-07 1 1 0
1  25 0 0 0.3
2  77 24 0 0 0.3
2  78 11 22 0 0.3
2  79 11 23 0 0.3
2  80 8 23 0 0.3
6  116 20 23
6  117 21 23
6  118 52 0
0

0101000
+49 0 -91 0 *
Wi

0101100
-52 0 +50 0 -48 8 -47 8 +89 0 +96 0 -66 0 *
Fa
0  1e-07 8 0
2  20
0101000
+46 0 *
Ed
 1e-07 1 1 0
1  26 0 0 1
2  81 11 0 0 1
2  82 25 0 0 1
6  119 21 0
6  120 51 0
0

0101000
+49 6 -49 8 *
Ed
 1e-07 1 1 0
1  27 0 0 0.3
2  83 21 0 0 0.3
2  84 12 0 0 0.3
6  121 21 0
6  122 22 0
0

0101000
+93 0 -49 6 *
Wi

0101100
+44 0 -90 0 +43 0 +47 8 *
Fa
0  1e-07 11 0
2  21
0101000
+42 0 *
Ed
 1e-07 1 1 0
1  27 0 0.3 1.2
2  83 21 0 0.3 1.2
2  84 12 0 0.3 1.2
6  123 22 0
6  124 49 0
0

0101000
+49 6 -58 16 *
Ed
 1e-07 1 1 0
1  28 0 0.0999999999999999 1.2
2  85 12 0 0.0999999999999999 1.2
2  86 20 0 0.0999999999999999 1.2
6  125 45 0
6  126 41 0
6  127 42 0
6  128 22 0
0

0101000
+86 0 -60 16 *
Wi

0101100
-84 1 -43 0 -40 0 +57 16 +39 0 *
Fa
0  1e-07 12 0
2  22
0101000
+38 0 *
Ve
1e-07
2 2 1
0 0

0101101
*
Ed
 1e-07 1 1 0
1  29 0 0 1
2  87 14 0 0 1
2  88 17 0 0 1
6  129 24 0
6  130 29 0
0

0101000
+36 0 -73 11 *
Ed
 1e-07 1 1 0
1  14 0 0 1.00498756211209
2  38 16 0 0 1.00498756211209
2  39 14 12 0 1.00498756211209
2  40 14 13 0 1.00498756211209
2  89 20 12 0 1.00498756211209
6  131 24 12
6  132 42 12
0

0101000
+86 12 -36 12 *
Wi

0101100
-79 1 -35 0 -34 9 +71 11 *
Fa
0  1e-07 14 0
2  24
0111000
+33 0 *
Ve
1e-07
3 1 0.9
0 0

0101101
*
Ed
 1e-07 1 1 0
1  30 0 0 1
2  90 26 0 0 1
2  91 23 24 0 1
2  92 23 25 0 1
2  93 15 25 0 1
6  133 53 24
6  134 54 24
6  135 26 25
6  136 54 25
6  137 50 25
6  138 55 0
0

0101000
+31 0 -53 0 *
Ve
1e-07
3 2 1
0 0

0101101
*
Ed
 1e-07 1 1 0
1  31 0 0 1.00498756211209
2  94 26 0 0 1.00498756211209
2  95 27 24 0 1.00498756211209
2  96 27 25 0 1.00498756211209
2  97 15 25 0 1.00498756211209
6  139 26 25
6  140 56 25
6  141 57 25
0

0101000
+29 25 -31 0 *
Ed
 1e-07 1 1 0
1  32 0 0 1
2  98 28 0 0 1
2  99 17 0 0 1
2  100 15 0 0 1
6  142 26 0
6  143 29 0
0

0101000
+29 0 -75 11 *
Wi

0101100
+30 21 +28 21 -27 0 +74 0 +65 0 -52 0 *
Fa
0  1e-07 15 0
2  26
0111000
+26 0 *
Ed
 1e-07 1 1 0
1  13 0 0 1
2  34 16 0 0 1
2  35 17 12 0 1
2  36 17 13 0 1
2  37 6 13 0 1
6  144 29 12
6  145 56 12
2  101 27 12 0 1
6  146 57 12
0

0101000
+36 12 -29 12 *
Wi

0101100
+35 0 -27 0 -24 9 +72 11 *
Fa
0  1e-07 17 0
2  29
0111000
+23 0 *
Ve
1e-07
2 1 0.9
0 0

0101101
*
Ed
 1e-07 1 1 0
1  31 0 0 1.00498756211209
2  94 26 0 0 1.00498756211209
2  95 27 24 0 1.00498756211209
2  96 27 25 0 1.00498756211209
2  102 19 24 0 1.00498756211209
6  147 37 24
6  148 57 24
0

0101000
+36 24 -21 24 *
Ed
 1e-07 1 1 0
1  33 0 0.2 1.2
2  103 19 0 0.2 1.2
2  104 20 0 0.2 1.2
6  149 36 0
6  150 42 0
6  151 37 0
0

0101000
+36 0 -62 16 *
Ed
 1e-07 1 1 0
1  34 0 0.3 1.2
2  105 19 0 0.3 1.2
2  106 21 0 0.3 1.2
6  152 37 0
6  153 49 0
0

0101000
+21 0 -63 16 *
Wi

0101100
+20 19 -19 0 +61 16 +18 0 *
Fa
0  1e-07 19 0
2  37
0101000
+17 0 *
Wi

0101100
+34 9 -39 0 +59 16 +19 0 *
Fa
0  1e-07 20 0
2  42
0111000
+15 0 *
Ed
 1e-07 1 1 0
1  24 0 0 1
2  73 24 0 0 1
2  74 25 22 0 1
2  75 25 23 0 1
2  107 21 22 0 1
6  154 49 22
6  155 51 22
0

0101000
+21 22 -49 0 *
Wi

0101100
+13 6 -18 0 +56 16 +40 0 *
Fa
0  1e-07 21 0
2  49
0101000
+12 0 *
Ed
 1e-07 1 1 0
1  35 0 0 1
2  108 27 0 0 1
2  109 23 0 0 1
6  156 50 0
6  157 57 0
0

0101000
+21 0 -31 21 *
Ed
 1e-07 1 1 0
1  30 0 0 1
2  90 26 0 0 1
2  91 23 24 0 1
2  92 23 25 0 1
2  93 15 25 0 1
6  158 50 24
6  159 51 24
0

0101000
+21 24 -51 24 *
Wi

0101100
+10 0 -50 0 -9 19 +30 21 *
Fa
0  1e-07 23 0
2  50
0101000
+8 0 *
Wi

0101100
+9 19 -44 0 -13 6 +48 8 *
Fa
0  1e-07 25 0
2  51
0101000
+6 0 *
Wi

0101100
+24 9 -10 0 -20 19 +28 21 *
Fa
0  1e-07 27 0
2  57
0101000
+4 0 *
Sh

0101100
-94 0 +87 0 +82 0 +77 0 +68 0 -54 0 -45 0 -41 0 -37 0 -32 0 
+25 0 -22 0 -16 0 -14 0 -11 0 -7 0 -5 0 -3 0 *
So

0100000
+2 0 *

+1 0 