DBRep_DrawableShape

CASCADE Topology V1, (c) Matra-Datavision
Locations 40
1
              1               0               0               1 
              0               1               0              -0 
              0               0               1              -0 
1
              1               0               0              -1 
              0               1               0               0 
              0               0               1               0 
2  1 1 2 1 0
2  1 -1 0
2  2 -1 1 -1 0
1
              1               0               0              -0 
              0               1               0              -0 
              0               0               1              -1 
1
              1               0               0               0 
              0               1               0               0 
              0               0               1               1 
2  6 1 7 1 0
2  6 -1 0
2  7 -1 6 -1 0
1
              1               0               0              -1 
              0               1               0              -0 
              0               0               1              -0 
1
              1               0               0               1 
              0               1               0               0 
              0               0               1               0 
2  11 1 12 1 0
1
              1               0               0              -0 
              0               1               0              -0 
              0               0               1               1 
1
              1               0               0               0 
              0               1               0               0 
              0               0               1              -1 
2  14 1 15 1 0
2  14 -1 0
2  15 -1 14 -1 0
2  11 -1 0
2  12 -1 11 -1 0
1
              1               0               0              -0 
              0               1               0            -0.6 
              0               0               1              -0 
1
              1               0               0              -0 
              0               1               0             -10 
              0               0               1              -0 
2  22 -1 0
1
              1               0               0               0 
              0               1               0              10 
              0               0               1               0 
2  24 -1 22 -1 0
1
              1               0               0              -0 
              0               1               0            -1.2 
              0               0               1              -0 
2  26 -1 0
1
              1               0               0               0 
              0               1               0             1.2 
              0               0               1               0 
2  28 -1 26 -1 0
1
              1               0               0              -0 
              0               1               0              -1 
              0               0               1              -0 
2  30 -1 0
1
              1               0               0               0 
              0               1               0               1 
              0               0               1               0 
2  32 -1 30 -1 0
1
              1               0               0              -0 
              0               1               0            -0.8 
              0               0               1              -0 
2  34 -1 0
1
              1               0               0               0 
              0               1               0             0.8 
              0               0               1               0 
2  36 -1 34 -1 0
2  21 -1 0
1
              1               0               0               0 
              0               1               0             0.6 
              0               0               1               0 
2  39 -1 21 -1 0
Curve2ds 164
1 3 0 0 -1 
1 0 0 0 1 
1 0 -1.2 1 0 
1 0 0 1 0 
1 1.2 -2 -0.099503719020999012 0.99503719020998926 
1 0 0 1 0 
1 -0 -1 1 0 
1 2 -1.2 -0.99503719020998926 0.099503719020999012 
1 1.0999999999999999 -1 0 1 
1 0 0 1 0 
1 0 -1 1 0 
1 1 -1.0999999999999999 -1 0 
1 0 0 0 -1 
1 0 0 0 1 
1 0 0 1 0 
1 0 0 1 0 
1 3 0 0 1 
1 0 1.2 1 0 
1 1 0.89999999999999969 0 1 
1 0 0 1 0 
1 0 -1 1 0 
1 1 0.89999999999999969 0 1 
1 2 0.90000000000000002 -1 -3.3306690738754696e-16 
1 0 0 1 0 
1 0 -1 1 0 
1 2 0.90000000000000002 -1 -3.3306690738754696e-16 
1 0 0 0 -1 
1 1 0 0 -1 
1 2 0.90000000000000013 1 0 
1 3 0 0 -1 
1 3 0 0 1 
1 3 0 0 1 
1 0 0 1 0 
1 2 0 0 -1 
1 0 0 -0 -1 
1 2 1 0 -1 
1 0 0 0 -1 
1 0.30000000000000027 0 0 -1 
1 2 1 1 0 
1 1.0049875621120892 0 -0 -1 
1 0 0 0 -1 
1 1 -0.59999999999999998 -0.99503719020998926 0.099503719020999012 
1 0 0 0 -1 
1 1 0 0 -1 
1 1 1.0999999999999999 -1 0 
1 0 0 0 -1 
1 1 -1.0999999999999999 0.99503719020998926 0.099503719020999026 
1 0 0 1 0 
1 0 -1 1 0 
1 1 1.0999999999999999 0.99503719020998926 -0.099503719020999026 
1 1.9999999999999998 -0.99999999999999978 1 0 
1 0 0 1 0 
1 0 -1 1 0 
1 1.9999999999999998 0.99999999999999978 1 0 
1 0 0 0 -1 
1 3 0 0 1 
1 0 0 0 1 
1 0 0 1 0 
1 0 0 1 0 
1 0 3 1 0 
1 1 0 0 -1 
1 0 0 0 -1 
1 0 0 0 -1 
1 1 0 0 -1 
1 0.90000000000000013 2 0 1 
1 0 0 1 0 
1 0 -1 1 0 
1 2 -0.90000000000000013 1 0 
1 1 -0.30000000000000004 -1 3.3306690738754696e-16 
1 1.0049875621120892 0 0 -1 
1 0 0 0 -1 
1 0.99999999999999978 1 -0.099503719020998568 0.99503719020998926 
1 0 0 1 0 
1 0 -1 1 0 
1 1 -0.99999999999999978 0.99503719020998926 0.099503719020998568 
1 0 0 0 -1 
1 1.0000000000000002 0 0 -1 
1 1 -0.99999999999999978 -1 0 
1 1 -1 0 -1 
1 0 0 1 0 
1 0 -10 1 0 
1 1 1 1 0 
1 0 0 1 0 
1 0 -1.2 1 0 
1 1 1 1 0 
1 1 1 1 0 
1 1 -9 1 0 
1 0 0 1 0 
1 0 -1 1 0 
1 1 1 1 0 
1 0 0 1 0 
1 0 -0.80000000000000004 1 0 
1 1 1 1 0 
1 0 0 1 0 
1 0 -0.59999999999999998 1 0 
1 1 1 1 0 
1 1 0 0 -1 
1 0 0 0 -1 
1 1.004987562112089 0 0 -1 
1 0 0 0 -1 
1 1 -0.49999999999999989 -0.99503719020998926 0.099503719020999026 
1 0 2.2204460492503131e-16 0 -1 
1 1 -2 1 0 
1 0 0 1 0 
1 0 -10 1 0 
1 2 1 0 1 
1 0 0 1 0 
1 0 -1.2 1 0 
1 2 1 0 1 
1 2 1 0 1 
1 2 -9 0 1 
1 -0 -9 0 1 
1 0 0 1 0 
1 0 -1 1 0 
1 2 1 0 1 
1 0 0 1 0 
1 0 -0.80000000000000004 1 0 
1 2 1 0 1 
1 0 0 1 0 
1 0 -0.59999999999999998 1 0 
1 2 1 0 1 
1 1 0 0 -1 
1 0 -0 0 -1 
1 1 -0.3999999999999998 -0.99503719020998926 0.099503719020998568 
1 2 -2 0 1 
1 0 -0 1 0 
1 0 -10 1 0 
1 2 2 -1 0 
1 0 -0 1 0 
1 0 -1.2 1 0 
1 2 2 -1 0 
1 2 2 -1 0 
1 2 -8 -1 0 
1 1 -8 0 -1 
1 0 -0 1 0 
1 0 -1 1 0 
1 2 2 -1 0 
1 0 -0 1 0 
1 0 -0.80000000000000004 1 0 
1 2 2 -1 0 
1 0 -0 1 0 
1 0 -0.59999999999999998 1 0 
1 2 2 -1 0 
1 2 -1.0000000000000078 -1 7.7715611723760958e-15 
1 0 0 1 0 
1 0 -10 1 0 
1 1.0000000000000078 2 -7.7715611723760958e-15 -1 
1 0 0 1 0 
1 0 -1.2 1 0 
1 1.0000000000000078 2 -7.7715611723760958e-15 -1 
1 1.0000000000000078 2 -7.7715611723760958e-15 -1 
1 1.0000000000000078 -8 -7.7715611723760958e-15 -1 
1 1 -8.9999999999999929 1 -7.7715611723760958e-15 
1 0 0 1 0 
1 0 -1 1 0 
1 1.0000000000000078 2 -7.7715611723760958e-15 -1 
1 0 0 1 0 
1 0 -0.80000000000000004 1 0 
1 1.0000000000000078 2 -7.7715611723760958e-15 -1 
1 0 0 1 0 
1 0 -0.59999999999999998 1 0 
1 1.0000000000000078 2 -7.7715611723760958e-15 -1 
1 0.99999999999999223 0 0 -1 
1 0 0 0 -1 
Curves 35
1 0 0 3 -0 1 0 
1 0 1.2 0 0 0 1 
1 0 1.2 2 0 -0.099503719020999012 -0.99503719020998926 
1 0 1.0999999999999999 1 0 0 -1 
1 0 0 0 -0 1 0 
1 0 0 0 0 0 1 
1 0 1.2 3 1 0 -0 
1 1 0.89999999999999969 3 0 1 0 
1 2 0.90000000000000002 3 -1 -3.3306690738754696e-16 0 
1 2 0.90000000000000013 3 1 0 0 
1 3 0 3 -0 1 0 
1 0 0 3 1 0 -0 
1 1 1.2 2 -1 0 0 
1 1 1.2 2 0 0 1 
1 1 1.0999999999999999 1 -1 0 0 
1 1 1.0999999999999999 0 -1 0 0 
1 1 1.0999999999999999 0 0.99503719020998926 -0.099503719020999026 0 
1 1.9999999999999998 0.99999999999999978 0 1 0 0 
1 3 0 0 -0 1 0 
1 0 0 0 1 0 -0 
1 3 0 0 0 0 1 
1 1 0.89999999999999969 2 0 0 1 
1 1 0.59999999999999998 2 0 1 0 
1 3 0.90000000000000013 2 0 0 1 
1 2 0.90000000000000013 2 1 0 0 
1 3 0.99999999999999978 1 0 -0.099503719020998568 0.99503719020998926 
1 3 0.99999999999999978 1 0 0 -1 
1 1 1.2 1 0 0 1 
1 1 0.59999999999999998 1 0 1 0 
1 1.9999999999999998 0.99999999999999978 1 0 0 -1 
1 1 1.2 2 1 0 0 
1 2 0.59999999999999998 2 0 1 0 
1 2 1.2 2 0 0 -1 
1 2 1.2 1.0000000000000078 -1 0 -7.7715611723760958e-15 
1 2 0.59999999999999998 1.0000000000000078 0 1 0 
Polygon3D 0
PolygonOnTriangulations 183
2 1 2 
p 0.00120000008000001 1 0 1.2 
2 3 1 
p 0.00120000008000001 1 0 1.2 
2 2 4 
p 0.00120000008 1 0 1.2 
2 1 2 
p 0.00120000008 1 0 1.2 
2 1 2 
p 0.00120000576999213 1 0 1.2 
2 3 1 
p 0.00120000576999213 1 0 1.2 
2 1 2 
p 0.00120000576999213 1 0 1.2 
2 3 1 
p 0.00120000576999213 1 0 1.2 
2 1 2 
p 0.00120000576999213 1 0 1.2 
2 3 1 
p 0.00120000576999213 1 0 1.2 
2 6 2 
p 0.00120000576999213 1 2 3 
2 1 2 
p 0.00120000576999213 1 2 3 
2 6 5 
p 0.00120000576999213 1 0 1.00498756211209 
2 2 3 
p 0.00120000576999213 1 0 1.00498756211209 
2 2 4 
p 0.0008000640800064 1 0 1.00498756211209 
2 5 4 
p 0.00120000576999213 1 0 1 
2 2 3 
p 0.00120000576999213 1 0 1 
2 4 3 
p 0.0008000640800064 1 0 1 
2 3 4 
p 0.00120000576999213 1 0 1.1 
2 1 2 
p 0.00120000576999213 1 0 1.1 
2 3 1 
p 0.00120000008000001 1 0 3 
2 1 3 
p 0.00120000008000001 1 0 3 
2 1 2 
p 0.00120000008000001 1 0 3 
2 1 3 
p 0.00120000008000001 1 0 3 
2 3 1 
p 0.00120000008000001 1 0 3 
2 3 1 
p 0.00120000008000001 1 0 3 
2 3 1 
p 0.00120000008000001 1 0 3 
2 1 2 
p 0.00120000576999213 1 0 1 
2 2 3 
p 0.00120000576999213 1 0 1 
2 7 2 
p 0.00120000576999213 1 0 0.3 
2 2 3 
p 0.00120000576999213 1 0 0.3 
2 1 2 
p 0.0004000320800064 1 0 0.3 
2 6 7 
p 0.00120000576999213 1 0 1 
2 2 3 
p 0.00120000576999213 1 0 1 
2 6 5 
p 0.00120000576999213 1 0 1 
2 4 3 
p 0.00120000576999213 1 0 1 
2 4 5 
p 0.00120000576999213 1 0 0.9 
2 1 2 
p 0.00120000576999213 1 0 0.9 
2 3 4 
p 0.00120000008000001 1 0 3 
2 3 4 
p 0.00120000008000001 1 0 3 
2 1 3 
p 0.00120000008000001 1 0 3 
2 3 4 
p 0.00120000008000001 1 0 3 
2 3 4 
p 0.00120000008000001 1 0 3 
2 3 4 
p 0.00120000008000001 1 0 3 
2 3 4 
p 0.00120000008000001 1 0 3 
2 4 1 
p 0.00120000576999213 1 0 1 
2 1 2 
p 0.00120000576999213 1 0 1 
2 4 3 
p 0.00120000576999213 1 0 1 
2 4 3 
p 0.00120000576999213 1 0 1 
2 4 3 
p 0.00120000576999213 1 0 1 
2 1 2 
p 0.00120000576999213 1 0 1 
2 1 4 
p 0.00120000576999213 1 0 1.00498756211209 
2 4 3 
p 0.00120000576999213 1 0 1.00498756211209 
2 4 3 
p 0.00120000576999213 1 0 1 
2 6 2 
p 0.00120000576999213 1 0 1 
2 1 4 
p 0.00120000576999213 1 0 1 
2 1 2 
p 0.00120000576999213 1 0 1 
2 6 5 
p 0.00120000576999213 1 0 1.00498756211209 
2 2 3 
p 0.00120000576999213 1 0 1.00498756211209 
2 5 4 
p 0.00120000576999213 1 0 1 
2 2 3 
p 0.00120000576999213 1 0 1 
2 5 4 
p 0.0008000640800064 1 0 1 
2 3 4 
p 0.00120000576999213 1 0 1 
2 3 4 
p 0.00120000576999213 1 0 1 
2 1 3 
p 0.00120000008000001 1 0 3 
2 1 2 
p 0.00120000008000001 1 0 3 
2 1 3 
p 0.00120000008000001 1 0 3 
2 1 2 
p 0.00120000008000001 1 0 3 
2 1 3 
p 0.00120000008000001 1 0 3 
2 1 3 
p 0.00120000008000001 1 0 3 
2 1 3 
p 0.00120000008000001 1 0 3 
2 2 4 
p 0.00120000008000001 1 0 3 
2 3 1 
p 0.00120000008000001 1 0 3 
2 1 2 
p 0.00120000008000001 1 0 3 
2 2 4 
p 0.00120000008000001 1 0 3 
2 3 1 
p 0.00120000008000001 1 0 3 
2 3 1 
p 0.00120000008000001 1 0 3 
2 3 1 
p 0.00120000008000001 1 0 3 
2 1 2 
p 0.00120000576999213 1 0 1 
2 4 3 
p 0.00120000576999213 1 0 1 
2 1 4 
p 0.00120000576999213 1 0.3 0.6 
2 5 4 
p 0.00120000576999213 1 0.3 0.6 
2 1 2 
p 0.00120000576999213 1 0 1 
2 1 4 
p 0.00120000576999213 1 0 1 
2 1 4 
p 0.00120000576999213 1 0 1 
2 4 3 
p 0.00120000576999213 1 0 1 
2 1 2 
p 0.00120000576999213 1 0 1 
2 4 3 
p 0.00120000576999213 1 0 1 
2 2 3 
p 0.00120000576999213 1 0 1 
2 6 2 
p 0.00120000576999213 1 0 1 
2 5 4 
p 0.0008000640800064 1 0 1 
2 5 6 
p 0.00120000576999213 1 0 1.00498756211209 
2 2 3 
p 0.00120000576999213 1 0 1.00498756211209 
2 5 4 
p 0.00120000576999213 1 0 1 
2 4 3 
p 0.00120000576999213 1 0 1 
2 7 5 
p 0.00120000008000001 1 0 1 
2 1 2 
p 0.00120000008000001 1 0 1 
2 1 4 
p 0.00120000008000001 1 0 1 
2 7 5 
p 0.00120000008 1 0 1 
2 2 3 
p 0.00120000008 1 0 1 
2 4 1 
p 0.000400000080000001 1 0 1 
2 7 5 
p 0.00120000576999213 1 0 1 
2 2 3 
p 0.00120000576999213 1 0 1 
2 1 4 
p 0.000400000080000001 1 0 1 
2 1 2 
p 0.000400000080000001 1 0 1 
2 7 5 
p 0.00120000576999213 1 0 1 
2 2 3 
p 0.00120000576999213 1 0 1 
2 1 4 
p 0.000400000080000001 1 0 1 
2 1 2 
p 0.000400000080000001 1 0 1 
2 7 5 
p 0.00120000576999213 1 0 1 
2 2 3 
p 0.00120000576999213 1 0 1 
2 1 4 
p 0.000400000080000001 1 0 1 
2 1 2 
p 0.000400000080000001 1 0 1 
2 2 5 
p 0.00120000576999213 1 0 0.3 
2 1 3 
p 0.00120000576999213 1 0 0.3 
2 1 3 
p 0.00120000576999213 1 0 0.5 
2 2 4 
p 0.00120000576999213 1 0 0.5 
2 4 3 
p 0.00120000576999213 1 0 1 
2 1 2 
p 0.00120000576999213 1 0 1 
2 1 4 
p 0.00120000576999213 1 0 1.00498756211209 
2 4 3 
p 0.00120000576999213 1 0 1.00498756211209 
2 1 4 
p 0.00120000576999213 1 0 1 
2 1 2 
p 0.00120000576999213 1 0 1 
2 5 6 
p 0.00120000008000001 1 0 1 
2 1 2 
p 0.00120000008000001 1 0 1 
2 1 4 
p 0.00120000008000001 1 0 1 
2 5 6 
p 0.00120000008 1 0 1 
2 2 3 
p 0.00120000008 1 0 1 
2 1 2 
p 0.000400000080000001 1 0 1 
2 5 6 
p 0.00120000576999213 1 0 1 
2 2 3 
p 0.00120000576999213 1 0 1 
2 1 4 
p 0.000400000080000001 1 0 1 
2 1 2 
p 0.000400000080000001 1 0 1 
2 5 6 
p 0.00120000576999213 1 0 1 
2 2 3 
p 0.00120000576999213 1 0 1 
2 1 4 
p 0.000400000080000001 1 0 1 
2 1 2 
p 0.000400000080000001 1 0 1 
2 5 6 
p 0.00120000576999213 1 0 1 
2 2 3 
p 0.00120000576999213 1 0 1 
2 1 4 
p 0.000400000080000001 1 0 1 
2 1 2 
p 0.000400000080000001 1 0 1 
2 2 4 
p 0.00120000576999213 1 0 0.3 
2 1 3 
p 0.00120000576999213 1 0 0.3 
2 1 4 
p 0.00120000576999213 1 0 1.00498756211209 
2 4 3 
p 0.00120000576999213 1 0 1.00498756211209 
2 6 8 
p 0.00120000008000001 1 0 0.999999999999992 
2 1 2 
p 0.00120000008000001 1 0 0.999999999999992 
2 1 4 
p 0.00120000008000001 1 0 0.999999999999992 
2 6 8 
p 0.00120000008 1 0 0.999999999999992 
2 2 3 
p 0.00120000008 1 0 0.999999999999992 
2 2 3 
p 0.000400000080000001 1 0 0.999999999999992 
2 6 8 
p 0.00120000576999213 1 0 0.999999999999992 
2 2 3 
p 0.00120000576999213 1 0 0.999999999999992 
2 1 4 
p 0.000400000080000001 1 0 0.999999999999992 
2 1 2 
p 0.000400000080000001 1 0 0.999999999999992 
2 6 8 
p 0.00120000576999213 1 0 0.999999999999992 
2 2 3 
p 0.00120000576999213 1 0 0.999999999999992 
2 1 4 
p 0.000400000080000001 1 0 0.999999999999992 
2 1 2 
p 0.000400000080000001 1 0 0.999999999999992 
2 6 8 
p 0.00120000576999213 1 0 0.999999999999992 
2 2 3 
p 0.00120000576999213 1 0 0.999999999999992 
2 1 4 
p 0.000400000080000001 1 0 0.999999999999992 
2 1 2 
p 0.000400000080000001 1 0 0.999999999999992 
2 8 7 
p 0.00120000008000001 1 0 1 
2 1 2 
p 0.00120000008000001 1 0 1 
2 1 4 
p 0.00120000008000001 1 0 1 
2 8 7 
p 0.00120000008 1 0 1 
2 2 3 
p 0.00120000008 1 0 1 
2 3 4 
p 0.000400000080000001 1 0 1 
2 8 7 
p 0.00120000576999213 1 0 1 
2 2 3 
p 0.00120000576999213 1 0 1 
2 1 4 
p 0.000400000080000001 1 0 1 
2 1 2 
p 0.000400000080000001 1 0 1 
2 8 7 
p 0.00120000576999213 1 0 1 
2 2 3 
p 0.00120000576999213 1 0 1 
2 1 4 
p 0.000400000080000001 1 0 1 
2 1 2 
p 0.000400000080000001 1 0 1 
2 8 7 
p 0.00120000576999213 1 0 1 
2 2 3 
p 0.00120000576999213 1 0 1 
2 1 4 
p 0.000400000080000001 1 0 1 
2 1 2 
p 0.000400000080000001 1 0 1 
2 1 3 
p 0.00120000576999213 1 0 0.4 
2 2 4 
p 0.00120000576999213 1 0 0.4 
Surfaces 47
1 0 0 0 1 0 -0 0 0 1 0 -1 0 
1 0 0 3 0 0 1 1 0 -0 -0 1 0 
1 0 1.2 0 -0 1 0 0 0 1 1 0 -0 
1 -0 0 0 -1 0 0 0 1 0 0 0 -1 
1 1 1.2 2 0 -0.99503719020998926 0.099503719020999012 0 -0.099503719020999012 -0.99503719020998926 1 0 0 
1 1 1.0999999999999999 1 -0 -1 -0 0 0 -1 1 -0 0 
1 0 0 0 0 0 1 1 0 -0 -0 1 0 
1 0 0 0 -0 1 0 0 0 1 1 0 -0 
1 0 0 3 0 0 1 1 0 -0 -0 1 0 
1 1 0.89999999999999969 2 -1 0 0 0 1 0 0 0 -1 
1 2 0.90000000000000002 2 3.3306690738754696e-16 -1 0 -1 -3.3306690738754696e-16 0 0 -0 -1 
1 2 0.90000000000000013 3 0 0 1 0 1 0 -1 0 0 
1 2 0.90000000000000013 2 0 -1 0 0 0 1 -1 0 0 
1 3 0 0 1 0 -0 0 0 1 0 -1 0 
1 1 1.2 0 0 1 -0 0 0 1 1 -0 0 
1 1 1.2 2 0 1 0 1 0 0 0 0 -1 
1 1 0.59999999999999998 1 1 0 0 0 0 1 0 -1 0 
1 1 1.0999999999999999 0 0 0 -1 0 1 0 1 -0 0 
1 1 1.0999999999999999 1 -0.099503719020999026 -0.99503719020998926 -0 0.99503719020998926 -0.099503719020999026 0 -0 0 1 
1 0 0 0 0 0 -1 1 0 0 0 -1 0 
1 1.9999999999999998 0.99999999999999978 1 0 -1 0 1 0 0 -0 0 1 
1 1 0.59999999999999998 2 0 0 -1 1 0 0 0 -1 0 
1 3 0 -0 1 0 0 -0 1 0 0 -0 1 
1 2 0.99999999999999978 1 0 -0.99503719020998926 -0.099503719020998568 0 -0.099503719020998568 0.99503719020998926 -1 -0 0 
1 3 0.99999999999999978 1 1 -0 0 0 1 0 -0 0 1 
1 -0 1.2 0 0 1 0 1 0 0 0 0 -1 
1 1 -8.8000000000000007 1 1 0 0 0 0 1 0 -1 0 
1 1 0 1 1 0 0 0 0 1 0 -1 0 
1 10 1.2 0 0 1 -0 0 0 1 1 -0 0 
1 1 0.19999999999999996 1 1 0 0 0 0 1 0 -1 0 
1 1 0.39999999999999991 1 1 0 0 0 0 1 0 -1 0 
1 2 0.59999999999999998 1.0000000000000078 -7.7715611723760958e-15 0 1 -1 0 -7.7715611723760958e-15 -0 -1 0 
1 1 -8.8000000000000007 2 0 0 -1 1 0 0 0 -1 0 
1 1 0 2 0 0 -1 1 0 0 0 -1 0 
1 10 1.2 2 0 -0.99503719020998926 0.099503719020999012 0 -0.099503719020999012 -0.99503719020998926 1 0 0 
1 1 0.19999999999999996 2 0 0 -1 1 0 0 0 -1 0 
1 1 0.39999999999999991 2 0 0 -1 1 0 0 0 -1 0 
1 2 0.59999999999999998 2 -1 0 0 0 0 -1 -0 -1 -0 
1 2 -8.8000000000000007 2 -1 0 0 0 0 -1 -0 -1 -0 
1 2 0 2 -1 0 0 0 0 -1 -0 -1 -0 
1 3 1.2 10 0 1 0 -1 0 0 0 -0 1 
1 2 0.19999999999999996 2 -1 0 0 0 0 -1 -0 -1 -0 
1 2 0.39999999999999991 2 -1 0 0 0 0 -1 -0 -1 -0 
1 2 -8.8000000000000007 1.0000000000000078 -7.7715611723760958e-15 0 1 -1 0 -7.7715611723760958e-15 -0 -1 0 
1 2 0 1.0000000000000078 -7.7715611723760958e-15 0 1 -1 0 -7.7715611723760958e-15 -0 -1 0 
1 2 0.19999999999999996 1.0000000000000078 -7.7715611723760958e-15 0 1 -1 0 -7.7715611723760958e-15 -0 -1 0 
1 2 0.39999999999999991 1.0000000000000078 -7.7715611723760958e-15 0 1 -1 0 -7.7715611723760958e-15 -0 -1 0 
Triangulations 72
6 4 1 0.00120000576999213
0 0 3 0 1.2 3 0 0 0 0 1.1 0 0 1.1 1 0 1.2 2 3 0 3 -1.2 0 0 0 -1.1 1 -1.1 2 -1.2 3 4 5 1 5 6 1 6 2 1 3 5 
6 4 1 0.00120000008000001
0 0 3 0 1.2 3 0 0 0 0 1.1 0 0 1.1 1 0 1.2 2 3 0 3 -1.2 0 0 0 -1.1 1 -1.1 2 -1.2 3 4 5 1 5 6 1 6 2 1 3 5 
7 5 1 0.00120000008000001
0 1.2 3 1 1.2 3 0 0 3 3 0 3 3 0.9 3 2 0.9 3 1 0.9 3 0 1.2 1 1.2 0 0 3 0 3 0.9 2 0.9 1 0.9 7 1 3 2 1 7 4 6 7 4 7 3 5 6 4 
4 2 1 0.00120000008
0 0 0 0 0 3 0 1.2 0 0 1.2 3 0 0 3 0 0 -1.2 3 -1.2 2 1 3 2 3 4 
4 2 1 0.00120000008
0 0 3 0 1.2 3 3 0 3 3 1.2 3 0 0 0 1.2 3 0 3 1.2 4 2 1 4 1 3 
6 4 1 0.00120000576999213
0 0 3 0 1.2 3 0 0 0 0 1.1 0 0 1.1 1 0 1.2 2 3 0 3 -1.2 0 0 0 -1.1 1 -1.1 2 -1.2 3 4 5 1 5 6 1 6 2 1 3 5 
7 5 1 0.00120000576999213
0 1.2 3 1 1.2 3 0 0 3 3 0 3 3 0.9 3 2 0.9 3 1 0.9 3 0 1.2 1 1.2 0 0 3 0 3 0.9 2 0.9 1 0.9 7 1 3 2 1 7 4 6 7 4 7 3 5 6 4 
6 4 1 0.00120000576999213
0 0 3 0 1.2 3 0 0 0 0 1.1 0 0 1.1 1 0 1.2 2 3 0 3 -1.2 0 0 0 -1.1 1 -1.1 2 -1.2 3 4 5 1 5 6 1 6 2 1 3 5 
7 5 1 0.00120000576999213
0 1.2 3 1 1.2 3 0 0 3 3 0 3 3 0.9 3 2 0.9 3 1 0.9 3 0 1.2 1 1.2 0 0 3 0 3 0.9 2 0.9 1 0.9 7 1 3 2 1 7 4 6 7 4 7 3 5 6 4 
7 5 1 0.00120000576999213
0 1.2 3 1 1.2 3 0 0 3 3 0 3 3 0.9 3 2 0.9 3 1 0.9 3 0 1.2 1 1.2 0 0 3 0 3 0.9 2 0.9 1 0.9 7 1 3 2 1 7 4 6 7 4 7 3 5 6 4 
4 2 1 0.00120000576999213
0 1.2 2 0 1.2 3 1 1.2 3 1 1.2 2 2 0 3 0 3 1 2 1 3 1 2 3 4 1 
4 2 1 0.00120000576999213
1 1.2 2 0 1.2 2 0 1.1 1 1 1.1 1 0 0 0 -1 1.00498756211209 -1 1.00498756211209 0 4 1 2 4 2 3 
4 2 1 0.0008000640800064
0 1.2 0 0 1.2 2 0 1.1 0 0 1.1 1 1.2 0 1.2 -2 1.1 0 1.1 -1 1 3 4 2 1 4 
4 2 1 0.00120000576999213
1 1.1 1 0 1.1 1 0 1.1 0 1 1.1 0 0 0 0 -1 1 -1 1 0 4 1 2 4 2 3 
6 4 1 0.00120000576999213
0 0 0 0 1.1 0 3 0 0 3 1 0 2 1 0 1 1.1 0 0 0 0 1.1 3 0 3 1 2 1 1 1.1 6 2 1 5 6 1 3 5 1 4 5 3 
8 8 1 0.00120000008000001
0 0 0 3 0 0 0 0 3 3 0 3 1 0 2 2 0 2 1 0 1 2 0 1.00000000000001 0 0 0 3 3 0 3 3 2 1 2 2 1 1 1.00000000000001 2 2 1 7 5 7 1 3 5 1 8 2 7 4 6 5 4 8 6 4 5 3 4 2 8 
4 2 1 0.00120000008000001
0 0 0 3 0 0 0 0 3 3 0 3 0 0 0 3 3 0 3 3 4 2 1 4 1 3 
4 2 1 0.00120000576999213
1 0.9 2 1 0.9 3 1 1.2 3 1 1.2 2 0 0 0 -1 0.3 -1 0.3 0 4 1 2 4 2 3 
4 2 1 0.0004000320800064
1 0.9 3 1 1.2 3 2 0.9 3 2 1.2 3 1 0.9 1 1.2 2 0.9 2 1.2 4 2 1 4 1 3 
4 2 1 0.00120000576999213
2 0.9 2 2 0.9 3 1 0.9 3 1 0.9 2 0 0 0 -1 1 -1 1 0 4 1 2 4 2 3 
4 2 1 0.00120000576999213
2 0.9 2 3 0.9 2 3 0.9 3 2 0.9 3 0 0 0 -1 1 -1 1 0 4 1 2 4 2 3 
6 4 1 0.00120000576999213
3 0 3 3 0.9 3 3 0 0 3 1 0 3 1 1 3 0.9 2 3 0 3 -0.9 0 0 0 -1 1 -1 2 -0.9 3 4 5 6 3 5 1 6 2 1 3 6 
5 3 1 0.00120000576999213
1 0.6 1 1 0.6 2 1 1.1 1 1 1.2 2 1 0.9 2 0 0 1 0 0 -0.5 1 -0.6 1 -0.3 5 1 3 5 3 4 2 1 5 
4 2 1 0.00120000576999213
1 1.1 1 1 1.1 0 2 1 0 2 1 1 0 0 0 -1 1.00498756211209 -1 1.00498756211209 0 4 1 2 4 2 3 
4 2 1 0.00120000576999213
2 1 1 2 1 0 3 1 0 3 1 1 0 0 0 -1 1 -1 1 0 4 1 2 4 2 3 
5 3 1 0.0008000640800064
1 1.2 0 1 1.1 0 3 1.2 0 3 1 0 2 1 0 1 -1.2 1 -1.1 3 -1.2 3 -1 2 -1 5 2 1 3 5 1 4 5 3 
6 4 1 0.00120000008000001
0 0 0 0 1.1 0 3 0 0 3 1 0 2 1 0 1 1.1 0 0 0 0 1.1 3 0 3 1 2 1 1 1.1 6 2 1 5 6 1 3 5 1 4 5 3 
4 2 1 0.00120000008
0 0 0 0 1.2 0 3 0 0 3 1.2 0 0 0 0 1.2 3 0 3 1.2 4 2 1 4 1 3 
6 4 1 0.00120000576999213
0 0 0 0 1.1 0 3 0 0 3 1 0 2 1 0 1 1.1 0 0 0 0 1.1 3 0 3 1 2 1 1 1.1 6 2 1 5 6 1 3 5 1 4 5 3 
6 4 1 0.00120000576999213
0 0 0 0 1.1 0 3 0 0 3 1 0 2 1 0 1 1.1 0 0 0 0 1.1 3 0 3 1 2 1 1 1.1 6 2 1 5 6 1 3 5 1 4 5 3 
6 4 1 0.00120000008000001
3 0 3 3 0.9 3 3 0 0 3 1 0 3 1 1 3 0.9 2 3 0 3 -0.9 0 0 0 -1 1 -1 2 -0.9 3 4 5 6 3 5 1 6 2 1 3 6 
4 2 1 0.00120000008
3 0 0 3 0 3 3 1.2 0 3 1.2 3 0 0 3 0 0 -1.2 3 -1.2 2 1 3 2 3 4 
6 4 1 0.00120000576999213
3 0 3 3 0.9 3 3 0 0 3 1 0 3 1 1 3 0.9 2 3 0 3 -0.9 0 0 0 -1 1 -1 2 -0.9 3 4 5 6 3 5 1 6 2 1 3 6 
6 4 1 0.00120000576999213
3 0 3 3 0.9 3 3 0 0 3 1 0 3 1 1 3 0.9 2 3 0 3 -0.9 0 0 0 -1 1 -1 2 -0.9 3 4 5 6 3 5 1 6 2 1 3 6 
4 2 1 0.00120000576999213
1 0.6 2 2 0.6 2 1 0.9 2 2 0.9 2 0 0 1 0 0 -0.3 1 -0.3 2 1 3 2 3 4 
4 2 1 0.00120000576999213
2 1 1 3 1 1 3 0.9 2 2 0.9 2 0 0 0 -1 1.00498756211209 -1 1.00498756211209 0 4 1 2 4 2 3 
5 3 1 0.0008000640800064
3 1.2 1 3 1 1 3 1.2 3 3 0.9 3 3 0.9 2 1.2 1 1 1 1.2 3 0.9 3 0.9 2 5 2 1 3 4 5 1 3 5 
5 3 1 0.00120000008000001
1 0 1 1 0 2 1 1.1 1 1 1.2 2 1 0.9 2 0 0 1 0 0 -1.1 1 -1.2 1 -0.9 5 1 3 5 3 4 2 1 5 
4 2 1 0.00120000008
1 0 1 1 1.2 1 1 1.2 2 1 0 2 0 0 0 -1.2 1 -1.2 1 0 4 1 2 4 2 3 
8 8 1 0.00120000008
0 1.2 0 3 1.2 0 0 1.2 3 3 1.2 3 1 1.2 2 2 1.2 2 1 1.2 1 2 1.2 1.00000000000001 0 0 0 3 3 0 3 3 2 1 2 2 1 1 1.00000000000001 2 2 1 7 5 7 1 3 5 1 8 2 7 4 6 5 4 8 6 4 5 3 4 2 8 
4 2 1 0.000400000080000001
1 1.2 2 2 1.2 2 2 1.2 1.00000000000001 1 1.2 1 1 -2 2 -2 2 -1.00000000000001 1 -1 3 1 2 3 4 1 
8 8 1 0.00120000576999213
0 1.2 0 3 1.2 0 0 1.2 3 3 1.2 3 1 1.2 2 2 1.2 2 1 1.2 1 2 1.2 1.00000000000001 0 0 0 3 3 0 3 3 2 1 2 2 1 1 1.00000000000001 2 2 1 7 5 7 1 3 5 1 8 2 7 4 6 5 4 8 6 4 5 3 4 2 8 
4 2 1 0.00120000576999213
1 0.2 1 1 1.2 1 1 1.2 2 1 0.2 2 0 0 0 -1 1 -1 1 0 4 1 2 4 2 3 
5 3 1 0.00120000576999213
1 0.2 1 1 0.2 2 1 1.1 1 1 1.2 2 1 0.9 2 0 0 1 0 0 -0.9 1 -1 1 -0.7 5 1 3 5 3 4 2 1 5 
8 8 1 0.00120000576999213
0 1.2 0 3 1.2 0 0 1.2 3 3 1.2 3 1 1.2 2 2 1.2 2 1 1.2 1 2 1.2 1.00000000000001 0 0 0 3 3 0 3 3 2 1 2 2 1 1 1.00000000000001 2 2 1 7 5 7 1 3 5 1 8 2 7 4 6 5 4 8 6 4 5 3 4 2 8 
4 2 1 0.00120000576999213
1 0.4 1 1 1.2 1 1 1.2 2 1 0.4 2 0 0 0 -0.8 1 -0.8 1 0 4 1 2 4 2 3 
5 3 1 0.00120000576999213
1 0.4 1 1 0.4 2 1 1.1 1 1 1.2 2 1 0.9 2 0 0 1 0 0 -0.7 1 -0.8 1 -0.5 5 1 3 5 3 4 2 1 5 
8 8 1 0.00120000576999213
0 1.2 0 3 1.2 0 0 1.2 3 3 1.2 3 1 1.2 2 2 1.2 2 1 1.2 1 2 1.2 1.00000000000001 0 0 0 3 3 0 3 3 2 1 2 2 1 1 1.00000000000001 2 2 1 7 5 7 1 3 5 1 8 2 7 4 6 5 4 8 6 4 5 3 4 2 8 
4 2 1 0.00120000576999213
1 0.6 1 1 1.2 1 1 1.2 2 1 0.6 2 0 0 0 -0.6 1 -0.6 1 0 4 1 2 4 2 3 
4 2 1 0.00120000576999213
2 0.6 1.00000000000001 1 0.6 1 2 1 1 1 1.1 1 0 0 1 0 2.22044604925031e-16 -0.4 1 -0.5 2 1 3 2 3 4 
4 2 1 0.00120000008000001
1 0 2 2 0 2 1 0.9 2 2 0.9 2 0 0 1 0 0 -0.9 1 -0.9 2 1 3 2 3 4 
4 2 1 0.00120000008
1 0 2 1 1.2 2 2 1.2 2 2 0 2 0 0 0 -1.2 1 -1.2 1 0 4 1 2 4 2 3 
4 2 1 0.00120000576999213
1 0.2 2 1 1.2 2 2 1.2 2 2 0.2 2 0 0 0 -1 1 -1 1 0 4 1 2 4 2 3 
4 2 1 0.00120000576999213
1 0.2 2 2 0.2 2 1 0.9 2 2 0.9 2 0 0 1 0 0 -0.7 1 -0.7 2 1 3 2 3 4 
4 2 1 0.00120000576999213
1 0.4 2 1 1.2 2 2 1.2 2 2 0.4 2 0 0 0 -0.8 1 -0.8 1 0 4 1 2 4 2 3 
4 2 1 0.00120000576999213
1 0.4 2 2 0.4 2 1 0.9 2 2 0.9 2 0 0 1 0 0 -0.5 1 -0.5 2 1 3 2 3 4 
4 2 1 0.00120000576999213
1 0.6 2 1 1.2 2 2 1.2 2 2 0.6 2 0 0 0 -0.6 1 -0.6 1 0 4 1 2 4 2 3 
4 2 1 0.00120000576999213
2 0.6 2 2 0.6 1.00000000000001 2 0.9 2 2 1 1 0 0 0.999999999999992 0 0 -0.3 0.999999999999992 -0.4 2 1 3 2 3 4 
4 2 1 0.00120000008000001
2 0 2 2 0 1.00000000000001 2 0.9 2 2 1 1 0 0 0.999999999999992 0 0 -0.9 0.999999999999992 -1 2 1 3 2 3 4 
4 2 1 0.00120000008
2 0 2 2 1.2 2 2 1.2 1.00000000000001 2 0 1.00000000000001 0 0 0 -1.2 0.999999999999992 -1.2 0.999999999999992 0 4 1 2 4 2 3 
4 2 1 0.00120000576999213
2 0.2 2 2 1.2 2 2 1.2 1.00000000000001 2 0.2 1.00000000000001 0 0 0 -1 0.999999999999992 -1 0.999999999999992 0 4 1 2 4 2 3 
4 2 1 0.00120000576999213
2 0.2 2 2 0.2 1.00000000000001 2 0.9 2 2 1 1 0 0 0.999999999999992 0 0 -0.7 0.999999999999992 -0.8 2 1 3 2 3 4 
4 2 1 0.00120000576999213
2 0.4 2 2 1.2 2 2 1.2 1.00000000000001 2 0.4 1.00000000000001 0 0 0 -0.8 0.999999999999992 -0.8 0.999999999999992 0 4 1 2 4 2 3 
4 2 1 0.00120000576999213
2 0.4 2 2 0.4 1.00000000000001 2 0.9 2 2 1 1 0 0 0.999999999999992 0 0 -0.5 0.999999999999992 -0.6 2 1 3 2 3 4 
4 2 1 0.00120000576999213
2 0.6 2 2 1.2 2 2 1.2 1.00000000000001 2 0.6 1.00000000000001 0 0 0 -0.6 0.999999999999992 -0.6 0.999999999999992 0 4 1 2 4 2 3 
4 2 1 0.00120000008000001
2 0 1.00000000000001 1 0 1 2 1 1 1 1.1 1 0 0 1 0 2.22044604925031e-16 -1 1 -1.1 2 1 3 2 3 4 
4 2 1 0.00120000008
2 0 1.00000000000001 2 1.2 1.00000000000001 1 1.2 1 1 0 1 0 0 0 -1.2 1 -1.2 1 0 4 1 2 4 2 3 
4 2 1 0.00120000576999213
2 0.2 1.00000000000001 2 1.2 1.00000000000001 1 1.2 1 1 0.2 1 0 0 0 -1 1 -1 1 0 4 1 2 4 2 3 
4 2 1 0.00120000576999213
2 0.2 1.00000000000001 1 0.2 1 2 1 1 1 1.1 1 0 0 1 0 2.22044604925031e-16 -0.8 1 -0.9 2 1 3 2 3 4 
4 2 1 0.00120000576999213
2 0.4 1.00000000000001 2 1.2 1.00000000000001 1 1.2 1 1 0.4 1 0 0 0 -0.8 1 -0.8 1 0 4 1 2 4 2 3 
4 2 1 0.00120000576999213
2 0.4 1.00000000000001 1 0.4 1 2 1 1 1 1.1 1 0 0 1 0 2.22044604925031e-16 -0.6 1 -0.7 2 1 3 2 3 4 
4 2 1 0.00120000576999213
2 0.6 1.00000000000001 2 1.2 1.00000000000001 1 1.2 1 1 0.6 1 0 0 0 -0.6 1 -0.6 1 0 4 1 2 4 2 3 

TShapes 108
Ve
1e-07
0 1.2 3
0 0

0101101
*
Ve
1e-07
0 0 3
0 0

0101101
*
Ed
 1e-07 1 1 0
1  1 0 0 1.2
2  1 1 0 0 1.2
2  2 2 0 0 1.2
6  1 2 0
6  2 3 0
6  3 4 0
6  4 5 0
6  5 6 0
6  6 7 0
6  7 8 0
6  8 9 0
6  9 1 0
6  10 10 0
0

0101000
-108 0 +107 0 *
Ve
1e-07
0 1.2 2
0 0

0101101
*
Ed
 1e-07 1 1 0
1  2 0 2 3
2  3 1 0 2 3
2  4 3 0 2 3
6  11 1 0
6  12 11 0
0

0101000
+105 3 -108 0 *
Ve
1.00000000666134e-07
0 1.1 1
0 0

0101101
*
Ed
 1e-07 1 1 0
1  3 0 0 1.00498756211209
2  5 4 0 0 1.00498756211209
2  6 5 4 0 1.00498756211209
2  7 5 5 0 1.00498756211209
2  8 1 5 0 1.00498756211209
6  13 1 5
6  14 12 5
6  15 13 0
0

0101000
+105 0 -103 0 *
Ve
1e-07
0 1.1 0
0 0

0101101
*
Ed
 1e-07 1 1 0
1  4 0 0 1
2  9 4 0 0 1
2  10 6 4 0 1
2  11 6 5 0 1
2  12 1 5 0 1
6  16 1 5
6  17 14 5
6  18 13 0
0

0101000
+103 0 -101 0 *
Ve
1e-07
0 0 0
0 0

0101101
*
Ed
 1e-07 1 1 0
1  5 0 0 1.1
2  13 1 0 0 1.1
2  14 7 0 0 1.1
6  19 1 0
6  20 15 0
0

0101000
+99 0 -101 3 *
Ed
 1e-07 1 1 0
1  6 0 0 3
2  15 1 0 0 3
2  16 8 0 0 3
6  21 2 0
6  22 16 0
6  23 4 0
6  24 17 0
6  25 6 0
6  26 8 0
6  27 1 0
0

0101000
-107 0 +99 0 *
Wi

0101100
-106 0 +104 0 -102 3 -100 3 +98 0 -97 0 *
Fa
0  1e-07 1 0
2  1
0101000
+96 0 *
Ve
1e-07
1 1.2 3
0 0

0101101
*
Ed
 1e-07 1 1 0
1  7 0 0 1
2  17 3 0 0 1
2  18 2 0 0 1
6  28 10 0
6  29 11 0
0

0101000
+108 0 -94 8 *
Ve
7.21249016810279e-06
1 0.9 3
0 0

0101101
*
Ed
 1e-07 1 1 0
1  8 0 0 0.3
2  19 9 0 0 0.3
2  20 10 9 0 0.3
2  21 10 10 0 0.3
2  22 2 10 0 0.3
6  30 10 10
6  31 18 10
6  32 19 0
0

0101000
+92 0 -94 0 *
Ve
1.00000000222045e-07
2 0.9 3
0 0

0101101
*
Ed
 1e-07 1 1 0
1  9 0 0 1
2  23 9 0 0 1
2  24 11 9 0 1
2  25 11 10 0 1
2  26 2 10 0 1
6  33 10 10
6  34 20 10
0

0101000
+90 10 -92 0 *
Ve
1e-07
3 0.9 3
0 0

0101101
*
Ed
 1e-07 1 1 0
1  10 0 0 1
2  27 12 0 0 1
2  28 13 0 0 1
2  29 2 0 0 1
6  35 10 0
6  36 21 0
0

0101000
+90 0 -88 13 *
Ve
1e-07
3 0 3
0 0

0101101
*
Ed
 1e-07 1 1 0
1  11 0 0 0.9
2  30 14 0 0 0.9
2  31 2 0 0 0.9
6  37 10 0
6  38 22 0
0

0101000
+86 0 -88 13 *
Ed
 1e-07 1 1 0
1  12 0 0 3
2  32 8 0 0 3
2  33 2 0 0 3
6  39 3 0
6  40 16 0
6  41 5 0
6  42 17 0
6  43 7 0
6  44 9 0
6  45 10 0
0

0101000
-86 0 +107 0 *
Wi

0101100
-93 0 +91 8 +89 8 -87 0 +85 0 +84 0 -106 0 *
Fa
0  1e-07 2 0
2  10
0101000
+83 0 *
Ve
7.21249016810279e-06
1 1.2 2
0 0

0101101
*
Ed
 1e-07 1 1 0
1  13 0 0 1
2  34 15 0 0 1
2  35 5 0 0 1
2  36 3 0 0 1
6  46 11 0
6  47 12 0
0

0101000
+81 0 -105 3 *
Ed
 1e-07 1 1 0
1  14 0 0 1
2  37 16 0 0 1
2  38 10 0 0 1
2  39 3 0 0 1
6  48 11 0
6  49 18 0
0

0101000
+81 0 -94 8 *
Wi

0101100
+104 0 +80 0 -79 0 +93 0 *
Fa
0  1e-07 3 0
2  11
0101000
+78 0 *
Ve
1.00000007105427e-07
1 1.1 1
0 0

0101101
*
Ed
 1e-07 1 1 0
1  15 0 0 1
2  40 5 0 0 1
2  41 6 0 0 1
6  50 12 0
6  51 14 0
0

0101000
+76 0 -103 3 *
Ed
 1e-07 1 1 0
1  3 0 0 1.00498756211209
2  5 4 0 0 1.00498756211209
2  6 5 4 0 1.00498756211209
2  7 5 5 0 1.00498756211209
2  42 17 4 0 1.00498756211209
6  52 12 4
6  53 23 4
0

0101000
+81 4 -76 4 *
Wi

0101100
+80 0 -75 0 -74 1 +102 3 *
Fa
0  1e-07 5 0
2  12
0101000
+73 0 *
Ve
1e-07
1 1.1 0
0 0

0101101
*
Ed
 1e-07 1 1 0
1  16 0 0 1
2  43 18 0 0 1
2  44 6 0 0 1
2  45 7 0 0 1
6  54 14 0
6  55 15 0
0

0101000
+71 0 -101 3 *
Ed
 1e-07 1 1 0
1  4 0 0 1
2  9 4 0 0 1
2  10 6 4 0 1
2  11 6 5 0 1
2  12 1 5 0 1
2  46 19 4 0 1
6  56 14 4
6  57 24 4
0

0101000
+76 4 -71 4 *
Wi

0101100
+75 0 -70 0 -69 1 +100 3 *
Fa
0  1e-07 6 0
2  14
0101000
+68 0 *
Ve
1.00000015546294e-07
2 1 0
0 0

0101101
*
Ed
 1e-07 1 1 0
1  17 0 0 1.00498756211209
2  47 20 0 0 1.00498756211209
2  48 19 17 0 1.00498756211209
2  49 19 18 0 1.00498756211209
2  50 7 18 0 1.00498756211209
6  58 15 18
6  59 24 18
0

0101000
+71 18 -66 0 *
Ve
1e-07
3 1 0
0 0

0101101
*
Ed
 1e-07 1 1 0
1  18 0 0 1
2  51 20 0 0 1
2  52 21 17 0 1
2  53 21 18 0 1
2  54 7 18 0 1
6  60 15 18
6  61 25 18
6  62 26 0
0

0101000
+66 0 -64 0 *
Ve
1e-07
3 0 0
0 0

0101101
*
Ed
 1e-07 1 1 0
1  19 0 0 1
2  55 14 0 0 1
2  56 7 0 0 1
6  63 15 0
6  64 22 0
0

0101000
+62 0 -64 16 *
Ed
 1e-07 1 1 0
1  20 0 0 3
2  57 8 0 0 3
2  58 7 0 0 3
6  65 27 0
6  66 16 0
6  67 28 0
6  68 17 0
6  69 29 0
6  70 30 0
6  71 15 0
0

0101000
-62 0 +99 0 *
Wi

0101100
-98 0 +70 0 -65 16 -63 16 +61 0 +60 0 *
Fa
0  1e-07 7 0
2  15
0101000
+59 0 *
Ed
 1e-07 1 1 0
1  21 0 0 3
2  59 14 0 0 3
2  60 8 0 0 3
6  72 16 0
6  73 31 0
6  74 32 0
6  75 17 0
6  76 33 0
6  77 34 0
6  78 22 0
0

0101000
-86 0 +62 0 *
Wi

0101100
-60 0 -57 0 +84 0 +97 0 *
Fa
0  1e-07 8 0
2  17
0111000
+56 0 *
Ed
 1e-07 1 1 0
1  22 0 0 1
2  61 11 0 0 1
2  62 10 0 0 1
6  79 18 0
6  80 20 0
0

0101000
+92 6 -92 8 *
Ed
 7.21249016810279e-06 1 1 0
1  23 0 0.3 0.6
2  63 22 0 0.3 0.6
2  64 17 0 0.3 0.6
6  81 18 0
6  82 23 0
0

0101000
+92 6 -81 0 *
Wi

0101100
+54 0 -79 0 -53 0 +91 8 *
Fa
0  1e-07 10 0
2  18
0101000
+52 0 *
Ve
7.21249016810279e-06
2 0.9 2
0 0

0101101
*
Ed
 1.00000000111022e-07 1 1 0
1  24 0 0 1
2  65 23 0 0 1
2  66 13 19 0 1
2  67 13 20 0 1
2  68 14 20 0 1
6  83 20 19
6  84 21 19
0

0101000
+50 19 -90 19 *
Ed
 1.00000000666134e-07 1 1 0
1  9 0 0 1
2  23 9 0 0 1
2  24 11 9 0 1
2  25 11 10 0 1
2  69 22 9 0 1
6  85 20 9
6  86 35 9
0

0101000
+50 9 -92 0 *
Wi

0101100
+49 11 -54 0 -48 6 +89 8 *
Fa
0  1e-07 11 0
2  20
0101000
+47 0 *
Ve
7.21249016810279e-06
3 0.9 2
0 0

0101101
*
Ed
 1e-07 1 1 0
1  25 0 0 1
2  70 24 0 0 1
2  71 13 0 0 1
6  87 21 0
6  88 36 0
0

0101000
+50 0 -45 13 *
Ed
 1e-07 1 1 0
1  24 0 0 1
2  65 23 0 0 1
2  66 13 19 0 1
2  67 13 20 0 1
2  68 14 20 0 1
6  89 21 20
6  90 22 20
6  91 37 0
0

0101000
+45 0 -88 0 *
Wi

0101100
+44 0 -87 0 -49 11 +43 13 *
Fa
0  1e-07 13 0
2  21
0101000
+42 0 *
Ve
1e-07
3 1 1
0 0

0101101
*
Ed
 1e-07 1 1 0
1  26 0 0 1.00498756211209
2  72 23 0 0 1.00498756211209
2  73 24 19 0 1.00498756211209
2  74 24 20 0 1.00498756211209
2  75 14 20 0 1.00498756211209
6  92 22 20
6  93 36 20
0

0101000
+40 20 -45 0 *
Ed
 1e-07 1 1 0
1  27 0 0 1
2  76 25 0 0 1
2  77 21 0 0 1
2  78 14 0 0 1
6  94 22 0
6  95 25 0
0

0101000
+40 0 -64 16 *
Wi

0101100
-85 0 +43 13 +39 13 -38 0 +61 0 -57 0 *
Fa
0  1e-07 14 0
2  22
0101000
+37 0 *
Ve
1.00000000666134e-07
1 1.2 1
0 0

0101101
*
Ve
7.21249016810279e-06
1 1.2 2
0 0

0101101
*
Ed
 1e-07 1 1 0
1  28 0 0 1
2  79 26 0 0 1
2  80 27 23 0 1
2  81 27 25 0 1
2  82 3 25 0 1
2  83 28 27 0 1
2  84 28 29 0 1
2  85 8 27 0 1
2  86 3 29 0 1
2  87 29 29 0 1
6  96 16 27
6  97 38 27
6  98 39 27
6  99 40 29
6  100 39 29
6  101 41 0
2  88 30 31 0 1
2  89 30 33 0 1
2  90 3 33 0 1
6  102 42 33
6  103 43 33
6  104 43 31
6  105 44 31
2  91 31 35 0 1
2  92 31 37 0 1
2  93 3 37 0 1
6  106 45 37
6  107 46 37
6  108 46 35
6  109 47 35
2  94 17 38 0 1
2  95 17 40 0 1
2  96 3 40 0 1
6  110 48 40
6  111 49 40
6  112 49 38
6  113 23 38
0

0101000
+35 0 -34 0 *
Ed
 7.21249016810279e-06 1 1 0
1  23 0 0 0.3
2  63 22 0 0 0.3
2  64 17 0 0 0.3
6  114 23 0
6  115 35 0
0

0101000
+34 21 -92 6 *
Ed
 1.00000000666134e-07 1 1 0
1  29 0 0 0.5
2  97 32 0 0 0.5
2  98 17 0 0 0.5
6  116 23 0
6  117 50 0
0

0101000
+35 21 -76 0 *
Wi

0101100
-33 21 -32 0 -53 0 -74 1 +31 0 *
Fa
0  1e-07 17 0
2  23
0101000
+30 0 *
Ve
1.00000015546294e-07
2 1 1
0 0

0101101
*
Ed
 1e-07 1 1 0
1  30 0 0 1
2  99 19 0 0 1
2  100 21 0 0 1
6  118 24 0
6  119 25 0
0

0101000
+28 0 -66 16 *
Ed
 1.00000007105427e-07 1 1 0
1  17 0 0 1.00498756211209
2  47 20 0 0 1.00498756211209
2  48 19 17 0 1.00498756211209
2  49 19 18 0 1.00498756211209
2  101 32 17 0 1.00498756211209
6  120 24 17
6  121 50 17
0

0101000
+76 17 -28 17 *
Wi

0101100
+69 1 -27 0 -26 14 +65 16 *
Fa
0  1e-07 19 0
2  24
0101000
+25 0 *
Ed
 1e-07 1 1 0
1  18 0 0 1
2  51 20 0 0 1
2  52 21 17 0 1
2  53 21 18 0 1
2  54 7 18 0 1
2  102 24 17 0 1
6  122 25 17
6  123 36 17
0

0101000
+28 17 -40 17 *
Wi

0101100
+27 0 -38 0 -23 14 +63 16 *
Fa
0  1e-07 21 0
2  25
0101000
+22 0 *
Ve
7.21249016810279e-06
2 1.2 2
0 0

0101101
*
Ed
 1.00000000666134e-07 1 1 0
1  31 0 0 1
2  103 26 0 0 1
2  104 33 23 0 1
2  105 33 25 0 1
2  106 3 25 0 1
2  107 34 27 0 1
2  108 34 29 0 1
2  109 8 27 0 1
2  110 3 29 0 1
2  111 29 29 0 1
2  112 35 29 0 1
6  124 16 27
6  125 51 27
6  126 52 27
6  127 40 29
6  128 52 29
6  129 41 0
2  113 36 31 0 1
2  114 36 33 0 1
2  115 3 33 0 1
6  130 42 33
6  131 53 33
6  132 53 31
6  133 54 31
2  116 37 35 0 1
2  117 37 37 0 1
2  118 3 37 0 1
6  134 45 37
6  135 55 37
6  136 55 35
6  137 56 35
2  119 22 38 0 1
2  120 22 40 0 1
2  121 3 40 0 1
6  138 48 40
6  139 57 40
6  140 57 38
6  141 35 38
0

0101000
+34 0 -20 0 *
Ed
 7.21249016810279e-06 1 1 0
1  32 0 0 0.3
2  122 22 0 0 0.3
2  123 38 0 0 0.3
6  142 35 0
6  143 58 0
0

0101000
+20 21 -50 0 *
Wi

0101100
-19 21 -18 0 -48 6 +32 0 *
Fa
0  1.00000000666134e-07 22 0
2  35
0101000
+17 0 *
Ed
 1e-07 1 1 0
1  26 0 0 1.00498756211209
2  72 23 0 0 1.00498756211209
2  73 24 19 0 1.00498756211209
2  74 24 20 0 1.00498756211209
2  124 38 19 0 1.00498756211209
6  144 36 19
6  145 58 19
0

0101000
+28 19 -50 19 *
Wi

0101100
+23 14 -44 0 -15 11 +39 13 *
Fa
0  1e-07 24 0
2  36
0101000
+14 0 *
Ve
1.00000007771561e-07
2 1.2 1.00000000000001
0 0

0101101
*
Ed
 1e-07 1 1 0
1  33 0 0 0.999999999999992
2  125 26 0 0 0.999999999999992
2  126 39 23 0 0.999999999999992
2  127 39 25 0 0.999999999999992
2  128 3 25 0 0.999999999999992
2  129 40 27 0 0.999999999999992
2  130 40 29 0 0.999999999999992
2  131 8 27 0 0.999999999999992
2  132 3 29 0 0.999999999999992
2  133 29 29 0 0.999999999999992
2  134 41 29 0 0.999999999999992
6  146 16 27
6  147 59 27
6  148 60 27
6  149 40 29
6  150 60 29
6  151 41 0
2  135 42 31 0 0.999999999999992
2  136 42 33 0 0.999999999999992
2  137 3 33 0 0.999999999999992
6  152 42 33
6  153 61 33
6  154 61 31
6  155 62 31
2  138 43 35 0 0.999999999999992
2  139 43 37 0 0.999999999999992
2  140 3 37 0 0.999999999999992
6  156 45 37
6  157 63 37
6  158 63 35
6  159 64 35
2  141 38 38 0 0.999999999999992
2  142 38 40 0 0.999999999999992
2  143 3 40 0 0.999999999999992
6  160 48 40
6  161 65 40
6  162 65 38
6  163 58 38
0

0101000
+20 0 -12 0 *
Ed
 1e-07 1 1 0
1  34 0 0 1
2  144 26 0 0 1
2  145 44 23 0 1
2  146 44 25 0 1
2  147 3 25 0 1
2  148 45 27 0 1
2  149 45 29 0 1
2  150 8 27 0 1
2  151 3 29 0 1
2  152 29 29 0 1
2  153 41 29 0 1
6  164 16 27
6  165 66 27
6  166 67 27
6  167 40 29
6  168 67 29
6  169 41 0
2  154 46 31 0 1
2  155 46 33 0 1
2  156 3 33 0 1
6  170 42 33
6  171 68 33
6  172 68 31
6  173 69 31
2  157 47 35 0 1
2  158 47 37 0 1
2  159 3 37 0 1
6  174 45 37
6  175 70 37
6  176 70 35
6  177 71 35
2  160 32 38 0 1
2  161 32 40 0 1
2  162 3 40 0 1
6  178 48 40
6  179 72 40
6  180 72 38
6  181 50 38
0

0101000
+12 0 -35 0 *
Wi

0101100
+19 0 +11 0 +10 0 +33 0 *
Fa
0  1e-07 26 0
2  41
0111000
+9 0 *
Ed
 1.00000007771561e-07 1 1 0
1  35 0 0 0.4
2  163 38 0 0 0.4
2  164 32 0 0 0.4
6  182 50 0
6  183 58 0
0

0101000
+12 21 -28 0 *
Wi

0101100
-10 21 -31 0 -26 14 +7 0 *
Fa
0  1e-07 32 0
2  50
0101000
+6 0 *
Wi

0101100
-11 21 -7 0 -15 11 +18 0 *
Fa
0  1e-07 38 0
2  58
0101000
+4 0 *
Sh

0101100
-95 0 +82 0 +77 0 -72 0 -67 0 -58 0 -55 0 -51 0 -46 0 -41 0 
+36 0 +29 0 -24 0 -21 0 +16 0 -13 0 +8 21 +5 0 +3 0 *
So

0100000
+2 0 *

+1 0 