DBRep_DrawableShape

CASCADE Topology V1, (c) Matra-Datavision
Locations 10
1
              1               0               0             -10 
              0               1               0              -0 
              0               0               1              -0 
2  1 -1 0
1
              1               0               0              10 
              0               1               0               0 
              0               0               1               0 
2  3 -1 1 -1 0
1
              1               0               0              -0 
              0               1               0              -0 
              0               0               1             -10 
1
              1               0               0               0 
              0               1               0               0 
              0               0               1              10 
2  5 1 6 1 0
2  5 -1 0
2  6 -1 5 -1 0
2  1 1 3 1 0
Curve2ds 70
1 10 0 0 -1 
1 0 0 0 1 
1 0 -10 1 0 
1 0 0 1 0 
1 5 5 0.98058067569092022 0.19611613513818404 
1 0 0 1 0 
1 0 -10 1 0 
1 5 -5 0.19611613513818404 -0.98058067569092022 
1 5 -5 0.19611613513818404 -0.98058067569092022 
1 10 3.9999999999999996 -0.98058067569092022 0.19611613513818413 
1 0 0 1 0 
1 0 -10 1 0 
1 3.9999999999999996 -10 0.19611613513818413 0.98058067569092022 
1 3.9999999999999996 -10 0.19611613513818413 0.98058067569092022 
1 0 0 0 -1 
1 0 0 0 1 
1 0 0 1 0 
1 0 0 1 0 
1 10 0 0 1 
1 0 10 1 0 
1 4 10 0.19611613513818404 -0.98058067569092022 
1 0 0 1 0 
1 0 -10 1 0 
1 4 10 0.19611613513818404 -0.98058067569092022 
1 4 10 0.19611613513818404 -0.98058067569092022 
1 5 5 0.19611613513818404 0.98058067569092022 
1 0 0 1 0 
1 0 -10 1 0 
1 5 5 0.19611613513818404 0.98058067569092022 
1 5 5 0.19611613513818404 0.98058067569092022 
1 10 0 0 -1 
1 10 0 0 1 
1 10 0 0 1 
1 0 0 1 0 
1 5.0990195135927854 0 0 -1 
1 0 0 0 -1 
1 6 0 0 1 
1 0 0 0 -1 
1 0 0 0 -1 
1 0 4 1 0 
8 -2.6943012562182531 2.5018511664883798
1 2.6439360440851472 -5.4814814814814818 0.98130676292531638 0.19245008972987526 
8 -2.6943012562182531 2.5018511664883798
1 2.4550834695076382 -4.518518518518519 -0.98130676292531638 -0.19245008972987526 
1 0 0 0 -1 
1 5.0990195135927854 0 0 -1 
8 -5.9659527816261333 -0.76980035891950083
1 -0.75541029831004203 -3.8518518518518516 -0.98130676292531638 0.19245008972987532 
8 -5.9659527816261333 -0.76980035891950083
1 -0.75541029831004203 -3.8518518518518521 -0.98130676292531638 0.19245008972987526 
1 0 0 0 -1 
1 2.0000000000000004 0 0 -1 
1 3.9999999999999996 0 0 1 
1 0 0 0 1 
1 0 10 1 0 
1 0 0 0 -1 
1 10 0 0 1 
1 0 0 0 1 
1 0 0 1 0 
1 0 0 1 0 
1 0 10 1 0 
1 5.0990195135927854 0 0 -1 
1 0 0 0 -1 
8 0.96225044864937703 6.1584028713560093
1 -0.94426287288755328 -4.8148148148148149 0.98130676292531638 -0.19245008972987526 
8 0.96225044864937703 6.1584028713560093
1 -0.94426287288755328 -4.8148148148148149 0.98130676292531638 -0.19245008972987526 
1 5.0990195135927854 0 0 -1 
1 2 0 0 -1 
1 0 6 1 0 
1 6 0 0 1 
1 0 -10 1 0 
1 0 10 1 0 
8 -2.6943012562182531 2.5018511664883798
1 2.4550834695076382 -4.518518518518519 -0.98130676292531638 -0.19245008972987532 
8 -2.6943012562182531 2.5018511664883798
1 2.6439360440851472 -5.4814814814814818 0.98130676292531638 0.19245008972987526 
1 3.9999999999999996 0 0 1 
Curves 26
1 0 0 10 -0 1 0 
1 0 10 0 0 0 1 
1 10 5 5 0 0.98058067569092022 0.19611613513818404 
1 10 10 3.9999999999999996 0 -0.98058067569092022 0.19611613513818413 
1 0 0 0 -0 1 0 
1 0 0 0 0 0 1 
1 0 10 10 1 0 -0 
1 4 10 10 0.19611613513818404 -0.98058067569092022 0 
1 5 5 10 0.19611613513818404 0.98058067569092022 0 
1 10 0 10 -0 1 0 
1 0 0 10 1 0 -0 
1 0 10 6 1 0 0 
1 4 10 0 0 0 1 
1 4.518518518518519 7.4074074074074083 5.4814814814814818 0.19245008972987526 -0.96225044864937626 -0.19245008972987526 
1 0 5 5 1 0 0 
1 3.8518518518518521 10.74074074074074 3.8518518518518516 -0.19245008972987526 0.96225044864937626 -0.19245008972987532 
1 0 10 3.9999999999999996 1 0 0 
1 0 10 0 1 0 -0 
1 10 0 0 -0 1 0 
1 0 0 0 1 0 -0 
1 10 0 0 0 0 1 
1 5 5 0 0 0 1 
1 4.8148148148148149 4.0740740740740735 4.8148148148148149 0.19245008972987526 0.96225044864937626 0.19245008972987526 
1 6 10 0 0 0 1 
1 10 10 0 0 0 1 
1 5.4814814814814818 7.4074074074074083 4.518518518518519 -0.19245008972987526 -0.96225044864937626 0.19245008972987532 
Polygon3D 0
PolygonOnTriangulations 104
2 1 2 
p 0.00400000008 1 0 10 
2 2 4 
p 0.00400000008 1 0 10 
2 3 1 
p 0.00400000008 1 0 10 
2 1 2 
p 0.00400000008 1 0 10 
2 7 2 
p 0.00400000408 1 6 10 
2 1 3 
p 0.00400000408 1 6 10 
2 1 2 
p 0.0020001600800064 1 0 5.09901951359278 
2 6 7 
p 0.00400000408 1 0 5.09901951359278 
2 1 2 
p 0.00400000408 1 0 5.09901951359278 
2 6 7 
p 0.00400000408 1 0 5.09901951359278 
2 3 4 
p 0.00400000408 1 0 5.09901951359278 
2 3 1 
p 0.0020001600800064 1 0 5.09901951359278 
2 5 6 
p 0.00400000408 1 0 5.09901951359278 
2 1 2 
p 0.00400000408 1 0 5.09901951359278 
2 5 6 
p 0.00400000408 1 0 5.09901951359278 
2 3 4 
p 0.00400000408 1 0 5.09901951359278 
2 4 5 
p 0.00400000408 1 0 4 
2 1 3 
p 0.00400000408 1 0 4 
2 1 2 
p 0.00400000008 1 0 10 
2 1 3 
p 0.00400000008 1 0 10 
2 3 1 
p 0.00400000008 1 0 10 
2 3 4 
p 0.00400000008 1 0 10 
2 1 2 
p 0.00400000008 1 0 10 
2 1 3 
p 0.00400000008 1 0 10 
2 3 1 
p 0.00400000008 1 0 10 
2 1 2 
p 0.00400000008 1 0 4 
2 3 4 
p 0.00400000008 1 0 4 
2 3 4 
p 0.00400000008 1 0 4 
2 1 2 
p 0.0020001600800064 1 0 5.09901951359278 
2 2 7 
p 0.00400000008 1 0 5.09901951359278 
2 2 3 
p 0.00400000008 1 0 5.09901951359278 
2 2 7 
p 0.00400000008 1 0 5.09901951359278 
2 1 4 
p 0.00400000008 1 0 5.09901951359278 
2 3 4 
p 0.00400000008 1 0 5.09901951359278 
2 1 2 
p 0.00400000008 1 0 5.09901951359278 
2 2 3 
p 0.0020001600800064 1 0 5.09901951359278 
2 7 6 
p 0.00400000008 1 0 5.09901951359278 
2 2 3 
p 0.00400000008 1 0 5.09901951359278 
2 7 6 
p 0.00400000008 1 0 5.09901951359278 
2 1 4 
p 0.00400000008 1 0 5.09901951359278 
2 3 4 
p 0.00400000008 1 0 5.09901951359278 
2 1 2 
p 0.00400000008 1 0 5.09901951359278 
2 6 5 
p 0.00400000008 1 6 10 
2 3 4 
p 0.00400000008 1 6 10 
2 3 4 
p 0.00400000008 1 6 10 
2 3 4 
p 0.00400000008 1 0 10 
2 4 5 
p 0.00400000008 1 0 10 
2 2 4 
p 0.00400000008 1 0 10 
2 1 2 
p 0.00400000008 1 0 10 
2 1 3 
p 0.00400000008 1 0 10 
2 3 4 
p 0.00400000008 1 0 10 
2 3 4 
p 0.00400000008 1 0 10 
2 1 2 
p 0.00400000408 1 0 4 
2 2 4 
p 0.00400000408 1 0 4 
2 2 4 
p 0.00400000408 1 6 10 
2 1 3 
p 0.00400000408 1 6 10 
2 4 3 
p 0.00400000408 1 -2.69430125621825 2.50185116648838 
2 1 2 
p 0.00400000408 1 -2.69430125621825 2.50185116648838 
2 1 3 
p 0.00400000408 1 0 5 
2 2 4 
p 0.00400000408 1 0 5 
2 4 3 
p 0.00400000408 1 -5.96595278162613 -0.769800358919501 
2 4 3 
p 0.00400000408 1 -5.96595278162613 -0.769800358919501 
2 1 3 
p 0.00400000408 1 0 4 
2 3 4 
p 0.00400000408 1 0 4 
2 1 2 
p 0.00400000008 1 0 4 
2 1 2 
p 0.00400000008 1 0 4 
2 1 2 
p 0.00400000008 1 0 4 
2 2 4 
p 0.00400000408 1 0 4 
2 1 3 
p 0.00400000408 1 0 4 
2 6 5 
p 0.00400000008 1 6 10 
2 1 2 
p 0.00400000008 1 6 10 
2 1 2 
p 0.00400000008 1 6 10 
2 3 4 
p 0.00400000008 1 0 10 
2 4 5 
p 0.00400000008 1 0 10 
2 1 3 
p 0.00400000008 1 0 10 
2 3 4 
p 0.00400000008 1 0 10 
2 1 3 
p 0.00400000008 1 0 10 
2 1 2 
p 0.00400000008 1 0 10 
2 3 4 
p 0.00400000008 1 0 10 
2 2 4 
p 0.00400000008 1 0 10 
2 1 2 
p 0.00400000008 1 0 10 
2 3 1 
p 0.00400000008 1 0 10 
2 2 4 
p 0.00400000408 1 5 10 
2 1 3 
p 0.00400000408 1 5 10 
2 1 2 
p 0.00400000408 1 0.962250448649377 6.15840287135601 
2 1 2 
p 0.00400000408 1 0.962250448649377 6.15840287135601 
2 2 4 
p 0.00400000408 1 6 10 
2 1 3 
p 0.00400000408 1 6 10 
2 1 2 
p 0.00400000408 1 6 10 
2 2 4 
p 0.00400000408 1 6 10 
2 2 4 
p 0.00400000408 1 6 10 
2 7 2 
p 0.00400000408 1 6 10 
2 4 5 
p 0.00400000408 1 0 4 
2 2 4 
p 0.00400000408 1 0 4 
2 2 4 
p 0.00400000408 1 0 5 
2 1 3 
p 0.00400000408 1 0 5 
2 2 4 
p 0.00400000408 1 0 4 
2 1 3 
p 0.00400000408 1 0 4 
2 4 3 
p 0.00400000408 1 -2.69430125621825 2.50185116648838 
2 1 2 
p 0.00400000408 1 -2.69430125621825 2.50185116648838 
2 3 4 
p 0.00400000408 1 6 10 
2 1 3 
p 0.00400000408 1 6 10 
2 1 3 
p 0.00400000408 1 5 10 
2 2 4 
p 0.00400000408 1 5 10 
Surfaces 14
1 0 0 0 1 0 -0 0 0 1 0 -1 0 
1 0 0 10 0 0 1 1 0 -0 -0 1 0 
1 0 10 0 -0 1 0 0 0 1 1 0 -0 
1 10 0 0 1 0 0 -0 1 0 0 -0 1 
1 0 5 5 0 -0.19611613513818404 0.98058067569092022 0 0.98058067569092022 0.19611613513818404 -1 0 0 
1 10 0 0 1 0 -0 0 0 1 0 -1 0 
1 0 10 3.9999999999999996 0 -0.19611613513818413 -0.98058067569092022 0 -0.98058067569092022 0.19611613513818413 -1 -0 0 
1 0 0 0 0 0 1 1 0 -0 -0 1 0 
1 0 0 0 -0 1 0 0 0 1 1 0 -0 
1 -0 -0 10 0 0 1 1 0 -0 -0 1 0 
1 4 10 0 0.98058067569092022 0.19611613513818404 -0 0.19611613513818404 -0.98058067569092022 0 0 -0 -1 
1 5 5 0 -0.98058067569092022 0.19611613513818404 0 0.19611613513818404 0.98058067569092022 0 0 0 -1 
1 0 10 6 -0 1 0 0 0 -1 -1 0 -0 
1 4 10 0 0 1 0 1 0 0 0 0 -1 
Triangulations 27
7 5 1 0.00400000408
0 0 10 0 10 10 0 0 0 0 10 0 0 10 4 0 5 5 0 10 6 10 0 10 -10 0 0 0 -10 4 -10 5 -5 6 -10 6 3 4 6 4 5 6 7 2 1 6 2 1 3 6 
4 2 1 0.00400000008
0 0 10 0 10 10 10 0 10 10 10 10 0 0 0 10 10 0 10 10 4 2 1 4 1 3 
4 2 1 0.00400000008
0 0 0 0 0 10 0 10 0 0 10 10 0 0 10 0 0 -10 10 -10 2 1 3 2 3 4 
7 5 1 0.00400000008
0 10 10 4 10 10 0 0 10 10 0 10 10 10 10 6 10 10 5 5 10 0 10 4 10 0 0 10 0 10 10 6 10 5 5 7 1 3 7 3 4 2 1 7 5 6 7 5 7 4 
4 2 1 0.00400000408
0 10 6 4 10 6 0 10 10 4 10 10 6 0 6 4 10 0 10 4 4 2 1 4 1 3 
3 1 1 0.0020001600800064
10 5 5 10 10 6 10 10 4 5 5 10 6 10 4 2 1 3 
4 2 1 0.00400000408
0 5 5 0 10 6 5 5 5 4 10 6 0 0 5.09901951359279 0 -4.44089209850063e-16 -5 5.09901951359279 -4 4 1 3 2 1 4 
7 5 1 0.00400000408
10 0 10 10 10 10 10 0 0 10 10 0 10 10 4 10 5 5 10 10 6 10 0 10 -10 0 0 0 -10 4 -10 5 -5 6 -10 6 3 4 6 4 5 6 7 2 1 6 2 1 3 6 
4 2 1 0.00400000408
5 5 5 6 10 6 10 5 5 10 10 6 0 -5 5.09901951359279 -6 0 -10 5.09901951359279 -10 2 1 3 2 3 4 
4 2 1 0.00400000408
0 10 4 0 5 5 4 10 4 5 5 5 0 0 5.09901951359279 0 0 -4 5.09901951359279 -5 2 1 3 2 3 4 
4 2 1 0.00400000408
6 10 4 5 5 5 10 10 4 10 5 5 0 -6 5.09901951359279 -5 0 -10 5.09901951359279 -10 4 1 3 2 1 4 
4 2 1 0.00400000408
0 10 0 4 10 0 0 10 4 4 10 4 0 0 0 4 4 0 4 4 4 2 1 4 1 3 
4 2 1 0.00400000008
0 0 0 0 10 0 10 0 0 10 10 0 0 0 0 10 10 0 10 10 4 2 1 4 1 3 
7 5 1 0.00400000008
0 10 0 4 10 0 0 0 0 10 0 0 10 10 0 6 10 0 5 5 0 0 10 4 10 0 0 10 0 10 10 6 10 5 5 7 1 3 7 3 4 2 1 7 5 6 7 5 7 4 
4 2 1 0.00400000008
0 0 0 10 0 0 0 0 10 10 0 10 0 0 0 10 10 0 10 10 4 2 1 4 1 3 
4 2 1 0.00400000008
0 10 0 4 10 0 0 10 10 4 10 10 0 0 0 4 10 0 10 4 4 2 1 4 1 3 
3 1 1 0.0020001600800064
4 10 10 5 5 10 6 10 10 4 10 5 5 6 10 3 1 2 
4 2 1 0.00400000008
4 10 0 4 10 10 5 5 10 5 5 0 0 0 0 -10 5.09901951359279 -10 5.09901951359278 0 4 1 2 4 2 3 
4 2 1 0.00400000408
4 10 6 5 5 5 4 10 10 5 5 10 0 -6 5.09901951359279 -5 0 -10 5.09901951359279 -10 4 1 3 2 1 4 
4 2 1 0.00400000408
4 10 0 5 5 0 4 10 4 5 5 5 0 0 5.09901951359279 0 0 -4 5.09901951359279 -5 2 1 3 2 3 4 
4 2 1 0.00400000008
5 5 0 5 5 10 6 10 10 6 10 0 0 0 0 -10 5.09901951359279 -10 5.09901951359278 0 4 1 2 4 2 3 
4 2 1 0.00400000408
5 5 5 6 10 6 5 5 10 6 10 10 0 -5 5.09901951359279 -6 0 -10 5.09901951359279 -10 2 1 3 2 3 4 
4 2 1 0.00400000408
5 5 0 6 10 0 5 5 5 6 10 4 0 0 5.09901951359279 0 -4.44089209850063e-16 -5 5.09901951359279 -4 4 1 3 2 1 4 
4 2 1 0.00400000008
6 10 0 10 10 0 6 10 10 10 10 10 0 6 0 10 10 6 10 10 4 2 1 4 1 3 
4 2 1 0.00400000408
6 10 6 10 10 6 6 10 10 10 10 10 6 6 6 10 10 6 10 10 4 2 1 4 1 3 
4 2 1 0.00400000008
10 0 0 10 0 10 10 10 0 10 10 10 0 0 10 0 0 -10 10 -10 2 1 3 2 3 4 
4 2 1 0.00400000408
6 10 0 10 10 0 6 10 4 10 10 4 0 6 0 10 4 6 4 10 4 2 1 4 1 3 

TShapes 91
Ve
1e-07
0 10 10
0 0

0101101
*
Ve
1e-07
0 0 10
0 0

0101101
*
Ed
 1e-07 1 1 0
1  1 0 0 10
2  1 1 0 0 10
2  2 2 0 0 10
6  1 2 0
6  2 3 0
6  3 4 0
6  4 1 0
0

0101000
-91 0 +90 0 *
Ve
1e-07
10 10 6
0 0

0101101
*
Ed
 1e-07 1 1 0
1  2 0 6 10
2  3 1 0 6 10
2  4 3 0 6 10
6  5 1 0
6  6 5 0
0

0101000
+88 1 -91 0 *
Ve
1e-07
10 5 5
0 0

0101101
*
Ed
 1e-07 1 1 0
1  3 0 0 5.09901951359278
2  5 4 0 0 5.09901951359278
6  7 6 0
2  6 5 2 0 5.09901951359278
2  7 5 4 0 5.09901951359278
2  8 1 2 0 5.09901951359278
2  9 6 4 0 5.09901951359278
6  8 1 2
6  9 7 2
6  10 8 4
6  11 9 4
0

0101000
+86 0 -88 0 *
Ve
1e-07
10 10 4
0 0

0101101
*
Ed
 1e-07 1 1 0
1  4 0 0 5.09901951359278
2  10 4 0 0 5.09901951359278
6  12 6 0
2  11 7 2 0 5.09901951359278
2  12 7 4 0 5.09901951359278
2  13 1 2 0 5.09901951359278
2  14 6 4 0 5.09901951359278
6  13 1 2
6  14 10 2
6  15 8 4
6  16 11 4
0

0101000
+84 0 -86 0 *
Ve
1e-07
0 10 0
0 0

0101101
*
Ed
 1e-07 1 1 0
1  2 0 0 4
2  3 1 0 0 4
2  4 3 0 0 4
6  17 1 0
6  18 12 0
0

0101000
+82 0 -84 1 *
Ve
1e-07
0 0 0
0 0

0101101
*
Ed
 1e-07 1 1 0
1  5 0 0 10
2  15 1 0 0 10
2  16 8 0 0 10
6  19 13 0
6  20 3 0
6  21 14 0
6  22 1 0
0

0101000
-82 0 +80 0 *
Ed
 1e-07 1 1 0
1  6 0 0 10
2  17 1 0 0 10
2  18 9 0 0 10
6  23 3 0
6  24 15 0
6  25 1 0
0

0101000
-90 0 +80 0 *
Wi

0101100
-89 0 +87 0 +85 1 +83 1 +81 0 +79 0 -78 0 *
Fa
0  1e-07 1 0
2  1
0101000
+77 0 *
Ve
1e-07
4 10 10
0 0

0101101
*
Ed
 1e-07 1 1 0
1  7 0 0 4
2  19 3 0 0 4
2  20 2 0 0 4
6  26 4 0
6  27 16 0
6  28 5 0
0

0101000
+91 0 -75 7 *
Ve
1e-07
5 5 10
0 0

0101101
*
Ed
 1e-07 1 1 0
1  8 0 0 5.09901951359278
2  21 10 0 0 5.09901951359278
6  29 17 0
2  22 11 8 0 5.09901951359278
2  23 11 9 0 5.09901951359278
2  24 8 8 0 5.09901951359278
2  25 2 9 0 5.09901951359278
6  30 4 9
6  31 18 9
6  32 14 8
6  33 18 8
6  34 19 9
6  35 20 8
0

0101000
+75 0 -73 0 *
Ve
1e-07
6 10 10
0 0

0101101
*
Ed
 1e-07 1 1 0
1  9 0 0 5.09901951359278
2  26 10 0 0 5.09901951359278
6  36 17 0
2  27 12 8 0 5.09901951359278
2  28 12 9 0 5.09901951359278
2  29 8 8 0 5.09901951359278
2  30 2 9 0 5.09901951359278
6  37 4 9
6  38 21 9
6  39 14 8
6  40 21 8
6  41 22 9
6  42 23 8
0

0101000
+73 0 -71 0 *
Ve
1e-07
10 10 10
0 0

0101101
*
Ed
 1e-07 1 1 0
1  7 0 6 10
2  19 3 0 6 10
2  20 2 0 6 10
6  43 4 0
6  44 24 0
6  45 25 0
0

0101000
+71 7 -69 0 *
Ve
1e-07
10 0 10
0 0

0101101
*
Ed
 1e-07 1 1 0
1  10 0 0 10
2  31 6 0 0 10
2  32 2 0 0 10
6  46 2 0
6  47 4 0
6  48 26 0
6  49 8 0
0

0101000
-69 0 +67 0 *
Ed
 1e-07 1 1 0
1  11 0 0 10
2  33 9 0 0 10
2  34 2 0 0 10
6  50 2 0
6  51 15 0
6  52 4 0
0

0101000
-67 0 +90 0 *
Wi

0101100
-74 0 -72 7 -70 7 -68 0 +66 0 +65 0 -89 0 *
Fa
0  1e-07 2 0
2  4
0111000
+64 0 *
Ve
5.10000000088818e-06
4 10 6
0 0

0101101
*
Ed
 1e-07 1 1 0
1  12 0 0 4
2  35 5 0 0 4
2  36 13 0 0 4
2  37 3 0 0 4
6  53 5 0
6  54 7 0
0

0101000
+88 1 -62 0 *
Ed
 1e-07 1 1 0
1  13 0 6 10
2  38 11 0 6 10
2  39 14 0 6 10
2  40 3 0 6 10
6  55 5 0
6  56 19 0
0

0101000
+62 0 -75 7 *
Wi

0101100
-61 0 -60 0 +74 0 +87 0 *
Fa
0  1e-07 3 0
2  5
0101000
+59 0 *
Ve
5.10000000088818e-06
5 5 5
0 0

0101101
*
Ed
 5.1e-06 1 1 0
1  14 0 -2.69430125621825 2.50185116648838
2  41 11 0 -2.69430125621825 2.50185116648838
2  42 5 0 -2.69430125621825 2.50185116648838
6  57 7 0
6  58 19 0
0

0101000
+62 0 -57 0 *
Ed
 1e-07 1 1 0
1  15 0 0 5
2  43 5 0 0 5
2  44 7 0 0 5
6  59 7 0
6  60 10 0
0

0101000
+86 1 -57 0 *
Wi

0101100
-85 1 -61 0 -56 0 +55 0 *
Fa
0  1e-07 5 0
2  7
0101000
+54 0 *
Ve
5.10000000044409e-06
4 10 4
0 0

0101101
*
Ed
 5.1e-06 1 1 0
1  16 0 -5.96595278162613 -0.769800358919501
2  45 11 0 -5.96595278162613 -0.769800358919501
2  46 7 0 -5.96595278162613 -0.769800358919501
6  61 10 0
6  62 20 0
0

0101000
+57 0 -52 0 *
Ed
 1e-07 1 1 0
1  17 0 0 4
2  47 7 0 0 4
2  48 13 0 0 4
2  49 3 0 0 4
6  63 10 0
6  64 12 0
0

0101000
+84 1 -52 0 *
Wi

0101100
-83 1 -55 0 -51 0 +50 0 *
Fa
0  1e-07 7 0
2  10
0101000
+49 0 *
Ed
 1e-07 1 1 0
1  18 0 0 4
2  50 3 0 0 4
2  51 8 0 0 4
6  65 16 0
6  66 14 0
6  67 12 0
0

0101000
+82 0 -75 5 *
Ed
 1e-07 1 1 0
1  13 0 0 4
2  38 11 0 0 4
2  39 14 0 0 4
2  40 3 0 0 4
6  68 12 0
6  69 20 0
0

0101000
+75 5 -52 0 *
Wi

0101100
-47 0 -46 0 +50 0 +81 0 *
Fa
0  1e-07 3 0
2  12
0101000
+45 0 *
Ve
1e-07
10 10 0
0 0

0101101
*
Ed
 1e-07 1 1 0
1  18 0 6 10
2  50 3 0 6 10
2  51 8 0 6 10
6  70 14 0
6  71 24 0
6  72 27 0
0

0101000
+71 5 -43 0 *
Ve
1e-07
10 0 0
0 0

0101101
*
Ed
 1e-07 1 1 0
1  19 0 0 10
2  52 6 0 0 10
2  53 8 0 0 10
6  73 13 0
6  74 14 0
6  75 26 0
6  76 8 0
0

0101000
-43 0 +41 0 *
Ed
 1e-07 1 1 0
1  20 0 0 10
2  54 9 0 0 10
2  55 8 0 0 10
6  77 13 0
6  78 15 0
6  79 14 0
0

0101000
-41 0 +80 0 *
Wi

0101100
-47 0 -72 5 -70 5 -42 0 +40 0 +39 0 -79 0 *
Fa
0  1e-07 8 0
2  14
0111000
+38 0 *
Ed
 1e-07 1 1 0
1  21 0 0 10
2  56 6 0 0 10
2  57 9 0 0 10
6  80 15 0
6  81 26 0
6  82 8 0
0

0101000
-67 0 +41 0 *
Wi

0101100
-39 0 -36 0 +65 0 +78 0 *
Fa
0  1e-07 9 0
2  15
0111000
+35 0 *
Ed
 1e-07 1 1 0
1  22 0 5 10
2  58 11 0 5 10
2  59 12 0 5 10
6  83 19 0
6  84 22 0
0

0101000
+57 0 -73 7 *
Wi

0101100
-56 0 -33 0 +72 7 +60 0 *
Fa
0  1e-07 11 0
2  19
0101000
+32 0 *
Ve
5.1e-06
6 10 6
0 0

0101101
*
Ed
 5.1e-06 1 1 0
1  23 0 0.962250448649377 6.15840287135601
2  60 12 0 0.962250448649377 6.15840287135601
2  61 5 0 0.962250448649377 6.15840287135601
6  85 22 0
6  86 9 0
0

0101000
+57 0 -30 0 *
Ed
 1e-07 1 1 0
1  24 0 6 10
2  62 12 0 6 10
2  63 14 0 6 10
2  64 3 0 6 10
6  87 22 0
6  88 25 0
0

0101000
+30 0 -71 7 *
Wi

0101100
-29 0 -28 0 +70 7 +33 0 *
Fa
0  1e-07 12 0
2  22
0101000
+27 0 *
Ed
 1e-07 1 1 0
1  12 0 6 10
2  35 5 0 6 10
2  36 13 0 6 10
2  65 3 0 6 10
6  89 25 0
6  90 9 0
0

0101000
+30 0 -88 10 *
Ed
 1e-07 1 1 0
1  25 0 6 10
2  66 6 0 6 10
2  67 3 0 6 10
6  91 25 0
6  92 8 0
0

0101000
+88 10 -69 0 *
Wi

0101100
-25 0 -24 0 +68 0 +28 0 *
Fa
0  1e-07 3 0
2  25
0101000
+23 0 *
Ed
 1e-07 1 1 0
1  25 0 0 4
2  66 6 0 0 4
2  67 3 0 0 4
6  93 8 0
6  94 27 0
0

0101000
+43 0 -84 10 *
Wi

0101100
-66 0 +24 0 +85 10 +83 10 +21 0 +40 0 -36 0 *
Fa
0  1e-07 6 0
2  8
0101000
+20 0 *
Ed
 1e-07 1 1 0
1  22 0 0 5
2  58 11 0 0 5
2  59 12 0 0 5
6  95 20 0
6  96 23 0
0

0101000
+73 5 -57 0 *
Wi

0101100
-72 5 -18 0 -51 0 +46 0 *
Fa
0  1e-07 11 0
2  20
0101000
+17 0 *
Ve
5.10000000044409e-06
6 10 4
0 0

0101101
*
Ed
 1e-07 1 1 0
1  24 0 0 4
2  62 12 0 0 4
2  63 14 0 0 4
2  64 3 0 0 4
6  97 23 0
6  98 27 0
0

0101000
+71 5 -15 0 *
Ed
 5.1e-06 1 1 0
1  26 0 -2.69430125621825 2.50185116648838
2  68 12 0 -2.69430125621825 2.50185116648838
2  69 7 0 -2.69430125621825 2.50185116648838
6  99 23 0
6  100 11 0
0

0101000
+15 0 -57 0 *
Wi

0101100
-70 5 -14 0 -13 0 +18 0 *
Fa
0  1e-07 12 0
2  23
0101000
+12 0 *
Ed
 1e-07 1 1 0
1  17 0 6 10
2  47 7 0 6 10
2  48 13 0 6 10
2  70 3 0 6 10
6  101 27 0
6  102 11 0
0

0101000
+15 0 -84 10 *
Wi

0101100
-42 0 -21 0 +10 0 +14 0 *
Fa
0  1e-07 3 0
2  27
0101000
+9 0 *
Ed
 1e-07 1 1 0
1  15 0 5 10
2  43 5 0 5 10
2  44 7 0 5 10
6  103 9 0
6  104 11 0
0

0101000
+57 0 -86 10 *
Wi

0101100
-29 0 -25 0 +85 10 +7 0 *
Fa
0  1e-07 5 0
2  9
0101000
+6 0 *
Wi

0101100
-13 0 -7 0 +83 10 +10 0 *
Fa
0  1e-07 7 0
2  11
0101000
+4 0 *
Sh

0101100
-76 0 +63 0 +58 0 -53 0 -48 0 +44 0 -37 0 -34 0 +31 0 +26 0 
+22 0 +19 0 +16 0 +11 0 +8 0 -5 0 -3 0 *
So

0100000
+2 0 *

+1 0 